<?xml version="1.0" standalone="no"?>
<!DOCTYPE svg PUBLIC "-//W3C//DTD SVG 20010904//EN"
 "http://www.w3.org/TR/2001/REC-SVG-20010904/DTD/svg10.dtd">
<svg version="1.0" xmlns="http://www.w3.org/2000/svg"
 width="474.000000pt" height="702.000000pt" viewBox="0 0 474.000000 702.000000"
 preserveAspectRatio="xMidYMid meet">
<metadata>
Created by potrace 1.16, written by Peter Selinger 2001-2019
</metadata>
<g transform="translate(0.000000,702.000000) scale(0.100000,-0.100000)"
fill="#000000" stroke="none">
<path d="M4720 5621 c0 -407 -4 -742 -8 -745 -5 -3 -22 -1 -38 3 l-29 8 26 11
c15 6 29 18 33 27 9 23 8 25 -9 25 -8 0 -15 -7 -15 -15 0 -8 -4 -15 -10 -15
-5 0 -10 4 -10 9 0 5 -9 11 -21 14 -17 5 -18 3 -7 -10 11 -14 10 -16 -13 -10
-20 5 -25 3 -24 -11 0 -10 4 -23 9 -30 6 -10 1 -11 -19 -6 -22 5 -26 3 -23
-12 5 -33 41 -58 50 -35 2 4 12 5 23 1 18 -7 18 -9 -8 -19 -16 -6 -25 -16 -22
-21 3 -6 -2 -13 -12 -16 -10 -3 -25 -9 -34 -14 -19 -10 -43 5 -52 31 -4 13 2
18 22 21 24 3 27 1 23 -16 -3 -12 -1 -17 6 -12 13 8 7 49 -8 54 -6 2 -8 7 -5
11 2 4 -20 8 -49 7 -47 0 -52 -2 -48 -20 4 -16 1 -18 -21 -14 -30 6 -31 5 -16
-24 7 -14 17 -18 33 -14 15 4 25 -1 33 -14 11 -17 9 -18 -30 -15 -28 3 -37 1
-27 -5 8 -5 23 -7 33 -4 9 3 17 1 17 -5 0 -6 -5 -11 -12 -11 -6 0 -8 -3 -5 -6
4 -4 13 -1 21 5 9 7 17 8 20 2 3 -5 0 -11 -6 -14 -10 -3 -9 -9 4 -22 16 -17
19 -17 51 -1 43 20 51 20 66 2 9 -11 9 -15 -1 -18 -9 -3 -9 -6 0 -12 7 -4 12
-2 12 3 0 6 10 11 23 12 15 0 17 2 7 6 -8 3 -18 11 -22 17 -11 16 32 24 65 12
24 -9 27 -15 27 -59 0 -46 -1 -47 -22 -36 -30 16 -83 16 -102 -1 -19 -15 -21
0 -3 19 10 10 8 12 -8 10 -11 -1 -28 1 -38 6 -10 4 -28 3 -40 -3 -21 -10 -21
-11 8 -17 18 -4 35 -16 42 -32 10 -20 10 -24 -2 -19 -8 3 -27 -1 -41 -9 -32
-16 -46 -11 -37 12 5 12 2 15 -9 11 -9 -4 -20 -2 -26 4 -14 14 -13 -31 1 -49
21 -28 -52 -3 -90 31 -13 11 -23 16 -23 12 0 -5 -7 -3 -15 4 -20 17 -31 5 -15
-16 12 -13 11 -17 -1 -25 -10 -6 -7 -9 14 -9 16 0 26 -5 25 -12 -2 -8 9 -14
25 -16 21 -3 27 -9 27 -27 0 -32 17 -41 39 -21 22 20 35 21 27 1 -8 -21 20
-31 39 -15 12 10 15 9 15 -4 0 -9 -7 -16 -15 -16 -8 0 -15 -5 -15 -11 0 -6 7
-8 16 -5 8 3 12 2 9 -4 -8 -13 1 -13 26 1 11 6 25 8 32 6 7 -3 -1 -10 -17 -16
-33 -13 -30 -21 12 -26 19 -2 37 3 50 16 29 26 36 24 16 -6 -18 -28 -8 -35 12
-7 12 15 13 14 11 -13 -1 -19 2 -29 11 -27 6 1 12 -5 12 -13 0 -18 12 -19 28
-3 13 13 16 1 6 -26 -4 -11 -14 -14 -33 -10 -20 5 -24 4 -14 -6 12 -13 7 -40
-8 -40 -4 0 -6 6 -3 13 6 17 -29 61 -45 56 -8 -3 -5 -11 9 -26 24 -26 25 -33
6 -33 -14 0 -26 20 -33 55 -5 25 -27 39 -31 20 -2 -8 -8 -15 -13 -15 -5 0 -9
-7 -9 -16 0 -11 6 -15 20 -11 22 6 35 -19 24 -47 -7 -18 20 -22 44 -7 14 8 62
-8 62 -21 0 -14 -22 -20 -30 -8 -6 10 -9 9 -14 -1 -5 -11 -7 -11 -12 -2 -4 8
-15 11 -32 7 -39 -9 -51 -24 -21 -24 14 0 29 -3 33 -7 4 -5 22 -8 38 -8 22 0
32 -5 34 -18 1 -10 8 -25 15 -33 12 -14 14 -14 20 3 5 12 7 6 7 -19 -1 -36
-32 -78 -58 -78 -6 0 -10 -4 -10 -10 0 -5 -10 -10 -22 -10 -13 0 -29 -4 -37
-9 -13 -8 -13 -12 -1 -26 12 -15 12 -19 -3 -30 -10 -7 -26 -12 -35 -10 -9 1
-12 0 -5 -2 6 -2 14 -11 17 -19 4 -12 1 -14 -14 -9 -11 3 -32 0 -47 -8 -31
-16 -69 -32 -93 -40 -10 -3 -16 2 -16 13 0 10 5 16 11 14 5 -3 1 2 -9 10 -11
9 -15 16 -9 16 6 0 9 9 6 21 -6 21 -7 21 -20 -5 -9 -17 -20 -25 -29 -22 -16 6
-64 -13 -64 -26 0 -4 -7 -8 -15 -8 -9 0 -15 9 -15 23 0 12 -5 29 -11 37 -9 13
-10 12 -5 -3 3 -9 -2 -26 -11 -37 -21 -24 -33 -26 -33 -5 0 8 4 15 10 15 5 0
7 7 3 16 -6 15 -8 15 -20 -2 -9 -12 -13 -13 -13 -4 0 7 -3 10 -6 7 -4 -4 -1
-13 6 -22 11 -14 7 -19 -12 -16 -5 0 -8 -3 -8 -8 0 -5 -12 -17 -27 -26 -16
-10 -22 -12 -15 -4 6 7 12 21 12 31 0 10 -6 18 -12 18 -9 0 -8 4 2 10 12 8 11
10 -7 10 -12 0 -24 6 -27 13 -3 6 -3 1 0 -13 4 -14 13 -29 21 -33 12 -7 9 -12
-13 -23 -24 -13 -29 -13 -36 1 -11 19 -28 20 -28 0 0 -24 -20 -17 -21 8 -1 16
-2 18 -6 5 -5 -19 -33 -25 -33 -8 0 6 -4 10 -10 10 -5 0 -7 -7 -3 -17 5 -13 2
-15 -14 -11 -12 3 -27 2 -34 -3 -14 -9 2 -13 41 -10 8 0 3 -5 -13 -12 -30 -14
-26 -27 7 -28 21 0 21 -1 1 -9 -37 -16 -54 -11 -57 17 -2 19 -10 29 -30 34
-16 4 -30 3 -34 -2 -3 -5 0 -9 7 -9 7 0 10 -2 7 -5 -11 -12 -38 8 -38 29 -1
19 -1 20 -11 3 -10 -18 -12 -18 -30 -1 -21 19 -25 38 -6 32 6 -3 20 4 30 14
19 20 16 23 -11 9 -9 -5 -25 -12 -34 -15 -11 -3 -18 -15 -18 -31 0 -14 -5 -25
-11 -25 -6 0 -9 6 -6 14 3 8 -5 18 -19 25 -13 6 -24 18 -24 27 0 12 -6 15 -25
10 -18 -5 -25 -2 -25 8 0 10 6 13 15 10 11 -4 15 1 15 17 0 22 -1 22 -31 -7
-29 -27 -31 -28 -44 -11 -8 12 -15 14 -20 7 -3 -5 -10 -8 -15 -5 -5 3 -11 1
-14 -4 -4 -5 -2 -13 4 -16 18 -11 -8 -34 -30 -28 -15 4 -20 0 -20 -15 0 -11
-7 -26 -16 -33 -15 -12 -16 -11 -10 11 4 14 10 33 13 43 3 11 -5 27 -22 43
-15 14 -24 31 -21 39 5 13 -30 33 -40 22 -3 -3 -17 6 -31 19 -14 13 -28 22
-31 19 -9 -9 32 -75 46 -75 7 0 11 4 8 9 -4 5 0 8 6 7 23 -3 23 -21 1 -24 -25
-4 -30 -17 -10 -26 6 -4 1 -4 -13 -1 -14 2 -33 5 -42 5 -11 0 -18 8 -18 20 0
20 -13 25 -53 20 -10 -1 -28 5 -40 13 -12 7 -50 19 -83 26 -36 8 -73 23 -89
37 -16 13 -34 24 -42 24 -7 0 -13 6 -13 13 0 18 -48 59 -55 47 -3 -4 1 -10 7
-13 18 -6 5 -18 -24 -21 -43 -4 -51 -16 -24 -37 13 -10 29 -19 35 -19 6 0 11
-8 11 -18 0 -10 6 -24 13 -31 10 -10 8 -11 -8 -5 -17 7 -18 6 -7 -8 10 -13 9
-18 -5 -29 -16 -13 -17 -12 -4 4 12 15 11 17 -10 18 -13 0 -18 3 -11 6 21 8
13 21 -10 16 -13 -3 -20 -2 -15 2 9 10 -21 45 -40 45 -7 0 -13 -4 -13 -10 0
-5 -7 -10 -15 -10 -8 0 -15 -7 -15 -15 0 -18 -17 -20 -23 -2 -3 9 -7 9 -20 -1
-9 -8 -13 -20 -10 -28 7 -20 -4 -17 -27 6 -11 11 -28 20 -37 20 -13 0 -14 -3
-5 -12 18 -18 14 -28 -12 -28 -21 0 -23 4 -21 33 2 17 3 40 4 51 1 12 6 16 16
12 9 -3 19 3 26 15 14 26 1 40 -15 16 -16 -21 -26 -22 -26 -2 0 9 7 18 15 21
11 5 12 11 4 26 -10 18 -8 19 23 13 41 -8 96 11 80 27 -8 8 -15 6 -27 -6 -18
-18 -45 -22 -45 -6 0 6 9 10 19 10 11 0 23 5 26 10 3 6 17 10 31 10 17 0 24 5
24 19 0 25 -7 29 -61 36 -38 5 -41 4 -19 -6 14 -6 30 -12 37 -13 22 -4 27 -16
7 -16 -10 0 -30 -3 -43 -7 -20 -5 -23 -3 -18 10 9 24 -6 21 -21 -4 l-13 -21
-24 22 c-14 13 -24 36 -27 61 -3 35 -2 38 17 33 16 -4 17 -3 5 5 -12 9 -11 11
9 11 19 0 22 -4 18 -22 -5 -19 -2 -23 19 -24 24 -2 25 -1 8 17 -10 11 -12 19
-5 19 8 0 8 5 -1 20 -8 12 -15 15 -19 9 -5 -8 -9 -8 -13 0 -4 6 -2 11 3 11 24
0 9 18 -20 24 -25 5 -36 1 -51 -16 -14 -17 -21 -19 -27 -10 -4 8 -15 10 -26 6
-12 -5 -16 -4 -11 4 4 7 -4 14 -21 18 -15 4 -33 11 -40 16 -7 5 -17 7 -23 3
-5 -3 -10 -1 -10 4 0 6 8 11 18 11 16 1 16 1 0 14 -22 16 -23 27 -3 20 19 -8
19 3 1 22 -18 17 -27 18 -21 2 8 -22 -11 -42 -31 -33 -11 5 -25 7 -31 6 -24
-4 -13 19 11 25 16 4 23 11 19 20 -8 22 66 15 78 -8 5 -10 16 -18 24 -18 19 0
36 -34 28 -57 -6 -16 -5 -16 10 -4 15 12 15 15 2 34 -19 27 -19 41 -2 34 10
-4 14 6 14 36 l1 42 -10 -32 c-18 -54 -58 -55 -58 -2 0 25 -3 29 -27 28 -17
-1 -21 -3 -10 -6 29 -8 19 -23 -15 -23 -34 -1 -73 -22 -61 -33 3 -4 1 -7 -5
-7 -7 0 -12 9 -12 19 0 10 -6 21 -14 24 -9 4 -12 14 -9 26 3 12 1 21 -6 21 -6
0 -11 -9 -11 -20 0 -12 -7 -20 -16 -20 -20 0 -47 27 -39 40 10 16 -11 12 -25
-5 -10 -12 -9 -16 3 -21 23 -8 9 -44 -17 -41 -12 1 -20 -3 -19 -10 2 -8 -4
-10 -14 -6 -11 4 -13 8 -5 11 19 6 14 23 -5 20 -12 -2 -18 3 -17 15 1 13 -6
17 -28 17 -17 0 -27 4 -23 10 3 6 -2 10 -11 10 -10 0 -14 -3 -11 -6 11 -12
-13 -43 -28 -38 -8 4 -15 2 -15 -4 0 -6 6 -12 12 -14 21 -7 -5 -51 -30 -53
-12 -1 -22 2 -22 7 0 4 -4 8 -10 8 -23 0 -7 -19 25 -30 24 -8 37 -19 41 -36
14 -56 -15 -90 -84 -98 -35 -4 -65 -32 -57 -54 7 -18 -20 -26 -42 -12 -16 9
-15 10 6 4 20 -5 23 -4 17 12 -5 13 0 24 16 36 21 17 22 19 6 31 -11 9 -14 18
-8 28 5 8 7 23 4 34 -4 16 -3 17 5 5 6 -8 11 -11 11 -6 0 5 6 4 13 -1 12 -10
57 -15 57 -8 0 3 -15 11 -34 19 -41 17 -60 48 -51 83 4 18 3 23 -7 17 -7 -4
-9 -3 -5 1 8 9 13 11 62 21 47 9 74 25 68 40 -3 8 -12 14 -20 14 -10 0 -13 6
-9 16 3 9 6 20 6 25 0 5 15 15 33 23 30 13 30 14 8 15 -16 1 -22 4 -15 11 5 5
20 7 32 3 17 -4 22 -11 18 -24 -20 -64 -24 -59 43 -56 55 3 80 -5 50 -15 -8
-3 -8 -10 2 -26 14 -22 39 -30 39 -12 0 6 -5 10 -11 10 -5 0 -7 5 -3 12 4 7 9
22 10 34 2 17 -2 21 -12 17 -11 -4 -14 1 -12 20 2 15 7 29 11 33 20 21 -4 27
-32 9 -10 -5 -16 -4 -19 3 -2 7 -10 12 -18 12 -8 0 -14 5 -14 10 0 6 5 10 10
10 6 0 10 5 10 10 0 18 -22 10 -27 -10 -3 -11 -9 -20 -14 -20 -5 0 -6 7 -3 15
4 9 0 15 -9 15 -8 0 -17 -5 -19 -11 -3 -8 -20 -4 -52 10 -26 12 -55 20 -64 18
-15 -4 -15 -5 1 -6 9 0 17 -5 17 -11 0 -6 -19 -8 -45 -5 -25 2 -45 2 -45 -1 0
-10 46 -21 56 -13 7 6 15 0 24 -16 11 -21 10 -28 -6 -52 -10 -15 -18 -33 -19
-39 0 -14 -48 -84 -57 -84 -4 0 -5 -7 -2 -15 4 -8 9 -13 13 -11 11 7 11 -67 0
-101 -6 -18 -15 -33 -21 -33 -7 0 -9 -15 -5 -39 l5 -38 -35 7 c-44 10 -54 20
-21 20 14 0 28 7 32 15 6 17 -2 19 -23 6 -9 -6 -29 -4 -54 5 -41 15 -62 11
-50 -9 3 -7 -3 -3 -15 7 -12 11 -22 24 -21 30 0 6 3 6 6 -1 2 -7 11 -13 19
-13 12 0 12 5 -2 32 -20 38 -14 101 12 129 23 26 72 38 106 27 30 -11 78 7 86
30 3 11 0 12 -17 3 -16 -9 -20 -9 -15 2 6 16 -25 19 -43 5 -8 -6 -19 -6 -30 1
-17 10 -16 10 4 11 27 0 39 18 24 33 -8 8 -14 8 -23 -1 -17 -17 -28 -15 -21 6
3 9 3 14 -2 10 -4 -4 -14 -3 -21 3 -18 14 -35 2 -27 -19 6 -15 5 -15 -10 -3
-12 9 -17 10 -17 2 0 -7 -5 -9 -11 -5 -8 5 -6 10 5 16 20 11 21 24 0 32 -8 3
-12 2 -9 -4 3 -6 -1 -13 -10 -16 -9 -4 -13 -13 -10 -24 3 -9 -1 -22 -9 -29
-15 -13 -19 -58 -5 -67 5 -3 9 -45 9 -94 0 -69 -3 -89 -15 -94 -35 -13 -45 4
-45 74 0 71 -9 86 -42 68 -14 -7 -18 -22 -18 -73 l0 -65 -35 0 c-34 0 -35 1
-36 43 0 23 0 66 1 96 1 49 -8 70 -31 71 -9 0 -8 -153 0 -165 17 -22 20 -44 6
-38 -8 3 -18 -2 -21 -11 -6 -16 -8 -16 -25 0 -17 15 -21 15 -42 1 -21 -14 -27
-14 -55 0 -34 17 -47 42 -37 73 3 11 2 20 -3 20 -5 0 -12 -9 -15 -20 -3 -11
-12 -20 -21 -20 -10 0 -13 6 -10 15 4 8 10 12 15 9 5 -3 9 0 9 5 0 6 -3 11 -7
11 -5 0 -9 12 -9 28 l-1 27 12 -29 c8 -18 15 -24 19 -17 8 13 -28 64 -38 54
-3 -3 -6 -17 -6 -30 0 -12 -4 -23 -10 -23 -5 0 -9 -3 -9 -7 3 -20 -2 -24 -15
-14 -12 10 -13 8 -9 -10 4 -15 3 -20 -5 -15 -8 5 -12 -3 -12 -23 0 -26 -4 -31
-25 -31 -14 0 -28 7 -31 15 -4 8 -10 12 -15 9 -13 -7 -11 3 4 26 10 17 9 22
-3 30 -9 6 -16 6 -18 0 -2 -6 -9 -10 -15 -10 -8 0 -7 4 1 12 16 16 15 28 -2
28 -16 0 -28 -37 -15 -46 5 -3 6 -11 2 -17 -4 -7 -8 -19 -8 -27 0 -9 -11 -16
-27 -18 -24 -3 -28 1 -34 34 -6 30 -9 35 -18 22 -6 -8 -17 -13 -24 -10 -11 3
-12 0 -3 -17 10 -18 8 -21 -13 -27 -17 -4 -23 -11 -20 -22 5 -14 3 -14 -9 1
-21 25 -53 18 -50 -11 4 -32 -13 -27 -20 6 -12 53 -20 56 -75 28 -56 -28 -66
-31 -57 -16 3 6 -1 7 -9 4 -9 -3 -16 -1 -16 5 0 6 -7 8 -15 5 -11 -5 -13 -10
-5 -19 7 -8 7 -21 1 -36 -10 -25 -12 -22 -14 21 -2 23 -7 26 -58 31 -96 10
-136 55 -143 159 -2 22 1 43 5 46 15 9 10 24 -6 18 -12 -5 -14 1 -11 25 3 25
0 31 -15 31 -10 0 -21 5 -25 11 -5 9 1 10 20 5 14 -3 26 -4 26 0 0 16 -71 75
-87 72 -12 -2 -19 4 -21 19 -3 18 -9 21 -40 18 -35 -2 -62 12 -62 34 0 20 18
11 24 -11 6 -21 8 -21 19 -6 9 12 18 14 30 7 13 -8 17 -6 17 7 0 13 3 14 14 5
18 -15 27 -1 19 28 -8 31 -50 46 -72 27 -21 -19 -91 -18 -91 1 0 7 5 13 10 13
6 0 10 9 10 20 0 11 -4 20 -10 20 -5 0 -7 -7 -4 -15 4 -9 0 -15 -10 -15 -9 0
-16 -4 -16 -10 0 -5 -7 -10 -16 -10 -11 0 -14 6 -9 20 6 18 -3 25 -27 21 -5 0
-8 5 -8 13 0 8 -6 17 -12 19 -10 4 -10 6 0 6 6 1 12 8 12 16 0 22 16 18 38
-10 17 -21 21 -23 32 -10 13 16 5 35 -15 35 -8 0 -17 10 -20 23 -6 22 -46 34
-44 12 1 -5 1 -17 -1 -25 -1 -11 -4 -9 -10 5 -5 11 -9 -674 -9 -1571 -1 -1507
0 -1592 17 -1599 15 -6 15 -8 2 -18 -23 -17 -27 -154 -6 -182 17 -22 22 -95 7
-95 -5 0 -12 10 -14 23 -3 14 -5 10 -6 -13 0 -20 5 -42 12 -49 9 -11 9 -13 0
-7 -10 5 -13 -4 -12 -36 0 -24 3 -37 6 -30 6 16 23 16 23 -1 0 -7 9 -18 20
-25 17 -10 23 -9 40 8 25 25 42 25 58 0 7 -12 17 -18 23 -14 7 4 5 12 -5 23
-9 10 -16 23 -16 29 0 7 -7 9 -17 5 -13 -5 -15 -2 -10 11 4 10 2 26 -3 37 -6
10 -7 19 -3 19 5 0 13 -10 18 -22 16 -36 39 -33 54 7 7 19 9 44 6 55 -8 25 30
43 57 27 11 -8 20 -8 30 0 23 19 131 10 161 -14 31 -24 35 -35 11 -31 -10 2
-19 -3 -21 -9 -3 -9 7 -13 31 -13 41 0 46 -6 50 -58 1 -21 6 -44 10 -50 4 -7
5 -21 1 -31 -5 -16 -2 -18 15 -14 18 5 20 11 14 37 -3 17 -11 36 -16 43 -6 7
-5 14 2 18 6 3 8 11 5 16 -8 12 17 37 33 31 20 -6 13 15 -11 31 -12 8 -18 18
-13 23 5 5 11 4 13 -3 3 -7 13 -13 23 -13 20 0 52 -38 44 -52 -3 -4 6 -8 19
-8 27 0 42 -32 27 -59 -10 -20 5 -51 25 -51 18 0 20 17 3 22 -9 3 -8 11 4 29
15 23 15 26 0 36 -15 9 -13 12 11 18 22 6 33 3 50 -16 21 -22 22 -22 26 -4 2
11 8 26 13 32 7 9 7 13 -1 13 -19 0 -12 17 10 23 16 4 20 10 14 24 -5 10 -9
35 -9 56 -1 21 -8 42 -16 47 -18 11 -6 25 15 17 9 -4 15 -19 15 -37 0 -32 8
-37 29 -18 11 10 14 10 18 1 3 -7 16 -13 29 -13 13 0 24 -4 24 -8 0 -5 -10 -8
-22 -8 -24 1 -25 -5 -13 -61 4 -18 12 -23 38 -23 24 0 28 -3 17 -10 -8 -5 -25
-10 -38 -10 -28 0 -39 -25 -19 -45 22 -22 40 -19 32 6 -6 18 -5 19 14 7 20
-12 20 -13 1 -30 -12 -11 -30 -16 -48 -14 -35 4 -81 -17 -62 -29 9 -6 9 -9 -1
-16 -9 -6 -10 -9 -2 -9 6 0 18 7 27 15 20 20 26 19 26 -5 0 -11 5 -21 10 -21
6 -1 15 -2 21 -3 6 0 13 -16 14 -34 2 -24 -1 -32 -14 -32 -14 -1 -14 -2 1 -14
16 -11 15 -14 -8 -39 -19 -20 -21 -27 -9 -27 8 0 15 -5 15 -10 0 -6 11 -8 25
-4 15 4 25 2 25 -5 0 -6 -9 -11 -20 -11 -13 0 -17 -5 -14 -14 4 -11 -2 -13
-28 -9 l-33 5 23 -24 c12 -13 22 -33 22 -44 0 -11 5 -25 12 -32 17 -17 0 -28
-22 -14 -24 15 -50 16 -50 2 0 -5 7 -10 16 -10 14 0 14 -1 0 -16 -9 -8 -20
-13 -25 -10 -5 3 -14 -1 -21 -9 -21 -26 -50 -19 -51 13 -1 22 -2 23 -6 5 -2
-12 3 -33 12 -47 10 -16 14 -33 10 -47 -5 -13 -3 -19 3 -15 11 7 35 -18 26
-27 -3 -3 -16 -2 -29 3 -13 5 -26 6 -29 3 -3 -4 -6 2 -7 13 0 17 -1 16 -9 -3
-5 -13 -15 -23 -21 -23 -8 0 -8 -4 1 -15 7 -8 18 -15 24 -15 6 0 17 -9 23 -19
12 -19 10 -20 -41 -15 -29 2 -71 11 -92 19 -29 11 -32 14 -12 12 17 -3 29 1
32 10 3 8 1 11 -4 8 -6 -3 -11 4 -11 17 -1 13 -3 33 -4 46 -1 14 3 22 14 23
12 0 11 2 -4 9 -27 12 -37 12 -30 1 3 -5 1 -12 -4 -15 -5 -4 -12 2 -14 11 -4
17 -5 17 -6 1 0 -10 -6 -18 -12 -18 -6 0 -8 -8 -4 -19 4 -13 -2 -26 -15 -39
l-21 -19 21 -6 c11 -3 20 -11 20 -17 0 -7 -7 -10 -16 -6 -9 3 -22 6 -29 6 -16
0 -30 69 -17 82 6 6 16 3 26 -8 24 -23 33 -9 11 16 -16 18 -17 24 -7 41 16 25
-3 25 -20 0 -11 -15 -24 -18 -68 -16 -30 2 -59 4 -65 5 -21 5 -36 0 -30 -10 3
-5 -9 -7 -32 -4 -41 5 -55 20 -47 47 9 30 -11 19 -23 -13 -9 -24 -17 -30 -40
-29 -24 0 -25 1 -8 9 19 7 19 8 2 15 -14 6 -15 10 -6 21 9 11 8 14 -5 14 -9 0
-16 4 -16 8 0 5 -11 14 -25 20 -14 6 -25 19 -25 27 0 9 -11 36 -24 59 l-24 44
25 0 c16 0 20 -3 13 -8 -18 -11 -3 -30 20 -27 23 4 39 17 21 17 -8 0 -11 8 -8
20 4 17 0 22 -24 27 -16 3 -28 11 -26 17 2 6 0 23 -4 39 -6 23 -4 29 19 42 23
13 23 15 5 10 -14 -4 -23 -2 -23 4 0 6 5 11 10 11 11 0 10 59 -1 66 -4 2 -12
-3 -19 -11 -7 -8 -19 -15 -27 -15 -10 0 -12 -6 -8 -20 4 -14 2 -20 -8 -20 -8
0 -17 9 -20 21 -6 24 -32 21 -32 -4 0 -8 -4 -19 -8 -23 -11 -12 -8 -24 7 -24
21 0 27 -27 11 -44 -8 -8 -15 -17 -15 -20 0 -11 39 -6 46 6 4 6 3 8 -3 5 -7
-4 -10 5 -8 24 1 17 8 35 16 40 19 12 29 11 29 -1 0 -5 -10 -10 -22 -10 -21 0
-21 0 3 -21 16 -15 20 -23 12 -26 -8 -3 -11 -14 -7 -29 4 -15 2 -24 -5 -24 -6
0 -11 4 -11 8 0 5 -12 7 -28 4 l-27 -4 -3 -160 c-2 -110 0 -163 8 -168 8 -5 8
-15 0 -35 -6 -15 -10 -80 -9 -145 l1 -117 61 -7 c34 -4 75 -8 90 -10 15 -2 51
3 79 11 29 7 54 9 57 5 4 -4 22 -8 41 -9 32 -1 749 -3 829 -2 19 0 37 -4 40
-9 7 -10 51 -11 45 0 -3 4 0 8 5 8 6 0 11 -5 11 -11 0 -6 8 -9 18 -7 9 2 16 8
14 13 -4 11 37 24 55 18 6 -3 9 -15 7 -29 -2 -13 0 -24 6 -24 5 0 11 6 11 13
1 6 2 19 3 27 0 8 12 17 26 19 14 1 28 8 32 14 5 8 10 7 20 -1 9 -7 29 -9 51
-5 22 3 42 1 51 -6 11 -9 15 -9 18 1 4 10 8 11 20 1 8 -7 18 -10 22 -6 12 12
87 14 102 2 10 -8 14 -8 14 0 0 6 8 11 18 11 14 0 15 -2 2 -10 -8 -5 -11 -10
-6 -10 5 0 3 -7 -4 -15 -13 -16 0 -21 16 -6 16 16 74 17 84 2 6 -11 12 -12 22
-3 8 6 27 10 43 9 20 -1 30 3 30 13 0 8 9 16 19 18 15 3 17 0 12 -14 -6 -18
-5 -18 8 -1 17 22 84 24 92 2 8 -20 24 -19 24 1 0 11 5 14 16 10 9 -3 52 -6
96 -6 67 0 79 -2 74 -15 -3 -9 0 -15 10 -15 8 0 12 5 9 10 -3 6 0 10 8 10 16
0 30 -26 22 -40 -2 -4 7 -7 21 -7 15 0 30 -6 34 -13 10 -17 31 -3 23 16 -4 12
-1 13 20 5 29 -11 37 -6 38 23 0 16 4 13 15 -12 8 -18 20 -31 27 -29 13 5 13
11 2 39 -5 13 -2 18 10 18 9 0 13 -4 10 -10 -3 -5 -2 -10 4 -10 5 0 11 6 14
13 3 8 13 4 31 -13 27 -24 28 -24 41 -6 9 12 20 16 31 12 10 -4 21 -1 25 5 5
9 16 3 34 -19 27 -33 51 -43 42 -18 -3 8 2 16 14 19 10 3 19 1 19 -4 0 -15 27
-10 34 6 3 8 11 13 18 11 7 -1 10 -1 6 1 -11 7 -10 33 1 33 6 0 27 -10 47 -22
26 -15 39 -18 42 -10 5 16 22 15 22 -1 0 -9 12 -14 30 -15 17 0 30 5 30 11 0
7 17 13 38 14 158 9 162 9 162 -4 0 -8 12 -13 33 -13 29 1 30 2 12 12 -19 11
-18 12 10 18 35 7 324 -6 333 -15 4 -3 0 -11 -8 -16 -11 -8 6 -9 55 -4 39 4
93 6 120 5 28 -1 138 -3 245 -5 107 -2 242 -8 300 -15 182 -19 361 -24 370 -9
5 7 8 51 8 97 0 56 4 87 12 92 9 6 9 9 1 11 -8 3 -13 43 -14 125 -2 94 1 120
11 117 6 -3 12 2 12 10 0 8 -6 18 -12 20 -10 4 -9 8 2 16 10 7 11 11 3 11 -9
0 -13 19 -13 59 0 38 4 61 13 64 9 4 8 8 -3 16 -12 9 -13 12 -1 20 10 7 10 10
1 13 -20 6 -24 77 -4 85 13 5 13 7 2 14 -11 8 -11 10 1 18 11 7 11 9 0 14 -12
4 -11 7 1 16 10 7 11 11 3 11 -8 0 -13 14 -13 35 0 19 5 35 11 35 5 0 7 5 4
10 -4 6 -9 8 -13 6 -4 -2 -5 19 -3 47 2 29 8 55 15 59 8 6 8 8 -1 8 -8 0 -13
15 -13 39 0 22 5 42 13 44 10 4 10 6 0 6 -9 1 -13 22 -13 70 0 46 4 71 13 75
6 3 0 3 -15 0 -26 -6 -75 12 -64 23 3 4 2 11 -4 18 -11 13 37 15 58 2 9 -6 12
1 12 27 0 19 6 37 13 39 10 4 10 6 0 6 -16 1 -18 131 -3 131 6 0 10 11 10 25
0 14 -4 25 -10 25 -14 0 -12 27 3 33 10 4 10 6 0 6 -7 1 -13 10 -13 20 0 11 6
22 13 24 9 4 9 8 -2 15 -11 8 -11 10 0 15 12 4 11 7 -1 16 -10 7 -11 11 -2 11
8 0 12 19 12 59 0 38 -4 61 -12 64 -10 4 -10 6 0 6 7 1 12 16 12 41 0 25 -5
40 -12 40 -9 0 -8 4 2 10 13 9 13 11 0 21 -11 8 -12 12 -2 16 6 2 12 22 12 43
0 21 -6 41 -12 43 -10 4 -9 8 2 16 10 7 11 11 3 11 -7 0 -13 11 -13 24 0 13 6
27 13 29 9 4 8 8 -3 17 -11 9 -12 13 -2 17 6 2 12 15 12 28 0 13 -6 26 -12 29
-10 5 -10 7 0 12 7 3 12 26 12 59 0 33 -5 56 -12 59 -10 5 -10 7 0 12 6 3 12
16 12 29 0 13 -6 26 -12 28 -10 4 -10 6 0 6 6 1 12 10 12 20 0 11 -6 22 -12
24 -10 4 -10 6 0 6 7 1 12 17 12 45 0 26 -5 46 -12 49 -10 4 -10 6 0 6 9 1 12
39 12 155 0 114 -3 156 -12 159 -10 4 -10 6 0 6 9 1 12 51 12 216 0 221 -2
230 -39 206 -8 -5 -20 -7 -27 -4 -25 9 13 36 41 29 l25 -6 0 1300 c0 860 -3
1300 -10 1300 -7 0 -10 -253 -10 -739z m-4130 -1461 c0 -21 7 -43 15 -50 8 -7
15 -17 15 -22 0 -6 -7 -4 -16 3 -14 11 -16 10 -14 -6 1 -11 2 -59 1 -107 l-1
-86 -57 -1 c-112 0 -133 16 -133 100 0 32 7 47 30 71 27 26 36 30 70 25 22 -3
39 -2 38 1 0 4 0 32 1 63 1 54 2 56 26 51 21 -4 25 -10 25 -42z m1263 29 l22
0 -22 -11 c-20 -10 -28 -25 -25 -49 1 -4 -10 -10 -23 -13 -27 -7 -33 -33 -12
-55 8 -10 9 -12 0 -7 -9 5 -12 -15 -10 -79 2 -84 1 -86 -23 -92 -14 -4 -31
-13 -38 -22 -11 -14 -12 -13 -7 6 5 18 2 20 -14 16 -11 -3 -37 1 -58 8 -21 7
-41 12 -44 12 -3 -1 -6 3 -7 10 -1 20 -20 73 -21 60 -1 -8 -14 -13 -31 -13
-16 0 -30 -5 -30 -10 0 -6 6 -10 13 -9 28 3 34 -2 29 -26 -4 -23 -8 -25 -61
-25 -43 0 -62 5 -78 19 -12 11 -22 18 -24 16 -9 -8 2 108 12 126 13 24 49 39
95 39 28 0 38 -6 54 -32 11 -18 20 -42 21 -53 0 -14 3 -11 10 9 5 20 4 35 -3
45 -10 13 -10 14 2 4 11 -10 18 -9 37 9 17 15 35 22 63 21 l40 -1 0 54 c0 53
0 54 30 54 31 0 35 -8 31 -58 -2 -20 0 -21 18 -11 10 7 17 18 14 25 -2 6 0 15
6 18 6 4 9 12 7 19 -1 7 -1 9 1 5 3 -5 14 -8 26 -9z m-493 -143 c0 -151 0
-154 -22 -160 -13 -3 -26 -6 -30 -6 -5 0 -8 72 -8 160 l0 160 30 0 30 0 0
-154z m845 -11 l1 -160 -32 0 c-18 0 -30 3 -27 8 2 4 0 7 -6 7 -5 0 -12 -4
-15 -9 -7 -10 -73 5 -93 21 -7 6 -18 28 -23 49 -9 33 -8 47 9 84 21 47 48 62
96 53 24 -5 25 -4 25 54 l0 59 33 -3 32 -3 0 -160z m-1450 49 c20 -8 45 -56
45 -89 0 -24 -2 -25 -60 -25 -83 0 -79 -31 4 -34 24 -1 31 -5 31 -21 0 -17 -8
-20 -46 -23 -80 -5 -125 55 -99 133 18 55 71 79 125 59z m285 -4 c12 -7 13
-13 4 -27 -8 -13 -21 -17 -48 -15 -20 2 -36 1 -36 -2 0 -3 20 -15 45 -27 59
-28 70 -62 31 -96 -28 -23 -96 -32 -123 -15 -20 13 -4 54 18 47 11 -3 28 -7
38 -10 36 -10 33 15 -3 30 -56 24 -72 69 -36 105 22 22 83 27 110 10z m181 0
c10 -6 26 -24 34 -40 18 -35 21 -125 3 -114 -8 5 -9 2 -5 -10 4 -10 3 -15 -3
-11 -6 3 -20 -1 -32 -9 -12 -9 -33 -16 -46 -16 -31 0 -79 26 -92 49 -14 27
-12 81 3 111 22 44 92 64 138 40z m734 -4 c26 -19 40 -163 18 -185 -12 -11
-19 -12 -32 -4 -11 7 -23 8 -32 2 -18 -11 -60 -11 -78 0 -8 5 -17 29 -20 53
-5 38 -3 44 18 56 13 6 36 12 52 12 16 0 29 5 29 11 0 8 -13 9 -40 5 -37 -6
-40 -4 -46 20 -4 17 -2 29 7 35 22 14 103 10 124 -5z m2675 -251 c9 5 9 1 0
-16 -11 -19 -10 -24 4 -35 12 -9 14 -14 6 -19 -9 -6 -9 -9 0 -15 13 -8 -66
-45 -87 -41 -7 1 -13 -5 -13 -14 0 -13 -19 -20 -43 -16 -5 1 -6 -3 -3 -8 3 -5
-3 -20 -15 -32 -21 -24 -21 -24 -16 -2 3 13 -2 28 -11 35 -13 11 -15 10 -10
-4 8 -19 -25 -31 -41 -15 -17 17 -13 31 4 17 20 -17 32 -5 15 15 -11 13 -10
15 2 10 11 -4 15 2 15 24 0 17 -5 28 -10 24 -5 -3 -4 4 2 16 10 18 9 21 -6 21
-15 0 -16 2 -3 10 24 15 29 12 24 -15 -3 -20 1 -26 20 -31 16 -4 23 -11 19
-20 -10 -27 17 -14 36 17 12 20 21 26 24 17 4 -10 7 -10 16 2 8 12 12 12 29
-3 10 -9 24 -17 30 -17 17 0 2 32 -25 53 -26 21 -28 32 -10 52 10 12 14 12 24
-2 6 -8 17 -12 23 -8z m-911 -105 c-11 -6 -15 -18 -11 -35 5 -30 22 -34 22 -5
0 12 7 20 16 20 13 0 14 -3 4 -15 -6 -8 -9 -19 -5 -25 3 -5 -1 -10 -10 -10 -9
0 -15 -5 -13 -12 3 -7 17 -12 33 -13 22 0 30 -6 35 -24 3 -14 12 -26 20 -29
13 -3 13 -2 0 7 -10 7 -11 11 -2 11 6 0 12 7 12 15 0 8 5 15 10 15 6 0 10 -7
10 -15 0 -9 9 -15 22 -15 17 0 19 3 10 12 -7 7 -12 19 -11 28 0 10 2 11 6 3 2
-7 11 -13 19 -13 8 0 17 -7 20 -15 7 -18 30 -20 37 -2 3 6 6 0 6 -15 1 -18 -4
-28 -13 -28 -15 0 -16 -35 -2 -58 4 -7 4 -12 -1 -11 -18 3 -24 -2 -16 -13 13
-21 10 -58 -5 -58 -22 0 -8 -24 19 -31 13 -4 18 -7 10 -8 -8 -1 -22 -7 -30
-15 -13 -12 -25 -12 -62 -4 -41 10 -45 13 -41 35 4 23 3 24 -49 19 -49 -5 -52
-4 -29 7 14 7 24 21 24 30 -1 9 2 14 7 11 5 -3 9 -12 9 -20 0 -9 10 -14 28
-13 16 1 20 3 10 6 -19 5 -25 23 -8 23 6 0 10 9 10 20 0 11 -7 20 -15 20 -18
0 -20 17 -2 23 6 2 9 8 5 12 -4 4 -14 3 -21 -4 -8 -6 -22 -9 -31 -5 -9 3 -16
1 -16 -5 0 -6 5 -11 11 -11 5 0 7 -4 4 -10 -3 -5 -13 -10 -21 -10 -8 0 -12 5
-9 10 4 6 -5 10 -19 10 -14 0 -26 -6 -27 -12 0 -7 -4 -3 -9 10 -5 12 -16 22
-25 22 -8 0 -15 5 -15 11 0 6 7 9 15 5 13 -5 18 4 14 30 0 4 3 10 8 13 4 3 13
16 20 27 9 17 8 24 -5 38 -16 16 -16 17 3 14 20 -3 20 -1 8 45 -4 13 1 17 23
17 23 -1 26 -3 13 -10z m-1457 -867 c31 -30 35 -48 14 -56 -9 -4 -12 -14 -9
-26 5 -20 2 -21 -41 -15 -28 4 -51 2 -59 -4 -9 -8 -25 -8 -48 -3 -28 7 -115 8
-177 2 -9 -1 -11 -8 -7 -21 4 -11 2 -20 -4 -20 -16 0 -13 -21 5 -35 13 -9 5
-12 -45 -13 -63 -2 -86 14 -28 20 30 3 32 6 35 46 l3 42 50 0 c27 0 48 3 48 8
-1 4 -1 14 0 22 1 12 4 11 12 -3 7 -12 20 -17 37 -16 15 2 32 1 37 -2 20 -12
65 -19 65 -11 0 5 10 8 23 8 18 -1 22 4 22 28 1 16 6 31 12 33 6 2 9 13 6 23
-8 29 16 25 49 -7z m-692 -317 c0 -7 11 -16 25 -18 19 -4 25 -1 25 13 0 11 4
19 10 19 5 0 7 -7 4 -15 -4 -10 0 -15 15 -15 12 0 21 6 21 15 0 19 10 19 24 1
14 -19 261 -26 261 -8 0 7 5 11 10 10 6 -2 9 -6 7 -10 -3 -12 52 -10 64 2 6 6
24 4 49 -4 42 -14 72 -15 92 -3 6 4 15 3 18 -3 5 -8 11 -7 21 1 10 8 14 8 14
1 0 -6 6 -9 13 -7 6 3 26 1 42 -4 30 -9 19 -15 -22 -11 -18 1 -23 -4 -23 -22
1 -52 39 -70 93 -45 21 9 27 19 27 44 0 17 3 38 6 47 9 25 27 19 21 -6 -3 -13
-8 -34 -11 -46 -4 -18 -2 -22 9 -18 9 3 12 0 8 -9 -7 -19 23 -31 41 -16 8 7
54 14 103 16 48 2 97 6 108 8 11 3 41 6 66 6 40 1 45 4 45 22 -1 12 5 24 13
27 10 3 13 -2 9 -22 -5 -23 -1 -29 20 -37 14 -5 31 -8 38 -5 16 6 64 -31 64
-50 0 -8 -3 -13 -7 -13 -32 5 -53 -3 -53 -20 0 -25 10 -31 35 -20 17 6 17 8 3
8 -25 1 -23 16 2 18 14 1 20 -5 21 -20 1 -24 -2 -81 -4 -84 -1 -1 -40 -4 -87
-8 -46 -3 -86 -8 -89 -10 -2 -3 39 -5 93 -5 l97 0 -4 -37 c-4 -35 -7 -38 -38
-41 -19 -2 -38 -7 -44 -12 -5 -4 -39 -8 -75 -8 -48 -1 -60 2 -45 9 16 7 13 8
-10 3 -16 -4 -120 -9 -230 -12 -324 -9 -370 -9 -371 6 -3 23 -4 24 -19 12 -12
-10 -20 -9 -39 3 -22 15 -25 15 -30 1 -3 -9 -4 -20 0 -25 3 -5 -24 -9 -60 -9
-37 0 -66 4 -66 10 0 6 -15 10 -32 9 -32 -1 -32 -1 -8 -9 15 -5 -69 -8 -202
-7 -126 1 -228 6 -228 10 0 5 -12 6 -26 3 -14 -4 -32 -2 -39 4 -9 8 -15 8 -20
0 -10 -17 -258 -2 -268 16 -7 12 -10 12 -23 -1 -9 -8 -20 -12 -25 -9 -6 3 -18
3 -27 -1 -9 -4 -40 -8 -68 -8 l-50 -2 0 40 1 40 135 1 c280 3 323 4 318 10 -3
3 -106 6 -228 6 l-221 0 6 77 c10 103 8 101 110 101 50 1 75 10 76 28 0 10 3
12 6 5 2 -7 13 -13 23 -13 10 0 22 -4 25 -10 8 -13 155 -13 155 -1 0 5 16 8
35 5 25 -3 37 0 41 11 5 13 8 13 21 -1 13 -12 18 -13 24 -3 4 8 11 11 14 7 9
-8 65 11 65 23 0 5 7 9 15 9 8 0 15 5 15 10 0 20 -48 11 -53 -10 -5 -20 -27
-28 -27 -10 0 6 5 10 10 10 6 0 10 5 10 10 0 6 -9 10 -21 10 -11 0 -17 5 -14
10 3 6 21 10 40 10 19 0 45 4 59 10 17 6 26 6 26 0 0 -6 5 -10 10 -10 6 0 10
7 10 15 0 8 5 15 10 15 6 0 10 -6 10 -14z m91 -473 c33 -7 33 -7 9 -14 -22 -6
-20 -7 13 -8 20 -1 37 4 37 9 0 6 14 10 30 10 32 0 39 -16 15 -34 -13 -9 -14
-17 -5 -43 7 -19 17 -30 24 -27 16 6 46 -37 46 -66 0 -24 -25 -27 -38 -5 -7
13 -10 12 -20 -10 -7 -14 -20 -25 -31 -25 -11 0 -23 -4 -26 -10 -3 -5 -17 -10
-29 -10 -13 0 -35 -9 -49 -20 -14 -11 -34 -20 -45 -20 -12 0 -24 -4 -27 -10
-10 -17 -51 -7 -52 12 -1 10 2 16 8 13 5 -4 9 -1 9 4 0 6 -4 11 -10 11 -5 0
-10 7 -10 16 0 10 6 13 19 9 22 -7 46 19 35 37 -5 7 -9 17 -9 22 0 5 -6 11
-14 14 -10 3 -12 -2 -7 -22 3 -14 3 -26 -1 -25 -21 3 -33 -2 -33 -15 0 -8 -6
-17 -12 -19 -10 -4 -10 -7 0 -15 10 -7 10 -11 -3 -22 -13 -11 -19 -8 -17 11 1
4 -10 7 -24 7 -20 0 -25 -5 -21 -19 6 -22 5 -22 -26 -8 -14 6 -30 22 -36 35
-10 22 -9 23 21 17 22 -4 29 -3 24 5 -4 7 -13 12 -19 12 -7 0 -13 9 -14 20 -2
22 17 26 35 8 18 -18 48 -19 61 -4 14 17 -1 30 -34 32 -61 2 -74 6 -100 29
-25 21 -27 25 -12 31 9 3 24 4 32 0 12 -4 15 2 15 28 0 33 1 34 38 31 20 -1
40 2 44 9 4 6 8 -2 8 -18 0 -21 -4 -27 -15 -22 -16 6 -19 -3 -7 -19 10 -15 35
-12 52 5 14 13 14 16 1 26 -11 9 -8 12 18 17 18 4 30 11 26 17 -3 5 -1 10 4
10 6 0 11 -4 11 -10 0 -5 9 -10 20 -10 13 0 18 5 14 15 -7 17 20 20 77 8z
m624 -9 c6 0 21 -2 35 -3 19 -1 22 -3 11 -10 -12 -8 -13 -18 -4 -55 8 -35 7
-48 -3 -56 -9 -8 -10 -20 -3 -43 5 -18 9 -34 9 -36 0 -2 -16 -1 -35 2 -19 3
-35 4 -35 2 0 -3 9 -21 20 -40 11 -20 16 -34 11 -31 -5 3 -4 -4 2 -17 8 -17
17 -22 33 -19 12 2 25 -1 28 -7 4 -6 2 -11 -4 -11 -6 0 -18 -7 -26 -15 -19
-19 -34 -19 -34 -1 0 8 -9 17 -19 21 -11 3 -26 17 -35 30 -9 14 -26 25 -37 25
-14 0 -19 5 -16 14 4 10 1 13 -8 10 -12 -5 -58 11 -107 37 -10 5 -32 9 -50 10
-41 1 -71 12 -66 24 2 6 -7 11 -19 13 -13 2 -23 10 -23 19 0 12 7 14 33 8 17
-4 39 -8 47 -8 8 -1 19 -11 23 -21 7 -19 8 -19 23 3 9 12 14 33 11 47 -2 14 1
24 7 24 6 0 11 11 11 25 0 14 -3 25 -7 25 -5 0 -8 4 -8 8 0 15 60 30 88 23 26
-7 25 -8 -15 -14 -27 -5 -43 -12 -43 -22 0 -18 23 -32 28 -17 2 7 8 12 13 12
6 0 8 -4 4 -9 -3 -5 6 -22 20 -37 22 -24 30 -25 26 -1 0 4 12 7 29 7 22 0 28
4 24 15 -4 9 0 15 9 15 8 0 28 7 43 16 l29 16 -27 -6 c-27 -6 -54 14 -30 22 7
2 9 9 6 14 -5 7 -2 8 7 2 8 -5 19 -9 24 -10z m323 -16 c10 -10 17 -10 32 0 20
12 50 7 50 -9 0 -5 -11 -9 -24 -9 -23 0 -24 -2 -14 -35 8 -26 18 -36 40 -40
15 -4 28 -12 28 -18 0 -6 6 -4 13 5 9 12 24 15 70 11 55 -5 57 -6 57 -34 0
-19 5 -29 15 -29 18 0 20 -16 3 -23 -7 -3 -1 -6 13 -6 19 -1 28 -8 32 -23 7
-26 9 -23 -21 -33 -21 -6 -23 -4 -17 14 5 15 2 21 -10 21 -9 0 -13 -5 -9 -11
3 -6 0 -15 -7 -20 -21 -13 -33 -11 -20 5 9 11 7 15 -11 21 -13 4 -31 6 -40 6
-19 -2 -42 34 -33 49 3 6 17 10 31 10 14 0 22 4 19 10 -3 6 1 7 9 4 9 -3 16
-2 16 4 0 5 -12 12 -27 15 -20 4 -35 -1 -52 -16 -17 -15 -25 -18 -28 -9 -3 6
-9 12 -15 12 -6 0 -4 -10 5 -23 21 -32 5 -57 -36 -58 l-32 -1 29 -7 c20 -4 32
-14 36 -31 7 -26 -11 -55 -25 -42 -5 4 2 -12 15 -35 18 -33 26 -40 37 -32 9 9
17 8 28 -1 12 -10 19 -10 27 -2 9 9 6 12 -11 12 -16 0 -21 4 -17 15 3 9 0 15
-10 15 -8 0 -13 4 -10 9 4 5 1 11 -6 13 -6 2 -8 10 -4 17 6 9 30 11 82 9 41
-2 74 -1 74 2 0 3 44 5 98 4 53 0 153 2 222 6 69 3 130 3 135 0 6 -3 99 -5
207 -5 153 0 200 -3 210 -14 11 -11 9 -12 -9 -6 -26 7 -29 -2 -9 -27 16 -22
30 -23 22 -2 -3 9 -2 12 5 9 6 -4 8 -13 5 -21 -8 -20 11 -27 20 -6 4 9 8 22 8
27 1 6 13 10 28 10 21 1 25 -2 16 -12 -6 -7 -16 -13 -23 -13 -8 0 -11 -8 -8
-19 3 -14 -2 -20 -21 -23 -14 -3 -26 -2 -26 2 0 5 -17 7 -37 6 -21 -2 -43 1
-49 6 -13 10 -44 0 -44 -13 0 -5 -11 -9 -25 -9 -14 0 -25 5 -25 11 0 7 -9 9
-21 6 -17 -5 -20 -2 -16 14 3 10 4 19 3 19 0 0 -16 -4 -34 -9 -19 -6 -44 -6
-64 0 -18 5 -34 5 -37 0 -4 -4 -24 -8 -46 -7 -31 1 -40 5 -43 21 -6 33 -19 38
-14 5 5 -33 9 -32 -103 -32 -33 0 -75 3 -94 7 -27 5 -32 3 -28 -10 5 -12 -2
-15 -37 -15 -24 0 -57 -3 -73 -6 -28 -6 -31 -4 -37 30 -4 20 -12 37 -19 37
-72 8 -81 5 -84 -28 -3 -31 -1 -33 29 -33 56 0 16 -18 -44 -19 -27 -1 -27 -1
-14 -38 10 -29 19 -39 39 -41 23 -3 26 -8 29 -45 2 -33 7 -43 23 -46 21 -3 35
-18 35 -36 0 -5 -4 -4 -9 4 -8 12 -14 12 -44 -2 -43 -21 -51 -21 -44 -3 3 8
-1 17 -9 20 -9 4 -14 -1 -14 -15 0 -19 -1 -19 -16 -5 -22 23 -34 20 -34 -9 0
-14 -4 -25 -10 -25 -5 0 -10 9 -10 19 0 40 -60 45 -94 9 -10 -10 -24 -17 -32
-14 -8 3 -14 1 -14 -4 0 -6 -7 -10 -15 -10 -8 0 -15 -4 -15 -9 0 -5 24 -8 53
-6 71 4 86 -6 85 -55 0 -34 -4 -41 -25 -46 -13 -4 -26 -4 -29 -1 -3 3 -17 -1
-31 -8 -28 -15 -48 -11 -37 7 4 7 -4 8 -25 3 -18 -4 -31 -3 -31 3 0 5 15 13
33 16 21 4 36 15 44 32 11 25 11 26 -12 20 -14 -4 -25 -2 -25 4 0 5 -9 10 -20
10 -11 0 -20 5 -20 10 0 6 6 10 13 10 8 0 7 4 -3 10 -13 8 -13 10 1 10 22 0
29 31 19 77 -5 20 -7 40 -4 44 2 4 -6 9 -17 12 -14 4 -18 10 -13 18 6 10 9 10
12 1 2 -7 13 -12 23 -12 11 0 18 4 14 9 -6 11 112 7 122 -3 4 -3 -1 -6 -10 -6
-10 0 -17 -5 -17 -11 0 -6 -7 -9 -15 -6 -8 4 -17 3 -19 -2 -3 -4 -18 -6 -33
-4 -25 4 -29 1 -28 -19 2 -41 13 -48 76 -48 46 0 59 3 59 15 0 8 3 15 8 16 4
0 22 2 41 5 30 4 33 2 28 -17 -5 -18 -2 -20 16 -15 12 3 30 6 39 6 13 0 17 9
16 41 l0 40 -74 -3 c-41 -2 -74 0 -74 5 0 4 8 7 18 8 38 2 62 6 69 12 3 4 -2
7 -12 7 -14 0 -16 6 -11 30 5 29 4 30 -29 30 -37 0 -54 -15 -36 -33 17 -17 13
-24 -15 -30 -24 -4 -48 10 -56 33 -2 6 -20 15 -41 19 -29 7 -37 6 -37 -5 0 -8
5 -14 11 -14 8 0 8 -5 -1 -15 -14 -17 -40 -20 -40 -5 0 6 5 10 10 10 6 0 10 9
10 21 0 18 -5 20 -42 17 -37 -4 -43 -7 -41 -26 2 -14 -3 -22 -12 -22 -17 0
-29 17 -16 25 6 3 4 19 -5 40 -12 30 -12 34 1 29 8 -4 15 -12 15 -20 0 -17 80
-20 97 -3 22 22 -17 49 -69 49 -44 0 -48 2 -48 24 0 35 -10 56 -26 56 -8 0
-14 -8 -14 -17 -1 -11 -6 -6 -14 12 -12 29 -11 31 17 43 21 8 33 9 42 2 7 -6
17 -10 21 -9 21 4 54 -2 54 -8 0 -5 -5 -15 -10 -23 -8 -13 -11 -13 -19 -1 -5
8 -16 11 -25 8 -18 -7 -22 -32 -6 -42 5 -3 7 -12 3 -21 -5 -13 6 -15 77 -12
45 2 84 6 87 10 2 5 -3 8 -11 8 -9 0 -16 5 -16 10 0 6 5 10 10 10 6 0 10 5 10
10 0 7 -6 7 -19 0 -11 -5 -26 -10 -33 -9 -10 0 -10 2 0 6 18 7 15 20 -8 26
-20 5 -29 37 -10 37 16 0 12 56 -5 70 -9 8 -15 8 -15 2 0 -6 -12 -4 -30 5 -19
9 -41 12 -61 8 l-30 -7 3 53 c3 61 24 79 22 19 -2 -43 3 -46 103 -54 39 -3 42
-1 46 23 l3 26 11 -25 c13 -28 13 -28 19 18 5 29 3 32 -23 33 -15 1 -31 1 -35
0 -5 0 -8 3 -8 8 0 8 12 14 41 20 3 0 11 -5 17 -11z m-1836 -304 c24 -9 53
-18 66 -21 12 -3 22 -12 22 -19 0 -19 -49 -18 -56 1 -4 8 -10 15 -16 15 -5 0
-16 -7 -24 -15 -9 -8 -26 -15 -40 -15 -13 0 -24 -4 -24 -10 0 -5 -5 -10 -11
-10 -5 0 -8 4 -5 9 4 5 -14 9 -39 9 -24 0 -49 3 -55 7 -17 10 -11 25 10 25 39
0 20 19 -26 26 -74 11 -30 23 68 18 48 -2 107 -11 130 -20z m2151 -483 c-2 -6
-4 -16 -5 -22 -4 -12 74 -41 84 -31 12 12 -7 33 -30 35 -25 1 -27 8 -10 25 17
17 28 15 21 -4 -5 -13 -2 -15 18 -9 13 4 21 4 17 0 -9 -9 9 -35 24 -35 6 0 5
7 -2 15 -11 13 -7 15 23 15 20 0 39 -4 42 -10 3 -5 18 -11 33 -11 19 -1 22 -3
8 -6 -10 -3 -33 -14 -50 -25 -31 -20 -31 -20 -4 -15 19 3 28 -1 31 -13 7 -28
-8 -46 -26 -32 -12 10 -16 9 -22 -5 -6 -16 -8 -15 -16 5 -11 28 -33 24 -37 -7
-2 -13 -9 -21 -16 -18 -7 3 -18 2 -24 -2 -6 -3 4 -11 24 -17 19 -6 34 -7 34
-3 0 5 7 9 16 9 14 0 14 -3 4 -16 -11 -13 -10 -16 8 -21 26 -6 19 -23 -9 -23
-14 0 -18 -4 -13 -12 5 -9 2 -8 -9 1 -19 15 -19 15 -35 -14 -6 -11 -12 -14
-13 -7 -1 6 -2 18 -3 25 -2 19 -128 20 -143 0 -11 -14 -14 -12 -24 11 -7 14
-20 26 -31 26 -10 0 -18 4 -18 9 0 17 20 23 35 11 10 -8 15 -8 20 1 4 6 2 15
-5 19 -15 9 3 23 37 26 22 3 33 -11 13 -18 -5 -1 -7 -13 -4 -25 5 -19 13 -23
44 -23 25 0 40 5 44 16 10 26 7 30 -21 29 -21 0 -29 5 -31 21 -4 26 36 64 47
45 7 -10 9 -10 14 2 8 22 -1 27 -47 27 -30 0 -37 3 -26 10 12 8 13 12 2 19 -8
4 -14 12 -14 16 0 11 25 25 37 21 6 -2 9 -9 8 -15z m774 -81 c13 -29 24 -40
38 -39 32 3 76 -12 72 -25 -2 -6 -13 -10 -23 -9 -76 8 -79 8 -78 -7 1 -9 -8
-16 -23 -16 -12 -1 -23 2 -23 7 0 5 -7 9 -15 9 -7 0 -18 7 -23 16 -9 17 -44
16 -42 -1 1 -5 7 -9 14 -7 6 1 0 -7 -13 -18 -21 -19 -26 -19 -41 -5 -9 8 -32
15 -51 16 -31 0 -32 1 -11 10 13 5 28 7 33 3 16 -10 9 9 -8 21 -26 20 -1 42
49 44 77 3 102 1 109 -10 4 -7 9 -5 12 5 4 9 2 16 -3 16 -6 0 -10 7 -10 15 0
28 18 15 37 -25z m-3337 -331 c12 -8 12 -12 2 -16 -24 -9 8 -33 37 -28 14 3
20 2 14 -1 -10 -4 -9 -9 2 -20 8 -9 19 -12 25 -9 6 3 10 -3 10 -15 0 -15 -5
-20 -15 -17 -8 4 -17 2 -20 -3 -4 -6 -21 -10 -40 -10 -19 0 -37 -4 -40 -10 -3
-5 1 -10 9 -10 20 0 33 -28 31 -65 -1 -16 -3 -38 -4 -47 0 -10 -5 -18 -11 -18
-13 0 -42 57 -39 78 3 39 -2 60 -17 66 -12 5 -14 1 -9 -15 5 -16 3 -20 -6 -16
-8 2 -13 10 -11 16 1 6 -9 11 -22 11 -45 0 -86 13 -86 26 0 8 -5 14 -10 14 -7
0 -7 6 -1 19 8 13 26 20 72 24 34 3 72 1 85 -3 34 -13 41 8 7 22 -43 17 -64
19 -79 7 -11 -9 -14 -8 -14 3 0 8 3 18 7 21 10 11 107 8 123 -4z"/>
<path d="M481 5893 c-98 -48 -95 -217 4 -259 45 -19 99 -18 141 2 33 16 34 17
34 80 l0 64 -53 0 c-30 0 -56 -3 -60 -6 -12 -12 6 -34 28 -34 29 0 39 -14 31
-46 -6 -21 -12 -24 -49 -24 -71 0 -111 62 -87 134 13 41 65 66 122 58 29 -3
39 0 44 13 4 10 1 21 -7 26 -23 14 -112 10 -148 -8z"/>
<path d="M737 5776 c-32 -75 -56 -140 -52 -146 15 -24 45 -9 61 30 l16 40 59
0 58 0 12 -40 c11 -34 16 -40 41 -40 16 0 28 5 27 13 0 6 -23 71 -52 142 -50
124 -53 130 -82 133 -30 3 -31 1 -88 -132z"/>
<path d="M998 5786 c-1 -69 -2 -134 -2 -143 -1 -16 9 -18 77 -18 74 0 80 2
103 28 29 34 31 70 4 97 -19 19 -19 22 -5 43 22 31 19 60 -10 87 -21 20 -39
25 -95 28 l-70 4 -2 -126z"/>
<path d="M1240 5766 l0 -147 28 3 c25 3 27 7 30 56 4 69 21 67 64 -5 29 -49
38 -57 59 -55 13 2 26 6 28 8 2 2 -11 26 -29 54 -30 46 -31 52 -17 68 42 46
40 113 -5 141 -13 8 -53 16 -90 19 l-68 5 0 -147z"/>
<path d="M1490 5766 l0 -146 24 0 c22 0 23 4 28 88 3 48 5 112 4 142 -1 52 -2
55 -28 58 l-28 3 0 -145z"/>
<path d="M1600 5765 l0 -145 90 0 90 0 0 26 c0 25 -1 26 -60 22 l-60 -3 0 38
0 37 55 0 c52 0 55 1 55 25 0 24 -3 25 -55 25 l-55 0 0 35 0 35 60 0 c57 0 60
1 60 25 0 25 -1 25 -90 25 l-90 0 0 -145z"/>
<path d="M1843 5903 c-10 -4 -13 -41 -13 -144 l0 -139 91 0 c88 0 90 1 87 23
-3 20 -8 22 -63 22 l-60 1 -3 116 c-3 116 -8 132 -39 121z"/>
<path d="M483 5471 c-89 -41 -106 -166 -33 -236 53 -51 192 -45 203 8 3 18 2
63 -2 110 -1 4 -26 7 -56 7 -48 0 -55 -2 -55 -20 0 -16 7 -20 30 -20 28 0 30
-3 30 -35 0 -34 -1 -35 -41 -35 -54 0 -75 13 -89 55 -26 79 19 138 102 134 58
-3 84 14 54 37 -27 20 -93 17 -143 -5z"/>
<path d="M740 5363 c-30 -69 -58 -135 -62 -145 -6 -15 -2 -18 21 -18 24 0 33
7 48 38 15 30 24 38 52 40 56 6 79 -5 92 -43 11 -29 18 -35 41 -35 15 0 28 3
28 8 -1 4 -24 68 -53 142 -51 128 -55 135 -83 138 -28 2 -30 -1 -84 -125z"/>
<path d="M997 5482 c-3 -4 -6 -69 -6 -145 l-2 -137 31 0 c30 0 30 0 30 56 0
47 3 55 17 52 9 -2 32 -29 50 -61 31 -52 36 -57 61 -51 15 4 28 8 29 8 1 1
-14 26 -33 55 l-36 53 21 22 c29 31 37 80 18 109 -8 13 -33 29 -55 35 -44 13
-118 16 -125 4z"/>
<path d="M1315 5476 c-16 -7 -41 -26 -55 -41 -22 -23 -25 -36 -25 -95 0 -62 3
-72 28 -98 33 -35 102 -57 146 -47 35 8 44 17 35 39 -5 12 -15 15 -44 10 -80
-13 -135 54 -110 131 16 48 50 69 100 62 32 -4 42 -1 50 13 12 23 7 26 -50 34
-29 4 -56 1 -75 -8z"/>
<path d="M1677 5453 c-16 -29 -107 -241 -107 -247 0 -2 12 -6 26 -9 23 -4 29
0 43 34 l16 39 61 0 61 0 13 -40 c13 -39 30 -49 57 -32 10 6 -1 42 -41 143
-51 129 -54 134 -84 137 -25 3 -33 -2 -45 -25z"/>
<path d="M435 5060 c-2 -3 -8 -59 -15 -125 -6 -66 -13 -130 -16 -142 -4 -20 0
-23 25 -23 25 0 29 4 35 38 3 20 6 60 6 89 0 28 4 54 9 57 5 3 20 -29 33 -72
23 -76 24 -77 57 -77 33 0 34 1 66 90 l32 90 8 -107 c7 -105 8 -108 32 -108
13 0 26 7 29 15 3 8 0 74 -8 147 l-13 133 -35 0 c-35 0 -35 0 -66 -88 -18 -49
-34 -90 -36 -93 -3 -2 -15 24 -27 58 -42 120 -47 129 -82 126 -17 -1 -32 -5
-34 -8z"/>
<path d="M1390 5048 c-105 -53 -108 -213 -6 -262 24 -11 63 -16 135 -16 l101
0 0 25 c0 19 -5 25 -21 25 -17 0 -19 4 -13 18 4 9 9 42 11 72 6 87 -37 141
-122 154 -31 5 -50 1 -85 -16z m104 -38 c36 -13 59 -63 51 -111 -16 -93 -135
-110 -171 -23 -22 53 1 114 51 135 27 11 39 11 69 -1z"/>
<path d="M817 4926 c-31 -73 -57 -135 -57 -138 0 -3 12 -8 26 -11 23 -4 28 0
42 35 l15 39 60 -3 c59 -3 61 -4 72 -37 13 -39 22 -45 53 -34 20 8 19 12 -36
146 -55 135 -56 137 -87 137 -31 0 -32 -3 -88 -134z"/>
<path d="M1078 4968 c-3 -51 -5 -115 -4 -143 1 -46 3 -50 26 -50 23 0 25 4 28
53 4 71 27 70 70 -3 25 -42 39 -55 57 -55 36 0 36 11 4 63 -16 26 -29 50 -29
53 0 3 9 17 20 31 28 36 26 88 -5 118 -21 22 -33 25 -93 25 l-69 0 -5 -92z"/>
<path d="M1650 4946 c0 -99 3 -117 20 -139 45 -57 177 -49 213 13 15 25 17 44
11 135 l-7 106 -26 -3 c-26 -3 -26 -3 -28 -107 -2 -58 -7 -109 -13 -115 -14
-14 -75 -12 -94 3 -13 11 -16 34 -16 117 l0 104 -30 0 -30 0 0 -114z"/>
<path d="M1950 5013 c0 -27 -3 -91 -6 -144 l-7 -97 89 -4 c49 -2 94 -3 100 -1
6 2 9 17 6 33 -4 28 -5 28 -64 27 l-61 -2 -1 33 -1 32 58 0 c54 0 57 1 57 25
0 26 -1 27 -72 29 -39 1 -42 3 -45 34 l-4 32 65 0 c64 0 66 1 66 25 0 25 -1
25 -90 25 l-90 0 0 -47z"/>
<path d="M2160 5035 c0 -24 3 -25 60 -25 33 0 60 -4 60 -9 0 -5 -29 -49 -65
-97 -93 -126 -90 -132 50 -136 l100 -3 0 30 0 29 -62 0 c-35 -1 -63 1 -63 4 0
2 30 45 66 95 51 70 64 95 60 113 -6 23 -9 24 -106 24 -100 0 -100 0 -100 -25z"/>
<path d="M3840 4992 c-19 -7 -117 -74 -151 -104 -20 -18 -28 -37 -33 -82 l-8
-58 -31 5 c-18 4 -42 9 -54 13 -20 6 -23 3 -23 -24 0 -25 5 -30 29 -35 16 -3
35 -12 42 -20 33 -33 69 -49 95 -43 16 4 35 1 49 -8 13 -9 25 -11 27 -7 2 5
42 -3 90 -19 169 -55 201 -49 48 9 -47 18 -93 41 -102 53 -16 18 -16 23 -3 48
8 16 17 52 19 80 3 39 11 61 35 90 36 45 38 54 12 45 -11 -3 -22 -1 -26 5 -4
6 7 13 25 16 17 4 33 10 35 15 7 10 -31 22 -44 15 -5 -4 -11 -2 -13 2 -1 5
-10 7 -18 4z"/>
<path d="M3085 4740 c-3 -11 -21 -32 -40 -47 -48 -41 -85 -113 -85 -167 l0
-46 -61 0 c-58 0 -60 -1 -53 -22 4 -13 12 -26 18 -30 7 -5 3 -18 -13 -39 -25
-33 -18 -49 23 -49 11 0 16 -5 13 -14 -3 -8 1 -17 9 -20 25 -9 27 -7 13 10
-12 15 -11 16 9 10 24 -8 29 3 10 22 -8 8 0 10 33 9 27 -2 56 3 74 14 30 17
39 17 175 3 41 -4 81 -6 89 -5 8 1 17 -3 21 -9 5 -8 10 -9 14 -2 7 11 -5 15
-139 50 -77 19 -72 10 -60 112 3 25 7 78 8 118 3 67 2 73 -15 69 -16 -5 -17
-3 -3 16 19 28 19 43 0 27 -10 -9 -15 -9 -15 -1 0 19 -18 12 -25 -9z"/>
</g>
</svg>
