<?xml version="1.0" standalone="no"?>
<!DOCTYPE svg PUBLIC "-//W3C//DTD SVG 20010904//EN"
 "http://www.w3.org/TR/2001/REC-SVG-20010904/DTD/svg10.dtd">
<svg version="1.0" xmlns="http://www.w3.org/2000/svg"
 width="2000.000000pt" height="3051.000000pt" viewBox="0 0 2000.000000 3051.000000"
 preserveAspectRatio="xMidYMid meet">
<metadata>
Created by potrace 1.16, written by Peter Selinger 2001-2019
</metadata>
<g transform="translate(0.000000,3051.000000) scale(0.100000,-0.100000)"
fill="#000000" stroke="none">
<path d="M2 20435 c3 -8486 5 -10077 17 -10084 11 -7 12 -38 6 -165 -7 -140
-6 -156 9 -156 13 0 16 13 16 81 0 51 4 78 10 74 13 -8 13 -155 0 -155 -5 0
-10 -18 -10 -40 0 -29 4 -40 15 -40 12 0 15 16 15 80 l0 80 280 0 280 0 0 40
0 40 40 0 40 0 0 40 0 40 160 0 160 0 0 40 0 40 120 0 120 0 0 40 c0 40 0 40
40 41 22 1 46 2 53 3 9 1 12 59 12 254 0 213 2 250 13 235 9 -12 12 -35 9 -68
-2 -27 -1 -146 3 -264 6 -184 9 -215 23 -223 9 -5 17 -17 17 -27 0 -28 77
-100 110 -102 8 -1 48 0 89 1 68 2 73 0 67 -17 -4 -10 -16 -58 -26 -108 -11
-49 -30 -133 -44 -185 -13 -52 -29 -149 -35 -215 -6 -66 -16 -158 -21 -205 -5
-47 -12 -157 -15 -245 -8 -233 -23 -401 -46 -533 -35 -198 -35 -189 -8 -212
28 -24 145 -80 167 -80 17 0 14 -49 -13 -200 -11 -61 -18 -219 -25 -555 -9
-414 -12 -474 -27 -502 -10 -18 -25 -33 -35 -33 -9 0 -20 -4 -23 -10 -14 -23
-25 -7 -25 40 0 58 -16 66 -42 20 -15 -26 -21 -30 -45 -24 -15 4 -29 11 -31
15 -2 4 -9 6 -17 3 -7 -3 -16 3 -20 15 -7 24 -20 27 -29 9 -3 -7 -4 7 -1 32
l5 45 -20 -25 c-11 -14 -29 -41 -40 -60 l-19 -35 -1 60 c0 47 -3 56 -12 47 -7
-7 -18 -30 -24 -50 l-12 -37 -1 40 -1 40 -38 -42 c-29 -34 -42 -41 -60 -37
-12 4 -25 17 -28 30 l-6 24 -19 -23 -18 -22 -1 53 c0 28 -3 52 -6 52 -12 0
-33 -34 -34 -53 0 -10 -5 -27 -10 -38 -9 -15 -15 -17 -30 -9 -11 6 -20 17 -20
25 0 23 -26 18 -38 -7 -9 -20 -11 -17 -11 25 -1 47 -16 63 -28 30 -11 -28 -62
-73 -83 -73 -22 0 -40 28 -40 60 0 27 -21 22 -35 -8 -5 -12 -13 -22 -17 -22
-3 0 -13 -7 -21 -14 -13 -13 -14 -12 -15 10 0 14 -2 27 -5 30 -11 11 -27 -8
-27 -32 0 -13 -4 -24 -10 -24 -10 0 -18 24 -24 80 -3 19 -5 37 -5 39 -1 2 -7
-2 -15 -8 -7 -6 -16 -29 -20 -50 -3 -21 -13 -44 -21 -51 -13 -11 -15 -7 -15
29 0 53 -14 52 -32 -1 -11 -36 -17 -42 -35 -40 -18 3 -23 -2 -23 -21 0 -36
-12 -40 -32 -10 l-18 28 -12 -32 c-15 -39 -24 -42 -32 -8 -8 31 -26 33 -26 3
0 -18 -2 -20 -10 -8 -7 12 -12 12 -29 -4 -12 -11 -21 -27 -21 -38 0 -10 -4
-18 -9 -18 -13 0 -21 26 -21 66 0 21 -4 33 -10 29 -6 -3 -10 -15 -10 -26 0
-26 -18 -24 -23 4 -3 21 -4 21 -15 -5 -6 -14 -16 -29 -22 -33 -7 -4 -19 -24
-28 -44 -14 -31 -17 -33 -20 -14 -2 12 -9 27 -17 33 -11 10 -16 6 -21 -15 l-7
-28 -17 23 c-14 18 -19 20 -26 9 -5 -8 -10 -1500 -12 -3556 l-2 -3543 10000 0
10000 0 0 15255 0 15255 -10000 0 -10000 0 2 -10075z m6641 7840 c85 -21 112
-32 187 -76 199 -114 337 -340 386 -630 23 -138 15 -428 -15 -539 -85 -321
-245 -514 -501 -607 -68 -24 -89 -27 -220 -27 -134 -1 -152 1 -234 28 -331
109 -535 453 -536 906 0 318 82 563 250 746 64 70 117 109 202 149 151 72 322
90 481 50z m2125 10 c226 -47 407 -185 535 -407 37 -64 95 -218 114 -303 20
-88 23 -364 4 -450 -43 -206 -116 -353 -242 -489 -114 -123 -204 -177 -417
-250 -70 -24 -163 -59 -207 -78 l-80 -33 75 -6 c121 -11 208 -53 366 -180 171
-138 327 -170 428 -88 34 29 96 139 96 173 0 9 5 16 10 16 33 0 -36 -256 -93
-347 -33 -52 -78 -86 -140 -107 -63 -21 -121 -20 -198 4 -97 30 -179 90 -323
237 -204 209 -276 254 -344 219 -27 -14 -32 -22 -32 -51 0 -23 9 -43 26 -62
45 -48 57 -81 52 -143 -2 -32 -11 -64 -19 -72 -33 -33 -66 -48 -103 -48 -32 0
-45 7 -76 39 -77 81 -57 226 44 319 44 41 137 99 196 122 19 7 63 26 98 42 34
15 67 28 72 28 6 0 10 5 10 10 0 6 -13 10 -29 10 -16 0 -60 10 -97 21 -251 77
-453 288 -548 571 -65 194 -74 452 -22 652 88 340 337 597 631 651 95 17 132
17 213 0z m-3755 -39 c-1 -6 -22 -15 -46 -21 -90 -23 -136 -82 -160 -206 -18
-96 -17 -1308 1 -1368 21 -67 58 -118 104 -143 39 -21 57 -23 183 -23 126 0
145 2 187 23 67 33 140 102 191 180 46 70 112 216 123 270 4 18 13 32 20 32
13 0 13 -68 -2 -155 -5 -28 -34 -365 -34 -392 0 -10 -135 -13 -641 -13 -569 0
-640 2 -629 15 7 8 27 15 45 15 52 0 115 53 136 115 37 108 42 201 42 780 0
486 -2 572 -17 654 -9 52 -23 106 -31 120 -22 44 -66 80 -109 91 -62 16 -68
19 -61 30 8 13 701 9 698 -4z m5220 7 c25 -7 10 -23 -22 -23 -48 0 -115 -51
-139 -106 -41 -97 -47 -195 -47 -764 0 -479 2 -543 18 -608 35 -146 92 -228
183 -261 75 -29 217 -29 300 -1 158 54 223 122 266 283 23 80 23 92 23 637 0
508 -2 561 -19 627 -31 125 -96 193 -181 193 -26 0 -42 15 -22 22 27 9 497 3
498 -7 0 -5 -16 -13 -37 -18 -83 -17 -127 -67 -158 -181 -17 -65 -20 -120 -26
-636 -8 -600 -7 -591 -62 -734 -26 -67 -42 -92 -94 -144 -109 -109 -232 -149
-427 -139 -210 11 -331 69 -418 203 -86 133 -99 231 -99 776 -1 707 -21 810
-163 849 -74 20 -73 19 -59 28 14 8 655 13 685 4z m2084 -6 c3 -4 30 -205 43
-325 6 -52 13 -111 16 -133 11 -64 -12 -46 -35 29 -48 154 -163 310 -266 361
-59 29 -173 39 -256 22 -74 -16 -128 -70 -160 -161 -21 -61 -23 -85 -27 -354
l-4 -289 120 6 c136 7 183 23 226 79 36 48 74 135 88 201 7 31 16 56 20 55 7
-3 12 -499 8 -720 0 -28 -18 11 -30 67 -25 120 -85 205 -167 241 -35 15 -248
35 -259 25 -2 -2 -4 -140 -4 -305 0 -394 13 -457 103 -530 l39 -31 146 0 c140
0 149 1 202 28 92 46 152 112 215 237 21 41 49 104 61 140 28 78 48 93 40 29
-6 -43 -22 -224 -32 -369 -3 -41 -7 -85 -10 -97 l-4 -23 -620 0 c-341 0 -620
4 -620 8 0 4 21 14 48 20 68 19 109 50 132 103 37 88 45 213 45 779 0 657 -10
761 -80 835 -18 20 -49 38 -75 45 -25 7 -51 14 -58 16 -7 2 -11 8 -8 13 5 7
1155 5 1163 -2z m1847 3 c3 -3 12 -60 20 -125 8 -66 22 -176 31 -243 9 -68 14
-126 11 -129 -11 -12 -25 10 -37 59 -16 71 -81 194 -138 262 -82 100 -160 136
-292 136 -94 0 -143 -17 -189 -64 -73 -75 -88 -155 -91 -493 l-2 -248 94 0
c143 0 181 9 228 55 22 22 50 58 61 81 25 49 60 154 60 180 0 20 16 26 22 9 7
-21 -3 -710 -10 -710 -5 0 -14 27 -20 60 -20 94 -69 179 -126 217 -64 44 -109
54 -217 51 l-90 -3 1 -302 c0 -167 5 -328 11 -360 20 -105 70 -171 147 -193
66 -18 222 -12 298 11 60 18 77 29 134 87 70 72 133 179 175 300 13 37 27 65
32 62 4 -3 7 -12 6 -20 0 -8 -9 -109 -17 -225 -9 -115 -19 -225 -22 -242 l-5
-33 -619 0 c-341 0 -620 4 -620 8 0 5 23 14 50 21 103 26 139 83 161 251 19
143 20 1119 1 1264 -20 156 -60 223 -147 247 -22 6 -46 13 -53 15 -7 2 -11 7
-9 11 6 9 1152 11 1161 3z m894 -2 c-2 -5 -27 -18 -56 -27 -99 -34 -127 -77
-147 -229 -17 -126 -21 -1167 -5 -1289 23 -178 99 -230 326 -221 89 3 118 9
159 28 46 22 124 91 168 148 32 42 103 187 127 260 13 39 28 72 33 72 6 0 7
-25 4 -62 -3 -35 -14 -161 -24 -280 l-17 -218 -638 0 c-419 0 -638 3 -638 10
0 6 7 10 15 10 36 0 112 35 137 63 69 77 81 222 75 923 -4 568 -9 634 -55 709
-26 43 -91 85 -132 85 -20 0 -33 13 -23 23 10 11 694 6 691 -5z m2043 -3018
c330 -32 630 -164 859 -377 295 -275 491 -671 575 -1159 31 -180 44 -551 26
-754 -12 -147 -44 -336 -72 -435 -11 -38 -26 -92 -34 -120 -7 -27 -23 -72 -34
-98 -12 -27 -21 -53 -21 -58 0 -31 -199 -395 -229 -419 -3 -3 -19 -23 -35 -45
-38 -52 -219 -233 -271 -271 -22 -16 -42 -31 -45 -34 -13 -15 -200 -120 -240
-136 -25 -9 -49 -20 -55 -24 -22 -15 -105 -41 -205 -64 -419 -98 -853 -26
-1190 199 -245 163 -416 365 -556 655 -31 63 -60 124 -64 135 -4 11 -15 38
-23 60 -15 37 -66 205 -81 265 -19 74 -48 271 -62 418 -39 398 27 885 165
1229 47 120 177 361 211 393 3 3 19 25 35 50 34 51 231 251 290 296 303 228
675 331 1056 294z m-14431 -98 c0 -14 -13 -20 -65 -29 -173 -30 -304 -145
-335 -294 -18 -90 8 -282 79 -589 26 -113 105 -461 142 -630 17 -74 41 -182
55 -240 14 -58 39 -168 56 -245 16 -77 36 -167 44 -200 8 -33 21 -94 30 -135
8 -41 29 -130 45 -197 16 -67 43 -186 60 -265 17 -79 34 -156 38 -171 3 -15
11 -28 16 -28 6 0 13 13 16 28 4 15 30 105 59 198 29 94 57 186 62 205 5 19
32 109 60 200 28 91 56 185 63 210 7 25 32 106 55 180 23 74 52 171 65 215 13
44 38 125 55 180 17 55 42 136 55 180 12 44 40 134 60 200 21 66 42 136 47
155 5 19 34 114 63 210 102 331 119 531 57 664 -46 98 -122 145 -282 174 -30
5 -46 13 -48 25 -3 16 29 17 503 17 467 0 506 -1 503 -17 -2 -12 -23 -20 -73
-30 -188 -39 -298 -148 -395 -393 -54 -137 -192 -563 -325 -1000 -32 -107
-151 -491 -179 -580 -32 -102 -113 -360 -175 -560 -103 -330 -123 -396 -136
-435 -7 -22 -27 -87 -45 -145 -17 -58 -40 -130 -50 -160 -10 -30 -32 -102 -50
-160 -17 -58 -40 -130 -50 -160 -17 -55 -69 -224 -76 -248 -3 -9 -24 -12 -80
-10 l-77 3 -213 855 c-484 1943 -546 2189 -575 2285 -17 55 -42 136 -55 180
-110 357 -228 481 -518 542 -22 5 -41 14 -44 21 -3 9 163 12 777 12 745 0 781
-1 781 -18z m3080 5 c0 -9 -25 -18 -72 -27 -166 -29 -286 -125 -331 -265 -22
-67 -45 -189 -58 -305 -16 -136 -24 -2191 -10 -2467 15 -292 51 -491 102 -566
38 -55 92 -108 132 -128 42 -22 141 -53 199 -63 38 -7 57 -30 33 -40 -8 -3
-347 -4 -752 -3 -688 2 -738 3 -741 19 -2 12 5 19 25 23 149 29 207 54 279
122 69 65 101 138 128 293 39 227 41 290 41 1505 0 1165 0 1182 -22 1340 -13
88 -32 193 -43 232 -22 81 -72 166 -121 207 -48 41 -139 83 -194 91 -62 10
-95 21 -95 35 0 7 245 10 750 10 620 0 750 -2 750 -13z m2608 -89 c31 -250
112 -906 117 -940 5 -33 3 -38 -14 -38 -15 0 -23 11 -31 43 -15 55 -38 127
-50 152 -4 11 -18 46 -29 77 -67 188 -189 378 -337 526 -68 67 -99 90 -166
122 -118 54 -177 65 -368 65 -237 0 -308 -21 -407 -123 -92 -93 -146 -236
-178 -466 -12 -86 -15 -219 -15 -624 l0 -515 203 6 c357 11 451 48 570 228 73
111 149 310 164 430 7 58 15 72 36 63 16 -6 17 -66 17 -770 0 -680 -2 -765
-15 -771 -23 -8 -26 -2 -41 79 -30 163 -102 350 -163 422 -137 162 -252 204
-573 213 l-198 6 0 -612 c0 -560 2 -622 20 -734 31 -195 71 -300 143 -378 45
-49 68 -62 162 -96 79 -28 83 -28 314 -28 179 0 235 3 239 13 2 6 14 12 26 12
31 0 130 36 200 73 80 42 208 168 283 278 32 46 133 218 133 226 0 2 12 30 26
61 14 31 32 71 39 87 14 32 79 215 90 253 7 23 40 28 40 7 -1 -29 -17 -245
-25 -340 -5 -60 -17 -204 -26 -320 -9 -115 -22 -266 -28 -335 l-11 -125 -1325
0 c-1162 0 -1325 2 -1325 15 0 8 11 18 25 22 14 4 61 16 105 28 140 38 227
116 273 245 31 85 59 288 73 510 6 105 13 521 16 926 8 1145 -17 1647 -94
1841 -54 138 -157 216 -327 248 -44 8 -66 17 -66 26 0 12 190 14 1243 14
l1243 0 12 -102z m1553 -165 c89 -148 218 -359 286 -471 68 -111 123 -207 123
-212 0 -6 4 -10 8 -10 4 0 18 -19 30 -42 12 -24 81 -140 153 -258 73 -118 140
-228 150 -245 10 -16 26 -43 35 -60 9 -16 65 -109 124 -205 59 -96 155 -254
212 -350 58 -96 129 -212 157 -258 28 -46 51 -85 51 -86 0 -6 201 -331 211
-340 13 -14 12 1885 -1 2055 -31 398 -117 596 -292 673 -46 20 -150 46 -190
46 -5 0 -8 7 -8 15 0 13 68 15 555 15 470 0 555 -2 555 -14 0 -9 -17 -16 -52
-21 -199 -26 -307 -119 -372 -317 -74 -225 -70 -124 -73 -1946 l-3 -1633 -46
3 c-42 3 -48 6 -68 43 -11 22 -23 42 -26 45 -5 4 -25 37 -97 155 -29 49 -89
146 -133 215 -26 41 -108 174 -182 295 -75 121 -182 294 -238 385 -56 91 -134
217 -173 280 -114 187 -170 279 -199 323 -15 23 -37 58 -48 77 -11 19 -25 42
-30 50 -41 64 -209 336 -235 380 -17 30 -58 96 -91 147 -77 120 -238 382 -243
396 -2 6 -8 16 -13 22 -20 23 -88 135 -88 144 0 5 -3 11 -8 13 -6 3 -82 123
-166 265 -17 29 -35 52 -39 53 -13 0 -2 -2533 11 -2622 33 -207 91 -364 163
-443 59 -64 187 -125 263 -125 40 0 61 -14 53 -34 -6 -14 -62 -16 -561 -16
-389 0 -557 3 -562 11 -11 19 12 31 88 44 185 32 276 118 346 330 79 238 84
342 80 1555 -4 1099 -6 1126 -62 1366 -43 180 -81 251 -193 360 -102 100 -197
154 -304 172 -30 5 -45 13 -47 25 -3 16 29 17 511 17 l515 0 163 -267z m5188
125 c12 -79 37 -237 56 -353 99 -617 96 -600 76 -600 -9 0 -29 35 -51 90 -144
357 -355 641 -586 790 -137 89 -247 117 -474 119 l-165 1 -3 -1380 c-3 -1396
0 -1553 34 -1845 39 -330 140 -465 379 -502 68 -10 76 -14 73 -32 -3 -21 -4
-21 -757 -24 -566 -1 -757 1 -762 10 -14 23 3 36 59 43 110 14 234 77 281 143
61 87 84 158 111 345 42 292 45 418 45 1862 l0 1380 -110 3 c-139 4 -278 -13
-375 -44 -204 -68 -389 -230 -553 -485 -68 -106 -217 -411 -217 -444 0 -18
-29 -40 -40 -29 -4 5 4 85 21 184 31 193 55 341 94 590 14 91 30 187 36 213 5
26 9 61 9 77 l0 30 1398 0 1398 0 23 -142z m-248 -4539 c24 -26 29 -39 29 -84
0 -45 -4 -57 -29 -81 -34 -34 -58 -54 -66 -54 -3 0 -24 -9 -48 -20 -76 -35
-419 -140 -458 -140 -23 0 -5 31 38 66 26 22 55 46 63 54 111 106 284 247 340
277 14 7 42 13 63 13 31 0 45 -7 68 -31z m-9617 -504 c86 -18 180 -62 225
-103 18 -18 37 -29 42 -26 5 3 19 25 30 50 20 43 45 57 54 32 2 -7 9 -98 15
-203 7 -104 14 -227 17 -272 4 -52 2 -83 -4 -83 -6 0 -29 55 -53 123 -23 67
-60 156 -82 197 -37 71 -118 170 -139 170 -5 0 -9 4 -9 8 0 23 -128 62 -205
62 -111 0 -198 -68 -236 -185 -30 -90 -13 -250 36 -344 32 -64 137 -146 275
-216 41 -22 77 -41 80 -44 3 -3 39 -24 80 -45 292 -152 381 -287 384 -581 1
-140 -12 -200 -64 -305 -63 -126 -170 -221 -313 -277 -64 -25 -85 -28 -187
-28 -83 0 -130 5 -170 18 -89 29 -173 74 -226 122 -27 24 -51 44 -54 44 -3 0
-18 -28 -35 -61 -16 -34 -34 -60 -40 -60 -6 1 -13 82 -17 204 -13 383 -13 443
-3 446 6 2 20 -34 33 -80 78 -281 203 -479 347 -548 74 -36 222 -41 288 -10
96 45 147 122 175 261 13 68 14 96 5 168 -24 183 -105 269 -378 401 -349 168
-488 348 -488 630 0 166 47 291 148 396 122 127 291 177 469 139z m9438 -6
c51 -11 130 -39 175 -61 85 -41 214 -142 254 -200 13 -18 26 -35 29 -38 18
-14 94 -153 120 -220 73 -191 96 -347 87 -590 -10 -254 -63 -432 -183 -612
-45 -67 -166 -198 -184 -198 -4 0 -15 -6 -22 -13 -27 -27 -126 -76 -208 -103
-79 -27 -96 -29 -240 -29 -133 0 -165 3 -227 23 -297 94 -508 347 -584 702
-32 150 -37 402 -10 555 45 259 130 436 281 586 108 106 218 166 365 198 33 7
65 15 70 16 37 12 196 2 277 -16z m-7548 -34 c5 -14 67 -483 70 -530 0 -11 -5
-20 -13 -20 -9 0 -24 31 -41 80 -49 146 -138 290 -212 347 -85 64 -114 73
-248 73 -97 0 -132 -4 -155 -16 -36 -20 -77 -65 -101 -111 -41 -79 -46 -124
-51 -443 l-5 -310 128 7 c161 9 202 25 256 102 33 48 79 165 93 239 3 15 12
27 20 27 13 0 15 -53 15 -400 0 -320 -3 -400 -13 -400 -8 0 -19 28 -29 70 -18
78 -55 164 -84 199 -52 63 -166 101 -305 101 l-81 0 5 -362 c4 -391 6 -405 60
-496 27 -45 39 -55 87 -73 48 -18 71 -20 190 -17 122 4 140 7 192 32 74 35
123 82 185 176 60 91 133 257 133 302 0 20 19 34 30 22 4 -5 4 -52 0 -104 -24
-281 -41 -457 -46 -472 -5 -17 -46 -18 -685 -18 -428 0 -679 4 -679 10 0 5 19
14 43 21 120 32 153 74 184 229 16 86 18 155 18 750 0 592 -2 663 -18 734 -20
90 -40 142 -65 169 -23 26 -80 54 -125 62 -37 7 -48 19 -24 28 6 2 294 5 638
6 561 2 627 0 633 -14z m1543 -2 c3 -7 -8 -15 -24 -18 -73 -15 -103 -27 -131
-52 -41 -38 -57 -74 -76 -173 -33 -173 -47 -906 -26 -1277 17 -278 48 -353
168 -395 98 -35 345 -15 405 32 118 92 210 221 262 365 10 28 22 55 26 60 4 6
10 27 14 48 6 28 12 37 27 37 17 0 19 -5 15 -32 -3 -18 -9 -69 -12 -113 -3
-44 -13 -145 -21 -225 -8 -80 -15 -167 -17 -195 l-2 -50 -703 -3 c-547 -2
-703 1 -700 10 3 7 25 17 51 24 77 19 109 44 139 104 15 30 32 84 38 120 20
125 32 543 27 910 -9 530 -24 659 -85 730 -36 42 -72 62 -134 74 -37 7 -46 15
-31 29 4 4 182 6 396 5 295 -2 391 -6 394 -15z m1438 7 c7 -11 -16 -22 -81
-39 -85 -23 -120 -72 -150 -211 -17 -78 -19 -142 -19 -755 0 -706 2 -737 46
-819 46 -86 117 -116 271 -116 201 0 308 58 418 226 45 68 121 236 136 297 6
25 28 46 39 36 3 -4 -7 -125 -34 -419 -6 -63 -12 -133 -14 -155 l-3 -40 -702
-3 c-610 -2 -702 0 -702 12 0 10 14 17 38 21 61 9 122 45 149 89 58 91 78 386
69 1021 -7 537 -19 662 -72 747 -27 43 -57 60 -131 78 -50 11 -61 19 -47 33
11 11 782 8 789 -3z m1930 -2 c2 -7 11 -71 20 -143 17 -141 33 -270 45 -352 4
-29 5 -55 2 -58 -14 -14 -31 -2 -37 28 -11 50 -78 209 -101 237 -7 8 -19 28
-28 44 -26 50 -113 131 -173 161 -55 27 -66 29 -184 30 l-126 0 -45 -35 c-26
-20 -56 -55 -68 -80 -49 -97 -52 -128 -57 -454 l-5 -309 124 6 c67 3 139 11
158 17 77 28 142 123 180 265 22 84 35 108 45 84 10 -28 0 -792 -11 -796 -5
-2 -18 29 -27 69 -34 144 -104 240 -197 274 -26 9 -94 18 -158 21 l-114 6 4
-364 c3 -345 5 -367 25 -423 29 -75 67 -124 112 -144 46 -20 240 -28 309 -13
166 35 284 168 376 423 60 165 66 132 36 -202 -6 -63 -14 -153 -18 -200 l-7
-85 -688 -3 c-549 -2 -688 0 -685 10 3 7 22 17 44 22 114 25 158 74 183 201
30 153 38 636 21 1175 -11 326 -20 407 -55 467 -31 52 -55 69 -125 90 -69 19
-75 23 -59 34 8 5 299 9 647 9 500 0 633 -2 637 -12z m883 -5 c4 -14 3 -14
-70 -33 -51 -13 -83 -37 -114 -85 -24 -38 -24 -144 0 -260 32 -149 116 -530
126 -565 5 -19 23 -98 40 -175 17 -77 45 -197 61 -266 16 -70 29 -134 29 -143
0 -34 16 -14 33 42 22 71 77 257 127 427 21 72 59 195 83 275 134 435 146 485
147 580 0 86 -21 128 -80 158 -24 12 -57 22 -72 22 -22 0 -28 5 -28 20 0 21 4
21 260 19 207 -1 260 -5 260 -15 0 -7 -19 -18 -42 -24 -24 -6 -50 -13 -58 -16
-43 -12 -100 -91 -143 -199 -25 -60 -50 -130 -57 -155 -6 -25 -32 -108 -57
-185 -25 -77 -53 -167 -63 -200 -25 -82 -115 -370 -150 -480 -15 -49 -42 -137
-60 -195 -17 -58 -35 -114 -40 -125 -8 -21 -54 -172 -97 -320 -14 -49 -30 -94
-34 -99 -5 -5 -25 -10 -45 -11 -44 -1 -41 -8 -95 213 -91 377 -321 1295 -350
1397 -70 252 -124 333 -244 369 -98 29 -91 26 -75 36 24 16 802 8 808 -7z
m-7135 -3313 c12 0 8 -18 -9 -34 -22 -22 -24 -549 -1 -554 9 -2 22 25 42 88
16 49 34 89 40 87 10 -4 23 -173 16 -214 -3 -22 -7 -23 -122 -23 -97 0 -119 3
-119 15 0 7 8 18 18 24 15 9 17 34 20 275 3 263 3 266 -20 296 -15 21 -19 33
-11 38 9 6 70 7 146 2z m684 -3 c3 -5 5 -48 4 -94 -2 -84 -2 -84 19 -73 28 15
64 6 90 -22 19 -20 20 -35 20 -209 0 -171 2 -188 20 -212 11 -14 20 -28 20
-31 0 -3 -63 -6 -140 -6 -142 0 -157 4 -125 36 23 24 22 549 -1 583 -13 18
-14 25 -4 31 17 11 89 9 97 -3z m2231 1 c6 -8 10 -127 11 -307 1 -234 4 -298
15 -310 7 -9 12 -20 10 -26 -4 -10 -173 -11 -199 -1 -27 10 -45 109 -45 250 0
182 23 239 95 233 29 -2 30 -1 33 50 2 36 -2 60 -13 77 -9 14 -14 30 -10 36 9
14 90 13 103 -2z m3205 -20 c17 -21 24 -78 9 -78 -5 0 -17 9 -27 20 -28 31
-41 24 -42 -21 -2 -32 3 -46 20 -59 21 -17 21 -19 4 -37 -15 -17 -17 -43 -17
-208 0 -160 2 -191 16 -206 31 -34 12 -47 -66 -44 -39 2 -74 6 -77 9 -3 3 4
17 16 32 20 25 21 39 21 207 0 173 -1 182 -22 205 l-23 23 22 17 c15 12 22 32
25 70 3 30 12 60 23 72 31 34 87 34 118 -2z m-4683 -78 c0 -36 5 -52 17 -58
16 -9 16 -11 0 -36 -14 -21 -17 -54 -17 -210 l0 -185 30 6 c35 7 38 -4 9 -41
-25 -32 -92 -38 -108 -8 -5 10 -10 105 -12 212 -1 141 -5 202 -15 222 -13 25
-12 29 11 52 17 17 25 36 25 60 0 28 4 35 23 38 33 6 37 1 37 -52z m6732 -2
c-3 -39 0 -48 18 -58 20 -11 20 -13 6 -35 -11 -17 -16 -65 -21 -193 -3 -93 -2
-177 1 -186 4 -11 13 -14 31 -10 23 6 25 5 18 -17 -13 -41 -26 -50 -69 -47
-62 5 -66 20 -65 245 0 167 -2 195 -16 209 -15 16 -15 19 9 41 18 16 26 34 26
57 0 40 7 48 40 44 23 -3 25 -6 22 -50z m-3129 -60 c144 0 137 11 137 -231 0
-176 1 -191 21 -219 12 -16 19 -32 16 -35 -7 -7 -387 -6 -394 1 -3 3 4 17 16
32 20 25 21 39 21 206 0 167 -2 182 -21 206 -18 24 -19 27 -4 38 9 7 34 10 58
7 23 -3 90 -5 150 -5z m-4732 -13 c16 -9 34 -27 39 -41 6 -14 10 -104 10 -200
0 -171 1 -175 20 -169 24 8 27 -20 6 -47 -15 -20 -71 -24 -82 -7 -4 8 -9 8
-17 0 -6 -6 -27 -11 -47 -11 -57 0 -74 26 -79 121 -2 44 0 91 3 105 4 15 32
52 62 84 38 40 54 65 54 84 0 37 -26 44 -72 17 -33 -19 -39 -20 -44 -6 -7 18
10 42 51 67 37 22 57 23 96 3z m697 -209 c2 -177 5 -223 17 -236 22 -24 9 -30
-67 -30 -68 0 -81 7 -53 30 22 18 22 395 0 424 -22 28 -9 37 48 34 l52 -3 3
-219z m200 212 c8 -8 15 -8 25 0 24 21 32 -5 29 -97 -3 -70 -6 -89 -17 -85 -7
3 -16 22 -20 42 -9 49 -33 94 -47 86 -17 -11 0 -81 41 -163 55 -108 67 -164
45 -210 -23 -48 -29 -51 -101 -49 l-63 2 0 93 c0 73 3 93 14 93 9 0 17 -15 21
-38 3 -21 16 -54 28 -73 l22 -34 3 47 c3 40 -4 61 -42 134 -41 76 -46 93 -46
150 0 56 4 68 25 89 26 27 64 32 83 13z m505 -8 c37 -29 57 -109 57 -227 0
-102 -25 -208 -55 -233 -7 -6 -35 -10 -62 -8 -47 3 -49 4 -73 53 -22 46 -25
61 -25 190 0 114 3 147 18 177 32 67 90 87 140 48z m309 -19 c26 -52 4 -83
-30 -41 -12 14 -21 17 -32 10 -12 -7 -16 -42 -18 -185 -3 -167 -2 -176 18
-203 l22 -27 -72 -3 c-40 -2 -75 0 -78 3 -3 3 2 19 11 34 24 41 26 398 2 407
-8 4 -15 15 -15 25 0 18 7 19 88 17 l87 -3 17 -34z m156 -179 c2 -176 5 -218
19 -238 8 -14 13 -27 9 -31 -6 -7 -138 -4 -145 3 -2 2 5 14 17 27 21 22 22 32
22 214 0 157 -3 193 -15 203 -32 27 -18 41 38 38 l52 -3 3 -213z m257 194 l30
-24 5 -189 c5 -172 6 -188 23 -185 24 4 22 -33 -2 -57 -16 -16 -26 -18 -50
-11 -17 5 -55 6 -83 3 -51 -5 -54 -4 -71 26 -25 42 -32 119 -17 180 10 41 23
61 66 103 40 39 54 59 54 80 0 38 -23 45 -68 22 -21 -10 -40 -20 -44 -22 -18
-9 -6 36 15 55 54 49 97 55 142 19z m722 18 c42 -11 86 -151 69 -218 -6 -24
-10 -26 -66 -26 l-60 0 0 -63 c0 -76 16 -117 47 -117 12 0 27 9 33 20 12 22
36 27 43 8 4 -15 -19 -56 -42 -75 -8 -7 -33 -13 -56 -13 -47 0 -75 23 -94 79
-16 50 -14 303 3 345 23 55 65 75 123 60z m446 -14 c34 -27 39 -55 41 -244 1
-153 3 -161 21 -161 25 0 22 -33 -5 -56 -19 -17 -65 -15 -76 3 -4 5 -10 5 -17
-1 -11 -8 -54 -15 -84 -12 -23 2 -53 78 -53 133 0 85 15 122 76 183 36 36 54
61 50 71 -3 9 -6 23 -6 31 0 18 -45 10 -71 -13 -22 -19 -39 -18 -39 4 0 19 29
51 65 70 31 17 70 14 98 -8z m321 8 c12 -7 22 -6 29 1 12 12 66 15 83 3 5 -4
18 -18 27 -32 15 -21 17 -52 17 -216 0 -161 2 -193 15 -198 8 -3 15 -12 15
-21 0 -13 -27 -15 -195 -15 -206 0 -212 2 -180 44 22 29 22 378 0 400 -8 8
-15 22 -15 30 0 13 15 15 93 14 50 0 100 -5 111 -10z m418 -13 c25 -23 37 -61
54 -166 7 -43 -11 -194 -28 -241 -16 -44 -44 -62 -89 -59 -23 1 -50 7 -60 14
-31 19 -50 105 -52 229 -2 130 13 199 51 228 35 28 91 26 124 -5z m281 10 c9
-6 21 -24 27 -39 17 -45 -6 -61 -41 -30 -10 9 -25 14 -34 11 -23 -9 -23 -361
0 -384 27 -26 12 -35 -60 -35 -73 0 -89 10 -61 38 23 23 24 402 1 410 -8 4
-15 15 -15 25 0 17 8 19 83 18 46 -1 91 -7 100 -14z m824 -9 l28 -24 3 -186
c3 -176 5 -186 23 -186 25 0 25 -34 -1 -60 -23 -23 -54 -26 -72 -6 -11 12 -17
12 -39 0 -32 -16 -67 -11 -92 15 -15 15 -21 38 -25 94 -7 114 1 138 63 198 41
40 55 60 55 81 0 38 -22 45 -63 19 -41 -25 -57 -27 -57 -4 0 20 38 63 57 63 7
0 13 5 13 10 0 21 78 11 107 -14z m239 13 c4 -8 9 -8 17 0 30 30 37 12 37 -90
0 -90 -2 -100 -17 -97 -10 2 -19 12 -21 23 -5 36 -34 105 -43 105 -21 0 -6
-63 35 -146 24 -49 50 -113 57 -142 12 -47 11 -56 -5 -85 -10 -18 -26 -38 -34
-44 -20 -16 -64 -17 -80 -1 -9 9 -15 9 -23 1 -6 -6 -18 -9 -25 -6 -11 4 -14
29 -14 105 0 89 2 99 17 96 12 -2 22 -19 29 -48 18 -73 26 -91 38 -87 6 2 10
21 9 43 -3 36 -10 55 -63 154 -35 64 -40 158 -10 199 17 24 29 31 55 31 19 0
37 -5 41 -11z m637 -10 c28 -21 50 -82 47 -127 -1 -15 -2 -82 -1 -149 1 -116
2 -123 21 -123 26 0 25 -20 -1 -54 -20 -26 -48 -31 -76 -13 -7 4 -22 3 -33 -3
-35 -18 -81 -8 -104 23 -16 22 -22 47 -25 108 -3 70 0 84 22 121 14 24 41 56
61 73 30 25 36 36 36 69 0 37 -1 38 -27 31 -16 -3 -35 -13 -44 -21 -8 -8 -21
-14 -27 -14 -20 0 -13 35 11 57 53 48 99 55 140 22z m245 9 c9 -9 15 -9 24 0
21 21 25 13 32 -71 11 -133 -10 -155 -47 -48 -23 64 -40 79 -45 39 -2 -19 51
-145 98 -230 6 -10 10 -42 10 -72 0 -48 -4 -57 -29 -79 -25 -20 -39 -24 -86
-22 -36 1 -60 7 -66 16 -11 17 -2 170 11 183 6 6 10 8 10 6 2 -25 49 -135 59
-138 25 -8 4 83 -39 172 -33 68 -40 92 -40 143 0 46 5 67 21 87 22 28 66 35
87 14z m305 -12 c31 -29 45 -72 28 -89 -9 -9 -18 -4 -37 21 -31 39 -36 39 -51
5 -26 -55 -10 -343 19 -343 5 0 19 11 32 25 13 14 28 25 35 25 17 0 13 -42 -8
-77 -38 -62 -117 -51 -155 22 -18 35 -21 58 -21 180 0 162 5 188 47 227 37 35
76 36 111 4z m197 -195 c-1 -186 1 -216 16 -232 30 -33 12 -45 -62 -44 -57 0
-69 3 -72 18 -2 9 4 20 12 23 14 5 16 33 16 203 -1 154 -4 200 -15 215 -22 29
-9 37 52 34 l55 -3 -2 -214z m277 202 c12 -8 24 -22 28 -31 4 -9 9 -102 12
-207 4 -154 7 -193 20 -208 9 -9 14 -20 10 -23 -8 -8 -263 -8 -276 1 -8 4 -5
15 9 32 18 24 20 40 20 205 0 164 -2 182 -20 205 -11 14 -17 29 -14 34 9 15
186 8 211 -8z m294 -12 l29 -29 0 -187 c0 -179 1 -186 19 -180 27 8 36 -12 17
-40 -12 -19 -25 -25 -51 -25 -18 0 -37 5 -41 11 -4 8 -9 8 -17 0 -6 -6 -29
-11 -52 -11 -54 0 -67 23 -73 127 -5 101 4 126 69 188 40 38 49 53 49 81 0 29
-3 34 -24 34 -13 0 -35 -10 -50 -21 -21 -16 -30 -19 -39 -10 -15 15 0 39 43
69 46 31 85 29 121 -7z m312 17 c38 -20 47 -68 47 -256 0 -150 3 -182 15 -192
31 -26 -2 -33 -132 -31 -70 1 -130 4 -132 6 -2 3 4 16 13 29 24 37 24 391 0
417 -9 10 -13 22 -9 28 8 13 173 12 198 -1z m496 -18 c33 -34 45 -82 39 -165
l-3 -50 -57 -3 -58 -3 1 -57 c2 -93 10 -117 41 -120 18 -2 31 4 42 20 21 30
41 12 27 -24 -16 -42 -39 -58 -85 -58 -76 0 -101 46 -112 206 -9 121 8 213 46
254 38 40 78 40 119 0z m-2829 -1008 c0 -285 1 -300 20 -317 15 -13 17 -22 9
-36 -8 -16 -20 -18 -100 -16 -82 2 -93 5 -110 26 -11 13 -19 31 -19 42 0 10
-4 21 -10 24 -6 4 -10 66 -10 154 0 195 24 261 97 261 l33 0 0 54 c0 35 -5 58
-15 66 -32 27 -17 40 45 40 l60 0 0 -298z m-636 252 c12 -5 16 -20 16 -60 0
-30 5 -54 10 -54 6 0 10 -9 10 -19 0 -11 -4 -23 -10 -26 -6 -4 -10 -80 -10
-196 0 -174 5 -211 25 -179 5 8 11 7 21 -1 19 -16 18 -24 -11 -55 -30 -32 -74
-36 -102 -9 -16 17 -18 40 -21 227 -3 171 -6 210 -18 215 -21 8 -17 29 11 47
15 10 25 26 25 41 0 31 17 75 29 75 5 0 16 -3 25 -6z m-2466 -382 c2 -255 2
-265 -19 -302 -23 -41 -55 -53 -95 -37 -22 9 -44 46 -44 72 0 26 23 28 41 4
l18 -24 10 28 c7 17 11 116 11 244 0 186 -2 219 -16 234 -28 31 -11 51 43 47
l48 -3 3 -263z m257 244 l30 -24 3 -192 c3 -181 4 -191 22 -185 27 9 33 -11
13 -45 -13 -23 -24 -30 -48 -30 -17 0 -36 5 -43 12 -8 8 -15 8 -26 -1 -8 -7
-30 -11 -48 -9 -94 9 -105 235 -15 310 58 48 68 62 65 87 -2 20 -9 27 -29 29
-14 2 -31 -4 -39 -12 -13 -16 -41 -21 -53 -10 -10 10 25 55 58 75 41 25 74 24
110 -5z m335 13 c8 0 28 3 43 7 38 9 73 -11 87 -49 5 -17 10 -111 10 -212 0
-170 1 -183 20 -200 12 -11 17 -22 12 -27 -12 -12 -382 -12 -394 0 -5 5 0 20
12 34 18 24 20 40 20 209 0 172 -1 184 -21 205 -41 44 -31 45 211 33z m379 -6
c16 -10 35 -28 40 -41 7 -13 11 -96 11 -197 0 -168 1 -173 20 -168 16 4 20 0
20 -20 0 -26 -34 -67 -55 -67 -6 0 -20 7 -32 15 -18 13 -25 13 -48 1 -14 -8
-35 -12 -45 -9 -27 7 -60 41 -60 63 0 10 -4 21 -9 24 -14 9 -5 138 12 171 8
17 36 50 61 75 33 32 46 52 46 72 0 23 -4 28 -23 28 -13 0 -32 -7 -43 -15 -28
-21 -44 -18 -44 10 0 17 11 32 37 50 44 29 70 31 112 8z m246 7 c3 -6 15 -5
31 2 20 9 27 9 33 0 12 -20 13 -171 0 -193 -15 -29 -26 -15 -48 61 -9 35 -23
66 -31 68 -25 9 -3 -78 44 -169 40 -76 46 -96 46 -149 0 -34 -5 -70 -10 -80
-14 -27 -75 -42 -108 -27 -19 9 -26 9 -29 0 -3 -7 -11 -9 -19 -6 -11 4 -14 27
-14 105 0 88 2 99 17 96 10 -2 21 -20 28 -48 16 -63 34 -95 47 -82 17 17 0 76
-44 159 -37 69 -41 86 -42 150 -1 63 2 75 23 97 24 26 65 35 76 16z m464 -16
c12 -15 21 -32 21 -40 0 -7 5 -14 12 -16 8 -3 7 -11 -4 -27 -14 -20 -17 -21
-29 -6 -33 38 -41 45 -54 45 -10 0 -13 -33 -14 -154 -2 -210 7 -239 58 -180
18 20 25 23 37 14 16 -14 19 -40 4 -40 -5 0 -10 -6 -10 -13 0 -19 -40 -53 -70
-60 -16 -4 -37 0 -56 12 -46 28 -64 97 -64 243 0 128 15 184 62 228 32 29 81
26 107 -6z m251 16 c10 -5 29 -27 42 -47 21 -36 23 -48 23 -188 -1 -165 -11
-204 -62 -245 -47 -37 -111 -11 -140 58 -21 49 -29 238 -13 312 21 99 84 145
150 110z m332 -4 c33 -25 38 -54 38 -241 0 -155 3 -189 15 -202 9 -8 15 -23
13 -32 -5 -23 -266 -29 -275 -5 -3 8 2 23 11 33 14 15 16 47 16 214 0 109 -4
197 -9 197 -11 0 -23 29 -16 40 8 13 190 9 207 -4z m505 -23 c22 -27 23 -36
23 -212 0 -158 2 -182 14 -172 12 10 17 8 26 -8 9 -17 7 -26 -7 -46 -21 -29
-39 -34 -72 -23 -16 6 -35 5 -53 -3 -66 -27 -111 20 -116 123 -7 108 3 136 64
195 43 42 54 59 54 84 0 30 -1 31 -32 25 -17 -3 -40 -14 -50 -23 -13 -12 -22
-13 -29 -6 -15 15 1 43 43 78 42 36 101 31 135 -12z m568 27 c48 -18 58 -65
56 -252 -2 -161 -2 -166 17 -161 25 6 36 -11 23 -36 -8 -14 -8 -20 0 -23 7 -2
-7 -10 -30 -18 -37 -12 -44 -12 -57 2 -14 14 -19 14 -46 1 -66 -34 -118 30
-118 144 0 89 10 114 77 182 32 32 51 61 48 69 -3 7 -5 18 -5 23 0 18 -42 9
-74 -16 -28 -21 -35 -23 -40 -10 -9 25 10 61 46 83 37 24 64 27 103 12z m1565
-910 l0 -40 480 0 480 0 0 -40 0 -40 200 0 200 0 0 40 0 40 80 0 80 0 0 -80 0
-80 40 0 40 0 0 -40 0 -40 200 0 200 0 0 -160 0 -160 -40 0 -40 0 0 -40 0 -40
120 0 120 0 0 -40 0 -40 40 0 40 0 0 -160 0 -160 40 0 40 0 0 -40 0 -40 160 0
160 0 0 -40 0 -40 40 0 40 0 0 -40 0 -40 120 0 120 0 0 -40 0 -40 40 0 40 0 0
-40 0 -40 40 0 40 0 0 -40 0 -40 40 0 40 0 0 -80 0 -80 80 0 80 0 0 -40 0 -40
40 0 40 0 0 -40 0 -40 40 0 40 0 0 -40 0 -40 40 0 40 0 0 -40 0 -40 80 0 80 0
0 -40 0 -40 40 0 40 0 0 -40 0 -40 40 0 40 0 0 -40 0 -40 40 0 40 0 0 -40 0
-40 -40 0 -40 0 0 -120 0 -120 -80 0 -80 0 0 -40 0 -40 -40 0 -40 0 0 -40 0
-40 -40 0 -40 0 0 -40 0 -40 80 0 80 0 0 -40 0 -40 46 0 46 0 -7 -32 c-14 -67
-38 -145 -61 -193 -13 -28 -24 -53 -24 -57 0 -4 -15 -33 -34 -65 -18 -32 -37
-69 -41 -83 -4 -14 -13 -29 -20 -35 -11 -9 -34 -51 -64 -115 -40 -86 -101
-185 -116 -188 -14 -3 -17 1 -13 22 8 38 -23 63 -58 47 -19 -8 -30 -9 -40 0
-7 6 -18 8 -23 4 -15 -9 -47 25 -55 58 -8 35 -19 34 -53 -3 -33 -38 -43 -38
-43 1 0 31 0 31 -42 24 -53 -9 -59 -13 -57 -33 4 -40 0 -44 -33 -37 -41 9 -44
12 -51 53 -6 29 -4 32 18 32 15 0 25 6 25 14 0 28 -12 46 -31 46 -12 0 -23 10
-29 25 -11 30 -40 33 -47 4 -4 -12 -11 -18 -20 -15 -8 3 -19 6 -24 6 -5 0 -9
6 -9 14 0 17 -27 29 -35 16 -3 -5 -12 -7 -19 -4 -7 3 -16 -2 -20 -11 -7 -20
-27 -9 -24 13 2 13 -6 18 -29 20 -24 2 -33 8 -33 22 0 22 -23 33 -38 18 -8 -8
-15 -8 -24 -1 -20 17 -75 26 -83 14 -3 -6 -15 -11 -26 -11 -25 0 -35 -25 -19
-45 14 -16 10 -18 -14 -9 -9 3 -16 12 -16 19 0 19 -19 29 -33 17 -18 -15 -48
11 -45 39 3 25 4 25 -101 30 -29 1 -44 -20 -26 -38 12 -11 10 -17 -10 -39 -23
-24 -26 -25 -55 -13 -34 15 -36 25 -16 55 12 17 12 24 0 52 -16 40 -42 52 -60
27 -13 -17 -14 -16 -23 8 -6 15 -8 34 -4 43 9 25 -17 35 -48 18 -16 -8 -35
-14 -44 -14 -10 0 -15 -10 -15 -30 0 -37 -35 -79 -51 -63 -8 8 -4 16 15 28 21
14 26 25 26 57 0 32 -3 39 -16 34 -11 -4 -19 4 -30 29 -11 27 -20 35 -39 35
-15 0 -25 -6 -25 -14 0 -7 -13 -19 -30 -26 -33 -14 -38 -31 -15 -50 8 -7 15
-18 15 -25 0 -19 -39 -26 -48 -8 -7 12 -18 5 -55 -31 -26 -25 -47 -50 -47 -55
0 -6 -12 -13 -27 -17 -49 -10 -53 -13 -53 -32 0 -18 -27 -50 -33 -41 -48 66
-71 88 -90 86 -17 -2 -21 3 -19 20 4 28 -18 41 -33 19 -11 -14 -13 -15 -19 -1
-7 19 -46 20 -46 0 0 -8 -8 -15 -18 -15 -10 0 -22 -3 -26 -7 -4 -4 -15 -8 -24
-8 -11 0 -18 -10 -20 -27 -2 -19 -10 -28 -25 -30 -16 -2 -23 -11 -25 -31 -2
-18 -7 -25 -15 -20 -7 4 -24 8 -39 9 -21 1 -28 -3 -28 -17 0 -28 -48 -45 -65
-23 -14 20 -35 10 -35 -17 0 -12 -10 -23 -26 -29 -35 -14 -30 -54 7 -58 21 -2
28 -10 33 -35 5 -26 2 -35 -21 -54 -37 -30 -51 -29 -55 5 -3 24 -7 27 -45 28
-22 1 -49 4 -58 8 -10 3 -23 2 -30 -4 -9 -8 -14 -6 -19 5 -8 21 -33 19 -46 -5
-7 -12 -25 -22 -50 -26 -34 -6 -40 -10 -40 -31 0 -16 -8 -27 -25 -33 -14 -5
-25 -16 -24 -22 1 -7 1 -20 0 -28 -1 -13 -3 -13 -14 0 -7 8 -24 16 -39 16 -23
2 -28 -2 -28 -21 0 -13 -8 -25 -17 -29 -10 -3 -23 -8 -29 -11 -6 -3 -14 4 -17
16 -8 29 -29 19 -39 -19 -5 -18 -15 -32 -23 -32 -16 0 -29 -35 -20 -51 4 -6
18 -8 31 -5 19 5 24 2 24 -11 0 -10 3 -27 5 -38 4 -15 -3 -26 -29 -42 -38 -24
-40 -23 -50 21 -7 27 -9 28 -48 22 -53 -9 -62 -15 -48 -31 7 -8 9 -19 5 -25
-10 -16 -33 -12 -56 11 -33 33 -49 18 -49 -46 0 -44 4 -57 18 -62 23 -9 32
-23 32 -51 0 -31 -24 -23 -28 9 -6 41 -72 91 -72 54 0 -10 -10 -15 -29 -15
-16 0 -36 -3 -45 -6 -18 -7 -22 -39 -6 -49 6 -4 8 -16 5 -26 -8 -24 11 -50 30
-43 8 3 21 2 30 -3 14 -8 13 -12 -9 -34 -17 -18 -22 -29 -15 -39 5 -8 9 -24 9
-35 0 -11 7 -33 15 -49 8 -15 15 -37 15 -48 0 -12 11 -31 25 -44 14 -13 25
-33 25 -45 0 -12 8 -31 18 -42 16 -19 16 -20 -5 -34 -13 -9 -23 -21 -23 -28 0
-7 -7 -18 -15 -25 -18 -15 -20 -61 -3 -78 9 -9 8 -15 -5 -24 -17 -12 -67 -102
-67 -120 0 -4 14 -8 30 -8 18 0 30 -5 30 -13 0 -22 -11 -27 -27 -11 -16 16
-47 11 -74 -12 -11 -10 -24 -11 -49 -4 -42 12 -67 -8 -72 -55 -3 -29 -2 -30
42 -31 155 -1 172 -4 177 -23 4 -15 14 -19 49 -18 24 0 56 -6 69 -13 20 -11
30 -11 51 -1 23 10 28 9 41 -9 11 -15 22 -20 37 -16 19 5 19 3 -4 -16 -14 -11
-30 -39 -35 -61 -8 -31 -16 -43 -32 -45 -12 -2 -25 -12 -28 -23 -5 -15 -12
-18 -28 -13 -34 10 -97 64 -91 77 6 16 -22 55 -32 45 -8 -9 -8 -51 1 -95 6
-29 5 -33 -14 -33 -14 0 -21 -6 -21 -20 0 -11 7 -20 15 -20 8 0 15 -4 15 -10
0 -5 -7 -10 -16 -10 -12 0 -15 -7 -12 -25 3 -14 1 -28 -3 -31 -17 -10 11 -44
36 -44 13 0 26 -4 29 -9 6 -9 -36 -31 -59 -31 -21 0 -28 -19 -14 -36 6 -8 8
-18 4 -22 -4 -4 -10 -1 -12 6 -6 14 -29 16 -38 2 -13 -21 13 -44 53 -46 78 -4
106 -25 58 -44 -29 -11 -42 -45 -26 -65 17 -21 37 -19 50 5 13 23 40 27 40 5
0 -22 38 -18 50 5 6 11 21 20 33 20 21 1 20 2 -8 25 -40 33 -10 34 38 1 30
-21 38 -22 48 -10 14 17 62 18 91 3 29 -15 33 -5 14 36 -9 19 -14 40 -11 45 9
15 41 12 55 -5 17 -20 23 -19 35 6 10 22 40 42 89 59 23 9 26 13 16 25 -10 12
-9 15 5 15 10 0 27 8 37 17 16 14 23 15 38 5 11 -7 27 -12 35 -12 31 0 13 -18
-32 -32 -59 -19 -65 -34 -19 -53 63 -27 36 -47 -49 -37 -42 4 -46 3 -43 -14 1
-11 -7 -33 -20 -48 -23 -30 -30 -98 -13 -124 9 -15 87 -23 111 -11 58 27 69
31 79 25 6 -4 14 0 17 8 8 20 24 11 24 -14 0 -10 6 -21 13 -23 6 -3 2 -6 -11
-6 -21 -1 -23 -4 -17 -33 4 -18 13 -36 19 -40 20 -13 83 -9 96 7 7 8 21 15 31
15 11 0 28 6 39 13 17 10 22 9 29 -1 7 -11 12 -10 27 5 23 24 54 36 54 22 0
-6 9 -8 19 -4 11 3 22 1 26 -5 12 -19 37 -11 35 13 -1 12 -2 33 -1 47 l1 24
16 -23 c22 -30 37 -14 37 39 l0 42 24 -26 c19 -21 28 -24 43 -16 11 6 20 16
20 23 0 7 3 22 6 33 4 16 0 23 -15 27 -27 7 -28 37 -1 37 11 0 22 -6 24 -12 2
-7 13 -43 25 -79 29 -91 31 -314 2 -380 -16 -37 -17 -56 -11 -114 5 -38 13
-83 19 -98 6 -16 11 -39 11 -51 0 -22 -4 -23 -98 -28 -72 -4 -121 -14 -187
-37 -123 -42 -176 -53 -192 -39 -10 8 -18 6 -31 -6 -24 -21 -32 -20 -32 2 0
10 -3 13 -8 6 -12 -18 -45 -26 -53 -12 -6 9 -13 8 -28 -7 -25 -22 -37 -15 -22
13 14 26 2 35 -24 18 -13 -8 -38 -13 -59 -11 -28 2 -39 -1 -47 -16 -7 -14 -16
-18 -30 -14 -14 5 -21 0 -29 -19 -11 -31 -35 -44 -86 -48 l-39 -3 2 42 2 43
-30 -16 c-22 -11 -34 -12 -43 -5 -15 13 -26 4 -26 -21 0 -17 -1 -17 -20 2 -34
34 -53 21 -28 -20 7 -10 10 -22 7 -25 -6 -5 -91 9 -123 21 -15 6 -17 3 -12
-13 5 -17 -2 -26 -41 -50 -26 -15 -82 -42 -123 -60 -291 -122 -275 -116 -274
-85 1 34 -23 26 -37 -13 -14 -38 -37 -53 -46 -29 -5 12 -8 12 -20 -6 -18 -26
-37 -26 -30 1 5 17 3 18 -10 7 -13 -10 -17 -10 -20 0 -9 25 -33 12 -33 -18 0
-31 -16 -41 -26 -15 -8 19 -33 19 -57 0 -11 -8 -35 -12 -58 -10 -21 2 -39 0
-39 -5 0 -4 -11 -18 -24 -31 -14 -13 -21 -29 -18 -38 5 -13 3 -13 -11 1 -9 9
-17 23 -17 30 -1 19 -30 -22 -30 -43 0 -10 -11 -19 -29 -22 -16 -3 -36 -13
-44 -21 -24 -25 -67 -37 -103 -30 -26 5 -34 3 -34 -8 0 -23 -86 -46 -215 -59
-66 -6 -138 -17 -160 -25 -22 -7 -93 -16 -157 -19 -65 -3 -143 -12 -175 -20
-31 -8 -77 -15 -100 -15 l-43 0 0 40 c0 47 -19 54 -40 15 -8 -16 -19 -24 -28
-20 -8 3 -21 -3 -28 -12 -14 -19 -13 -20 -18 26 -2 27 -23 22 -36 -10 -13 -29
-14 -30 -27 -13 -7 10 -13 26 -13 36 0 26 -18 22 -22 -4 -4 -31 -54 -43 -71
-17 -19 30 -36 22 -43 -21 -4 -22 -12 -44 -19 -50 -19 -16 -39 52 -30 99 4 20
8 99 10 176 l2 140 42 83 c41 82 54 95 65 67 3 -8 16 -15 30 -15 26 0 39 29
30 66 -5 19 -2 22 15 17 12 -3 21 -13 21 -24 0 -11 3 -20 8 -20 38 -7 54 -4
62 11 12 23 97 37 114 20 8 -9 8 -14 -1 -17 -7 -3 -13 -8 -13 -13 0 -12 76
-90 89 -90 6 0 11 -7 11 -15 0 -8 2 -15 4 -15 2 0 11 -3 20 -6 13 -5 16 1 16
26 0 17 -5 40 -10 50 -8 16 -8 18 5 14 8 -4 15 -15 15 -25 0 -24 15 -24 47 1
34 26 46 25 39 -3 -12 -49 42 -76 68 -34 9 14 7 20 -6 28 -31 18 -19 27 29 24
26 -2 57 1 70 6 29 11 31 49 3 56 -22 6 -28 32 -7 34 88 6 115 10 132 18 11 5
28 12 38 15 15 5 16 9 7 26 -6 11 -17 20 -24 20 -8 0 -21 11 -30 25 -9 14 -21
25 -28 25 -6 0 -16 8 -23 17 -12 16 -14 16 -39 -1 -16 -10 -35 -14 -47 -11
-21 7 -21 7 1 22 29 21 10 44 -31 36 -30 -6 -39 7 -16 25 13 11 64 5 73 -9 3
-5 23 -9 44 -9 21 0 42 -4 45 -10 10 -16 35 -12 35 6 0 28 34 10 44 -24 8 -29
26 -45 26 -23 0 9 47 25 66 22 6 -1 19 10 28 24 20 30 42 35 26 5 -8 -16 -8
-20 3 -20 8 0 29 -3 46 -6 25 -5 31 -3 31 11 0 13 6 15 29 10 17 -4 32 -2 36
5 9 15 -25 52 -42 46 -7 -3 -15 -1 -18 3 -7 13 22 34 48 35 17 1 22 7 22 26 0
17 -6 25 -17 25 -9 0 -20 4 -24 8 -4 4 -23 7 -43 8 -36 0 -36 0 -13 16 25 17
29 38 8 50 -7 4 -17 22 -23 38 -5 17 -16 30 -24 30 -23 1 -39 15 -39 36 0 29
-29 57 -40 39 -5 -7 -3 -21 3 -30 8 -14 5 -25 -12 -49 -21 -28 -26 -31 -59
-25 -21 3 -46 17 -58 30 -11 12 -33 26 -48 30 l-27 6 23 14 c13 7 35 18 51 25
15 6 27 15 27 19 0 4 18 15 40 24 22 9 40 22 40 30 0 15 21 26 49 26 9 0 24 9
34 20 9 11 26 20 36 20 29 0 35 18 15 41 -14 16 -26 19 -49 14 -66 -13 -98
-12 -102 4 -4 15 -33 37 -85 66 -10 5 -18 17 -18 27 0 21 -70 77 -89 70 -12
-4 -13 9 -8 71 4 61 3 77 -9 81 -9 3 -12 10 -9 16 3 6 3 30 -1 55 -5 34 -11
45 -24 45 -20 0 -43 23 -33 33 3 4 14 7 24 7 27 0 33 19 14 40 -9 10 -14 23
-11 28 11 18 -19 31 -60 25 -47 -6 -70 -33 -54 -63 11 -20 -2 -36 -20 -25 -13
8 -13 31 2 54 9 15 7 24 -11 50 -26 36 -36 38 -53 11 -16 -26 -34 -26 -41 0
-5 19 -8 20 -39 7 -25 -10 -33 -20 -33 -38 0 -19 -5 -23 -24 -21 -14 1 -30 7
-38 13 -18 15 -17 45 2 53 26 10 17 36 -15 42 -16 4 -35 13 -41 20 -16 20 -29
17 -29 -5 0 -14 -6 -17 -25 -13 -14 2 -25 8 -25 13 0 17 -48 9 -55 -8 -6 -17
-7 -17 -16 0 -6 9 -21 17 -34 17 -15 0 -25 6 -25 14 0 20 -19 31 -32 18 -6 -6
-21 -7 -42 -1 -24 7 -34 6 -42 -6 -6 -8 -16 -15 -23 -15 -15 0 -14 -23 1 -38
9 -9 8 -12 -4 -12 -9 0 -20 9 -23 21 -6 16 -12 19 -36 14 -25 -6 -30 -3 -39
20 -8 21 -13 24 -28 16 -13 -7 -23 -6 -31 2 -8 8 -15 7 -28 -5 -13 -14 -14
-20 -3 -33 11 -13 10 -19 -5 -35 -16 -17 -20 -18 -45 -5 -22 11 -26 19 -23 42
6 38 -20 62 -48 45 -26 -16 -27 -16 -34 18 -8 36 -21 46 -40 30 -20 -17 -78
-5 -100 20 -26 29 -48 25 -64 -11 -11 -25 -11 -36 -2 -51 15 -24 7 -38 -19
-31 -14 4 -22 -1 -29 -20 -5 -14 -15 -28 -21 -32 -5 -3 -8 -11 -4 -16 3 -5 -8
-14 -24 -20 -20 -7 -28 -16 -28 -31 1 -30 -15 -32 -46 -3 -15 14 -36 25 -46
25 -12 0 -22 9 -26 22 -4 18 -8 20 -17 11 -9 -9 -16 -9 -25 -2 -9 8 -17 4 -30
-15 -9 -15 -24 -25 -33 -24 -11 2 -15 -4 -14 -19 1 -11 -4 -26 -11 -32 -8 -7
-12 -21 -9 -34 5 -18 3 -20 -8 -9 -22 20 -39 14 -50 -18 -11 -29 -29 -41 -29
-19 0 6 -6 9 -12 6 -7 -2 -13 -11 -13 -19 0 -8 -6 -22 -12 -29 -15 -18 0 -44
20 -36 10 4 19 -4 28 -24 10 -26 10 -33 -4 -46 -19 -20 -32 -11 -57 37 l-20
39 -73 -2 c-42 -1 -77 -7 -85 -14 -7 -7 -24 -13 -37 -13 -43 0 -74 -17 -68
-38 7 -29 -15 -37 -35 -12 -16 20 -19 20 -55 5 -40 -16 -45 -29 -23 -54 7 -9
16 -31 19 -49 6 -27 2 -38 -20 -60 -24 -24 -25 -27 -8 -37 9 -5 27 -18 39 -27
l21 -18 -22 -6 c-26 -7 -27 -8 -12 -35 9 -18 7 -19 -15 -13 -28 7 -31 2 -16
-26 8 -15 5 -23 -12 -40 -12 -11 -27 -20 -34 -20 -22 0 -25 -18 -9 -50 9 -18
23 -30 35 -30 14 0 20 -7 20 -24 0 -27 39 -106 52 -106 4 0 3 -9 -4 -20 -10
-15 -10 -22 0 -32 16 -16 15 -28 -3 -28 -17 0 -20 -21 -4 -37 5 -5 11 -25 11
-43 1 -17 7 -34 15 -37 7 -3 13 -12 13 -20 0 -11 7 -13 25 -9 27 7 34 -11 13
-32 -8 -8 -8 -15 0 -24 14 -18 5 -31 -36 -52 -25 -13 -32 -23 -30 -39 2 -13
12 -23 23 -25 11 -2 27 -13 37 -25 13 -18 19 -19 32 -8 24 20 56 4 56 -28 0
-35 -9 -44 -28 -29 -12 10 -19 7 -38 -15 -29 -34 -30 -47 -4 -54 24 -6 17 -21
-16 -33 -29 -12 -30 -21 -3 -46 14 -13 36 -19 67 -19 42 0 46 -2 55 -30 13
-38 23 -45 69 -45 20 0 40 -4 43 -10 3 -5 -1 -10 -9 -10 -21 0 -21 -39 -1 -47
9 -3 22 2 29 13 11 15 17 16 29 6 21 -18 45 11 27 33 -16 20 -5 19 26 -2 20
-13 27 -14 33 -4 6 8 20 10 45 6 40 -8 46 2 16 28 -12 10 -18 22 -15 28 5 6
12 6 22 -2 12 -10 19 -8 39 14 14 15 31 27 38 27 8 0 13 8 12 17 -1 13 8 19
32 21 38 4 43 -13 7 -22 -30 -8 -32 -22 -5 -31 27 -9 25 -25 -3 -25 -45 0 -54
-118 -9 -122 37 -3 77 5 96 18 29 20 36 18 36 -14 0 -64 54 -68 162 -11 10 5
34 9 55 9 29 0 34 3 25 12 -17 17 -15 31 4 24 11 -4 18 1 21 14 3 12 12 19 22
18 24 -4 27 40 4 57 -10 7 -15 16 -11 20 29 30 145 -237 132 -304 -5 -22 2
-47 25 -94 32 -66 39 -97 20 -97 -7 0 -9 -10 -7 -25 8 -38 -9 -40 -30 -6 -20
33 -32 31 -32 -5 0 -14 -10 -30 -25 -40 -14 -9 -25 -25 -25 -35 0 -26 -21 -35
-36 -14 -12 17 -14 16 -25 -9 -15 -31 -49 -36 -49 -6 0 26 -12 26 -28 0 -14
-23 -35 -18 -25 5 9 26 -13 16 -25 -10 -15 -33 -30 -32 -35 3 l-3 27 -13 -32
c-17 -44 -41 -51 -41 -13 0 37 -14 38 -36 5 l-17 -26 -28 33 c-25 30 -28 31
-29 12 0 -12 -6 -35 -13 -52 -14 -34 -33 -31 -38 7 -6 39 -27 36 -35 -3 -7
-39 -23 -47 -31 -16 -6 23 -23 27 -23 5 0 -8 -7 -15 -15 -15 -8 0 -15 5 -15
10 0 20 -19 9 -22 -12 -2 -15 -10 -23 -23 -23 -16 0 -21 8 -23 35 -2 23 -10
40 -24 49 -19 11 -23 11 -37 -7 -9 -11 -28 -27 -44 -37 -27 -17 -28 -17 -49
10 -18 24 -22 25 -30 10 -6 -10 -14 -13 -21 -7 -7 5 -25 12 -41 15 -22 4 -30
1 -34 -15 -3 -15 -10 -18 -28 -14 -12 3 -26 2 -29 -4 -11 -18 -34 -11 -37 12
-3 22 -4 22 -30 -7 -21 -22 -28 -26 -28 -13 0 29 -15 28 -47 -3 -36 -33 -43
-35 -43 -13 0 20 -20 13 -34 -12 -17 -30 -28 -34 -52 -16 -17 13 -20 21 -12
35 5 10 7 21 4 24 -11 11 -68 -21 -77 -44 -5 -14 -17 -23 -30 -23 -15 0 -19 5
-15 15 3 8 3 22 -1 32 -5 14 -10 12 -30 -13 -22 -27 -24 -28 -37 -11 -12 16
-17 16 -35 6 -17 -11 -23 -10 -40 5 -19 17 -20 16 -31 -17 -15 -40 -64 -66
-75 -39 -4 12 -8 13 -17 4 -19 -19 -28 -14 -28 13 0 29 -12 32 -31 9 -12 -15
-14 -14 -19 7 -7 28 -37 28 -58 1 -12 -16 -14 -16 -26 1 -15 20 -47 22 -64 5
-10 -10 -15 -10 -22 2 -5 8 -17 15 -27 16 -45 3 -51 5 -57 27 -6 22 -6 21 -26
-8 -11 -16 -20 -36 -20 -42 0 -7 -8 -13 -19 -13 -10 0 -24 -7 -31 -15 -19 -22
-28 -18 -22 10 5 27 -15 34 -36 13 -8 -8 -15 -8 -27 2 -12 10 -21 10 -44 0
-23 -9 -34 -9 -51 0 -18 10 -24 9 -31 -1 -5 -8 -9 -17 -9 -20 0 -4 -21 -9 -47
-12 -26 -3 -52 -12 -58 -21 -16 -21 -25 -20 -25 2 0 14 -8 18 -37 18 -20 0
-38 5 -40 11 -3 8 -11 5 -23 -7 -23 -23 -46 -17 -54 13 l-6 22 -19 -25 c-19
-23 -20 -24 -39 -7 -18 16 -19 16 -32 -8 -17 -31 -33 -27 -40 9 l-5 28 -22
-26 c-28 -32 -57 -35 -48 -6 4 11 3 34 0 51 -6 27 -11 30 -38 29 -60 -4 -75 0
-80 19 -4 17 -12 19 -61 16 -63 -4 -80 -11 -72 -31 4 -9 -2 -14 -16 -14 -18 0
-20 4 -14 40 5 31 3 40 -8 40 -8 0 -22 7 -31 16 -12 13 -19 14 -30 4 -12 -10
-18 -10 -29 0 -10 8 -20 9 -33 2 -12 -7 -26 -6 -45 4 -42 22 -113 28 -130 11
-8 -8 -24 -18 -37 -22 -18 -5 -24 -2 -28 14 -4 15 -14 21 -34 22 -16 1 -35 2
-41 3 -8 1 -13 -11 -13 -29 0 -23 -4 -30 -20 -30 -12 0 -19 6 -17 14 2 8 1 25
-3 38 -4 18 -12 23 -35 23 -23 0 -30 4 -30 20 0 21 -33 29 -45 10 -10 -16 -21
-12 -55 17 l-32 26 -26 -27 c-25 -25 -26 -28 -9 -40 22 -17 22 -26 -2 -26 -10
0 -27 -12 -36 -27 -10 -16 -29 -38 -42 -50 -22 -21 -26 -22 -53 -8 -16 8 -32
19 -35 25 -16 26 -95 -9 -95 -42 0 -7 -10 -20 -22 -28 -11 -8 -28 -23 -37 -32
-8 -10 -23 -18 -32 -18 -11 0 -20 -11 -23 -27 -7 -28 -20 -31 -109 -24 -4 1
-12 12 -17 26 -11 28 -40 34 -40 8 0 -15 -1 -15 -13 2 -13 17 -14 17 -20 -6
-7 -24 -7 -24 -27 9 -20 32 -30 38 -44 25 -4 -5 -11 -8 -14 -9 -4 0 -20 -4
-35 -9 -18 -5 -33 -3 -40 4 -15 15 -37 14 -37 -3 0 -7 -7 -19 -15 -26 -12 -10
-18 -10 -30 0 -10 9 -19 9 -27 2 -20 -16 -68 -3 -68 19 0 19 -15 24 -55 20
-11 -1 -26 6 -33 16 -13 17 -14 17 -27 -1 -14 -18 -15 -18 -34 5 l-19 24 -7
-30 c-11 -48 -14 -55 -25 -55 -5 0 -10 7 -10 15 0 19 -19 19 -43 0 -18 -13
-27 -13 -64 2 -30 11 -57 11 -71 0 -9 -7 -16 -5 -25 6 -7 9 -27 20 -44 23 -29
6 -34 3 -43 -20 -12 -31 -20 -35 -13 -5 6 20 3 21 -22 15 -22 -6 -31 -2 -42
14 -11 16 -22 20 -39 16 -14 -4 -24 -2 -24 4 0 6 -10 10 -22 8 -21 -3 -23 1
-20 35 2 28 0 37 -9 31 -7 -4 -17 0 -24 10 -11 14 -16 11 -47 -29 -36 -46 -48
-48 -48 -9 0 13 -4 26 -10 29 -5 3 -10 1 -10 -5 0 -15 -62 -102 -68 -96 -2 3
-6 28 -8 57 -4 62 -19 84 -28 41 -6 -24 -11 -28 -31 -24 -14 2 -25 9 -25 14 0
5 -5 6 -10 3 -6 -3 -13 1 -16 10 -5 13 -12 10 -35 -17 -15 -18 -28 -39 -29
-46 0 -23 -18 -3 -25 29 -5 22 -11 29 -22 25 -9 -4 -21 1 -29 11 -12 16 -14
15 -20 -13 -5 -25 -10 -31 -26 -27 -10 3 -25 20 -32 37 l-14 31 -7 -53 c-7
-48 -9 -51 -24 -38 -10 9 -27 42 -40 73 -23 59 -191 404 -201 413 -3 3 -10 16
-17 30 -6 14 -32 68 -57 122 -25 53 -46 99 -46 103 0 6 -59 137 -87 190 -8 17
-21 50 -28 75 -20 68 -43 128 -79 205 -18 39 -43 95 -55 125 -13 30 -31 73
-40 95 -22 49 -57 141 -67 175 -4 14 -15 40 -24 57 -23 44 -15 82 19 88 89 18
101 44 55 117 -15 24 -41 70 -57 103 -17 33 -38 69 -48 80 -9 11 -31 47 -48
79 -17 33 -35 64 -40 70 -8 10 -48 88 -120 234 -34 68 -68 120 -90 138 -16 12
-11 54 12 124 61 178 60 173 61 508 1 280 3 314 17 323 25 13 43 101 35 172
-5 49 -3 64 11 79 24 26 36 208 20 308 -6 41 -14 77 -17 80 -16 12 -24 50 -25
106 0 43 -5 68 -17 80 -21 25 -41 98 -28 102 16 6 12 20 -7 25 -10 3 44 5 120
6 l137 1 0 40 0 40 80 0 80 0 0 80 0 80 120 0 120 0 0 40 0 40 40 0 40 0 0 40
0 40 120 0 120 0 0 40 0 40 120 0 120 0 0 40 0 40 160 0 160 0 0 40 0 40 40 0
40 0 0 40 0 40 80 0 80 0 0 40 0 40 80 0 80 0 0 40 0 40 40 0 40 0 0 40 0 40
40 0 40 0 0 40 0 40 40 0 40 0 0 40 0 40 80 0 80 0 0 40 0 40 120 0 120 0 0
40 0 40 80 0 80 0 0 40 0 40 40 0 40 0 0 40 0 40 80 0 80 0 0 40 0 40 40 0 40
0 0 40 0 40 80 0 80 0 0 40 0 40 80 0 80 0 0 40 0 40 40 0 40 0 0 40 0 40 80
0 80 0 0 40 0 40 40 0 40 0 0 40 0 40 40 0 40 0 0 40 0 40 80 0 80 0 0 40 0
40 40 0 40 0 0 40 0 40 80 0 80 0 0 40 0 40 80 0 80 0 0 40 0 40 40 0 40 0 0
40 0 40 80 0 80 0 0 -40 0 -40 160 0 160 0 0 40 0 40 40 0 40 0 0 40 0 40 240
0 240 0 0 40 0 40 160 0 160 0 0 40 0 40 400 0 400 0 0 40 0 40 320 0 320 0 0
-40 0 -40 680 0 680 0 0 40 0 40 400 0 400 0 0 40 0 40 40 0 40 0 0 -40z
m-10565 -3161 c4 -11 4 -23 1 -26 -3 -4 -6 1 -6 10 0 10 -7 17 -15 17 -8 0
-15 -4 -15 -9 0 -5 7 -14 15 -21 8 -7 15 -19 15 -27 0 -8 5 -11 10 -8 6 3 10
1 10 -4 0 -7 64 -11 194 -11 177 0 195 -2 199 -17 3 -10 4 1 2 25 -4 38 -2 41
15 32 15 -8 20 -27 26 -111 8 -113 3 -106 104 -133 47 -13 57 -28 46 -71 -4
-16 -14 -25 -33 -27 -21 -2 -39 -20 -81 -83 -29 -44 -68 -96 -85 -117 -102
-117 -142 -177 -149 -220 -3 -22 -5 -21 -23 9 -11 17 -28 46 -37 62 -9 17 -33
38 -52 48 -20 9 -36 21 -36 27 0 6 -13 18 -28 27 -28 16 -29 21 -40 131 -7 63
-12 140 -12 171 0 31 -4 57 -8 57 -15 0 -36 96 -33 150 2 46 -1 59 -18 74 -24
22 -26 37 -9 54 18 18 36 14 43 -9z m13767 -1888 c7 10 8 7 4 -13 -6 -27 -5
-28 37 -28 30 0 53 -7 77 -25 32 -24 36 -24 47 -8 7 9 13 23 13 31 0 12 3 12
15 2 12 -10 15 -38 15 -134 0 -66 -4 -126 -8 -132 -4 -6 -45 -38 -92 -70 -47
-32 -118 -80 -159 -108 -40 -28 -80 -55 -90 -61 -9 -5 -18 -13 -21 -16 -3 -4
-20 -15 -38 -26 -18 -11 -57 -42 -87 -68 -43 -37 -55 -54 -55 -77 0 -64 43
-90 73 -45 14 21 15 19 22 -44 11 -99 6 -113 -35 -119 -48 -8 -60 -17 -60 -44
0 -21 -6 -25 -57 -32 -52 -8 -57 -11 -65 -40 -10 -39 -33 -49 -158 -69 -52 -8
-149 -27 -215 -41 -66 -14 -151 -32 -190 -39 -38 -8 -101 -21 -140 -29 -38 -9
-112 -16 -162 -16 -78 0 -93 3 -93 16 0 18 85 192 105 214 14 15 39 104 56
198 27 149 95 296 191 414 74 90 78 94 84 73 5 -21 55 -55 80 -55 8 0 15 11
16 25 1 14 3 39 5 55 2 17 4 39 5 50 3 24 7 25 23 3 11 -14 16 -15 28 -5 10 9
17 10 22 2 3 -5 1 -10 -4 -10 -6 0 -11 -14 -11 -31 0 -20 4 -29 13 -26 6 2 20
-2 29 -10 15 -13 19 -12 40 12 19 22 28 25 55 20 29 -5 33 -3 33 15 0 23 6 25
43 8 31 -15 35 -42 10 -57 -16 -10 -16 -12 -3 -23 8 -7 22 -33 31 -58 10 -30
25 -49 42 -58 20 -10 27 -21 27 -42 0 -16 5 -32 11 -36 22 -13 42 24 45 81 3
66 10 80 20 39 10 -43 14 -47 32 -31 34 29 98 42 106 21 2 -6 -6 -16 -20 -23
-27 -12 -30 -25 -11 -47 46 -55 57 -57 85 -12 24 37 19 56 -16 65 -24 6 -24 7
-7 19 11 8 23 10 29 5 17 -14 141 -7 160 8 20 17 21 64 1 81 -8 7 -15 22 -15
34 0 13 3 16 8 9 9 -15 166 -10 186 6 8 7 27 13 43 14 15 1 27 6 26 10 -2 4
-3 18 -3 32 0 20 -5 25 -24 25 -17 0 -26 7 -30 25 -4 14 -19 33 -35 43 -15 9
-26 23 -24 30 7 18 -57 15 -71 -4 -10 -13 -16 -13 -41 -3 -22 9 -26 13 -13 16
21 5 51 50 43 64 -4 5 -14 9 -23 8 -34 -3 -87 3 -72 8 8 3 23 14 33 24 14 16
21 17 43 7 20 -10 27 -9 36 3z m-1522 -427 c0 -8 5 -14 10 -14 6 0 15 -11 20
-25 12 -32 20 -31 56 4 21 21 41 30 74 32 40 4 45 1 48 -17 2 -15 -3 -23 -17
-27 -17 -4 -21 -13 -21 -50 0 -25 -6 -58 -14 -74 -13 -25 -56 -211 -71 -306
-4 -24 -19 -53 -41 -76 -19 -22 -34 -49 -34 -62 0 -31 -41 -118 -57 -119 -21
0 -35 91 -24 161 6 35 11 159 11 276 l0 211 -30 7 c-40 9 -38 21 6 37 31 11
34 16 29 38 -4 13 -12 28 -18 32 -7 5 0 8 16 8 19 0 27 5 27 18 0 11 5 8 15
-12 8 -15 15 -35 15 -42z m-3880 -1109 c0 -8 -5 -15 -11 -15 -11 0 -7 -176 7
-267 4 -32 2 -46 -10 -58 -9 -9 -16 -33 -16 -53 0 -34 -14 -73 -22 -62 -25 32
-37 66 -42 120 -4 36 -14 80 -22 98 -21 45 -28 94 -20 135 6 34 57 98 86 110
28 10 50 7 50 -8z m-6906 -2432 c4 -9 15 -73 26 -142 10 -69 28 -187 40 -261
11 -74 32 -206 45 -293 13 -88 26 -161 28 -163 2 -3 7 19 10 48 3 29 15 114
27 188 11 74 29 200 40 280 28 211 48 338 55 350 7 12 275 14 275 3 0 -5 -17
-26 -38 -47 l-37 -40 -3 -643 -2 -643 40 -44 c22 -24 40 -46 40 -50 0 -3 -67
-6 -150 -6 -82 0 -150 4 -150 8 0 4 13 26 30 49 l30 40 0 473 c0 260 -1 474
-3 477 -3 2 -7 -25 -11 -59 -6 -53 -42 -314 -61 -438 -12 -79 -47 -340 -55
-407 -17 -141 -18 -143 -56 -143 -19 0 -34 3 -34 8 -2 29 -66 475 -105 722 -9
58 -23 150 -31 204 -8 55 -17 102 -19 105 -3 2 -5 -207 -5 -466 l0 -470 30
-41 c17 -23 30 -46 30 -52 0 -6 -49 -10 -130 -10 -71 0 -130 3 -130 6 0 3 18
26 40 51 l40 46 0 633 0 632 -40 51 c-22 28 -40 53 -40 56 0 3 60 5 134 5 116
0 135 -2 140 -17z m1031 7 c7 -11 12 -41 50 -315 92 -656 142 -1001 150 -1042
3 -12 23 -39 45 -59 22 -21 40 -41 40 -46 0 -4 -70 -8 -155 -8 -85 0 -155 3
-155 7 0 4 16 24 37 45 41 42 42 56 23 183 -20 127 -9 115 -104 115 l-84 0 -6
-37 c-3 -21 -11 -78 -16 -126 -10 -81 -9 -90 9 -116 11 -15 27 -34 36 -41 8
-7 15 -16 15 -21 0 -5 -56 -9 -125 -9 -69 0 -125 4 -125 8 0 4 16 23 35 42 44
43 48 59 80 310 33 253 46 354 79 590 15 102 35 253 46 335 28 210 22 195 75
195 24 0 47 -5 50 -10z m827 -17 c61 -28 113 -85 140 -153 30 -76 32 -278 4
-360 -21 -62 -65 -131 -98 -154 -21 -15 -21 -15 21 -61 69 -75 71 -84 71 -360
l0 -245 38 -42 c20 -24 43 -47 50 -51 28 -19 7 -27 -68 -27 -54 0 -91 5 -111
16 -54 27 -59 57 -59 331 0 226 -2 250 -20 288 -20 42 -64 72 -105 71 -19 -1
-20 -9 -23 -299 l-2 -298 45 -48 c25 -26 45 -51 45 -55 0 -3 -74 -6 -165 -6
-91 0 -165 3 -165 6 0 4 20 29 45 55 l45 48 0 630 0 629 -45 45 c-25 25 -45
51 -45 57 0 9 48 11 178 8 156 -3 183 -6 224 -25z m738 -2 c57 -29 58 -29 88
-11 16 10 33 23 36 29 4 6 14 11 22 11 12 0 14 -40 14 -261 0 -287 -7 -315
-46 -178 -49 178 -142 339 -194 339 -88 0 -116 -191 -107 -738 7 -462 21 -542
94 -542 41 0 78 43 92 110 6 28 11 138 11 245 l0 193 -40 38 c-65 62 -60 64
114 64 85 0 157 -4 160 -8 3 -5 -15 -28 -39 -52 l-45 -44 0 -323 c0 -352 0
-351 -55 -293 -16 17 -37 30 -47 30 -9 0 -39 -13 -65 -30 -34 -22 -59 -30 -92
-30 -133 0 -216 145 -242 422 -15 170 -6 666 14 763 22 103 53 176 93 224 66
77 139 90 234 42z m715 -18 c4 -27 13 -88 20 -138 8 -49 17 -110 20 -135 3
-25 10 -74 16 -110 21 -141 112 -788 126 -895 5 -40 14 -58 50 -96 23 -25 43
-49 43 -53 0 -3 -70 -6 -155 -6 -85 0 -155 3 -155 7 0 4 16 24 37 45 41 42 42
56 23 183 -20 127 -10 115 -100 115 -45 0 -82 -5 -85 -11 -6 -8 -35 -211 -35
-241 0 -5 16 -25 35 -47 19 -21 35 -41 35 -45 0 -3 -56 -6 -125 -6 -69 0 -125
4 -125 8 0 5 18 27 39 49 31 32 41 50 46 89 3 27 10 76 15 109 11 67 45 320
85 625 9 63 20 142 25 175 5 33 19 132 30 220 29 225 22 205 80 205 l49 0 6
-47z m828 13 c99 -48 143 -132 154 -296 10 -154 -34 -294 -111 -356 l-33 -27
38 -34 c75 -68 79 -87 79 -367 l0 -247 50 -53 c28 -29 50 -56 50 -59 0 -15
-161 -7 -191 9 -54 27 -59 57 -59 331 0 228 -2 250 -20 289 -16 31 -31 46 -60
58 -74 29 -71 40 -68 -295 l3 -298 43 -43 c23 -24 42 -47 42 -51 0 -4 -74 -7
-165 -7 -91 0 -165 3 -165 6 0 4 20 29 45 55 l45 48 0 631 0 630 -45 46 c-25
25 -45 50 -45 55 0 7 61 9 178 7 171 -3 179 -4 235 -32z m897 17 c4 -189 -2
-499 -9 -501 -5 -2 -12 5 -15 15 -3 10 -19 68 -36 128 -55 197 -72 245 -87
260 -10 10 -35 15 -79 15 l-64 0 0 -290 0 -290 28 0 c25 0 32 8 67 80 21 44
43 80 47 80 4 0 8 -100 8 -222 0 -163 -3 -219 -11 -211 -6 6 -26 44 -45 85
-30 65 -36 73 -64 76 l-30 3 0 -295 0 -295 45 -7 c57 -8 91 1 109 29 13 19 52
149 103 340 9 31 19 57 24 57 8 0 18 -488 11 -510 -5 -15 -532 -13 -532 2 0 6
13 23 28 37 66 61 62 15 62 676 0 341 -4 614 -9 633 -5 18 -24 44 -41 58 -17
14 -35 35 -41 45 -9 18 -1 19 261 19 250 0 270 -1 270 -17z m780 -237 c0 -229
-5 -288 -24 -257 -6 10 -24 73 -72 261 -19 74 -42 140 -50 147 -9 6 -28 10
-42 8 -15 -2 -30 -4 -34 -4 -5 -1 -8 -287 -8 -637 l0 -636 45 -46 c25 -25 45
-49 45 -54 0 -4 -74 -8 -165 -8 -91 0 -165 3 -165 7 0 3 20 26 45 50 l45 43
-2 642 -3 643 -40 -3 c-22 -2 -41 -4 -42 -6 -1 -1 -25 -89 -53 -196 -63 -237
-57 -220 -70 -220 -7 0 -10 88 -10 260 l0 260 300 0 300 0 0 -254z m758 202
c6 -29 15 -84 21 -123 6 -38 17 -113 26 -165 8 -52 28 -187 45 -300 30 -200
48 -279 49 -218 1 16 21 171 46 345 24 175 49 354 56 398 17 127 1 115 155
115 149 0 154 -3 104 -57 -17 -18 -35 -44 -40 -58 -15 -39 -13 -1230 1 -1258
7 -12 25 -39 42 -60 16 -21 27 -40 25 -43 -3 -2 -71 -3 -151 -2 l-147 3 35 50
35 50 -2 480 -3 480 -23 -170 c-12 -93 -27 -195 -32 -225 -6 -30 -16 -104 -24
-165 -24 -179 -57 -417 -64 -460 -7 -36 -10 -40 -40 -43 -17 -2 -32 0 -32 5 0
4 -7 51 -15 103 -9 52 -27 172 -40 265 -14 94 -32 213 -39 265 -43 283 -56
376 -56 388 0 7 -4 11 -9 8 -5 -4 -10 -200 -10 -456 -2 -479 -1 -484 48 -539
11 -13 21 -28 21 -33 0 -4 -58 -8 -130 -8 -73 0 -130 4 -130 9 0 5 6 16 13 23
6 7 24 28 40 46 l27 34 0 626 0 627 -40 49 c-22 26 -40 52 -40 57 0 5 60 9
134 9 l135 0 9 -52z m1012 39 c0 -7 -18 -31 -40 -52 l-40 -39 0 -636 0 -636
40 -39 c21 -22 39 -46 40 -52 0 -10 -38 -13 -160 -13 -117 0 -160 3 -160 12 0
6 19 29 43 49 l42 37 0 636 0 635 -42 43 c-24 24 -43 49 -43 56 0 9 41 12 160
12 124 0 160 -3 160 -13z m758 -244 c-3 -286 -11 -318 -47 -181 -85 334 -85
333 -116 338 -17 4 -38 4 -47 2 -17 -4 -18 -43 -18 -639 l0 -634 45 -48 c25
-26 45 -51 45 -55 0 -3 -74 -6 -165 -6 -91 0 -165 4 -165 8 0 4 20 28 45 52
l45 44 -2 641 -3 640 -39 -2 c-22 -2 -41 -4 -43 -7 -2 -2 -28 -95 -58 -206
-30 -111 -57 -205 -60 -209 -9 -8 -25 22 -20 37 3 8 5 119 5 248 l0 234 300 0
300 0 -2 -257z m507 232 c50 -31 68 -31 99 0 14 14 30 25 36 25 7 0 10 -86 10
-260 0 -167 -4 -260 -10 -260 -5 0 -10 3 -11 8 -2 21 -37 174 -52 227 -41 148
-121 222 -173 161 -31 -35 -41 -77 -55 -229 -13 -147 -6 -701 11 -834 11 -90
35 -161 59 -180 9 -7 30 -13 47 -13 65 0 107 85 143 289 10 61 21 96 30 99 24
8 8 -255 -21 -337 -36 -101 -95 -151 -178 -151 -54 0 -90 16 -126 56 -94 102
-134 312 -134 704 0 320 22 476 85 600 56 109 153 148 240 95z m655 13 c0 -6
-18 -29 -40 -50 -22 -22 -42 -49 -45 -61 -3 -12 -4 -139 -3 -282 l3 -260 100
0 100 0 3 240 c4 302 2 315 -49 362 -65 60 -60 63 126 63 91 0 165 -4 165 -8
0 -4 -20 -28 -45 -52 l-45 -44 0 -636 0 -636 45 -45 c24 -24 45 -47 45 -51 0
-5 -74 -8 -165 -8 -120 0 -165 3 -165 12 0 6 15 25 33 42 19 17 39 41 45 53
15 27 17 574 3 589 -6 5 -53 8 -106 6 l-96 -3 3 -299 3 -299 43 -43 c23 -24
42 -47 42 -51 0 -4 -74 -7 -165 -7 -91 0 -165 4 -165 8 0 4 20 28 45 52 l45
44 0 636 0 636 -45 44 c-25 24 -45 48 -45 52 0 4 74 8 165 8 118 0 165 -3 165
-12z m1040 -249 c0 -199 -3 -260 -12 -257 -7 3 -36 90 -66 194 -30 104 -61
197 -70 207 -13 14 -29 17 -81 15 l-66 -3 -3 -288 -2 -288 32 3 c30 3 36 10
70 78 21 41 42 76 48 78 12 4 14 -420 3 -432 -4 -4 -26 30 -48 76 -37 77 -43
83 -72 86 l-33 3 0 -294 c0 -240 3 -296 14 -300 22 -9 135 5 146 17 5 7 32 93
59 192 28 99 53 188 57 197 18 49 24 -6 24 -243 l0 -260 -270 0 c-148 0 -270
3 -270 6 0 4 20 27 45 52 l45 45 0 634 0 634 -45 48 c-25 26 -45 51 -45 55 0
3 122 6 270 6 l270 0 0 -261z m510 247 c0 -7 -16 -27 -35 -43 -19 -16 -39 -42
-45 -57 -16 -43 -14 -1262 3 -1268 6 -3 31 -4 55 -2 44 3 72 17 72 37 0 25
123 387 131 387 6 0 8 -105 7 -257 l-3 -258 -257 -3 c-142 -1 -258 1 -258 6 0
4 20 28 45 52 l45 44 0 634 0 633 -45 48 c-25 26 -45 51 -45 55 0 3 74 6 165
6 133 0 165 -3 165 -14z m680 0 c0 -8 -15 -27 -34 -44 -19 -16 -39 -39 -45
-50 -11 -21 -17 -1235 -6 -1264 7 -19 115 -9 126 12 5 8 36 102 69 208 34 105
65 192 71 192 6 0 8 -96 7 -257 l-3 -258 -257 -3 c-142 -1 -258 1 -258 6 0 4
20 28 45 52 l45 44 0 634 0 633 -45 48 c-25 26 -45 51 -45 55 0 3 74 6 165 6
135 0 165 -3 165 -14z m-6312 -3157 c60 -34 145 -113 191 -178 l31 -44 0 -466
c-1 -442 -2 -465 -18 -443 -47 64 -150 165 -212 206 l-70 47 0 455 c0 357 3
454 13 454 6 0 36 -14 65 -31z m584 -171 l3 -203 205 -5 c159 -5 215 -10 248
-23 131 -51 211 -156 232 -305 26 -183 -53 -351 -195 -417 -83 -39 -158 -46
-485 -43 l-305 3 -3 455 c-1 250 0 464 2 475 17 67 227 260 288 265 4 0 9 -91
10 -202z m-801 80 c30 -12 57 -27 61 -33 4 -5 8 -186 8 -402 l0 -392 55 -25
c97 -44 267 -167 253 -182 -3 -3 -32 8 -64 24 -64 32 -251 103 -324 123 -25 7
-51 17 -57 22 -20 15 -19 887 1 887 7 0 38 -10 67 -22z m-172 -113 c14 -2 17
-43 21 -406 5 -394 5 -404 25 -407 58 -9 220 -47 290 -69 109 -33 109 -33 103
-39 -3 -3 -41 2 -84 10 -71 13 -151 23 -356 41 l-68 7 0 432 c0 238 3 436 7
439 4 4 15 4 26 1 11 -3 27 -7 36 -9z"/>
<path d="M6365 28236 c-90 -28 -151 -77 -215 -172 -62 -93 -95 -181 -122 -329
-19 -105 -22 -153 -22 -395 0 -242 3 -289 22 -393 36 -193 86 -301 183 -398
82 -83 145 -109 258 -110 89 0 158 18 209 57 159 120 236 320 263 676 12 166
10 231 -11 447 -29 289 -139 517 -284 589 -77 39 -207 51 -281 28z"/>
<path d="M8595 28244 c-116 -28 -114 -27 -174 -84 -52 -48 -91 -111 -133 -210
-75 -175 -103 -376 -95 -672 8 -324 56 -514 170 -682 22 -33 52 -70 66 -83 64
-58 168 -89 268 -80 113 11 190 60 262 166 75 110 106 189 142 365 26 127 37
469 20 626 -21 189 -74 370 -140 475 -42 68 -123 140 -177 159 -49 17 -172 29
-209 20z"/>
<path d="M16806 25129 c-155 -19 -285 -90 -413 -224 -231 -242 -349 -548 -415
-1070 -20 -162 -22 -224 -23 -610 0 -416 3 -464 36 -730 15 -115 66 -345 101
-450 81 -245 233 -480 388 -598 30 -23 57 -45 60 -48 3 -3 25 -15 50 -27 261
-125 621 -100 820 56 126 99 257 270 334 435 143 306 203 661 213 1251 9 511
-28 878 -123 1211 -106 376 -347 686 -599 773 -97 34 -292 48 -429 31z"/>
<path d="M14435 19912 c-90 -11 -136 -33 -203 -100 -100 -100 -123 -137 -171
-273 -64 -185 -91 -476 -73 -783 18 -281 67 -477 150 -593 12 -17 22 -34 22
-38 0 -19 119 -120 169 -144 47 -22 73 -27 158 -29 109 -4 159 8 233 54 85 53
191 205 216 309 4 17 10 35 15 40 19 25 49 226 60 402 20 322 -11 627 -79 803
-50 127 -91 191 -169 263 -56 52 -113 77 -183 83 -30 3 -68 6 -85 7 -16 2 -43
1 -60 -1z"/>
<path d="M6481 16371 c-12 -21 -16 -337 -5 -365 9 -23 33 -19 39 7 11 44 1
370 -12 374 -6 2 -16 -5 -22 -16z"/>
<path d="M13040 16365 c-12 -33 -13 -345 -1 -364 8 -12 12 -13 25 -1 14 11 16
38 14 198 -2 137 -6 186 -15 189 -7 3 -17 -7 -23 -22z"/>
<path d="M13652 16365 c-19 -41 -16 -336 3 -361 28 -37 35 2 32 195 -2 185
-10 222 -35 166z"/>
<path d="M12077 8311 c-8 -32 10 -93 32 -111 11 -8 24 -31 28 -50 7 -25 15
-36 31 -38 14 -2 22 2 22 11 0 8 7 17 15 21 24 9 18 42 -10 54 -14 6 -25 19
-25 27 0 22 -38 95 -49 95 -5 0 -16 3 -24 6 -9 3 -16 -3 -20 -15z"/>
<path d="M5047 5055 c-3 -11 -11 -65 -17 -120 -6 -55 -18 -143 -26 -195 -22
-149 -25 -140 52 -140 l67 0 -7 58 c-16 147 -49 379 -56 397 l-7 20 -6 -20z"/>
<path d="M5795 5517 c-3 -7 -4 -136 -3 -287 l3 -275 25 -3 c37 -4 87 32 106
75 13 29 18 76 22 200 5 192 -8 251 -62 284 -35 22 -84 25 -91 6z"/>
<path d="M7317 5060 c-4 -12 -38 -273 -55 -422 l-4 -38 66 0 66 0 0 33 c0 18
-4 58 -9 88 -5 30 -17 113 -27 184 -18 138 -28 181 -37 155z"/>
<path d="M8068 5524 c-5 -4 -8 -133 -8 -286 0 -309 -2 -300 64 -278 49 16 72
53 92 146 29 139 5 353 -45 398 -21 19 -91 33 -103 20z"/>
<path d="M10107 1803 c-12 -11 -8 -221 4 -228 16 -11 273 -7 303 4 60 23 86
123 44 176 -35 45 -74 55 -216 55 -71 0 -132 -3 -135 -7z"/>
</g>
</svg>
