<?xml version="1.0" standalone="no"?>
<!DOCTYPE svg PUBLIC "-//W3C//DTD SVG 20010904//EN"
 "http://www.w3.org/TR/2001/REC-SVG-20010904/DTD/svg10.dtd">
<svg version="1.0" xmlns="http://www.w3.org/2000/svg"
 width="474.000000pt" height="718.000000pt" viewBox="0 0 474.000000 718.000000"
 preserveAspectRatio="xMidYMid meet">
<metadata>
Created by potrace 1.16, written by Peter Selinger 2001-2019
</metadata>
<g transform="translate(0.000000,718.000000) scale(0.100000,-0.100000)"
fill="#000000" stroke="none">
<path d="M0 4900 c0 -1660 3 -2280 11 -2280 6 0 8 7 5 16 -3 8 -2 13 3 10 7
-5 46 39 50 56 3 14 94 93 103 90 5 -1 7 2 3 7 -5 10 30 35 50 36 6 0 10 5 10
11 0 17 87 104 98 97 6 -3 7 -1 4 5 -4 5 6 21 22 35 17 14 27 28 23 32 -4 5
-2 5 4 2 14 -8 86 71 78 85 -4 6 -3 8 3 5 5 -3 17 5 27 18 10 14 22 22 26 20
4 -3 10 2 13 10 11 26 71 48 167 61 52 7 115 15 140 19 35 5 42 4 30 -5 -13
-10 -12 -11 3 -6 10 3 25 6 33 6 9 0 12 5 9 10 -3 6 2 10 13 10 10 0 29 11 42
25 13 14 29 25 35 25 21 0 107 100 101 116 -3 9 -1 12 4 9 6 -3 10 1 10 9 0 9
-15 26 -34 38 -33 22 -45 58 -20 58 8 0 12 20 11 60 0 32 -4 57 -9 54 -14 -9
-9 6 7 23 8 8 12 19 9 25 -4 6 -9 5 -15 -3 -12 -20 -17 -9 -22 52 -4 54 -3 56
34 87 40 34 49 38 49 21 0 -5 -4 -7 -10 -4 -5 3 -10 2 -10 -2 0 -5 -12 -21
-26 -36 -14 -15 -23 -34 -20 -42 2 -7 0 -15 -7 -18 -6 -2 4 -4 23 -5 19 -1 49
-5 65 -10 17 -5 38 -8 48 -6 9 1 17 -1 17 -6 0 -4 9 -10 21 -13 17 -5 18 -3 8
9 -17 21 -8 25 16 8 20 -15 20 -15 -4 -33 -18 -14 -23 -25 -19 -45 7 -34 2
-33 -16 3 -13 23 -68 61 -90 61 -3 0 -12 -13 -21 -30 -33 -63 -9 -157 59 -234
31 -35 49 -47 60 -43 12 5 15 3 10 -5 -5 -8 -2 -9 11 -4 16 6 16 4 4 -11 -10
-12 -11 -15 -1 -9 7 4 24 9 38 11 13 1 34 11 45 21 11 10 28 18 39 19 15 1 17
-2 9 -17 -5 -10 -14 -18 -19 -18 -6 0 -10 -7 -10 -15 0 -9 -6 -12 -17 -8 -15
5 -16 3 -6 -7 19 -20 45 -21 58 -3 9 11 14 13 19 5 12 -20 61 -13 99 12 25 17
38 21 46 13 21 -21 11 7 -11 31 l-23 25 22 -12 c30 -15 30 -15 35 19 4 25 1
30 -24 35 -33 8 -35 16 -8 40 16 15 23 16 33 6 9 -10 8 -11 -8 -5 -14 5 -17 4
-10 -3 6 -6 21 -14 35 -18 19 -5 21 -4 10 4 -12 9 -11 11 8 11 l23 0 -26 -34
c-35 -46 -41 -108 -12 -125 18 -11 20 -11 10 0 -7 7 -13 22 -12 34 0 11 3 14
6 8 9 -24 19 -13 20 23 1 34 15 53 37 54 5 0 6 -16 3 -36 -3 -20 -3 -34 0 -30
4 3 17 -3 29 -15 23 -21 54 -20 54 1 0 6 -6 8 -12 4 -10 -6 -9 -3 0 8 11 14
12 92 2 118 -1 3 -2 9 -1 14 3 12 -30 46 -44 46 -7 0 -26 7 -41 15 -17 9 -22
15 -13 15 10 0 19 10 21 25 3 13 1 22 -3 19 -5 -3 -9 3 -9 14 0 22 34 57 48
48 6 -3 21 -1 34 4 22 10 22 10 -4 5 -42 -8 -41 8 4 53 39 40 40 42 17 42 -18
0 -21 2 -10 9 8 5 16 17 17 26 3 18 -25 73 -57 114 -34 42 -20 42 25 -2 32
-30 50 -58 64 -99 10 -32 22 -55 26 -51 4 4 4 0 1 -8 -3 -9 1 -22 10 -29 13
-11 19 -10 35 5 10 9 16 23 14 30 -3 7 -1 16 5 20 6 3 11 -1 11 -9 0 -24 78
-35 105 -15 7 5 12 -13 13 -54 3 -83 15 -121 57 -191 19 -32 35 -64 35 -71 0
-16 -47 -55 -65 -55 -17 0 -28 -30 -16 -44 12 -14 -10 -46 -32 -46 -9 0 -18
-4 -21 -9 -4 -5 -24 -12 -46 -16 -22 -4 -40 -11 -40 -16 0 -11 8 -11 35 0 12
5 25 4 33 -2 10 -8 8 -15 -9 -33 -19 -21 -21 -27 -11 -49 19 -42 15 -89 -11
-113 -32 -30 -112 -29 -204 2 l-70 24 -26 -45 c-15 -24 -34 -59 -41 -78 -19
-44 -8 -54 105 -93 95 -34 343 -69 439 -63 13 1 15 30 15 209 0 226 11 382 27
382 6 0 7 -8 3 -17 -4 -10 -9 -94 -10 -188 l-3 -170 8 145 c7 122 42 429 55
480 7 31 -10 105 -25 102 -11 -3 -11 0 1 14 10 12 11 18 3 21 -7 2 -10 13 -7
23 8 30 -23 68 -68 86 -32 13 -37 19 -28 30 15 19 33 18 25 -1 -4 -10 2 -19
17 -25 41 -17 65 -45 77 -88 13 -49 30 -47 30 4 0 19 8 47 18 61 9 15 11 24 4
19 -7 -4 -15 -1 -18 9 -4 10 -13 14 -22 10 -9 -3 -13 -3 -10 0 4 4 -2 24 -13
45 -15 28 -21 65 -25 146 -2 60 -7 117 -10 127 -3 9 -1 17 5 17 6 0 11 18 11
41 0 22 4 38 9 35 5 -4 7 3 4 14 -3 11 0 20 6 20 8 0 9 5 1 19 -7 14 -6 21 3
24 9 4 9 8 -2 15 -11 8 -11 10 0 14 9 3 13 22 12 61 -2 80 20 104 96 106 16 1
21 5 17 16 -3 9 11 0 30 -19 35 -34 37 -34 60 -19 14 9 22 18 19 21 -3 3 -15
-3 -26 -14 -22 -19 -22 -19 -8 3 7 12 20 24 27 25 10 2 6 12 -14 32 -16 17
-22 27 -13 23 14 -5 15 -2 7 21 -7 19 -7 40 3 72 7 25 13 48 13 51 1 4 14 22
29 40 23 28 30 31 38 19 9 -13 10 -12 5 2 -3 12 7 30 30 53 32 32 57 45 52 28
-4 -14 13 -53 23 -53 5 0 9 5 9 11 0 5 5 7 11 3 8 -4 7 -9 -2 -15 -22 -13 -27
-11 -44 19 -13 22 -15 23 -10 5 5 -19 3 -22 -11 -16 -13 5 -16 3 -11 -10 3 -9
-3 -27 -14 -40 -25 -33 -24 -44 6 -44 14 0 25 5 25 12 0 16 36 47 91 79 51 29
64 32 53 14 -4 -7 2 -5 14 6 20 17 42 18 92 5 8 -2 23 -15 32 -29 10 -14 18
-22 19 -17 1 4 3 12 4 17 1 6 3 15 4 21 0 5 5 8 11 4 5 -3 6 -13 3 -23 -5 -14
-3 -15 8 -4 21 19 31 14 18 -10 -9 -19 -9 -21 2 -10 17 16 29 15 29 -1 0 -7 9
-18 20 -25 11 -7 20 -18 20 -24 0 -9 -3 -9 -12 0 -7 7 -19 12 -27 12 -11 0 -9
-6 9 -19 13 -11 28 -17 32 -15 3 2 9 0 13 -6 4 -6 11 -8 16 -5 5 3 6 -1 3 -9
-3 -9 1 -23 10 -31 22 -22 42 -98 26 -103 -7 -3 -5 -11 7 -25 17 -20 17 -21 0
-8 -21 17 -35 7 -18 -13 6 -7 14 -28 16 -46 4 -35 15 -52 22 -33 2 7 11 9 20
6 12 -5 14 -3 8 7 -5 9 -4 11 3 6 7 -4 12 -14 12 -22 0 -8 -4 -13 -9 -10 -9 6
-67 -20 -75 -32 -2 -4 1 -18 7 -32 14 -36 18 -51 19 -83 1 -20 4 -24 11 -15 6
9 7 6 4 -10 -3 -12 -2 -20 3 -17 4 3 13 -2 20 -10 10 -12 7 -20 -17 -42 -16
-16 -32 -35 -36 -43 -4 -11 -6 -11 -6 4 -1 15 -4 16 -16 6 -17 -14 -21 -65 -5
-55 21 13 14 -67 -11 -120 -10 -22 -16 -30 -14 -19 5 18 2 21 -18 17 l-24 -5
23 -25 c13 -15 22 -28 19 -31 -2 -2 0 -13 5 -23 14 -24 -3 -64 -34 -85 -18
-11 -46 -16 -89 -15 l-62 1 18 -283 c12 -185 19 -419 20 -679 1 -249 6 -401
12 -407 34 -32 395 -95 395 -68 0 4 10 11 23 16 22 9 160 108 207 150 120 107
192 188 320 356 136 180 172 277 160 440 -3 44 -3 96 2 115 4 19 8 52 8 73 0
23 9 51 20 67 11 16 23 42 26 59 5 23 11 30 28 28 15 -1 26 8 39 33 16 30 18
54 14 178 -4 141 -4 142 16 125 26 -24 53 -79 61 -127 5 -26 10 -35 16 -27 4
8 12 11 17 8 13 -8 169 67 176 85 3 8 6 8 6 1 1 -8 10 -8 36 -1 22 7 46 8 67
2 28 -8 33 -14 33 -39 0 -28 -4 -31 -84 -57 -46 -15 -89 -33 -95 -39 -8 -9 -8
-10 1 -5 7 4 44 13 83 20 l71 14 23 -32 c13 -17 32 -55 42 -84 20 -56 53 -100
40 -52 l-7 25 15 -25 c18 -29 20 -44 6 -35 -5 3 -7 0 -4 -8 3 -8 -6 -27 -18
-43 -13 -16 -45 -58 -71 -94 -91 -125 -110 -147 -102 -120 4 14 13 32 19 40 6
8 22 35 35 60 24 44 23 44 -58 -35 -89 -87 -119 -130 -146 -215 -10 -30 -21
-64 -26 -75 -19 -49 -21 -65 -5 -59 9 3 12 12 8 22 -4 13 1 11 22 -6 16 -12
33 -22 38 -22 12 0 1 120 -13 137 -7 7 -9 17 -5 21 4 4 16 -4 26 -18 10 -14
22 -21 27 -17 4 5 1 12 -6 16 -16 10 -6 31 14 31 7 0 15 3 18 8 2 4 2 1 0 -7
-2 -7 -6 -34 -9 -60 -7 -59 -34 -142 -44 -136 -4 3 -10 -5 -13 -17 -4 -15 5
-36 34 -72 42 -52 45 -80 14 -116 -15 -18 -42 -70 -55 -107 -8 -24 -8 -25 3
-10 6 10 20 28 29 39 10 11 15 25 12 30 -3 4 -1 7 4 6 6 -2 22 14 36 35 24 35
25 40 12 59 -8 12 -22 53 -31 92 -14 58 -15 77 -5 101 12 29 13 27 55 -95 l44
-125 -33 -35 c-18 -19 -52 -59 -75 -87 -24 -29 -46 -53 -51 -53 -4 0 -15 21
-25 48 -10 26 -33 68 -52 95 -30 43 -32 52 -10 48 8 -1 9 2 13 39 1 14 5 48 9
76 4 34 3 54 -4 58 -6 4 -11 0 -11 -8 0 -42 -54 -97 -80 -81 -11 7 -33 -32
-25 -45 3 -6 0 -10 -8 -10 -7 0 -24 -21 -37 -47 -13 -27 -28 -51 -34 -55 -8
-5 -7 -8 1 -8 7 0 19 12 27 28 8 15 15 23 15 17 1 -5 -13 -32 -29 -60 -28 -47
-43 -57 -19 -13 7 13 7 18 1 14 -6 -3 -16 -22 -22 -41 -6 -19 -16 -35 -22 -35
-6 0 -8 -9 -5 -20 3 -13 1 -18 -6 -13 -6 4 -8 0 -4 -10 4 -10 2 -16 -5 -14 -6
1 -13 -4 -16 -12 -3 -10 0 -11 9 -5 11 6 11 4 -1 -12 -22 -29 -24 -30 -17 -11
4 9 3 17 -2 17 -5 0 -22 -28 -39 -62 -17 -35 -41 -76 -52 -93 -22 -33 -26 -50
-9 -39 7 4 1 -7 -12 -25 -26 -36 -35 -40 -19 -10 18 32 5 33 -16 2 -31 -47
-55 -95 -50 -100 2 -3 12 9 20 25 9 17 21 34 27 37 6 4 0 -9 -13 -30 -12 -20
-27 -37 -33 -36 -5 0 -17 -7 -26 -15 -9 -8 -19 -11 -24 -7 -4 5 -4 -2 -1 -14
4 -12 2 -24 -4 -28 -6 -3 -7 -12 -4 -18 4 -7 3 -9 -1 -4 -5 4 -19 -3 -32 -15
-27 -25 -31 -47 -5 -27 9 7 4 -1 -12 -19 -17 -18 -35 -32 -42 -32 -7 0 -16 -5
-20 -12 -5 -8 -1 -9 12 -4 13 5 10 -2 -11 -22 -16 -16 -33 -27 -38 -25 -4 2
-6 0 -5 -6 5 -18 -82 -99 -114 -107 -30 -6 -304 2 -393 12 -22 2 -80 12 -128
20 -48 9 -90 14 -92 12 -6 -5 -26 -215 -30 -305 -7 -162 60 -494 127 -626 11
-22 17 -45 14 -52 -8 -22 -111 -64 -183 -75 -90 -13 -300 -13 -308 0 -3 6 -12
10 -18 10 -8 0 -9 -3 -1 -8 6 -4 29 -32 52 -63 38 -51 41 -58 29 -82 -12 -26
-44 -33 -64 -14 -10 11 17 26 39 22 25 -5 23 9 -6 31 -14 10 -23 21 -20 26 3
4 -7 3 -21 -2 -19 -7 -24 -7 -19 2 4 6 3 8 -4 4 -6 -4 -8 -21 -5 -40 3 -19 1
-36 -6 -40 -7 -5 -9 -1 -5 8 3 9 1 16 -6 16 -6 0 -8 5 -4 12 4 7 3 8 -4 4 -7
-4 -22 2 -34 13 -35 33 -35 14 0 -22 40 -41 41 -57 4 -48 -36 8 -86 47 -77 60
4 7 -1 8 -11 4 -12 -4 -15 -3 -10 6 5 8 1 14 -13 18 -11 3 -19 8 -17 12 3 4
-5 8 -16 8 -20 2 -20 1 -2 -12 11 -8 25 -15 31 -15 7 0 12 -4 10 -9 -1 -5 15
-25 36 -45 20 -20 37 -45 37 -56 0 -27 -40 -30 -69 -6 l-24 21 11 -21 c6 -12
9 -24 6 -27 -3 -3 7 -7 23 -10 49 -9 101 -8 107 1 7 12 56 3 56 -10 0 -6 17
-26 38 -45 23 -22 32 -37 24 -40 -6 -3 -12 -11 -12 -19 0 -10 5 -12 13 -8 8 5
8 3 -2 -9 -7 -9 -17 -14 -22 -11 -5 3 -9 0 -9 -5 0 -6 7 -11 15 -11 20 0 19
-12 -5 -43 -11 -14 -20 -29 -20 -33 0 -16 45 41 57 70 14 37 17 14 4 -31 -8
-28 -7 -31 10 -28 11 2 17 0 14 -6 -4 -5 -10 -7 -15 -4 -4 3 -13 -2 -20 -10
-8 -9 -30 -15 -59 -15 -25 0 -53 -5 -61 -10 -16 -10 3 -13 97 -14 39 0 42 -2
37 -21 -9 -26 -31 -42 -76 -55 -36 -10 -40 -9 -92 32 -30 24 -55 48 -56 53 0
6 -18 21 -38 34 l-37 23 21 -23 c35 -40 39 -56 6 -25 l-32 30 -20 -22 c-21
-23 -36 -30 -25 -12 17 28 -54 99 -100 99 -27 0 -28 -1 -8 -9 12 -5 40 -32 62
-60 l41 -52 -33 -39 c-19 -21 -34 -46 -34 -54 0 -24 14 -17 21 10 4 14 14 25
22 25 12 0 15 -6 11 -21 -4 -15 -3 -19 4 -12 14 14 86 -4 93 -24 3 -8 1 -11
-4 -8 -6 3 -10 2 -10 -4 0 -5 6 -12 13 -15 8 -3 5 -11 -10 -24 -12 -11 -19
-23 -15 -26 11 -11 -17 -23 -43 -18 -24 4 -67 42 -48 42 5 0 20 9 33 20 13 11
18 20 11 20 -7 0 -19 -7 -27 -15 -9 -8 -19 -15 -22 -15 -14 0 -41 65 -52 124
-12 59 -38 140 -39 121 -1 -6 4 -26 9 -45 6 -19 15 -64 20 -100 12 -75 29
-122 41 -115 11 7 40 -50 31 -60 -4 -5 1 -5 11 -2 11 4 16 3 12 -3 -3 -6 -12
-10 -18 -10 -7 0 -21 -14 -31 -31 -18 -30 -18 -30 3 -17 12 7 21 16 21 20 0 5
18 8 40 8 34 0 42 -4 52 -26 9 -19 9 -30 1 -43 -10 -15 -8 -18 10 -17 16 1 23
8 25 30 2 18 0 26 -7 21 -6 -3 -11 -1 -11 4 0 6 5 11 11 11 5 0 7 5 4 10 -3 6
3 10 14 10 11 0 23 4 26 10 8 14 33 -10 30 -30 -1 -8 0 -9 2 -2 6 16 14 15 40
-3 18 -13 22 -13 26 -1 3 8 21 22 40 31 20 9 40 30 50 50 16 34 16 36 -3 55
-25 25 -25 52 -1 74 18 17 20 16 32 -18 7 -20 18 -36 25 -36 17 0 25 28 11 37
-7 5 -18 16 -25 25 -12 15 -10 16 22 14 20 -2 42 -9 50 -15 10 -9 16 -9 21 -1
4 6 14 9 22 6 29 -11 6 19 -35 47 -23 16 -42 35 -42 43 0 11 8 9 34 -8 32 -21
48 -45 75 -111 13 -33 15 -131 2 -123 -4 3 -6 17 -4 31 7 34 -5 77 -19 69 -7
-4 -8 -3 -4 5 4 6 2 19 -5 27 -9 11 -14 12 -20 3 -5 -9 -13 -7 -30 5 -38 26
-42 18 -7 -13 29 -26 34 -27 46 -12 11 14 12 13 2 -7 -7 -14 -8 -28 -2 -35 4
-7 8 -21 7 -32 -4 -58 -4 -58 -19 -46 -11 9 -16 9 -22 0 -4 -7 -3 -9 4 -5 6 3
14 1 17 -5 4 -5 13 -8 21 -5 24 9 16 -1 -18 -22 -27 -17 -30 -22 -16 -27 12
-5 14 -11 8 -18 -49 -59 -48 -55 -27 -121 10 -33 23 -73 29 -88 l10 -28 1069
0 1069 0 0 3590 0 3590 -2370 0 -2370 0 0 -2280z m3530 865 l0 -945 -234 0
-233 0 -47 93 c-37 75 -55 100 -92 125 -24 18 -48 32 -53 32 -5 0 -14 6 -20
14 -19 23 -141 69 -216 80 -100 16 -220 3 -300 -33 -107 -49 -215 -167 -244
-268 l-12 -43 -269 0 -269 0 -20 -44 c-57 -131 -231 -227 -301 -166 -13 11
-28 20 -34 20 -44 0 -208 118 -179 127 12 4 5 51 -8 59 -5 3 -9 -7 -9 -23 -1
-55 -29 48 -31 112 -2 82 14 136 55 183 11 12 15 22 10 22 -5 1 0 6 12 13 27
16 103 82 84 73 -9 -5 -7 -1 3 7 13 11 15 16 5 20 -7 2 6 7 30 11 l42 8 0 734
0 734 1165 0 1165 0 0 -945z m890 -1483 c58 -29 123 -68 145 -86 l39 -34 -17
-49 c-11 -33 -15 -38 -11 -15 5 27 2 33 -18 41 -16 7 -26 5 -34 -5 -14 -17
-145 -37 -158 -24 -6 6 -31 10 -57 10 -48 0 -99 28 -99 54 0 17 183 52 188 37
2 -6 8 -9 12 -6 5 3 32 -6 60 -20 40 -20 55 -24 66 -15 11 10 11 14 -1 26 -8
8 -17 13 -19 12 -3 -2 -13 7 -21 20 -17 23 -42 32 -29 10 5 -7 -3 -5 -16 5
-14 10 -33 20 -42 24 -10 3 -18 9 -18 13 0 4 -7 10 -14 13 -10 4 -13 1 -9 -9
3 -8 -1 -14 -8 -14 -7 0 -20 -7 -30 -16 -17 -15 -19 -15 -30 9 -11 25 -5 81 9
75 4 -2 54 -27 112 -56z m-1169 -699 c0 -10 3 -13 5 -8 6 16 74 6 74 -11 0 -8
-5 -14 -11 -14 -5 0 -7 -5 -3 -11 4 -7 1 -10 -7 -7 -8 3 -13 11 -11 17 1 6 -2
11 -8 11 -5 0 -10 -5 -10 -11 0 -6 -7 -8 -17 -4 -14 5 -15 3 -7 -5 7 -7 30
-13 53 -16 33 -3 44 0 53 16 16 25 28 26 28 1 0 -11 15 -31 32 -45 20 -15 33
-34 33 -48 0 -13 6 -23 13 -24 6 -1 15 -2 18 -3 11 -2 -39 -38 -63 -45 -24 -8
-30 -21 -14 -30 5 -4 11 -1 13 5 3 9 12 7 29 -5 14 -9 30 -13 35 -9 5 5 0 -3
-11 -17 -11 -14 -21 -27 -22 -29 -1 -1 -7 0 -13 4 -9 6 -9 9 0 15 8 5 7 9 -4
13 -9 4 -15 3 -15 -1 3 -17 -2 -32 -8 -31 -20 3 -24 -2 -12 -17 26 -32 -33 -5
-71 32 -41 39 -50 42 -50 14 0 -22 -36 -45 -65 -41 -11 1 -27 11 -37 22 -9 10
-21 19 -28 19 -7 0 -9 8 -5 20 5 15 0 21 -19 26 -15 3 -23 11 -20 19 3 7 -2
27 -11 44 -9 19 -11 31 -5 31 6 0 8 5 5 11 -6 9 20 38 36 39 3 0 10 -12 17
-27 8 -19 10 -21 6 -5 -4 15 -1 22 9 22 20 0 41 26 27 35 -18 11 -11 25 15 25
18 0 25 5 25 20 0 25 20 27 21 3z"/>
<path d="M2269 6567 c-55 -37 -80 -91 -76 -162 1 -33 10 -73 18 -90 17 -35 73
-75 103 -74 18 0 17 2 -6 10 -51 19 -79 131 -59 231 11 53 36 88 71 101 13 5
13 6 -1 6 -9 1 -31 -9 -50 -22z"/>
<path d="M2997 6413 c-11 -11 -17 -13 -17 -5 0 7 -14 12 -37 11 -21 -1 -30 -3
-20 -6 14 -4 17 -17 17 -83 0 -67 -3 -79 -17 -82 -10 -3 4 -5 30 -6 39 -1 45
1 35 12 -9 8 -12 33 -10 75 3 52 8 64 28 77 43 29 54 13 54 -75 0 -67 -3 -80
-17 -84 -10 -3 7 -5 37 -5 30 0 47 2 38 5 -15 4 -18 17 -18 83 0 68 -3 81 -19
90 -29 15 -65 12 -84 -7z"/>
<path d="M2590 6118 c0 -5 5 -8 10 -8 16 0 13 -267 -2 -273 -7 -3 -2 -6 13 -6
14 -1 30 4 36 10 8 8 13 8 17 0 13 -20 66 -12 91 14 67 66 -5 188 -86 145 -18
-10 -19 -7 -19 58 l0 69 -30 -1 c-16 -1 -30 -4 -30 -8z"/>
<path d="M2129 5989 c-22 -22 -21 -44 2 -44 8 0 14 10 14 25 0 21 5 25 30 25
27 0 30 -4 33 -32 3 -28 0 -33 -18 -33 -11 0 -36 -7 -55 -14 -37 -16 -47 -50
-23 -74 15 -15 70 -16 85 -1 8 8 13 8 17 0 9 -13 53 -15 60 -2 3 5 -2 8 -11 7
-15 -1 -18 10 -20 69 -1 53 -6 72 -19 82 -27 19 -71 16 -95 -8z"/>
<path d="M663 2981 c-35 -25 -169 -199 -160 -207 2 -2 25 3 52 11 26 8 58 15
69 15 45 0 142 59 221 134 69 66 76 75 50 69 -37 -10 -98 -9 -150 1 -35 7 -45
4 -82 -23z"/>
<path d="M493 2213 c-126 -68 -349 -133 -454 -133 l-39 0 0 -1040 0 -1040 353
0 352 0 65 91 c36 50 77 105 92 122 31 35 123 204 123 227 1 21 30 62 38 53 4
-3 7 0 7 8 0 18 78 142 96 152 8 5 11 13 8 19 -5 8 -1 9 10 5 14 -6 17 -3 12
9 -3 9 5 32 21 55 40 55 50 48 12 -8 -26 -40 -27 -44 -6 -22 39 40 53 79 56
146 1 55 -1 63 -21 74 -13 7 -39 13 -58 15 -52 3 -52 3 -45 13 3 5 -7 11 -22
13 -22 2 -28 9 -30 28 -1 14 1 18 3 9 3 -10 19 -19 38 -21 27 -3 33 -1 28 12
-4 12 -3 13 9 4 18 -14 57 -16 65 -3 3 5 0 8 -8 7 -7 -2 -22 16 -34 40 -18 38
-82 120 -182 233 -18 20 -70 62 -116 93 -91 61 -103 81 -96 156 2 19 3 43 4
52 0 9 5 14 10 11 6 -4 6 1 2 13 -4 10 -4 15 0 11 4 -3 20 5 37 19 18 15 38
23 49 21 16 -5 20 -1 17 19 0 4 5 10 12 15 10 6 9 9 -4 15 -26 10 -86 -25
-114 -67 -30 -45 -49 -149 -57 -314 -7 -118 -23 -234 -35 -246 -3 -3 -21 -2
-39 3 -25 7 -32 13 -28 25 4 9 16 89 27 177 26 210 35 256 69 330 25 57 55 92
106 122 23 14 28 3 -123 252 -55 92 -112 187 -125 212 l-23 46 -62 -33z"/>
<path d="M1730 1660 c-4 -253 -11 -389 -25 -465 -17 -93 -17 -98 -3 -65 39 96
49 164 50 359 1 109 -3 216 -9 241 -10 41 -11 35 -13 -70z"/>
<path d="M2231 801 c-9 -15 -7 -18 13 -16 22 3 23 1 15 -28 -5 -18 -9 -40 -9
-49 0 -19 25 -25 35 -8 3 6 -1 7 -10 4 -13 -5 -15 -2 -9 22 4 16 11 36 16 44
6 11 7 8 3 -10 -6 -24 -5 -24 10 3 18 32 29 36 20 7 -7 -21 10 -115 24 -138
13 -21 78 16 90 51 6 16 15 26 21 22 6 -3 7 0 4 9 -3 9 -10 16 -15 16 -5 0 -9
8 -9 18 0 14 2 15 10 2 5 -8 13 -11 17 -6 4 5 2 11 -5 13 -7 3 -21 13 -30 23
-16 17 -107 40 -158 40 -13 0 -28 -8 -33 -19z"/>
<path d="M2346 204 c3 -31 1 -33 -16 -24 -26 14 -29 13 -23 -12 5 -21 4 -22
-8 -6 -14 18 -71 20 -112 3 -14 -6 -16 -4 -10 11 4 12 3 15 -5 10 -7 -4 -12
-19 -11 -34 0 -15 3 -21 6 -14 2 6 9 10 14 6 5 -3 9 0 9 6 0 5 13 9 29 8 22
-2 27 -6 23 -20 -3 -11 -14 -18 -30 -18 -14 0 -22 -3 -19 -7 4 -3 2 -12 -4
-20 -9 -10 -5 -13 19 -13 31 0 58 -22 47 -40 -3 -6 -10 -8 -14 -6 -4 3 -13 1
-21 -5 -11 -6 -8 -9 13 -9 15 0 27 -6 27 -12 1 -7 7 0 14 17 11 24 11 34 1 50
-13 21 -8 30 24 49 11 7 13 2 9 -23 -3 -18 -1 -34 4 -37 4 -3 8 -18 8 -35 0
-22 5 -29 20 -29 24 0 24 0 5 69 -14 52 -12 77 4 67 4 -3 16 -35 26 -71 13
-50 21 -65 35 -65 15 0 18 7 17 35 -1 19 -5 35 -8 35 -4 0 -3 18 1 40 7 38 -1
53 -16 29 -7 -13 -24 7 -24 29 0 10 5 10 20 2 11 -6 20 -7 20 -2 0 9 -36 25
-51 23 -4 0 -5 8 -2 18 3 10 -2 21 -10 24 -11 4 -14 -2 -11 -29z"/>
</g>
</svg>
