<?xml version="1.0" standalone="no"?>
<!DOCTYPE svg PUBLIC "-//W3C//DTD SVG 20010904//EN"
 "http://www.w3.org/TR/2001/REC-SVG-20010904/DTD/svg10.dtd">
<svg version="1.0" xmlns="http://www.w3.org/2000/svg"
 width="474.000000pt" height="689.000000pt" viewBox="0 0 474.000000 689.000000"
 preserveAspectRatio="xMidYMid meet">
<metadata>
Created by potrace 1.16, written by Peter Selinger 2001-2019
</metadata>
<g transform="translate(0.000000,689.000000) scale(0.100000,-0.100000)"
fill="#000000" stroke="none">
<path d="M38 6873 c-3 -10 -4 -82 -3 -160 2 -134 1 -143 -16 -143 -18 0 -19
-22 -19 -692 0 -489 3 -689 11 -678 11 15 9 -8 -5 -72 -5 -20 -2 -28 8 -28 8
0 17 -7 20 -16 9 -23 8 -24 -14 -24 -13 0 -20 -6 -19 -17 0 -11 3 -13 6 -5 8
21 32 14 26 -8 -3 -11 -12 -20 -19 -20 -8 0 -14 -5 -14 -11 0 -5 4 -8 9 -4 16
9 25 -16 22 -68 -1 -32 3 -54 11 -60 9 -6 8 -7 -5 -3 -15 5 -17 2 -11 -17 11
-33 12 -159 2 -180 -5 -10 -13 -15 -19 -12 -5 4 -9 -244 -9 -667 0 -438 4
-668 10 -658 7 12 10 8 10 -15 0 -23 -3 -27 -10 -15 -5 8 -10 10 -10 5 0 -6 6
-17 12 -23 18 -18 18 -454 1 -459 -10 -4 -12 -320 -13 -1414 l0 -1409 2370 0
2370 0 0 1835 c0 1255 -3 1835 -10 1835 -6 0 -14 -10 -19 -22 -7 -19 -14 -22
-50 -19 -29 2 -43 -2 -47 -12 -3 -8 -20 -21 -37 -27 -18 -7 -46 -19 -64 -26
-17 -8 -53 -17 -79 -21 -26 -3 -59 -12 -73 -19 -21 -11 -28 -10 -55 8 -17 12
-42 31 -56 44 -25 22 -44 28 -90 25 -24 -2 -25 -2 -5 -17 11 -8 27 -20 35 -27
8 -7 50 -26 93 -42 48 -18 76 -34 73 -42 -3 -6 0 -13 6 -15 8 -3 8 -10 -1 -24
-10 -15 -11 -15 -7 -2 7 24 -41 56 -155 103 -49 21 -89 42 -89 47 0 5 -4 6
-10 3 -5 -3 -10 -2 -10 3 0 6 -17 17 -37 26 -67 30 -131 76 -198 141 -18 18
-19 20 -2 23 10 2 29 -4 42 -12 16 -11 25 -12 25 -5 0 8 4 8 14 0 10 -8 16 -9
21 -1 9 14 26 13 22 -2 -1 -8 13 -11 45 -9 25 1 68 -5 94 -14 63 -21 78 -15
58 25 -9 16 -14 36 -12 42 5 13 38 -47 38 -67 0 -9 23 -12 88 -9 192 9 217 12
261 34 50 25 95 21 147 -11 17 -10 34 -19 38 -19 3 0 6 711 6 1580 l0 1580
-2349 0 c-2228 0 -2349 -1 -2353 -17z m3392 -470 c0 5 52 -10 100 -29 8 -4 24
-8 35 -9 11 -1 54 -10 95 -20 175 -40 429 -85 480 -84 l35 1 -35 10 c-19 6
-42 13 -50 16 -33 12 -156 43 -172 43 -10 0 -18 5 -18 11 0 7 22 9 60 6 34 -2
55 -1 48 4 -7 5 27 7 80 6 102 -3 106 -6 98 -70 -3 -26 0 -40 12 -51 29 -25
104 -59 192 -87 109 -35 87 -48 -49 -30 -107 14 -184 16 -406 12 -102 -2 -143
-6 -127 -12 12 -5 22 -17 22 -27 0 -10 7 -29 16 -41 13 -19 22 -22 47 -17 37
8 60 25 34 25 -9 0 -17 7 -17 15 0 8 8 15 19 15 10 0 24 -7 31 -15 13 -16 50
-21 50 -7 0 4 -13 13 -30 19 -54 20 -34 32 50 31 l80 -2 6 -33 c3 -18 3 -45 0
-59 -5 -19 -3 -25 6 -21 7 2 12 11 10 20 -2 12 2 15 14 10 15 -5 16 -2 11 25
-7 32 -1 62 12 62 4 0 4 -31 0 -70 -6 -74 -38 -132 -79 -145 -13 -4 -25 -23
-35 -59 -21 -71 -62 -134 -119 -180 -54 -45 -61 -82 -22 -121 l25 -25 -27 -32
c-15 -18 -32 -39 -39 -46 -16 -17 -33 -82 -37 -135 -1 -23 -7 -51 -14 -62 -9
-16 -10 -9 -5 35 5 55 -8 110 -26 110 -16 0 -35 -43 -32 -75 l2 -29 -21 21
c-11 12 -20 27 -20 32 0 6 -8 15 -17 20 -20 10 -24 11 -51 11 -11 0 -27 16
-41 43 -34 64 -68 120 -82 136 -9 10 -9 15 2 22 11 7 11 9 -2 9 -15 0 -76 96
-71 113 1 4 -2 7 -6 7 -9 0 -35 50 -29 56 6 6 97 -96 109 -122 13 -27 23 -31
31 -10 4 10 1 13 -9 9 -7 -3 -14 -1 -14 5 0 6 5 12 12 14 6 2 9 12 5 21 -8 22
-26 22 -22 0 1 -10 0 -12 -2 -5 -3 6 -10 12 -16 12 -7 0 -3 7 7 15 11 8 29 13
40 9 18 -4 18 -3 6 6 -11 9 -12 13 -2 17 13 5 17 23 4 23 -5 0 -17 -8 -28 -18
-19 -18 -19 -17 -19 24 0 29 4 40 13 37 6 -3 12 0 12 6 0 6 -4 11 -10 11 -5 0
-10 7 -10 15 0 12 4 13 25 3 18 -8 24 -17 19 -30 -3 -11 0 -20 10 -24 9 -3 13
-11 9 -18 -4 -6 1 -5 10 3 15 12 20 11 35 -3 10 -8 32 -17 48 -20 16 -2 23 -1
17 1 -33 11 -7 18 51 13 93 -8 129 5 41 15 -38 4 -75 12 -81 17 -11 8 -28 10
-106 17 -11 0 -15 7 -12 15 3 8 -2 16 -13 19 -17 4 -17 5 0 6 10 0 20 -6 23
-14 7 -17 34 -20 34 -4 0 6 6 9 14 6 8 -3 17 -1 20 6 2 7 5 3 5 -7 1 -18 2
-18 19 -3 22 20 38 22 45 5 4 -9 6 -8 6 3 1 8 -12 28 -29 44 -16 15 -26 33
-23 39 4 6 -1 5 -10 -3 -10 -8 -17 -9 -17 -3 0 6 10 14 22 18 30 9 47 33 48
65 0 14 3 29 7 33 5 4 13 30 19 56 12 56 9 60 -55 60 -21 0 -51 4 -67 9 -16 5
-49 15 -74 22 -52 15 -174 78 -244 126 -26 18 -58 33 -70 33 -11 0 -27 4 -34
9 -15 9 35 24 121 36 40 6 48 11 54 33 6 24 7 24 19 7 8 -11 14 -16 14 -12z
m-2844 -120 c19 -12 32 -14 57 -7 36 11 67 7 67 -7 0 -6 11 -22 25 -37 50 -53
95 -117 95 -135 0 -36 -20 -57 -53 -58 -32 0 -32 0 -7 -11 48 -20 55 -26 55
-49 0 -13 3 -29 7 -35 5 -7 1 -14 -8 -18 -8 -3 -12 -2 -9 4 5 8 -48 23 -87 24
-9 0 -31 -10 -48 -22 -30 -22 -39 -42 -20 -42 6 0 10 7 10 15 0 8 9 15 20 15
11 0 20 -5 20 -11 0 -5 -6 -7 -12 -3 -10 5 -10 4 -1 -6 20 -22 43 -21 43 2 0
11 5 18 13 15 6 -2 11 -10 9 -17 -4 -17 16 -30 47 -30 20 0 22 2 11 15 -15 19
-9 28 14 19 18 -7 22 -44 5 -44 -8 0 -9 -17 -5 -54 6 -43 4 -60 -10 -81 -13
-20 -15 -38 -10 -93 4 -38 4 -87 0 -110 -5 -35 -12 -45 -39 -58 -18 -8 -41
-24 -51 -35 -9 -10 -25 -19 -35 -19 -10 0 -29 -11 -43 -25 l-24 -24 51 -3 c47
-3 51 -5 52 -28 4 -97 4 -98 30 -102 13 -3 22 -1 19 4 -3 5 4 17 15 27 12 10
21 23 21 30 0 12 23 15 33 4 4 -3 1 -13 -6 -21 -10 -13 -9 -15 6 -9 10 4 16 3
12 -3 -3 -5 6 -17 20 -26 17 -11 24 -23 20 -32 -3 -9 -8 -41 -11 -71 -3 -31
-6 -65 -8 -76 -4 -26 12 -57 26 -49 5 4 7 19 4 35 -4 22 -2 29 10 29 13 0 14
3 5 14 -7 8 -9 31 -6 57 11 80 15 89 35 89 27 0 73 -22 61 -29 -5 -4 -18 -39
-28 -79 -11 -40 -21 -70 -24 -68 -3 3 -5 -18 -4 -47 0 -44 -3 -52 -20 -54
l-20 -3 20 9 c19 9 19 10 -2 10 -12 1 -25 6 -28 11 -3 6 -18 10 -33 10 -68 0
-70 4 -71 98 -1 47 -5 90 -11 96 -7 7 -10 -21 -10 -82 0 -99 2 -97 -59 -94
-31 2 -31 2 -36 54 -5 69 -24 128 -40 128 -18 0 -18 1 -1 -69 26 -107 27 -121
8 -121 -10 0 -23 -5 -30 -12 -8 -8 -15 -8 -25 1 -16 12 -63 -6 -78 -31 -5 -7
-14 -13 -21 -13 -7 0 -14 -9 -17 -20 -4 -25 -31 -44 -50 -37 -9 3 -12 1 -7 -6
4 -7 1 -12 -9 -12 -8 0 -21 -11 -27 -25 -6 -14 -17 -25 -25 -25 -16 0 -17 16
0 24 6 3 3 4 -9 1 -24 -6 -52 19 -34 30 6 3 8 10 5 15 -3 5 0 12 6 16 8 4 7 9
-2 15 -11 7 -10 11 6 23 11 9 16 16 11 16 -5 0 3 11 18 25 15 14 24 30 21 35
-3 6 3 14 14 18 11 4 19 9 19 12 -1 3 9 24 20 47 24 45 21 68 -13 95 -18 15
-22 15 -37 1 -9 -8 -21 -12 -27 -9 -5 4 -33 -3 -61 -14 -57 -22 -60 -23 -60
-12 0 14 137 72 185 78 65 8 86 12 91 16 2 3 2 24 -2 47 -6 35 -13 45 -40 59
-28 13 -38 28 -64 96 -17 45 -36 104 -41 131 -5 28 -16 84 -25 126 -15 76 -15
78 11 154 14 42 26 99 27 126 0 27 5 52 9 55 5 3 9 20 9 37 0 24 -3 28 -10 17
-5 -8 -12 -11 -15 -8 -4 4 -3 13 1 20 4 7 9 21 9 31 1 10 7 22 13 26 6 3 13
18 17 33 8 31 35 60 35 37 0 -7 11 -2 28 13 28 26 61 47 75 48 4 0 19 -7 33
-17z m2001 -166 c56 -10 80 -11 86 -3 5 8 9 8 15 -1 4 -6 20 -14 35 -17 57
-10 64 -15 62 -46 -1 -16 2 -27 7 -24 5 3 7 13 6 21 -2 9 3 18 10 20 8 3 10
-1 5 -12 -5 -15 -3 -16 18 -5 23 13 24 12 7 -7 -10 -11 -18 -22 -18 -25 0 -12
35 -2 42 12 6 13 7 12 7 -1 1 -9 8 -19 16 -23 9 -3 12 -12 8 -22 -5 -13 -2
-16 10 -11 11 4 14 2 10 -9 -3 -7 0 -14 6 -14 6 0 10 -6 9 -12 -2 -7 4 -13 12
-13 17 0 52 -35 78 -77 9 -16 19 -28 23 -28 4 0 17 -25 29 -56 l23 -55 -39
-41 c-21 -22 -69 -60 -106 -85 -38 -25 -68 -49 -68 -53 0 -11 114 64 163 107
20 18 42 33 49 33 6 0 1 -9 -12 -20 -13 -11 -19 -20 -14 -20 5 0 2 -5 -6 -10
-8 -5 -15 -14 -15 -20 0 -5 -3 -10 -7 -10 -5 0 -17 -9 -29 -21 -11 -11 -27
-18 -35 -15 -8 3 -13 2 -10 -3 3 -4 -10 -17 -29 -27 -19 -10 -37 -25 -40 -33
-5 -13 -4 -13 12 0 22 17 78 49 88 49 4 0 -3 -9 -16 -20 -13 -10 -20 -19 -15
-20 4 0 39 33 77 73 38 39 69 67 69 62 0 -6 -6 -17 -12 -24 -11 -10 -10 -11 3
-6 17 6 34 -19 23 -36 -3 -5 -2 -15 3 -21 10 -17 11 -30 1 -50 -5 -10 -4 -18
3 -20 16 -5 17 -151 2 -170 -7 -8 -10 -18 -6 -21 11 -12 -20 -39 -39 -34 -10
3 -16 1 -12 -4 3 -5 -3 -9 -13 -10 -12 0 -6 -6 15 -15 17 -8 32 -17 32 -22 0
-4 -14 -53 -32 -110 -25 -79 -37 -102 -48 -98 -8 3 -42 15 -75 27 -127 47
-248 24 -312 -58 -56 -71 -66 -103 -33 -103 16 0 20 7 20 30 0 24 8 35 40 55
48 30 60 31 60 5 0 -11 5 -20 10 -20 6 0 10 5 10 10 0 6 7 10 15 10 8 0 15 -6
15 -13 0 -23 34 -47 59 -42 13 2 32 12 42 21 21 19 26 5 9 -27 -16 -30 -93
-27 -125 6 -33 32 -32 16 0 -21 14 -16 25 -26 25 -23 0 4 16 3 35 -1 31 -7 38
-4 65 23 16 17 30 34 30 39 0 4 7 8 15 8 21 0 19 -16 -7 -41 -13 -12 -17 -18
-10 -14 11 6 12 3 3 -13 -16 -29 -15 -30 24 -26 19 1 35 2 35 1 -2 -29 -90
-281 -135 -387 -15 -36 -34 -85 -41 -110 -33 -117 -75 -221 -87 -213 -6 4 -7
1 -2 -7 5 -8 2 -17 -6 -24 -8 -6 -25 -33 -38 -61 -14 -27 -35 -61 -47 -74 -20
-22 -21 -26 -7 -36 13 -10 14 -15 2 -36 -22 -39 -32 -40 -65 -8 -23 22 -48 33
-104 45 -68 14 -78 14 -117 -1 -33 -13 -50 -14 -80 -6 -50 14 -129 14 -156 0
-12 -7 -39 -27 -60 -46 -21 -19 -49 -39 -62 -45 -24 -11 -24 -11 38 -80 77
-85 133 -115 238 -124 99 -9 170 7 237 53 29 20 55 34 57 31 8 -8 -25 -81 -48
-107 -12 -13 -16 -21 -9 -17 15 9 17 -20 2 -29 -6 -4 -7 -11 -4 -17 5 -8 1 -9
-10 -5 -10 4 -15 3 -11 -3 11 -19 -5 -48 -34 -60 -42 -17 -95 -81 -55 -66 14
6 15 4 4 -9 -11 -13 -15 -13 -21 -3 -9 13 -11 8 -13 -22 -1 -8 -6 -15 -11 -15
-16 0 -105 -49 -105 -58 0 -4 11 0 25 9 39 26 29 10 -19 -30 -32 -26 -44 -31
-42 -19 2 9 8 19 14 21 7 2 12 8 12 13 0 10 -68 -22 -112 -52 -14 -11 -31 -19
-38 -19 -6 0 -52 -20 -103 -45 -51 -24 -110 -47 -132 -50 -30 -3 -36 -2 -25 6
11 8 9 9 -10 4 -27 -8 -27 -8 -53 -6 -10 0 -16 5 -13 9 3 5 -4 19 -16 32 -18
20 -19 24 -5 31 9 6 13 17 10 30 -4 15 0 22 16 26 11 3 21 10 21 15 0 5 -9 6
-20 3 -13 -4 -20 -2 -21 7 0 7 -2 23 -5 35 -2 14 5 31 21 47 36 36 31 43 -10
12 -19 -15 -35 -23 -35 -19 0 4 16 19 35 33 42 31 52 50 25 50 -11 0 -20 -4
-20 -10 0 -5 -7 -7 -16 -3 -14 5 -14 7 -1 14 11 7 -3 26 -64 89 -44 44 -79 87
-79 95 0 8 -3 15 -8 15 -4 0 -12 9 -17 19 -6 11 -23 43 -40 73 l-30 53 2 170
c1 94 4 190 7 215 11 87 15 126 20 205 8 129 17 195 28 201 5 3 6 20 3 36 -5
20 -3 33 5 38 7 4 11 14 8 21 -7 19 -5 35 5 31 4 -1 7 14 7 34 0 75 34 114
101 114 25 0 49 16 49 33 0 4 -4 5 -10 2 -5 -3 -10 -2 -10 4 0 5 -7 17 -16 26
-13 13 -14 19 -5 28 9 9 17 6 32 -13 14 -16 19 -19 15 -7 -6 20 -6 20 31 5 37
-15 64 -10 81 13 16 24 32 16 25 -11 -8 -30 -40 -43 -89 -36 -47 6 -52 1 -29
-30 11 -14 13 -14 9 -3 -4 14 1 16 34 14 22 -2 44 0 49 4 17 10 53 75 53 94 0
9 6 17 14 17 24 0 81 -45 84 -68 3 -18 -1 -22 -24 -22 -15 0 -24 -3 -21 -6 9
-10 87 -10 87 -1 0 40 -106 147 -165 167 -46 15 -144 8 -199 -15 -42 -18 -50
-16 -40 8 3 9 13 14 22 11 13 -4 13 -3 -1 6 -15 10 -17 19 -12 49 5 20 7 50 6
67 -2 36 9 46 62 61 40 12 47 8 20 -13 -15 -11 -15 -13 -3 -14 8 0 22 4 29 9
9 6 22 6 34 -1 15 -7 18 -7 12 2 -5 9 -1 10 16 5 13 -4 21 -4 16 0 -4 5 -15 9
-25 10 -34 5 -81 27 -79 38 1 6 -3 11 -10 12 -6 0 -14 3 -18 7 -4 4 -14 4 -23
1 -12 -5 -14 -2 -8 13 5 10 13 49 19 87 6 37 15 67 19 67 5 0 7 4 4 9 -7 11
38 160 68 225 13 28 36 67 50 86 42 55 208 220 216 215 4 -3 11 2 14 11 3 8
11 14 18 12 7 -2 23 7 35 19 13 13 35 26 50 29 16 4 33 13 38 20 10 13 91 31
168 38 21 2 41 6 43 9 3 3 19 1 35 -3 16 -5 27 -5 24 0 -8 12 18 19 37 9 9 -5
52 -15 95 -22z m1020 -61 c5 -5 2 -6 -6 -1 -9 5 -12 3 -9 -6 4 -12 45 -16 83
-9 28 6 55 -2 55 -15 0 -21 -24 -29 -49 -16 -18 10 -21 8 -27 -16 -4 -16 -17
-42 -30 -59 -20 -27 -21 -33 -8 -46 23 -23 8 -44 -31 -44 -25 0 -37 5 -41 18
-3 10 -9 18 -14 18 -4 0 -11 7 -14 16 -4 12 -2 15 9 10 9 -3 15 0 15 9 0 8 -4
15 -9 15 -5 0 -8 11 -7 24 2 16 -1 23 -9 20 -7 -3 -15 4 -18 15 -3 14 -1 18 9
14 9 -3 14 2 14 17 0 11 -4 18 -10 15 -12 -7 -12 -3 -4 19 5 12 17 15 50 13
23 -1 47 -7 51 -11z m-407 -824 l1 -27 13 30 c13 27 14 17 11 -90 -4 -138 -12
-198 -32 -238 -8 -16 -12 -35 -9 -43 3 -8 1 -14 -4 -14 -6 0 -8 -15 -5 -34 2
-21 -1 -39 -9 -45 -8 -7 -14 -35 -15 -67 -1 -57 -52 -209 -78 -230 -16 -13
-18 -28 -2 -18 14 8 -10 -38 -24 -47 -5 -4 -11 -18 -12 -32 -2 -14 -26 -59
-54 -100 -28 -40 -51 -76 -51 -80 0 -21 -58 -97 -77 -102 -13 -3 -23 -10 -23
-16 0 -8 5 -7 15 1 22 19 18 -4 -5 -25 -11 -10 -17 -21 -15 -26 3 -4 0 -11 -6
-14 -5 -4 -8 -13 -5 -21 3 -8 -1 -14 -9 -14 -9 0 -15 -10 -15 -24 0 -15 -7
-27 -19 -31 -10 -3 -27 -16 -37 -28 l-19 -22 25 20 24 20 -16 -25 c-8 -14 -19
-24 -24 -24 -5 1 -20 -7 -33 -17 -41 -33 -52 -26 -37 24 8 23 19 56 26 72 7
17 14 35 15 40 2 6 24 64 50 130 66 171 80 208 121 320 19 55 46 127 59 160
13 33 29 79 37 103 7 23 16 42 21 42 4 0 17 21 27 46 11 25 24 42 30 39 14 -8
43 61 35 84 -4 14 3 21 27 28 20 7 25 11 14 12 -23 1 -21 14 29 146 21 55 38
117 38 137 0 42 17 42 17 0z m917 -126 c7 -1 16 -5 19 -9 4 -4 15 -7 25 -7 10
0 19 -10 23 -25 4 -14 11 -23 16 -20 12 7 68 -77 62 -94 -2 -8 0 -11 5 -8 5 3
18 -23 28 -59 10 -35 24 -69 32 -75 22 -19 15 -29 -21 -29 -19 0 -44 -9 -57
-20 -27 -22 -28 -21 66 -24 44 -1 60 -5 60 -15 0 -16 -18 -27 -57 -36 -25 -5
-67 -50 -56 -60 2 -2 28 -10 57 -18 29 -7 56 -18 59 -23 4 -5 14 -9 22 -9 8 0
18 -9 22 -20 10 -33 9 -113 -3 -120 -5 -4 -8 -12 -6 -18 2 -7 -2 -24 -9 -38
-7 -15 -10 -29 -7 -33 10 -9 -28 -46 -48 -46 -10 0 -23 8 -29 18 -9 14 -10 12
-5 -11 5 -25 3 -28 -15 -22 -22 7 -27 -4 -9 -22 7 -7 6 -12 -4 -16 -10 -4 -17
4 -21 25 -4 22 -10 29 -22 24 -8 -3 -22 1 -30 9 -12 12 -12 15 -2 15 10 0 9 3
-2 10 -10 6 -11 10 -2 10 6 0 12 8 12 18 0 14 2 15 10 2 5 -8 10 -10 10 -4 0
6 13 27 30 45 32 37 37 54 18 63 -10 5 -10 7 -1 12 15 7 5 34 -13 34 -8 0 -14
6 -14 13 0 6 -10 45 -23 85 -19 61 -25 71 -35 59 -14 -17 -32 -123 -36 -209
-2 -32 -9 -64 -16 -73 -10 -12 -10 -15 2 -15 8 0 19 -15 25 -33 10 -33 9 -34
-28 -50 -20 -9 -48 -14 -61 -12 -29 6 -60 -3 -53 -16 4 -5 16 -9 29 -9 12 0
31 -7 42 -15 10 -8 27 -15 37 -15 24 0 21 -19 -5 -31 -21 -9 -21 -9 5 -5 37 5
25 -6 -48 -44 l-60 -30 -33 37 c-49 56 -109 187 -120 263 -6 36 -17 98 -26
138 -9 41 -15 90 -12 110 2 21 7 71 11 112 15 158 26 231 38 255 6 11 11 23
10 26 -1 3 10 18 25 32 34 33 104 41 189 23z m-3312 -354 c23 -15 58 -44 80
-64 22 -21 47 -40 56 -43 19 -6 89 -167 89 -205 0 -20 2 -22 10 -10 5 8 10 30
10 48 0 17 3 32 8 32 4 0 8 -42 9 -93 1 -67 -3 -101 -14 -125 -13 -27 -14 -42
-6 -77 7 -33 7 -51 -4 -77 -8 -18 -12 -46 -9 -61 3 -15 1 -37 -4 -47 -6 -11
-14 -29 -20 -40 -5 -10 -7 -26 -4 -35 3 -8 1 -15 -6 -15 -6 0 -9 -4 -6 -9 12
-18 9 -172 -2 -183 -7 -7 -12 -20 -12 -29 0 -9 -20 -60 -45 -113 -25 -53 -45
-106 -45 -116 0 -11 -5 -20 -11 -20 -5 0 -8 4 -5 9 12 18 -16 110 -46 156 -33
50 -63 69 -122 80 -26 5 -34 11 -27 18 7 7 14 7 24 -1 20 -17 27 -5 27 42 0
34 7 47 35 75 25 24 32 38 25 45 -12 12 -13 39 -1 32 5 -3 12 1 15 10 9 24 7
34 -8 34 -15 0 -26 27 -30 78 -3 28 0 33 15 29 11 -3 22 -1 25 4 5 8 -16 13
-43 10 -8 -1 -10 5 -7 14 4 9 12 14 18 12 7 -3 20 1 29 8 16 11 14 13 -18 19
-19 4 -35 12 -36 19 0 7 -2 22 -3 35 -2 13 1 25 6 28 5 3 4 12 -3 20 -10 12
-21 99 -20 164 0 8 -2 30 -5 49 -4 25 -8 31 -14 20 -8 -12 -13 -10 -32 8 -34
35 -89 193 -67 193 5 0 9 8 10 18 0 10 3 12 6 5 8 -21 26 -15 20 7 -4 17 0 20
24 20 18 0 29 5 29 14 0 12 34 31 60 35 3 1 23 -11 45 -27z m-146 -742 c9 0 7
-10 -8 -35 -19 -32 -30 -66 -45 -140 -4 -20 -3 -25 3 -16 14 22 33 -22 29 -72
-2 -35 -7 -43 -25 -45 -39 -6 -123 -103 -123 -143 0 -20 43 -15 61 7 18 21 37
17 56 -13 10 -16 37 -47 60 -71 l42 -43 -1 37 c-1 25 4 41 17 50 40 30 69 -28
44 -88 -13 -31 -19 -34 -39 -15 -8 7 -7 1 4 -16 15 -25 15 -30 1 -49 -8 -13
-15 -35 -15 -50 0 -16 -4 -28 -8 -28 -4 0 -16 -13 -25 -30 -19 -32 -47 -41
-47 -15 0 8 -7 15 -15 15 -8 0 -17 11 -21 25 -7 29 -10 30 -31 9 -13 -13 -17
-13 -24 -2 -6 9 0 15 18 20 27 7 56 -2 53 -18 -1 -5 3 -10 9 -12 6 -2 11 3 11
12 0 9 -4 16 -10 16 -13 0 -43 69 -41 97 0 16 -4 21 -14 17 -10 -4 -15 0 -15
16 0 11 -4 19 -9 16 -10 -7 -21 17 -21 45 0 10 -4 19 -10 19 -5 0 -10 -21 -10
-46 l0 -47 -18 24 c-10 13 -21 31 -25 40 -3 9 -19 23 -36 30 -28 12 -31 17
-25 44 3 17 10 35 15 40 4 6 15 43 24 83 12 53 14 76 6 86 -6 7 -7 16 -3 21 4
4 0 6 -8 3 -8 -3 -16 -10 -16 -16 -1 -7 -2 -19 -3 -28 0 -8 -5 -13 -10 -10
-10 6 -35 -54 -26 -62 8 -8 33 30 40 61 4 15 11 27 17 27 6 0 8 -9 4 -22 -4
-13 -9 -32 -11 -42 -3 -11 -9 -24 -15 -30 -5 -5 -10 -19 -10 -31 0 -11 -7 -31
-16 -43 -8 -12 -13 -26 -9 -32 6 -9 -25 -30 -44 -30 -7 0 -12 26 -13 63 -2 60
-2 60 -5 12 -2 -27 -9 -54 -15 -60 -7 -7 -9 14 -5 72 7 90 22 122 77 169 38
31 48 38 128 85 28 17 52 36 52 42 0 6 3 7 6 4 9 -8 41 34 46 58 1 11 7 23 12
27 5 3 2 14 -7 23 -26 25 -20 31 6 7 13 -12 29 -22 36 -22z m2970 -262 c2 -46
15 -68 39 -68 13 0 12 -3 -4 -16 -18 -15 -18 -15 0 -10 11 4 33 -2 53 -14 19
-11 51 -20 71 -21 20 0 31 -3 24 -6 -9 -3 -4 -10 13 -19 36 -18 55 -17 31 1
-27 20 -15 28 13 9 21 -15 21 -17 4 -30 -14 -10 -15 -13 -3 -13 50 0 58 58 14
97 -14 12 -23 22 -19 22 3 0 -2 11 -11 25 -15 23 -15 25 0 19 9 -3 16 -10 16
-16 0 -5 6 -16 14 -24 8 -7 23 -24 33 -37 33 -40 101 -87 147 -101 25 -8 46
-13 46 -11 0 2 -28 19 -63 38 -34 20 -71 46 -82 58 -18 21 -17 21 15 -3 47
-34 211 -116 323 -162 45 -18 42 -40 -3 -24 -17 5 -30 14 -30 18 0 5 -39 18
-87 29 -64 15 -90 17 -98 9 -7 -8 -6 -9 3 -4 6 4 12 3 12 -3 0 -5 -6 -14 -14
-18 -19 -12 -30 -97 -14 -110 7 -6 45 -10 84 -8 l70 2 17 -36 c14 -32 14 -13
0 27 -9 21 30 13 72 -16 50 -35 56 -77 14 -101 -24 -13 -31 -13 -66 3 -30 13
-50 16 -79 10 -44 -9 -40 -9 -74 1 -22 7 -23 6 -11 -8 7 -9 11 -23 7 -32 -3
-8 6 -38 19 -67 14 -29 24 -69 24 -88 0 -19 -3 -29 -6 -21 -3 8 -21 30 -40 49
-29 29 -36 32 -50 20 -14 -11 -16 -11 -8 1 6 11 4 13 -9 8 -14 -5 -17 -3 -13
8 4 8 2 17 -3 20 -6 4 -10 -2 -10 -12 -1 -17 -1 -17 -11 0 -5 9 -7 23 -3 30 5
9 4 9 -6 0 -12 -11 -10 -18 8 -43 12 -16 22 -31 22 -34 0 -9 -33 6 -65 28 -34
23 -65 31 -65 15 0 -5 4 -8 9 -4 12 7 24 -12 16 -25 -4 -7 -14 -6 -28 1 -21
11 -21 11 -6 -7 28 -33 35 -51 12 -31 -11 9 -23 14 -26 10 -4 -3 -7 0 -7 8 0
7 -8 -2 -19 -21 -10 -19 -16 -41 -13 -49 3 -8 -3 -20 -14 -28 -18 -14 -18 -15
4 -8 13 4 22 2 22 -4 0 -6 -4 -11 -9 -11 -5 0 -12 -11 -15 -25 -4 -14 -11 -23
-16 -20 -6 3 -10 -1 -10 -10 0 -9 -4 -13 -10 -10 -5 3 -10 15 -10 27 0 11 -8
33 -17 48 -14 24 -15 33 -5 56 7 14 9 31 4 38 -7 10 -9 54 -4 136 2 31 4 33
16 17 7 -9 27 -22 45 -28 17 -6 28 -16 24 -22 -3 -6 -1 -7 6 -3 16 10 5 24
-35 41 -39 16 -49 51 -11 39 21 -6 21 -6 -3 15 l-25 21 47 -2 c26 -1 50 1 54
5 4 4 -4 7 -17 7 -17 0 -20 3 -11 9 7 4 25 6 39 3 15 -3 23 -1 20 4 -8 14 -67
16 -83 3 -8 -6 -15 -10 -15 -8 -2 4 -5 59 -4 59 0 0 24 -9 53 -19 43 -16 59
-18 78 -9 24 11 30 23 17 31 -5 2 -3 3 3 1 6 -1 17 1 24 6 9 5 3 10 -19 15
-17 4 -29 10 -26 15 3 5 -9 5 -27 0 -17 -6 -45 -7 -62 -5 -40 6 -13 -12 29
-19 15 -3 33 -11 39 -17 8 -9 0 -10 -33 -5 -24 4 -49 10 -55 14 -6 4 -14 7
-18 8 -5 1 -11 2 -14 3 -4 0 -1 8 6 16 10 12 10 15 -3 15 -9 0 -19 -4 -22 -10
-9 -15 -55 -13 -50 3 4 8 -7 12 -37 12 -53 0 -108 -31 -105 -59 2 -16 -12 -24
-83 -47 -47 -15 -96 -28 -110 -29 -25 0 -113 -28 -95 -30 6 0 -3 -8 -20 -17
-51 -29 -4 -28 83 1 42 14 105 30 139 34 56 8 61 7 53 -8 -11 -21 -77 -80 -89
-80 -5 0 -11 -13 -13 -30 -3 -17 0 -30 6 -30 8 0 8 -3 0 -8 -6 -4 -14 -14 -17
-22 -4 -12 -6 -11 -6 3 -1 11 -9 17 -23 17 -12 0 -31 9 -42 19 -23 21 -118 72
-124 66 -2 -2 9 -28 25 -57 25 -47 34 -55 78 -69 l49 -17 -37 -10 c-48 -13
-87 -1 -144 45 -24 19 -43 31 -43 27 0 -4 -11 3 -24 15 -15 14 -26 19 -30 12
-5 -7 -16 -5 -33 7 -15 9 -49 24 -76 32 -60 18 -95 57 -79 87 6 10 30 29 54
41 34 17 58 21 120 19 67 -2 80 1 105 21 41 34 123 71 179 81 61 12 124 43
144 70 8 12 22 21 30 21 9 0 38 25 65 55 55 63 76 70 73 23 -1 -17 3 -33 9
-35 7 -3 9 -12 6 -20 -5 -13 -2 -15 13 -10 18 7 18 6 2 -7 -26 -19 -23 -22 23
-25 30 -1 39 1 33 10 -5 9 -2 10 12 4 10 -4 31 -10 47 -13 30 -5 47 -22 22
-22 -9 0 -14 -4 -11 -9 4 -5 0 -11 -6 -14 -7 -3 8 -4 35 -2 35 2 45 -1 38 -9
-7 -8 -4 -12 10 -12 10 0 19 1 19 2 0 0 -5 15 -11 33 -8 23 -17 31 -34 31 -29
0 -42 17 -18 23 14 4 13 5 -4 6 -13 0 -23 6 -23 11 0 6 -6 10 -12 9 -7 -1 -24
-1 -37 0 -24 1 -24 1 -5 17 10 8 13 13 6 9 -19 -10 -73 17 -67 34 4 9 -1 12
-15 8 -17 -4 -20 -2 -14 15 4 13 2 18 -4 14 -6 -3 -12 0 -15 6 -4 10 -7 10
-17 1 -11 -10 -18 -7 -37 13 -13 15 -22 28 -19 31 3 3 1 16 -4 29 -8 21 1 74
13 74 2 0 4 -19 6 -42z m-3149 -388 c0 -11 4 -20 9 -20 5 0 11 -30 13 -67 2
-38 8 -76 12 -85 5 -12 4 -18 -4 -18 -7 0 -19 -8 -27 -17 -13 -16 -13 -16 -4
4 15 29 14 33 -7 33 -10 0 -27 7 -38 15 -29 22 -34 18 -23 -17 11 -40 11 -39
-2 -35 -6 1 -16 -6 -22 -15 -9 -13 -8 -20 2 -30 10 -10 12 -10 7 -1 -5 9 -2
11 8 7 12 -5 13 -10 5 -25 -12 -23 -4 -40 15 -33 8 3 30 1 49 -4 25 -7 39 -6
48 2 9 7 8 5 -1 -7 -8 -11 -10 -21 -4 -25 12 -9 64 -89 64 -99 0 -5 -11 6 -24
22 -13 17 -28 27 -32 22 -4 -4 -2 -13 4 -19 17 -17 15 -28 -4 -28 -8 0 -12 5
-9 10 8 12 -5 13 -24 1 -11 -7 -3 -17 32 -42 34 -24 43 -35 34 -42 -8 -5 -5
-6 8 -3 14 4 24 -1 33 -14 11 -17 10 -20 -8 -20 -11 0 -20 -4 -20 -10 0 -5 4
-10 8 -10 5 0 9 -14 10 -30 1 -26 -1 -28 -14 -16 -8 8 -14 19 -13 23 4 22 -4
33 -37 52 -44 26 -50 26 -57 1 -3 -11 -1 -18 4 -14 5 3 9 3 9 0 0 -2 2 -11 5
-18 10 -26 -39 -19 -62 9 -12 15 -25 24 -29 20 -4 -4 0 -15 9 -25 10 -10 17
-26 17 -35 0 -9 6 -20 14 -24 7 -4 17 -19 20 -33 7 -24 6 -23 -13 4 -11 16
-27 33 -35 38 -14 8 -14 5 -6 -17 15 -39 12 -43 -10 -15 -17 21 -21 23 -31 10
-8 -12 -9 -10 -4 7 5 18 3 22 -9 17 -9 -3 -16 -1 -16 6 0 6 -4 9 -8 6 -4 -3
-19 15 -32 40 -27 48 -45 60 -29 17 11 -29 5 -58 -11 -48 -14 9 -13 -1 5 -34
14 -28 13 -29 -6 -24 -11 3 -18 11 -15 18 2 7 -4 19 -15 28 -22 19 -23 52 -5
122 15 55 12 72 -9 55 -17 -14 -38 -3 -32 14 3 7 -4 18 -14 24 -24 15 -24 33
1 65 11 14 20 30 20 37 0 6 11 40 25 75 25 60 25 66 10 94 -13 27 -13 30 0 25
8 -4 15 -13 15 -21 0 -8 9 -17 20 -20 11 -3 20 -12 20 -20 0 -13 3 -13 15 -3
11 9 19 9 28 2 10 -9 13 -1 14 37 0 31 7 55 19 69 23 27 38 29 25 3 -8 -14 -5
-23 14 -41 14 -13 27 -21 30 -19 8 8 -7 49 -16 43 -5 -3 -9 -3 -9 0 0 3 16 13
36 21 31 13 35 18 30 40 -5 18 -2 25 9 25 8 0 15 -9 15 -20z m490 -611 c0 -28
21 1 55 76 34 78 55 104 55 73 0 -7 7 -56 15 -108 10 -66 19 -99 32 -107 15
-11 12 -13 -19 -13 -33 0 -36 2 -42 38 -3 20 -6 54 -6 74 0 20 -4 39 -8 42 -4
2 -23 -29 -41 -70 -18 -41 -37 -74 -41 -74 -4 0 -23 35 -41 77 l-34 77 -11
-70 c-6 -43 -7 -74 -1 -81 7 -10 1 -13 -24 -13 -19 0 -29 4 -22 8 6 4 19 57
28 117 10 61 20 114 22 118 5 9 83 -146 83 -164z m651 82 c52 105 47 108 69
-41 15 -99 18 -108 38 -113 9 -3 -2 -5 -25 -6 l-43 -1 -1 38 c0 20 -4 57 -7
82 l-7 45 -38 -80 c-44 -91 -45 -90 -89 10 -12 30 -26 55 -29 55 -11 0 -17
-124 -6 -137 7 -10 2 -13 -22 -13 -27 0 -30 3 -23 18 5 9 12 37 16 62 4 25 12
74 18 110 l11 65 45 -94 46 -93 47 93z m342 78 c64 -33 89 -88 67 -153 -18
-55 -62 -86 -120 -86 -41 0 -54 5 -84 34 -31 29 -36 39 -36 80 0 26 7 61 16
77 25 49 106 74 157 48z m443 -4 c39 -8 49 -78 15 -100 -21 -13 -10 -37 39
-85 47 -48 48 -50 23 -50 -18 0 -38 13 -65 42 -21 23 -38 45 -38 50 0 4 -9 8
-20 8 -17 0 -20 -7 -20 -40 0 -27 6 -42 18 -49 14 -8 9 -10 -23 -11 l-40 0 3
115 c2 76 0 115 -7 115 -6 0 -11 3 -11 8 0 7 87 5 126 -3z m702 -12 c57 -36
63 -129 12 -186 -22 -25 -36 -31 -81 -35 -48 -4 -59 -1 -86 22 -80 68 -56 193
42 219 29 8 86 -2 113 -20z m622 -96 c23 -59 50 -112 59 -117 12 -7 7 -9 -21
-10 -32 0 -37 3 -43 30 -9 40 -30 60 -65 60 -24 0 -30 -6 -40 -36 -10 -30 -10
-38 1 -45 9 -6 -2 -8 -31 -8 -25 1 -37 3 -28 6 10 3 34 48 64 124 26 66 51
116 54 112 4 -5 26 -56 50 -116z m-2381 91 c0 -13 -3 -17 -6 -10 -2 6 -20 12
-39 12 -33 0 -34 -1 -34 -41 l0 -41 38 4 c20 1 36 0 35 -5 -2 -4 -3 -11 -3
-15 0 -4 -16 -6 -36 -4 l-35 4 3 -48 c3 -45 5 -49 31 -52 19 -2 33 3 43 15 14
19 19 7 8 -21 -5 -13 -21 -16 -78 -15 -39 0 -65 3 -58 6 8 3 12 36 12 113 0
77 -4 110 -12 113 -7 3 20 6 60 6 68 1 72 0 71 -21z m-469 -302 c47 -7 75 -16
74 -24 -1 -7 -2 -38 -3 -69 l-2 -58 -19 43 c-27 60 -86 86 -195 86 -154 0
-232 -75 -242 -233 -4 -62 -1 -87 17 -136 53 -141 213 -228 339 -184 l31 11 0
114 0 115 -30 6 c-59 11 -29 23 60 23 53 0 90 -4 90 -10 0 -5 -7 -10 -15 -10
-26 0 -35 -37 -35 -148 l0 -110 -37 -15 c-97 -38 -257 -26 -348 28 -129 75
-180 264 -111 408 72 150 201 200 426 163z m1734 8 l46 -7 0 -54 c0 -34 -4
-52 -10 -48 -5 3 -10 14 -10 24 0 27 -34 52 -77 58 -55 7 -91 -10 -109 -53
-24 -57 -6 -90 95 -183 98 -89 121 -127 121 -195 0 -94 -42 -146 -135 -167
-44 -10 -64 -9 -107 2 l-53 14 -3 63 c-3 64 11 85 22 32 3 -17 17 -42 30 -55
21 -20 35 -25 79 -25 45 0 59 4 80 26 65 65 41 140 -78 241 -105 90 -134 162
-97 245 15 34 30 50 63 66 47 23 69 26 143 16z m1451 -272 c55 -145 107 -276
117 -293 11 -18 29 -32 49 -36 51 -10 18 -19 -58 -15 -56 3 -71 7 -66 18 4 12
-9 55 -59 187 -10 27 -11 27 -102 27 l-92 0 -27 -83 c-34 -104 -35 -137 -5
-137 12 0 19 -3 16 -6 -8 -8 -168 -10 -168 -3 0 4 14 9 30 13 21 4 34 15 45
38 24 54 154 414 182 503 19 61 23 69 33 58 4 -4 51 -126 105 -271z m-2493
216 c-4 -55 -13 -60 -29 -18 -10 27 -16 30 -57 31 -25 1 -58 2 -73 3 l-28 1
-3 -117 -3 -118 79 0 c46 0 83 5 90 12 8 8 11 -2 11 -45 -1 -32 -5 -60 -10
-63 -5 -3 -9 4 -9 14 0 31 -21 41 -90 44 l-65 3 -3 -118 c-4 -156 -2 -159 96
-155 76 3 77 3 91 36 20 44 27 40 23 -10 -7 -69 -7 -69 -179 -66 -84 2 -153 6
-153 11 0 4 9 7 20 7 12 0 22 9 25 23 3 12 4 141 3 287 l-3 265 -27 3 c-16 2
-28 6 -28 10 0 4 73 7 163 7 l162 0 -3 -47z m478 41 c0 -5 -9 -9 -19 -9 -10 0
-22 -7 -25 -16 -8 -22 -6 -503 3 -534 5 -19 16 -27 41 -31 19 -4 31 -7 25 -8
-23 -5 -187 -2 -193 3 -3 3 4 6 16 6 14 0 24 8 27 23 3 12 4 141 3 287 l-3
265 -22 3 c-13 2 -23 7 -23 12 0 4 38 8 85 8 47 0 85 -4 85 -9z m1080 1 c0 -5
-10 -10 -22 -12 -29 -4 -36 -31 -37 -145 l-1 -93 170 0 c128 0 172 3 175 13 3
6 1 59 -3 117 l-7 105 -27 3 c-16 2 -28 7 -28 12 0 5 41 9 90 8 50 0 90 -5 90
-9 0 -5 -7 -9 -15 -9 -31 0 -37 -51 -33 -301 3 -264 6 -279 54 -279 13 0 24
-4 24 -8 0 -8 -189 -6 -198 3 -3 3 4 5 16 5 28 0 31 15 34 175 l3 130 -174 3
-174 2 5 -140 c6 -149 12 -170 54 -170 13 0 24 -3 24 -7 0 -9 -188 -8 -197 1
-4 3 3 6 14 6 12 0 24 8 29 18 12 28 16 519 4 542 -6 12 -21 20 -35 20 -14 0
-25 4 -25 9 0 6 42 10 95 10 52 0 95 -4 95 -9z m-1244 -875 c-3 -8 -1 -15 3
-15 5 0 12 7 15 16 12 31 23 3 19 -48 -4 -53 -4 -53 12 -25 10 18 24 27 40 27
14 0 25 4 25 9 0 4 11 6 25 4 17 -4 28 -15 35 -39 7 -19 16 -34 22 -34 6 0 8
-7 4 -15 -6 -16 25 -20 130 -15 29 1 54 -3 58 -8 3 -6 -31 -10 -90 -11 -52 0
-100 -4 -106 -7 -6 -4 -8 -2 -5 4 10 15 -3 42 -20 42 -11 0 -13 -7 -9 -24 4
-18 2 -24 -9 -22 -8 1 -18 5 -21 9 -4 4 -15 7 -25 7 -13 0 -16 -5 -12 -16 3
-8 12 -13 19 -10 9 3 11 -1 7 -12 -3 -9 -2 -14 2 -9 12 11 45 -23 46 -47 1
-15 3 -12 10 10 9 32 9 32 76 32 38 0 73 -4 80 -9 7 -7 13 -6 17 0 5 7 15 7
31 1 14 -5 32 -7 40 -4 8 4 15 3 15 0 0 -3 -18 -13 -40 -22 -26 -11 -50 -31
-69 -59 -29 -43 -31 -66 -4 -44 10 9 13 8 13 -5 0 -10 5 -14 10 -11 15 9 12
-13 -6 -40 -9 -14 -23 -25 -30 -25 -14 0 -15 -20 -1 -31 4 -3 -2 -17 -13 -32
-22 -27 -13 -43 19 -32 15 4 18 0 19 -26 1 -40 22 -65 22 -26 0 14 8 31 18 37
15 10 15 11 0 6 -9 -2 -19 2 -22 10 -4 10 2 14 19 14 18 0 25 5 25 20 0 14 7
20 23 20 12 0 59 0 105 0 71 0 82 2 82 17 0 12 3 14 11 6 6 -6 23 -8 44 -3 26
6 35 4 40 -8 9 -25 -5 -31 -92 -38 -56 -5 -80 -10 -76 -18 4 -6 -3 -3 -14 7
-18 15 -25 17 -44 7 -17 -10 -19 -14 -8 -22 11 -7 9 -9 -6 -7 -36 3 -44 -1
-42 -20 0 -11 5 -17 9 -15 4 3 16 0 25 -5 15 -9 13 -10 -11 -11 -24 0 -27 -3
-18 -12 14 -14 104 -17 113 -4 4 5 17 -1 30 -13 12 -11 25 -19 28 -16 2 3 -4
12 -15 20 -10 8 -14 15 -7 15 16 0 53 -49 53 -72 0 -16 -5 -15 -40 13 -37 30
-96 51 -70 25 5 -5 10 -16 10 -24 0 -9 -9 -4 -21 12 -15 20 -24 24 -29 16 -9
-14 24 -76 45 -84 7 -2 19 -15 25 -28 11 -22 10 -22 -4 -4 -9 11 -18 17 -22
14 -3 -4 10 -23 28 -45 50 -57 91 -114 85 -119 -2 -3 -11 2 -19 10 -9 8 -20
11 -28 6 -7 -4 -20 -6 -28 -3 -11 5 -13 1 -7 -15 7 -23 -10 -31 -18 -9 -3 7
-6 4 -6 -6 -1 -10 -5 -15 -11 -12 -5 3 -10 -1 -10 -11 0 -12 -3 -14 -13 -6
-10 8 -16 6 -26 -10 -11 -17 -15 -18 -22 -7 -6 10 -9 4 -9 -18 0 -25 -4 -33
-17 -33 -15 0 -16 2 -3 10 12 7 12 12 3 21 -19 19 -27 -13 -17 -69 4 -26 7
-55 6 -64 -3 -26 3 -22 27 15 23 35 27 27 10 -21 -6 -18 -15 -29 -20 -26 -12
7 -11 1 6 -71 19 -79 19 -115 0 -115 -21 0 -30 -27 -15 -45 8 -10 9 -19 1 -32
-10 -17 -10 -17 -11 0 0 20 -9 21 -138 17 -81 -2 -91 0 -86 14 3 9 14 16 23
16 14 0 14 -2 1 -10 -12 -8 -10 -10 8 -10 13 0 20 4 17 10 -4 6 5 10 20 10 17
0 24 -4 19 -12 -5 -7 -3 -8 6 -3 7 5 27 12 44 16 23 5 13 7 -41 8 -39 1 -78 4
-87 7 -11 4 -16 0 -17 -12 0 -13 -4 -10 -11 9 -8 22 -14 26 -31 21 -12 -4 -24
-10 -27 -14 -8 -13 -100 -24 -100 -12 0 6 -10 12 -22 15 -24 4 -25 3 30 24 9
3 23 5 31 4 7 -1 11 4 9 11 -3 7 -11 13 -19 13 -8 1 -13 6 -11 13 1 9 -10 11
-37 7 -34 -4 -40 -2 -44 17 -7 25 0 38 11 22 4 -6 15 -14 25 -17 14 -5 20 -2
24 12 3 13 11 18 21 14 13 -4 14 -3 4 5 -7 5 -25 7 -40 5 -21 -4 -24 -2 -12 6
13 9 13 11 -2 11 -12 0 -16 6 -12 18 3 9 -2 6 -10 -8 -15 -24 -15 -21 -18 60
-3 116 -2 158 5 355 4 94 9 292 12 440 4 171 10 278 17 293 13 25 44 31 34 7z
m682 -151 c2 -17 -2 -22 -20 -22 -24 0 -68 -9 -75 -15 -2 -3 8 -15 22 -28 27
-25 70 -98 62 -106 -3 -2 3 -21 13 -41 10 -20 15 -41 11 -45 -10 -10 -61 13
-61 27 0 6 -9 17 -20 24 -25 15 -26 42 -2 43 10 0 12 3 5 6 -18 7 -16 23 5 40
9 8 12 12 5 8 -7 -3 -21 3 -32 14 -11 11 -32 23 -46 27 -19 5 -25 13 -25 35 0
16 5 29 10 29 6 0 10 6 10 14 0 17 37 23 95 16 31 -4 41 -10 43 -26z m-218
-104 c13 -18 26 -27 35 -23 10 3 15 -1 15 -15 0 -20 28 -57 36 -49 3 2 0 17
-6 32 -7 18 -7 32 -1 38 10 10 24 -38 26 -88 0 -16 6 -31 13 -31 24 -3 26 -4
15 -15 -13 -13 -50 3 -75 35 -9 11 -20 17 -25 13 -4 -5 7 -22 25 -38 l32 -29
-35 0 c-24 0 -38 5 -42 16 -6 15 -7 15 -19 -1 -9 -11 -21 -16 -35 -12 -11 3
-33 1 -47 -4 -38 -14 -51 5 -24 34 19 20 20 28 12 57 -10 37 -5 49 39 87 33
29 35 29 61 -7z m197 -650 c3 -11 8 -18 12 -16 3 2 16 0 29 -5 17 -6 22 -14
17 -28 -6 -19 18 -37 35 -26 4 3 11 -2 14 -10 3 -10 -2 -18 -14 -23 -14 -5
-17 -11 -10 -22 8 -12 13 -13 29 -3 25 16 35 4 15 -18 -20 -22 -12 -49 16 -49
27 0 26 16 -2 24 -27 6 -16 20 24 30 21 5 26 3 22 -8 -3 -8 -1 -17 5 -21 16
-9 13 -25 -5 -25 -8 0 -12 -5 -8 -11 4 -7 20 -9 43 -4 65 12 121 14 121 4 0
-5 -5 -9 -10 -9 -7 0 -7 -7 0 -21 7 -11 18 -18 25 -15 19 7 36 -16 25 -34 -6
-10 -10 -11 -10 -3 0 9 -10 9 -41 -2 -22 -8 -43 -14 -47 -14 -4 1 -9 0 -12 -1
-3 -1 -32 -3 -64 -4 -47 -2 -64 2 -78 16 -24 24 -28 23 -28 -7 0 -17 6 -25 18
-25 178 -4 209 -8 236 -31 24 -21 25 -24 9 -31 -13 -5 -9 -7 15 -7 17 -1 32 4
32 9 0 6 7 10 15 10 13 0 11 -5 -5 -22 l-21 -23 43 -3 c50 -3 88 -20 88 -39 0
-7 5 -13 12 -13 6 0 3 -7 -8 -15 -17 -13 -17 -14 -1 -15 9 0 17 -5 17 -10 0
-6 -5 -9 -12 -8 -14 4 -11 -91 3 -109 7 -7 6 -14 -1 -18 -18 -11 -30 5 -30 41
0 44 -13 44 -29 -1 -7 -19 -16 -35 -20 -35 -4 0 -13 16 -21 35 -18 47 -33 44
-28 -5 2 -25 0 -39 -7 -37 -6 2 -8 23 -6 48 7 78 6 92 -8 97 -10 3 -12 0 -8
-12 4 -9 2 -16 -3 -16 -6 0 -10 5 -10 10 0 6 -5 10 -10 10 -7 0 -7 -6 0 -19
17 -33 11 -71 -15 -96 -30 -31 -54 -31 -90 -4 -28 23 -28 23 -13 116 1 7 4 11
7 11 3 -1 14 2 24 7 10 4 29 3 42 -3 14 -6 27 -7 30 -2 3 4 21 7 41 6 34 -2
38 -5 57 -56 l20 -54 25 52 c14 28 22 55 18 59 -5 5 -11 2 -13 -5 -3 -6 -9
-10 -14 -7 -5 4 -6 -1 -3 -9 4 -9 1 -16 -6 -16 -6 0 -14 9 -17 19 -6 22 -55
43 -78 35 -8 -4 -15 -1 -15 5 0 11 13 13 90 12 l45 0 -40 10 c-37 9 -145 2
-117 -8 6 -3 12 -9 12 -14 0 -13 -48 -11 -56 3 -4 6 -3 8 4 4 6 -3 13 -2 16 3
4 5 -6 12 -21 16 -36 8 -72 36 -56 42 7 2 9 11 6 19 -3 7 -9 11 -14 8 -5 -3
-23 5 -40 17 -30 21 -31 21 -20 2 6 -11 18 -23 26 -27 9 -3 14 -10 11 -14 -3
-5 4 -16 15 -26 12 -10 19 -20 16 -22 -12 -12 -248 -23 -292 -14 -16 4 -43 2
-58 -3 -15 -5 -31 -7 -34 -4 -3 3 -7 36 -9 73 -2 37 -9 71 -15 75 -18 11 -4
108 18 124 16 12 19 10 24 -16 4 -16 1 -57 -5 -92 -7 -34 -10 -81 -8 -105 4
-40 6 -42 31 -36 52 12 55 23 43 133 -8 66 -9 109 -2 125 5 14 9 40 8 58 -1
18 6 47 15 65 10 18 17 46 17 63 0 34 19 41 27 10z m-1924 -377 c-48 -42 -73
-98 -73 -163 0 -69 20 -102 58 -98 22 2 29 10 36 39 12 49 -9 93 -47 97 -38 5
-23 22 19 22 75 0 103 -93 45 -151 -53 -52 -138 -27 -157 46 -17 68 27 166 95
212 47 32 62 29 24 -4z m646 -148 c75 -38 32 -135 -59 -135 l-30 0 0 75 0 75
30 0 c17 0 44 -7 59 -15z m1165 4 c28 -13 41 -58 25 -93 -13 -28 -48 -46 -92
-46 l-32 0 3 66 c3 48 0 69 -10 75 -20 13 77 11 106 -2z m1354 -16 c22 -30 15
-79 -14 -102 -35 -27 -59 -26 -89 4 -32 31 -32 69 1 102 20 20 31 24 57 19 18
-3 38 -14 45 -23z"/>
<path d="M1853 2874 c-22 -23 -25 -32 -21 -80 6 -70 35 -104 89 -104 42 0 58
15 69 65 11 48 -5 99 -37 125 -35 27 -69 25 -100 -6z"/>
<path d="M2975 2875 c-42 -41 -30 -143 19 -177 6 -4 27 -8 47 -8 52 0 73 34
67 108 -4 45 -10 60 -32 79 -35 30 -71 29 -101 -2z"/>
<path d="M3937 2463 c-6 -10 -67 -207 -67 -217 0 -3 34 -6 75 -6 41 0 75 4 75
8 0 11 -68 214 -74 219 -2 2 -6 1 -9 -4z"/>
<path d="M1912 1319 c-1 -36 -4 -122 -7 -190 -3 -73 -2 -116 3 -104 8 18 9 17
14 -7 3 -18 0 -29 -10 -33 -12 -5 -14 -23 -8 -117 3 -62 11 -117 16 -122 6 -6
10 -8 10 -5 0 2 3 58 6 124 4 66 10 125 15 131 5 6 5 14 1 18 -4 4 -6 69 -5
144 1 76 -1 155 -6 177 l-9 40 -2 -45 -3 -45 -7 50 -7 50 -1 -66z"/>
</g>
</svg>
