<?xml version="1.0" standalone="no"?>
<!DOCTYPE svg PUBLIC "-//W3C//DTD SVG 20010904//EN"
 "http://www.w3.org/TR/2001/REC-SVG-20010904/DTD/svg10.dtd">
<svg version="1.0" xmlns="http://www.w3.org/2000/svg"
 width="800.000000pt" height="1218.000000pt" viewBox="0 0 800.000000 1218.000000"
 preserveAspectRatio="xMidYMid meet">
<metadata>
Created by potrace 1.16, written by Peter Selinger 2001-2019
</metadata>
<g transform="translate(0.000000,1218.000000) scale(0.100000,-0.100000)"
fill="#000000" stroke="none">
<path d="M10 8234 c0 -3754 1 -3946 18 -3939 31 12 34 10 46 -35 7 -25 25 -78
39 -119 15 -41 27 -78 27 -81 0 -4 -29 -19 -65 -35 l-65 -27 0 -664 c0 -611 1
-664 17 -664 9 0 31 -11 49 -25 21 -16 34 -21 36 -13 6 17 -23 48 -44 48 -34
0 -18 26 40 60 79 48 91 54 169 85 104 42 198 91 236 125 35 30 50 65 96 220
41 137 161 453 194 514 21 37 23 38 67 32 25 -3 59 -8 75 -12 22 -4 36 0 52
15 16 15 29 19 56 14 35 -5 48 1 84 39 11 11 25 15 45 11 16 -3 34 0 43 7 8 7
25 10 40 6 15 -4 37 0 54 8 17 9 42 13 62 10 30 -5 36 -2 52 26 10 17 23 30
29 28 11 -4 11 -6 2 -54 -5 -28 -3 -39 9 -46 14 -8 14 -11 -1 -38 -21 -36 -8
-63 31 -68 23 -3 26 -8 29 -50 3 -43 5 -47 31 -50 26 -3 27 -6 21 -36 -8 -43
24 -76 73 -76 18 0 33 -4 33 -8 0 -5 -64 -69 -141 -143 -78 -74 -198 -189
-268 -256 -176 -169 -159 -159 -276 -166 -105 -6 -161 -18 -285 -62 -41 -14
-83 -28 -92 -30 -9 -2 -26 -9 -37 -15 -12 -6 -21 -8 -21 -4 0 3 -6 1 -13 -5
-27 -22 -290 -101 -358 -107 -38 -4 -69 -11 -69 -17 0 -19 137 3 269 42 72 22
135 42 140 45 5 3 74 28 153 55 155 54 246 72 366 74 71 2 77 0 77 -18 0 -18
-8 -20 -95 -25 -110 -6 -154 -23 -310 -125 -105 -68 -200 -110 -229 -102 -12
3 -22 -1 -25 -9 -15 -39 119 2 229 70 212 130 246 146 316 146 27 0 49 -3 49
-6 0 -4 -12 -21 -28 -39 -15 -18 -40 -49 -56 -70 -16 -20 -50 -47 -77 -59 -26
-13 -72 -41 -101 -63 -29 -23 -84 -58 -123 -78 -89 -46 -99 -56 -203 -195 -54
-73 -156 -186 -279 -308 -172 -173 -207 -212 -188 -212 3 0 25 18 48 41 56 55
77 68 134 84 26 8 89 28 138 45 88 30 187 56 253 67 17 3 32 9 32 14 0 5 16 9
36 9 20 0 53 4 73 10 31 8 227 51 301 66 23 5 23 4 -5 -12 -52 -29 -86 -67
-97 -111 -13 -52 -21 -58 -50 -39 -30 19 -47 10 -97 -48 -24 -27 -52 -56 -63
-65 -11 -9 -21 -29 -21 -45 -2 -22 -13 -36 -47 -59 -25 -17 -66 -51 -92 -75
l-47 -44 -158 16 c-171 17 -343 21 -343 8 0 -5 69 -12 153 -15 83 -4 161 -9
172 -11 11 -2 37 -5 59 -5 l38 -1 -6 -47 c-3 -27 -9 -74 -13 -105 -10 -92 -21
-67 -15 35 l5 94 -74 12 c-113 17 -319 26 -319 12 0 -7 21 -11 55 -11 30 0 55
-2 55 -4 0 -3 -25 -28 -55 -57 -48 -45 -69 -79 -49 -79 3 0 31 27 62 60 32 33
62 60 68 60 6 0 40 -26 75 -58 35 -32 98 -86 139 -121 41 -35 76 -67 78 -71 2
-4 -3 -14 -10 -21 -7 -8 -42 -50 -78 -94 -36 -44 -73 -89 -82 -99 -10 -11 -36
-45 -59 -77 -26 -35 -47 -55 -56 -52 -21 8 -16 21 26 71 22 26 78 93 125 149
47 57 86 108 86 115 0 12 -24 35 -165 162 -63 56 -66 55 -144 -26 -39 -40 -71
-80 -71 -88 0 -8 32 18 71 59 58 59 75 71 90 65 30 -14 177 -147 184 -167 5
-13 -9 -36 -47 -80 -30 -34 -83 -99 -118 -144 -62 -80 -82 -95 -95 -73 -6 9
46 84 102 147 37 42 95 112 109 132 10 14 -1 27 -69 84 l-81 68 -73 -77 c-40
-43 -73 -84 -73 -93 0 -21 35 11 123 113 l25 29 61 -53 c34 -29 61 -57 61 -61
0 -5 -8 -17 -18 -27 -10 -10 -56 -65 -101 -123 -46 -57 -88 -106 -93 -108 -5
-2 -20 7 -34 20 -22 21 -24 21 -24 3 0 -11 16 -30 37 -44 43 -28 59 -41 117
-90 23 -19 55 -45 71 -57 l30 -22 -58 -1 c-54 0 -61 3 -123 51 -36 28 -69 48
-72 44 -7 -7 28 -42 83 -82 l30 -22 -28 -1 c-16 0 -42 9 -58 21 l-29 20 0 -25
c0 -21 6 -26 35 -32 31 -6 34 -9 29 -33 -13 -60 -15 -63 -40 -58 -16 3 -24 0
-24 -10 0 -10 9 -13 27 -11 28 3 47 30 57 79 l6 27 137 8 c207 12 350 9 428
-8 43 -10 87 -14 115 -10 43 7 46 10 97 92 30 47 57 94 62 105 9 21 90 118
119 145 30 27 178 194 208 235 16 22 31 42 34 45 3 3 19 23 35 46 36 49 103
130 165 199 25 27 74 83 109 123 35 40 83 83 105 94 40 21 177 65 226 73 14 3
57 14 95 25 39 12 98 27 133 34 57 12 62 12 55 -3 -4 -9 -8 -71 -8 -138 0 -67
-3 -125 -7 -128 -4 -4 -40 -15 -80 -26 -40 -10 -111 -38 -158 -61 -65 -32 -99
-43 -147 -46 -59 -4 -62 -6 -90 -46 -27 -38 -103 -186 -103 -200 0 -3 -27 -75
-61 -158 -68 -172 -138 -309 -213 -417 -28 -40 -57 -83 -65 -95 -8 -11 -29
-39 -46 -61 -17 -22 -55 -82 -84 -133 -29 -51 -63 -99 -74 -106 -13 -8 -59
-14 -111 -15 -50 -1 -117 -9 -150 -18 -65 -17 -308 -26 -423 -16 -49 4 -63 9
-63 22 -1 15 -1 15 -10 -1 -6 -9 -18 -15 -27 -13 -10 2 -54 9 -98 15 -44 6
-102 16 -128 22 -44 9 -48 13 -43 33 4 14 0 28 -9 35 -13 11 -15 7 -15 -29 0
-48 9 -54 121 -72 l69 -12 0 -38 c0 -49 17 -51 26 -4 8 46 19 36 15 -13 -3
-42 15 -34 21 8 3 22 8 25 43 25 l40 0 -3 -37 c-2 -21 1 -38 6 -38 13 0 26 30
23 53 -1 9 3 17 8 17 6 0 11 -16 11 -35 0 -19 5 -35 10 -35 6 0 10 15 10 34
l0 35 153 0 c107 -1 174 4 227 16 41 9 124 19 183 22 122 7 145 18 182 90 29
58 122 199 185 283 58 76 82 116 163 270 36 67 51 86 74 92 104 30 395 78 465
78 27 0 28 -1 22 -43 -4 -23 -12 -64 -19 -92 l-12 -50 -49 -2 c-27 -1 -140 -4
-251 -7 -115 -2 -210 -9 -220 -15 -13 -8 60 -9 251 -4 l269 6 -18 -27 c-10
-15 -18 -46 -19 -69 -1 -32 -5 -41 -16 -38 -23 6 -378 9 -437 4 -29 -3 -53 -8
-53 -13 0 -4 106 -7 234 -6 161 1 239 -3 246 -10 8 -8 -1 -32 -35 -88 -37 -61
-51 -76 -65 -71 -23 7 -45 12 -150 29 -114 20 -222 24 -227 10 -3 -8 30 -14
96 -18 101 -8 264 -36 277 -49 4 -3 2 -19 -4 -34 -6 -15 -13 -50 -15 -78 -2
-37 -7 -49 -18 -46 -152 40 -291 72 -319 74 -57 3 -48 -17 11 -26 69 -10 254
-55 295 -72 29 -12 32 -17 36 -71 3 -33 4 -60 3 -62 -1 -1 -32 11 -67 27 -95
44 -308 112 -338 109 -21 -3 -17 -6 20 -16 54 -16 249 -87 305 -112 23 -10 54
-22 70 -26 17 -3 39 -14 50 -24 30 -26 129 -40 195 -29 143 27 431 17 483 -15
51 -32 248 -37 351 -8 46 14 77 17 96 12 16 -5 30 -6 33 -4 2 3 34 7 71 9 80
5 106 18 106 50 0 21 4 24 33 22 19 -1 47 -14 66 -29 17 -15 48 -30 68 -34 52
-10 208 22 260 52 66 38 171 29 238 -21 35 -26 127 -55 177 -55 19 0 56 11 83
24 35 18 64 25 106 25 31 0 66 4 77 10 12 6 39 11 61 11 30 0 44 5 53 20 7 11
18 20 23 20 6 0 32 -25 59 -55 26 -30 68 -67 93 -82 43 -25 49 -26 97 -16 84
18 164 61 215 115 53 56 152 119 159 99 11 -32 61 -75 126 -106 39 -20 88 -44
108 -56 20 -11 45 -20 55 -20 41 1 49 1 83 -4 19 -2 50 -7 68 -11 18 -3 38 -2
45 4 7 6 41 13 77 17 41 4 76 15 95 28 42 30 141 26 191 -8 52 -35 131 -48
243 -40 112 8 165 29 199 79 30 43 72 175 72 222 0 66 -54 156 -158 267 -53
57 -114 122 -134 144 l-38 41 0 162 0 161 648 -2 c552 -1 651 -4 676 -16 29
-15 133 -116 213 -206 22 -26 44 -47 47 -47 16 0 2 26 -38 68 -24 26 -63 70
-87 98 -24 27 -75 72 -113 100 -108 77 -143 112 -177 172 -35 65 -84 207 -94
273 -12 85 -14 105 -14 197 -1 59 -5 92 -12 92 -22 0 -149 -55 -302 -131 -304
-152 -482 -199 -1055 -275 -51 -7 -59 -10 -49 -21 4 -4 48 -1 98 5 49 7 93 11
97 8 8 -5 -3 -275 -13 -307 -6 -19 -11 -15 -39 37 -55 101 -77 138 -112 187
-19 26 -34 50 -34 54 0 9 -93 143 -99 143 -14 0 -36 50 -53 120 -11 41 -22 84
-24 96 -4 14 4 31 25 53 17 18 31 39 31 47 0 20 -28 6 -36 -18 -8 -28 -68 -50
-123 -46 -25 2 -48 -1 -51 -7 -3 -6 22 -11 62 -13 l67 -3 23 -101 c19 -84 29
-107 58 -142 82 -93 193 -273 301 -484 43 -84 91 -170 106 -190 52 -69 171
-207 242 -279 39 -40 71 -76 71 -81 0 -4 9 -18 19 -29 35 -38 49 -85 44 -154
-2 -35 -8 -68 -12 -74 -5 -5 -11 -21 -14 -35 -4 -14 -20 -47 -37 -73 -38 -56
-62 -64 -209 -70 -153 -7 -203 15 -336 148 -73 74 -118 108 -280 220 -240 163
-323 250 -488 507 -53 82 -113 159 -168 215 -162 167 -214 263 -283 518 -7 28
-24 88 -37 135 -34 122 -32 224 10 354 43 136 41 265 -9 481 -46 198 -59 394
-41 590 6 61 11 137 13 170 1 33 3 63 5 67 2 4 25 0 51 -7 26 -8 63 -15 82
-15 46 0 110 18 110 31 0 6 -8 8 -17 5 -56 -15 -91 -17 -150 -6 -36 7 -67 19
-70 26 -3 8 -11 14 -17 14 -21 0 -73 63 -86 104 -14 45 -7 135 15 180 20 39
19 39 -12 31 -16 -4 -37 -9 -48 -11 -11 -2 -31 -6 -45 -9 -96 -20 -269 -35
-405 -36 -71 0 -166 -4 -210 -8 -55 -5 -100 -3 -145 6 -36 7 -81 13 -100 13
-19 0 -80 9 -135 19 -194 38 -365 97 -565 196 -58 29 -114 56 -125 60 -11 4
-85 8 -165 10 -110 3 -171 10 -250 28 -58 14 -141 28 -184 32 -44 3 -89 11
-100 17 -31 15 -96 80 -96 95 0 21 20 15 41 -11 11 -14 46 -33 84 -46 63 -21
66 -21 152 -5 48 10 119 21 156 25 67 8 86 14 74 26 -7 7 -178 -13 -222 -26
-60 -18 -125 -23 -125 -10 0 7 6 10 13 7 8 -3 20 -1 28 4 9 6 -6 9 -44 9 -56
0 -97 12 -97 28 0 4 10 8 23 8 119 1 157 5 157 17 0 10 -27 12 -120 9 -107 -4
-126 -1 -180 19 -60 24 -80 49 -37 49 12 0 54 -9 92 -20 39 -11 88 -20 110
-20 44 0 245 51 245 62 0 4 -25 22 -55 39 -55 31 -95 82 -75 94 6 4 27 -7 48
-23 35 -28 140 -82 159 -82 5 0 32 -20 60 -45 93 -81 251 -131 444 -140 63 -3
157 -7 209 -10 52 -3 142 -7 200 -10 58 -3 131 -8 163 -11 64 -5 209 -47 246
-71 29 -19 65 -14 201 26 116 35 196 52 345 75 190 28 176 29 215 -5 51 -45
202 -137 305 -185 90 -42 236 -95 373 -134 l73 -21 -33 -47 c-18 -26 -44 -69
-58 -97 -14 -27 -28 -52 -33 -53 -4 -2 -7 -9 -7 -15 0 -6 -8 -20 -19 -31 -10
-12 -39 -51 -64 -88 -42 -60 -46 -71 -37 -95 15 -39 95 -108 142 -122 36 -11
40 -10 63 16 13 15 25 31 25 36 0 11 38 9 45 -3 12 -20 53 -10 78 20 14 17 35
30 46 30 11 0 25 8 30 18 8 15 81 282 81 296 0 9 38 7 44 -2 3 -5 -1 -51 -9
-103 -8 -52 -15 -126 -15 -166 l0 -71 49 -17 c46 -15 50 -19 56 -56 6 -33 13
-43 47 -60 22 -11 70 -23 107 -26 l68 -6 17 145 c9 79 17 192 18 250 l0 106
79 11 c42 7 126 28 185 47 262 87 419 186 662 419 l84 79 -6 -114 c-3 -63 -8
-162 -11 -219 -2 -57 -7 -106 -9 -109 -3 -2 -56 -8 -118 -13 -149 -10 -341
-29 -346 -33 -3 -3 8 -36 55 -161 22 -60 12 -148 -24 -198 -44 -63 -91 -82
-198 -82 -49 0 -109 4 -132 8 -57 12 -55 -6 2 -21 25 -7 45 -16 45 -22 0 -36
-111 -232 -161 -284 -40 -41 -74 -117 -109 -246 -16 -58 -36 -123 -44 -145
-26 -70 -22 -91 27 -115 23 -12 60 -34 82 -50 22 -16 56 -41 75 -55 l35 -24
175 26 c149 23 208 26 400 27 l225 0 150 -37 c279 -69 320 -76 491 -82 56 -1
110 -8 121 -13 24 -13 78 -122 88 -176 3 -21 17 -63 31 -94 13 -30 24 -59 24
-64 0 -5 47 -107 105 -228 58 -120 105 -221 105 -224 0 -4 15 -39 34 -79 19
-40 41 -94 50 -121 27 -79 35 -87 34 -34 0 30 -5 49 -14 52 -19 7 -18 26 1 26
8 0 15 5 15 10 0 6 -7 10 -15 10 -20 0 -49 48 -86 145 -17 44 -59 139 -94 210
-112 232 -158 343 -170 411 -10 55 -54 142 -86 168 -23 20 -39 23 -130 25 -97
2 -200 12 -259 26 -14 3 -54 12 -90 20 -36 8 -110 24 -165 36 -102 22 -118 31
-109 61 3 9 6 383 8 831 2 448 6 819 9 824 3 5 7 121 8 259 1 166 8 299 20
395 10 79 21 167 24 194 7 55 11 69 44 137 23 46 23 47 95 59 60 11 77 18 109
50 29 29 46 37 70 36 18 0 120 5 227 11 107 7 254 12 327 12 l132 0 60 -42
c34 -23 61 -46 61 -50 0 -5 4 -7 8 -4 5 3 8 15 6 28 -1 13 -3 28 -3 34 -1 6
-19 14 -40 18 -60 9 -105 40 -129 90 -12 24 -22 51 -22 60 0 19 8 18 -180 6
-80 -5 -208 -12 -285 -15 -213 -9 -201 -4 -209 -75 -9 -78 -38 -113 -110 -134
-75 -22 -102 -20 -153 10 -47 27 -68 63 -91 154 -10 40 -30 272 -29 340 0 14
-1 147 -3 296 l-3 270 39 44 c22 24 55 62 75 84 41 48 151 199 198 274 34 54
51 59 88 30 7 -6 45 -19 85 -29 177 -47 418 -3 526 94 30 27 86 116 79 124 -9
8 -37 -16 -37 -32 0 -11 -58 -75 -94 -103 -72 -56 -285 -103 -386 -84 -40 7
-34 9 65 15 61 4 133 13 162 21 111 30 223 120 223 179 0 20 6 27 30 32 38 8
48 25 21 32 -12 3 -21 10 -21 15 0 6 7 7 16 4 9 -4 23 -1 30 5 11 9 14 8 14
-3 0 -21 39 -19 51 3 22 43 -15 79 -82 79 -16 0 -29 5 -29 10 0 6 27 10 61 10
53 0 66 -4 100 -31 l39 -31 0 26 c0 55 -59 197 -95 228 -15 13 -21 27 -17 44
2 14 0 24 -7 24 -15 0 -14 33 1 48 7 7 20 12 30 12 11 0 18 7 18 20 0 11 -6
20 -14 20 -27 0 -28 34 -2 55 32 25 34 52 5 51 -12 -1 -26 7 -32 16 -9 14 -6
22 13 43 27 29 21 40 -23 40 -36 0 -51 31 -23 47 9 5 16 15 16 22 0 20 -30 28
-36 11 -4 -8 -15 -15 -25 -15 -15 0 -19 7 -19 39 0 23 5 41 13 44 9 3 9 8 -2
21 -13 15 -15 16 -23 2 -5 -9 -16 -16 -25 -16 -15 0 -15 9 -2 60 3 9 -4 16
-18 18 -15 2 -23 -2 -23 -11 0 -16 -28 -43 -36 -34 -3 3 -7 25 -9 49 -2 30 -8
44 -19 46 -9 2 -17 -2 -17 -10 -1 -7 -2 -19 -3 -27 -3 -34 -26 -20 -37 23 -13
53 -26 58 -40 16 -6 -16 -15 -30 -19 -30 -11 0 -20 26 -20 55 0 42 -31 41 -44
-2 -10 -32 -24 -28 -34 10 -10 38 -34 42 -42 7 -8 -35 -34 -32 -40 5 -7 38
-34 40 -38 3 -5 -40 -28 -55 -52 -33 -11 10 -18 27 -17 39 1 13 -4 21 -13 21
-10 0 -16 -12 -18 -38 -3 -29 -7 -37 -20 -35 -9 2 -22 14 -29 28 -18 37 -38
31 -41 -12 -4 -48 -38 -51 -55 -5 -12 32 -32 13 -29 -27 3 -40 -9 -46 -35 -16
-18 21 -43 27 -43 10 0 -21 -16 -9 -29 23 -8 17 -24 46 -36 62 -11 17 -27 43
-35 58 -19 38 -104 123 -142 143 -35 18 -40 10 43 76 65 51 233 128 342 157
173 47 352 61 504 40 135 -18 216 -50 336 -131 33 -22 57 -33 57 -26 0 30 0
1812 0 2716 l0 982 -3990 0 -3990 0 0 -3946z m3240 3312 c0 -30 4 -57 8 -60 4
-3 43 -2 85 1 l77 6 0 53 c0 41 4 54 15 54 13 0 15 -21 15 -125 0 -104 -2
-125 -15 -125 -12 0 -15 13 -15 60 l0 61 -82 -3 -83 -3 -3 -57 c-5 -102 -22
-63 -22 51 0 60 -3 116 -6 125 -4 11 -1 16 10 16 13 0 16 -11 16 -54z m468 4
c61 -37 66 -113 12 -165 -23 -22 -41 -29 -84 -33 -51 -4 -57 -2 -86 26 -93 94
43 242 158 172z m1037 6 c40 -17 55 -42 55 -91 0 -100 -126 -154 -202 -86 -27
24 -33 36 -32 70 2 50 22 83 66 104 41 20 69 21 113 3z m-850 -66 c20 -39 40
-68 45 -65 5 3 22 27 37 53 46 80 43 81 79 -9 46 -112 48 -119 32 -119 -7 0
-25 35 -42 81 l-28 81 -38 -61 c-20 -34 -40 -64 -43 -67 -3 -3 -20 22 -39 55
-18 33 -35 61 -38 61 -3 0 -15 -34 -28 -75 -13 -43 -28 -75 -35 -75 -9 0 -3
31 22 105 20 58 37 105 38 105 2 0 19 -32 38 -70z m-1815 -522 c0 -28 -5 -66
-12 -84 -9 -26 -8 -92 4 -304 8 -149 17 -273 20 -275 2 -3 65 -7 139 -11 74
-3 146 -10 160 -16 25 -9 26 -11 14 -35 -8 -14 -20 -30 -27 -34 -7 -5 -101 -9
-209 -9 l-196 0 -9 133 c-5 72 -8 178 -6 234 2 56 -2 166 -8 243 -6 78 -6 148
-2 156 15 26 66 54 100 54 32 0 32 0 32 -52z m1759 37 c36 -9 70 -20 77 -26 8
-7 14 -7 18 0 8 12 36 3 36 -11 0 -5 -6 -6 -12 -2 -7 4 3 -11 23 -32 77 -84
97 -145 101 -324 3 -98 1 -109 -26 -163 -38 -78 -126 -166 -206 -208 -62 -32
-70 -34 -170 -34 -119 0 -186 20 -263 79 -140 107 -171 324 -76 546 15 35 33
54 77 83 31 20 68 46 82 57 59 46 219 63 339 35z m733 -3 c4 -18 -2 -56 -22
-157 -12 -59 -9 -381 6 -582 5 -73 4 -83 -10 -83 -27 0 -159 59 -181 81 -11
11 -42 34 -70 52 -27 18 -78 59 -113 92 -60 58 -62 61 -47 82 23 32 140 107
218 139 62 26 67 30 67 58 0 17 7 62 15 101 12 61 12 73 -1 100 -10 21 -13 45
-9 80 l7 50 68 2 c57 1 69 -1 72 -15z m487 -238 c24 -5 31 -12 31 -29 0 -25
-35 -75 -53 -75 -6 0 -30 -19 -53 -41 l-42 -42 79 -77 c43 -42 79 -85 79 -95
0 -31 -131 -150 -204 -185 -73 -35 -106 -34 -106 5 0 25 50 74 103 101 47 24
77 55 77 78 -1 15 -24 37 -80 75 -88 58 -103 84 -76 126 16 25 191 165 206
165 4 0 22 -3 39 -6z m-2319 -53 c23 -16 80 -111 129 -216 18 -38 24 -72 22
-122 -1 -33 -55 -88 -138 -144 -40 -27 -73 -54 -73 -59 0 -5 -9 -14 -20 -20
-15 -8 -30 -5 -69 15 -59 29 -113 95 -136 166 -21 62 -12 79 71 134 31 21 64
46 73 57 9 10 35 28 58 39 24 12 43 24 43 28 0 4 -11 18 -25 31 -22 21 -31 22
-100 17 -62 -4 -78 -2 -96 12 -27 22 -20 62 13 79 35 18 216 6 248 -17z m3073
20 c81 -9 87 -14 170 -172 91 -175 78 -230 -83 -332 -30 -19 -64 -44 -74 -56
-33 -36 -80 -24 -149 38 -34 31 -87 131 -87 164 0 25 44 71 101 105 19 12 44
31 54 43 19 20 83 54 98 51 13 -3 7 15 -15 43 -21 27 -24 27 -97 22 -90 -5
-117 3 -123 38 -4 19 1 31 20 45 27 22 69 24 185 11z m-1074 -23 c4 -12 3 -40
-2 -62 -12 -51 -12 -74 -2 -264 8 -151 8 -153 -15 -177 -33 -35 -56 -32 -68 8
-6 17 -13 115 -16 217 -3 102 -10 205 -16 229 -16 64 -10 71 55 71 48 0 57 -3
64 -22z m702 2 c43 -22 87 -77 126 -155 34 -69 24 -90 -71 -154 -41 -28 -84
-64 -96 -81 -19 -26 -27 -30 -51 -25 -16 4 -29 3 -29 -1 0 -18 52 -72 79 -83
17 -6 45 -16 61 -22 42 -16 39 -45 -5 -66 -34 -16 -38 -16 -92 2 -31 11 -69
30 -83 42 -15 12 -53 74 -85 138 -92 183 -82 232 67 331 40 27 75 52 76 56 7
17 34 38 48 38 8 0 33 -9 55 -20z m-1916 -967 c15 -43 31 -81 34 -85 4 -4 20
31 36 77 27 79 31 85 57 85 l28 0 0 -116 c0 -105 -2 -115 -17 -112 -15 3 -19
17 -23 83 l-5 80 -23 -66 c-27 -80 -46 -108 -61 -94 -6 6 -24 47 -40 90 l-30
80 -3 -85 c-2 -71 -6 -85 -20 -88 -16 -3 -18 7 -18 112 l0 116 29 0 c26 0 30
-5 56 -77z m1035 62 c0 -12 -13 -15 -60 -15 l-60 0 0 -30 c0 -29 1 -30 50 -30
38 0 50 -4 50 -15 0 -11 -12 -15 -49 -15 l-50 0 -3 -52 c-2 -41 -7 -54 -20
-56 -16 -3 -18 7 -18 112 l0 116 80 0 c64 0 80 -3 80 -15z m-2355 -124 l0 -83
-43 -4 c-70 -6 -105 49 -66 105 13 18 24 22 50 19 32 -4 34 -2 34 25 0 18 4
27 13 25 8 -3 12 -30 12 -87z m983 3 l-3 -87 -30 -3 c-50 -6 -72 4 -84 37 -17
50 4 84 52 84 34 0 37 2 37 28 0 18 5 27 15 27 13 0 15 -14 13 -86z m664 59
c13 -11 18 -30 18 -68 0 -28 5 -56 12 -63 9 -9 7 -13 -6 -18 -10 -4 -22 -2
-27 3 -7 7 -20 7 -39 0 -42 -16 -84 1 -88 34 -4 32 17 50 66 58 48 8 59 41 13
41 -16 0 -33 -4 -36 -10 -9 -15 -35 -12 -35 5 0 34 89 48 122 18z m373 11 c19
-8 45 -55 45 -84 0 -33 -53 -80 -90 -80 -73 0 -111 104 -54 149 26 21 67 27
99 15z m676 -4 c15 -9 19 -22 19 -70 0 -33 4 -60 10 -60 6 0 10 -7 10 -15 0
-17 -35 -21 -45 -5 -4 7 -12 7 -25 0 -33 -18 -68 -12 -85 14 -23 35 -6 63 43
71 55 10 64 14 60 28 -5 15 -68 22 -68 8 0 -6 -9 -11 -20 -11 -26 0 -25 15 2
34 26 18 71 21 99 6z m830 0 c15 -9 19 -22 19 -70 0 -33 4 -60 10 -60 6 0 10
-7 10 -15 0 -17 -35 -21 -45 -5 -4 7 -12 7 -25 0 -33 -18 -68 -12 -85 14 -23
35 -6 63 43 71 55 10 64 14 60 28 -5 15 -68 22 -68 8 0 -6 -9 -11 -20 -11 -24
0 -25 8 -3 32 18 20 73 24 104 8z m487 -10 c12 -12 22 -32 22 -45 0 -24 -3
-25 -60 -25 -61 0 -75 -11 -48 -38 15 -15 54 -16 63 -2 3 6 15 10 26 10 33 0
4 -38 -34 -45 -45 -9 -82 8 -97 44 -35 84 63 161 128 101z m-2696 -477 l28
-27 29 28 30 29 31 -27 c33 -27 40 -27 78 7 l22 21 30 -29 30 -29 30 29 30 29
30 -29 30 -29 22 21 c38 34 45 34 78 7 l31 -27 30 29 29 28 30 -29 30 -29 30
29 30 29 22 -21 c38 -34 45 -34 78 -7 l31 27 30 -29 29 -28 30 29 30 29 29
-28 29 -28 34 25 34 26 32 -26 33 -26 -27 -28 c-34 -35 -44 -36 -74 -4 l-23
25 -34 -26 -35 -26 -29 28 -29 28 -30 -29 -29 -28 -33 25 -33 25 -33 -25 -33
-25 -29 28 -30 29 -30 -29 -30 -29 -30 29 -30 29 -28 -27 c-35 -33 -39 -33
-73 -1 l-26 25 -32 -27 -32 -27 -30 29 -29 28 -29 -28 c-30 -29 -51 -27 -80 8
-12 14 -17 12 -47 -11 l-35 -26 -29 28 -30 29 -29 -28 -29 -28 -31 23 c-17 12
-31 25 -31 28 0 7 52 61 59 61 3 0 18 -12 33 -27z m-313 -623 c63 -6 151 -20
195 -31 45 -11 90 -22 101 -25 91 -19 407 -178 514 -258 30 -23 81 -61 115
-85 116 -83 306 -257 306 -280 0 -6 -14 -11 -31 -11 -30 0 -155 -44 -174 -61
-5 -5 -15 -9 -23 -9 -20 0 -123 -73 -190 -135 -33 -30 -62 -55 -65 -55 -2 0
-23 18 -45 39 -29 28 -37 42 -29 50 8 8 8 14 -2 24 -10 10 -15 8 -26 -6 -7
-10 -16 -14 -19 -8 -4 5 -2 12 4 16 13 8 13 45 0 45 -5 0 -13 -7 -18 -16 -8
-15 -11 -15 -36 1 -16 10 -26 26 -26 41 0 28 -18 41 -26 20 -11 -28 -24 -17
-17 14 6 32 -10 42 -25 15 -14 -25 -43 -8 -36 21 7 26 -13 34 -22 9 -9 -22
-26 -18 -19 4 3 12 0 21 -10 25 -8 3 -15 1 -15 -4 0 -6 -4 -10 -9 -10 -5 0 -7
9 -4 20 7 25 -15 27 -32 3 -7 -9 -17 -13 -24 -8 -9 5 -10 10 -2 18 15 15 14
27 -4 27 -8 0 -15 -7 -15 -15 0 -8 -7 -15 -16 -15 -11 0 -14 6 -9 20 5 16 2
20 -14 20 -12 0 -21 -4 -21 -10 0 -5 -7 -10 -16 -10 -11 0 -14 6 -9 20 5 16 2
20 -14 20 -12 0 -21 -7 -21 -15 0 -8 -7 -15 -15 -15 -8 0 -15 7 -15 15 0 8 -7
15 -15 15 -9 0 -18 -7 -21 -15 -9 -22 -21 -18 -28 8 l-6 22 -19 -22 c-22 -27
-31 -29 -31 -8 0 8 -7 15 -15 15 -8 0 -15 -9 -15 -20 0 -21 -15 -27 -25 -10
-10 15 -35 12 -35 -5 0 -20 -16 -19 -24 1 -7 17 -30 14 -32 -4 -1 -7 -2 -18
-3 -24 -1 -8 -7 -6 -16 6 -16 21 -50 14 -41 -9 6 -18 -29 -41 -39 -25 -12 20
-35 10 -35 -15 0 -26 -15 -35 -22 -13 -3 7 -12 9 -22 5 -13 -5 -15 -11 -7 -26
13 -24 4 -32 -26 -25 -23 6 -24 4 -21 -27 2 -26 -1 -33 -12 -31 -8 2 -19 4
-24 5 -6 1 -12 -6 -14 -15 -2 -11 3 -18 13 -18 13 0 14 -4 5 -20 -8 -14 -17
-19 -30 -15 -13 4 -22 -1 -29 -14 -14 -26 -14 -31 4 -31 27 0 16 -29 -12 -32
-30 -3 -47 -38 -19 -38 9 0 16 -7 16 -15 0 -8 -7 -15 -15 -15 -18 0 -19 -23
-3 -49 10 -17 8 -23 -12 -39 l-24 -19 22 -12 c25 -13 29 -36 7 -45 -8 -3 -15
-12 -15 -21 0 -8 7 -15 15 -15 8 0 15 -4 15 -10 0 -5 -4 -10 -10 -10 -5 0 -10
-9 -10 -19 0 -14 -10 -21 -32 -26 -137 -30 -239 -116 -304 -260 l-25 -55 -47
0 c-26 0 -85 -5 -131 -10 -47 -5 -86 -8 -87 -7 -2 1 9 34 23 72 29 81 73 315
73 393 0 90 30 339 51 430 40 175 138 352 257 470 68 67 103 92 183 132 54 28
104 50 110 50 6 0 25 6 42 14 35 15 168 44 252 55 6 0 61 -4 124 -9z m4219
-646 c128 -26 259 -116 309 -212 43 -80 49 -147 23 -232 -30 -98 -52 -115
-148 -115 -54 1 -87 6 -110 18 -31 17 -33 20 -19 40 21 34 26 64 16 103 -16
57 -90 69 -125 20 -14 -20 -16 -20 -28 -4 -15 20 -58 38 -90 38 -14 0 -28 10
-37 26 -25 47 -151 154 -221 187 -97 46 -86 78 19 57 51 -11 79 -28 249 -147
51 -36 96 -42 131 -18 41 29 38 98 -6 132 -21 16 -64 16 -79 1 -27 -27 -3 -88
34 -88 19 0 28 25 19 48 -8 16 -8 16 -12 -1 -6 -23 -28 -16 -28 9 0 27 27 28
58 4 31 -25 34 -46 11 -79 -28 -39 -81 -24 -167 46 -89 73 -129 97 -187 114
l-44 13 29 8 c17 3 48 12 70 18 114 33 220 37 333 14z m-3987 -104 c132 -44
251 -104 272 -137 4 -7 13 -13 19 -13 7 0 36 -26 65 -57 63 -69 87 -128 109
-261 8 -53 26 -142 40 -196 27 -109 31 -178 11 -194 -10 -8 -19 12 -41 91 -16
56 -38 119 -48 140 l-18 37 -85 2 c-47 0 -91 1 -97 2 -7 1 -14 -6 -16 -15 -5
-25 136 -65 177 -51 29 10 31 9 37 -16 3 -15 17 -63 30 -107 27 -90 50 -273
36 -287 -6 -6 -31 2 -63 20 -66 35 -284 132 -298 132 -5 0 -22 11 -38 24 -15
13 -37 26 -49 30 -11 3 -43 21 -70 38 -89 58 -92 59 -124 43 -45 -23 -129 -52
-210 -71 -41 -9 -99 -28 -127 -41 -29 -12 -53 -21 -53 -19 0 2 11 24 25 48 48
87 41 202 -20 292 -27 41 -33 197 -11 295 32 142 104 217 276 289 14 5 61 10
105 11 62 0 99 -7 166 -29z m3519 -77 c0 -11 8 -13 30 -8 27 6 32 4 41 -24 8
-23 17 -31 35 -31 13 0 24 -2 24 -4 0 -2 3 -12 6 -20 5 -14 2 -15 -21 -6 -36
14 -122 13 -131 -1 -5 -8 2 -10 22 -6 37 7 118 -10 162 -35 20 -11 42 -16 54
-12 17 5 19 3 13 -17 -4 -12 -16 -36 -26 -53 -40 -65 -14 -154 52 -180 36 -15
42 -14 81 1 31 12 43 14 46 5 2 -7 12 -12 22 -12 39 0 35 -40 -4 -58 -26 -11
-41 -61 -24 -77 7 -7 12 -6 15 3 6 16 33 15 33 -2 0 -7 -8 -20 -19 -27 -13
-10 -21 -32 -25 -70 -5 -51 -4 -57 14 -62 12 -3 20 -14 20 -26 0 -14 6 -21 19
-21 10 0 33 -3 50 -6 27 -6 33 -3 38 15 7 27 12 26 43 -1 14 -13 39 -23 58
-24 18 -1 35 -4 39 -7 16 -16 -32 -57 -104 -88 -71 -31 -86 -34 -178 -34 -84
0 -110 5 -160 26 -65 27 -67 32 -41 91 13 30 13 39 3 50 -7 7 -19 28 -26 46
-12 29 -12 35 4 52 22 24 10 25 -38 5 -46 -19 -98 -19 -142 0 -44 18 -51 36
-34 87 11 36 11 41 -4 50 -35 19 -14 48 36 48 18 0 19 2 7 10 -8 5 -30 7 -48
4 l-33 -6 3 48 c3 48 3 49 -29 52 -46 5 -58 23 -39 61 9 17 28 63 42 103 14
40 29 82 33 93 5 11 14 39 20 62 11 40 13 42 36 31 14 -6 25 -18 25 -25z m-95
-352 c-12 -11 -220 -91 -445 -171 -252 -89 -367 -134 -459 -179 -47 -22 -93
-41 -104 -41 -10 0 -26 -4 -35 -9 -9 -4 -35 -11 -57 -15 -31 -5 -12 8 89 59
70 36 139 65 152 65 32 0 148 41 379 133 325 130 516 193 480 158z m613 -136
c3 -64 9 -115 14 -115 6 0 8 44 6 110 -1 61 1 110 5 110 5 0 17 -4 27 -10 22
-12 107 -16 138 -6 21 7 22 6 16 -33 -4 -22 -3 -60 0 -84 6 -39 11 -45 38 -53
39 -11 43 -22 19 -52 l-18 -24 -131 13 -132 13 0 110 c0 61 -3 122 -6 136 -6
20 -4 23 6 13 9 -9 15 -50 18 -128z m-1146 -6 c18 -10 2 -18 -123 -65 -79 -30
-174 -62 -211 -70 -37 -8 -111 -38 -165 -66 -54 -28 -119 -62 -145 -75 -27
-14 -48 -27 -48 -30 0 -19 255 44 335 84 60 29 174 75 353 140 23 9 45 13 48
10 12 -12 -103 -114 -176 -157 -115 -67 -189 -92 -375 -126 -89 -16 -357 -45
-363 -39 -9 9 47 68 88 92 25 14 54 34 65 43 21 18 246 155 305 185 19 10 80
33 135 51 78 26 117 33 178 34 43 0 88 -5 99 -11z m505 -245 c18 -14 33 -31
33 -39 0 -32 -197 -304 -345 -475 -41 -47 -171 -177 -283 -282 -52 -48 -88
-89 -82 -93 19 -12 356 324 460 459 41 54 82 105 90 115 60 68 163 220 181
268 6 17 17 23 41 23 18 0 60 7 93 15 89 21 108 20 100 -7 -10 -36 -67 -152
-82 -166 -7 -8 -18 -23 -25 -35 -6 -12 -52 -76 -101 -142 -77 -103 -131 -169
-267 -329 -14 -17 -81 -86 -150 -155 -193 -194 -326 -313 -479 -429 -215 -165
-267 -202 -280 -202 -6 0 -11 -7 -11 -15 0 -9 9 -15 22 -15 12 0 54 -8 92 -19
39 -10 106 -26 149 -36 100 -24 197 -93 287 -205 19 -24 61 -71 92 -104 l58
-61 -7 -55 c-4 -30 -6 -76 -5 -102 1 -53 -8 -60 -32 -23 -11 16 -16 47 -16 94
0 54 -4 74 -20 92 -23 29 -28 5 -5 -25 10 -13 15 -44 15 -90 0 -50 6 -82 21
-112 15 -33 18 -48 10 -62 -8 -14 -7 -29 0 -51 9 -26 7 -38 -10 -72 -12 -23
-28 -66 -36 -96 -14 -53 -33 -88 -42 -79 -3 2 2 17 10 33 8 15 17 44 21 64 4
21 14 51 22 69 12 23 14 44 10 73 -4 23 -8 50 -10 59 -1 10 -10 26 -19 36 -12
13 -17 36 -17 78 0 33 -4 64 -8 70 -5 5 -15 34 -22 64 -12 53 -32 87 -145 237
-31 41 -93 89 -102 79 -3 -3 0 -13 8 -22 12 -15 12 -17 -1 -12 -8 2 -21 16
-27 30 -9 17 -27 29 -56 37 -45 13 -64 15 -229 26 l-108 8 45 35 c41 31 56 52
39 52 -6 0 -90 -65 -104 -80 -3 -3 -25 -19 -50 -35 -25 -17 -49 -33 -55 -37
-16 -12 -163 -113 -250 -171 -44 -30 -126 -82 -182 -115 -285 -172 -677 -362
-699 -340 -3 3 16 41 41 83 25 43 55 101 67 129 26 62 32 68 83 85 120 40 378
183 623 346 50 33 124 82 164 108 166 108 392 276 595 442 174 142 203 168
197 176 -3 5 -31 -12 -62 -39 -31 -26 -77 -63 -102 -82 -25 -19 -61 -48 -81
-65 -20 -16 -45 -37 -55 -45 -11 -8 -41 -32 -66 -53 -26 -21 -85 -65 -130 -99
-46 -34 -85 -64 -88 -67 -9 -11 -345 -235 -375 -251 -11 -5 -45 -28 -75 -50
-148 -107 -544 -318 -575 -306 -12 4 -15 24 -15 88 1 99 18 181 55 263 31 69
131 226 151 238 8 4 14 14 14 21 0 25 166 201 286 301 32 27 64 55 69 61 16
17 223 194 304 260 70 56 368 285 407 312 11 7 51 35 89 62 267 190 422 285
535 327 171 65 343 76 407 27z m-3477 7 c0 -5 -12 -12 -26 -15 -24 -6 -26 -10
-20 -44 3 -20 6 -49 6 -64 0 -16 4 -28 10 -28 13 0 13 77 0 85 -27 17 16 51
50 40 26 -8 26 -65 0 -122 -15 -34 -24 -43 -44 -43 -26 0 -34 18 -51 113 -8
49 14 87 50 87 14 0 25 -4 25 -9z m4373 -25 c-34 -59 -102 -114 -178 -144 -88
-33 -263 -42 -348 -17 -55 17 -126 65 -95 65 9 0 19 -4 23 -9 3 -5 35 -19 71
-31 55 -19 82 -22 162 -18 82 4 108 10 166 37 61 28 147 99 144 120 -1 15 4
17 32 13 19 -3 27 -8 23 -16z m-5234 -36 c18 -5 55 -24 81 -42 53 -37 51 -32
89 -243 34 -194 43 -256 38 -261 -3 -3 -58 -14 -123 -24 -66 -11 -164 -31
-219 -45 -55 -13 -106 -25 -112 -25 -8 0 -13 14 -13 38 -1 94 -111 264 -215
332 -79 51 -106 61 -182 62 -35 0 -63 4 -63 8 0 18 91 89 155 121 88 45 156
68 237 78 91 12 287 13 327 1z m780 -82 c1 -44 22 -68 53 -60 21 5 22 4 8 -13
-8 -10 -28 -32 -44 -49 -62 -67 -74 -90 -81 -157 -6 -54 -4 -69 10 -82 13 -13
14 -23 6 -52 -8 -29 -6 -37 7 -45 16 -9 15 -11 -2 -25 -11 -8 -37 -15 -57 -15
-21 0 -41 -5 -44 -10 -11 -17 26 -24 69 -12 58 15 62 -2 10 -50 l-43 -40 -53
17 c-70 23 -259 116 -263 129 -2 8 -56 352 -69 441 0 6 11 11 26 13 14 2 32
10 38 18 15 17 41 19 34 1 -2 -7 1 -20 8 -29 11 -15 20 -16 63 -7 28 5 58 14
67 19 24 13 28 13 28 -5 0 -20 19 -19 42 2 17 15 21 15 29 3 8 -13 12 -12 24
4 12 16 17 17 30 6 18 -15 20 -13 35 20 10 23 10 23 6 -7 -3 -18 -3 -33 1 -33
14 0 43 45 44 69 0 24 1 24 9 6 5 -11 9 -37 9 -57z m-593 -91 c10 -74 18 -96
29 -85 3 2 -1 39 -8 81 -12 70 -12 77 3 77 10 0 20 -15 27 -42 20 -75 67 -407
84 -583 5 -55 13 -122 18 -150 5 -27 12 -114 16 -192 6 -140 6 -143 -14 -143
-12 0 -21 1 -21 3 0 1 -3 49 -6 107 -2 58 -11 168 -19 245 -8 77 -17 167 -20
200 -6 65 -42 325 -51 364 -10 45 -22 6 -14 -44 5 -27 9 -61 8 -75 0 -27 -6 0
-39 175 -11 61 -23 118 -26 129 -3 12 -1 17 8 14 9 -3 18 -33 25 -81z m946 51
c-2 -14 4 -18 32 -18 20 0 60 -11 90 -24 30 -14 63 -22 73 -20 10 2 24 0 32
-5 11 -7 10 -17 -11 -52 -13 -24 -30 -55 -38 -69 -7 -14 -17 -32 -21 -40 -5
-8 -18 -32 -29 -52 -24 -45 -36 -47 -69 -12 -30 31 -63 28 -71 -6 -8 -32 -34
-37 -62 -11 -12 12 -31 21 -42 21 -20 0 -19 -2 4 -20 14 -11 29 -20 33 -20 5
0 7 -8 5 -17 -2 -14 -11 -17 -36 -15 -18 2 -32 -1 -32 -7 0 -25 -17 -8 -28 26
-10 32 -8 45 13 98 14 33 28 75 31 93 6 28 4 34 -14 39 -26 6 -37 49 -22 87 9
25 12 26 27 15 13 -12 18 -11 31 9 13 19 22 22 61 20 37 -2 45 -6 43 -20z
m-1718 -119 c51 -14 161 -86 177 -116 10 -18 8 -36 -9 -100 -12 -43 -23 -87
-26 -98 -3 -17 -4 -16 -5 4 0 13 6 50 15 83 14 56 12 86 -4 63 -4 -6 -20 -11
-37 -11 -16 -1 -51 -5 -77 -9 -66 -11 -133 2 -168 31 -28 24 -29 26 -13 50 14
22 18 23 32 11 39 -34 86 -49 177 -54 67 -4 94 -3 94 6 0 7 -20 11 -52 12
-109 1 -179 19 -208 54 -11 13 -10 19 9 38 11 13 21 29 21 35 0 15 23 15 74 1z
m-143 -174 c16 -13 46 -27 65 -31 39 -7 138 0 167 11 10 4 17 4 16 -1 -4 -21
2 -25 18 -13 15 13 16 11 9 -11 -27 -97 -37 -290 -17 -328 7 -14 5 -27 -11
-53 -21 -35 -42 -71 -79 -136 -12 -21 -30 -47 -40 -59 -10 -11 -19 -24 -19
-29 0 -4 -16 -27 -35 -51 -19 -23 -35 -45 -35 -49 0 -3 -6 -12 -12 -20 -7 -7
-47 -53 -88 -102 -41 -49 -103 -111 -138 -138 -35 -28 -72 -64 -82 -80 -10
-17 -26 -74 -34 -128 -30 -183 -52 -232 -235 -506 -211 -317 -243 -380 -222
-444 6 -18 38 -69 71 -112 70 -90 79 -116 58 -159 -9 -17 -24 -51 -34 -76 -23
-57 -23 -57 -34 -40 -16 25 -23 2 -10 -30 14 -34 7 -47 -25 -51 -25 -3 -75 17
-75 31 0 5 -4 10 -10 10 -5 0 -10 -11 -10 -25 0 -37 -36 -32 -76 11 -23 24
-34 30 -34 19 0 -44 -70 -12 -91 43 -5 12 -15 22 -23 22 -9 0 -22 13 -31 29
-13 26 -13 35 -1 69 8 21 20 74 27 117 9 56 21 90 44 124 47 69 74 141 85 228
29 221 110 563 141 598 5 5 9 17 9 27 0 10 4 18 8 18 4 0 13 12 19 28 13 31
64 120 97 172 13 19 33 62 45 95 12 33 33 71 45 85 21 23 65 114 81 168 3 12
11 22 16 22 5 0 9 10 9 21 0 23 71 161 121 237 16 24 29 45 29 48 0 2 22 33
48 67 97 126 142 196 173 268 17 41 32 75 34 77 1 2 19 -7 39 -19 63 -37 246
-35 246 3 0 4 -15 2 -32 -3 -97 -27 -250 9 -232 55 8 21 11 20 45 -9z m404
-58 c18 -33 28 -69 32 -115 l5 -67 -47 -44 c-37 -34 -49 -40 -56 -30 -12 20
-11 219 2 280 13 59 19 56 64 -24z m1507 37 c17 -21 26 -25 54 -20 56 11 232
-87 362 -200 64 -57 74 -74 45 -74 -10 0 -45 -11 -78 -24 -33 -14 -96 -39
-140 -56 -98 -40 -237 -109 -323 -161 -35 -21 -67 -39 -70 -39 -9 0 -117 91
-125 107 -5 8 -4 19 1 26 6 7 13 35 17 62 4 28 14 75 22 105 8 30 21 81 29
113 19 79 30 97 57 95 27 -2 94 45 102 73 9 26 23 24 47 -7z m-933 -179 c11
-94 25 -208 31 -255 22 -182 40 -973 21 -910 -5 14 -9 156 -10 315 -2 309 -12
510 -37 720 -39 333 -37 311 -30 304 3 -3 14 -81 25 -174z m-35 23 c3 -13 10
-68 17 -123 6 -55 15 -116 19 -135 4 -19 6 -73 6 -119 l-1 -85 -110 -38 c-148
-53 -145 -52 -145 -40 0 6 -11 71 -24 144 -14 73 -28 156 -31 183 -4 28 -14
77 -22 109 -17 68 -14 72 57 82 25 3 83 14 130 24 47 10 88 18 92 19 4 1 10
-9 12 -21z m-310 -120 c25 -111 66 -351 62 -356 -6 -5 -63 15 -256 91 -91 35
-173 67 -183 70 -17 6 -16 9 5 47 13 23 52 64 88 92 36 28 75 63 86 77 21 25
88 46 156 50 25 1 27 -3 42 -71z m578 -4 c62 -25 114 -47 116 -49 1 -1 -28
-28 -65 -59 -38 -31 -79 -67 -93 -81 -31 -31 -50 -32 -50 -2 -1 12 -7 70 -14
130 -6 59 -11 107 -10 107 2 0 54 -21 116 -46z m199 -60 c38 -19 196 -131 204
-144 3 -5 -5 -14 -17 -21 -48 -25 -360 -264 -366 -280 -9 -21 24 -5 81 41 189
151 303 231 325 227 11 -2 41 -20 66 -41 53 -43 68 -43 130 -1 21 14 64 39 95
54 31 15 89 44 129 64 79 40 90 44 75 25 -9 -12 -68 -120 -123 -226 l-23 -43
-18 30 c-10 17 -25 31 -33 31 -17 0 -164 -170 -236 -273 -29 -42 -62 -79 -72
-83 -11 -3 -108 31 -246 86 -125 51 -229 94 -231 96 -2 2 -7 62 -12 134 l-9
130 37 33 c21 17 74 64 118 104 44 39 84 72 88 72 4 1 22 -6 38 -15z m1094
-67 c188 -75 351 -147 433 -193 37 -21 84 -47 104 -58 42 -23 47 -37 21 -57
-18 -15 -96 -109 -128 -153 -11 -15 -32 -44 -47 -63 -15 -19 -28 -39 -31 -46
-2 -7 -38 1 -108 25 -57 20 -166 53 -242 72 -131 34 -290 98 -330 133 -9 9
-20 13 -24 10 -10 -11 -33 14 -33 35 0 32 57 142 137 265 68 105 76 114 91
100 9 -8 80 -40 157 -70z m-291 16 c-18 -28 -134 -232 -163 -288 -9 -16 -16
-51 -15 -77 1 -53 1 -52 -27 -38 -37 20 -24 69 59 221 75 139 126 209 152 209
8 0 7 -9 -6 -27z m-1924 -173 c28 0 47 -7 67 -26 21 -19 34 -24 56 -20 22 4
34 0 51 -19 17 -18 32 -24 60 -23 27 1 41 -4 52 -20 11 -16 26 -22 53 -22 31
0 40 -4 44 -21 4 -16 12 -20 39 -18 54 3 65 0 71 -22 5 -18 11 -21 36 -16 37
8 61 0 61 -19 0 -9 12 -14 34 -14 32 0 96 -42 96 -62 0 -15 -19 -8 -46 17 -21
20 -34 24 -55 20 -21 -5 -30 -2 -39 15 -8 15 -19 20 -44 18 -22 -1 -39 5 -55
21 -17 17 -30 22 -52 17 -22 -4 -35 1 -56 20 -19 18 -35 24 -52 21 -18 -4 -32
2 -49 20 -16 18 -29 23 -46 19 -17 -4 -31 2 -51 19 -22 21 -33 24 -61 19 -29
-5 -38 -2 -60 21 -21 23 -30 26 -64 20 -32 -5 -41 -3 -46 9 -3 9 -13 16 -20
16 -20 0 -30 30 -13 40 9 6 20 2 32 -11 12 -12 31 -19 57 -19z m-35 -61 c50
-16 104 -34 121 -38 41 -11 108 -35 224 -81 141 -56 247 -96 320 -120 36 -12
69 -26 74 -31 20 -18 -3 -19 -45 -1 -24 11 -91 35 -149 55 -58 20 -141 50
-185 66 -44 16 -163 58 -264 93 -102 36 -187 70 -189 76 -5 15 -11 17 93 -19z
m-73 -20 c11 -6 48 -19 82 -30 53 -16 110 -36 366 -130 30 -11 124 -44 208
-74 85 -29 156 -56 159 -58 10 -10 16 -717 5 -717 -5 0 -43 14 -83 31 -162 67
-825 329 -834 329 -22 0 -235 84 -235 93 0 5 5 28 11 51 6 22 15 57 19 76 28
111 54 186 69 200 19 16 78 88 150 183 46 61 51 63 83 46z m916 -324 c9 -8 4
-707 -5 -716 -5 -5 -16 -7 -24 -4 -12 4 -15 67 -17 371 l-3 366 23 -7 c13 -4
24 -9 26 -10z m152 -57 c30 -11 69 -26 85 -33 17 -7 62 -26 100 -41 39 -15 74
-30 78 -34 8 -7 -181 -266 -293 -402 l-55 -67 -5 292 c-3 161 -3 298 -1 305 2
8 10 10 20 7 9 -4 41 -16 71 -27z m4750 11 c0 -5 -44 -9 -97 -10 -54 0 -114
-2 -133 -4 -19 -2 -75 -6 -125 -9 -182 -11 -264 -19 -260 -27 3 -4 17 -6 33
-4 15 2 97 6 182 10 85 4 207 10 271 14 122 6 149 5 149 -9 0 -4 -57 -11 -127
-14 -71 -4 -198 -11 -283 -16 -85 -6 -174 -10 -197 -10 -41 0 -43 1 -43 30 0
37 -9 36 330 50 146 7 267 14 268 15 7 6 32 -7 32 -16z m-2164 -205 c102 -139
241 -270 438 -412 44 -32 111 -63 181 -84 l60 -18 -64 4 c-69 5 -147 38 -256
110 -102 67 -367 345 -423 444 -10 18 -10 22 2 22 7 0 35 -30 62 -66z m-141
-168 c7 -27 7 -28 -14 -17 -12 7 -26 9 -32 6 -5 -4 5 -15 23 -25 37 -19 56
-69 21 -56 -10 4 -30 10 -45 13 -26 5 -27 4 -19 -25 8 -26 6 -31 -12 -37 -17
-6 -7 -10 38 -17 51 -9 63 -15 74 -37 21 -43 50 -129 44 -134 -2 -3 5 -25 18
-49 12 -23 32 -65 45 -93 14 -27 30 -60 37 -72 17 -32 114 -101 159 -115 21
-6 38 -15 38 -20 0 -4 6 -8 14 -8 7 0 19 -7 26 -15 7 -8 21 -15 31 -15 39 0
16 -32 -83 -111 -121 -96 -266 -170 -343 -177 -58 -5 -57 -6 -110 93 -21 39
-52 90 -68 114 -34 50 -26 63 32 59 28 -2 35 -8 38 -27 8 -53 15 -32 10 26 -5
48 -3 65 8 77 23 23 18 27 -20 20 -76 -14 -165 30 -165 83 0 22 44 93 63 101
19 9 5 29 -18 24 -18 -3 -25 0 -25 11 0 15 44 31 70 25 7 -2 15 3 18 11 4 11
-5 13 -47 7 -57 -7 -60 -3 -33 43 15 28 15 33 2 41 -8 5 -31 10 -51 10 -24 0
-39 5 -43 16 -8 20 -3 28 61 95 57 60 143 167 143 179 0 4 8 16 18 28 9 12 31
40 47 63 l30 41 6 -54 c3 -29 9 -66 14 -82z m-3728 78 c65 -25 138 -52 163
-59 53 -15 335 -126 400 -157 32 -16 40 -23 27 -26 -20 -4 -18 -23 2 -30 7 -2
15 5 18 17 5 19 7 19 33 6 21 -11 27 -20 23 -35 -6 -23 24 -29 33 -6 4 11 11
12 34 3 24 -9 28 -15 24 -34 -5 -17 -2 -23 10 -23 9 0 16 7 16 15 0 8 6 15 13
15 17 0 56 -29 40 -30 -19 0 -16 -27 3 -34 11 -4 18 1 21 14 6 23 8 23 33 10
12 -6 16 -17 13 -30 -4 -14 0 -20 11 -20 9 0 16 7 16 15 0 18 1 18 35 5 22 -8
25 -13 16 -24 -9 -11 -9 -16 0 -22 7 -4 17 0 24 10 10 13 18 14 39 6 34 -13
33 -19 -9 -58 -39 -35 -46 -37 -73 -22 -9 5 -46 21 -82 36 -56 22 -179 75
-245 104 -64 29 -405 160 -560 215 -204 72 -245 89 -245 97 0 14 29 9 93 -18
34 -15 100 -40 147 -56 111 -38 348 -131 580 -228 304 -127 349 -144 357 -137
3 4 4 9 2 10 -6 6 -348 147 -354 147 -4 0 -30 11 -58 24 -29 14 -108 46 -177
71 -69 26 -129 51 -135 55 -5 4 -57 24 -115 45 -88 31 -306 114 -319 122 -7 4
10 53 18 53 5 0 62 -21 128 -46z m-149 -78 c33 -17 220 -86 235 -86 6 0 29 -9
51 -19 23 -10 76 -31 119 -45 68 -23 315 -120 372 -146 21 -9 40 -17 225 -95
l115 -49 1 -50 c1 -31 19 -102 46 -183 25 -73 43 -135 40 -137 -9 -9 -32 15
-32 33 0 31 -33 151 -41 151 -13 0 -11 -32 6 -80 19 -54 20 -100 1 -100 -7 0
-27 3 -43 6 -29 6 -31 9 -37 72 -11 107 -18 142 -29 142 -6 0 -7 -15 -3 -37 4
-21 9 -60 12 -88 3 -27 7 -56 9 -62 6 -19 -37 -16 -86 5 l-41 17 2 85 c3 102
2 115 -6 107 -4 -4 -9 -42 -11 -84 -2 -43 -6 -84 -8 -90 -6 -18 -32 -6 -98 46
l-58 46 3 64 c3 72 -14 82 -20 11 -2 -25 -7 -48 -10 -51 -4 -4 -36 6 -71 22
-70 32 -67 24 -45 128 5 26 4 33 -6 29 -7 -2 -14 -13 -15 -24 -1 -10 -5 -34
-9 -52 -7 -32 -9 -32 -26 -17 -10 9 -29 15 -42 13 -31 -4 -28 -48 7 -94 39
-51 29 -77 -36 -92 -59 -14 -136 -16 -143 -3 -3 4 3 35 13 67 80 251 76 234
62 234 -5 0 -21 -39 -36 -87 -15 -49 -35 -113 -45 -143 -20 -61 -19 -60 -113
-45 -45 7 -48 6 -82 -29 -19 -21 -35 -35 -35 -31 0 3 15 45 34 93 18 48 43
119 56 157 12 39 26 78 31 87 5 10 9 25 9 35 0 35 -21 -5 -62 -118 -90 -249
-80 -229 -108 -223 -31 7 -150 66 -150 74 0 6 90 196 135 284 13 27 23 51 21
54 -11 10 -28 -14 -61 -83 -19 -41 -51 -109 -71 -150 -31 -67 -38 -75 -57 -69
-40 12 -107 47 -124 66 -16 18 -15 24 27 105 25 47 66 118 91 157 28 42 43 75
38 80 -5 5 -10 8 -12 5 -11 -13 -110 -184 -137 -236 -18 -35 -35 -63 -39 -63
-4 0 -15 6 -26 14 -11 7 -30 16 -42 20 -38 12 -26 -12 17 -34 22 -11 40 -23
40 -25 0 -16 -47 -94 -56 -95 -21 0 -104 73 -104 91 0 33 43 89 63 83 19 -6
23 6 7 22 -7 7 4 30 33 69 42 59 132 200 152 240 9 18 149 113 168 114 5 1 21
-5 35 -13z m-782 -583 c-7 -54 -45 -142 -74 -171 -11 -11 -22 -26 -24 -33 -7
-21 -58 5 -58 30 0 26 -39 49 -51 30 -11 -18 -2 -29 18 -22 14 5 15 1 9 -33
-8 -47 -69 -211 -84 -226 -26 -26 -21 6 16 116 21 64 35 119 30 122 -5 3 -12
-3 -15 -14 -3 -13 -11 -18 -23 -15 -23 6 -60 -30 -60 -58 0 -11 7 -33 16 -48
14 -24 15 -32 3 -56 -14 -29 -52 -48 -223 -115 -91 -35 -86 -38 -117 65 -12
39 -28 87 -35 108 -8 21 -12 42 -10 46 5 8 215 113 351 176 134 61 319 143
329 144 5 1 6 -20 2 -46z m607 -23 l55 -23 -22 -48 c-12 -28 -28 -49 -37 -49
-17 0 -92 52 -126 88 l-23 23 20 40 21 40 29 -24 c16 -14 53 -35 83 -47z
m3590 6 c16 -12 43 -42 60 -68 35 -51 114 -154 220 -285 38 -47 66 -87 63 -90
-3 -3 -33 15 -68 40 -115 82 -175 132 -447 373 l-35 31 65 15 c74 16 103 13
142 -16z m-156 -72 c48 -43 120 -105 158 -140 92 -82 232 -193 283 -224 41
-25 55 -50 27 -50 -43 0 -353 151 -465 227 -83 56 -230 188 -230 207 0 16 78
55 112 55 19 1 51 -20 115 -75z m383 -36 c30 -51 64 -106 76 -123 12 -16 36
-59 54 -94 25 -51 29 -66 18 -72 -7 -5 -16 -9 -19 -9 -4 0 -59 66 -122 148
-64 81 -128 162 -143 180 -30 37 -29 41 18 52 60 14 62 13 118 -82z m-563 -25
c49 -49 123 -110 163 -137 41 -28 77 -52 80 -55 14 -16 315 -156 368 -172 31
-9 42 -17 42 -32 0 -24 -18 -20 -145 30 -236 93 -382 160 -474 216 -105 65
-229 164 -230 183 -1 19 52 48 95 53 6 0 51 -38 101 -86z m1513 -26 c-58 -56
-114 -109 -125 -117 -34 -26 -109 -76 -125 -83 -8 -4 -33 -18 -55 -32 -46 -28
-123 -65 -137 -65 -5 0 -6 -4 -3 -10 4 -6 18 -5 38 4 78 32 135 62 172 87 22
15 58 38 80 52 23 13 88 70 147 126 99 95 108 101 148 101 23 0 51 -5 62 -11
21 -11 21 -12 3 -25 -10 -7 -53 -45 -96 -85 -92 -83 -174 -149 -185 -149 -4 0
-15 -6 -23 -14 -9 -8 -63 -39 -120 -70 -120 -64 -242 -96 -371 -96 -67 0 -80
3 -80 16 0 10 5 14 15 10 18 -7 155 25 155 37 0 10 -17 9 -38 -2 -9 -4 -41
-11 -69 -14 -42 -5 -53 -3 -53 8 0 9 10 16 25 16 47 3 117 28 110 39 -3 5 -21
2 -39 -5 -56 -24 -93 -27 -100 -9 -8 22 -1 31 31 39 55 13 189 87 261 142 83
63 152 129 152 143 0 6 23 10 50 10 28 0 50 -2 50 -4 0 -3 -26 -29 -57 -58
-31 -29 -68 -64 -83 -78 -39 -37 -108 -84 -176 -121 -65 -35 -80 -46 -73 -54
9 -8 112 49 195 108 44 31 113 90 154 132 56 57 81 75 102 75 15 0 30 5 34 11
4 8 -4 9 -27 5 -22 -5 -29 -4 -19 2 25 16 70 23 70 12 0 -5 14 -10 30 -10 19
0 30 5 30 14 0 12 10 19 40 25 3 0 -42 -45 -100 -102z m-4651 74 c20 -11 58
-27 84 -37 37 -13 46 -21 41 -33 -3 -9 -11 -28 -16 -43 -5 -16 -16 -28 -23
-28 -48 0 -165 69 -165 98 0 14 29 62 37 62 3 0 22 -9 42 -19z m5004 3 c20 -4
40 -10 42 -14 3 -4 -55 -66 -129 -136 -155 -150 -312 -262 -412 -294 -21 -7
-59 -22 -84 -33 -132 -59 -418 -76 -428 -26 -2 13 13 17 95 22 116 7 213 28
291 64 79 37 229 125 276 162 76 61 212 190 241 230 22 31 35 40 50 36 11 -3
37 -8 58 -11z m200 -24 c26 -11 47 -23 47 -25 0 -7 -127 -126 -225 -212 -149
-131 -323 -228 -545 -304 -86 -30 -106 -33 -215 -33 -86 0 -135 5 -175 17 -93
29 -94 38 -4 31 51 -4 108 -2 155 7 41 7 79 13 84 14 6 1 12 3 15 4 3 2 13 4
24 6 25 5 118 41 194 76 83 38 203 119 277 187 121 111 225 216 230 233 11 33
63 32 138 -1z m-2237 -48 c45 -44 157 -132 168 -132 2 0 37 -20 77 -45 41 -25
97 -54 125 -65 29 -10 121 -48 206 -84 84 -35 172 -70 196 -77 56 -16 59 -44
4 -35 -83 13 -502 150 -572 186 -30 16 -65 34 -77 39 -44 20 -202 122 -230
148 -16 16 -42 34 -56 42 -15 8 -27 18 -27 21 0 10 44 27 95 39 22 5 41 9 41
10 1 1 23 -21 50 -47z m-2518 -168 c44 -6 52 -10 52 -28 0 -37 -15 -49 -49
-41 -40 9 -85 31 -101 50 -14 17 -40 20 -40 5 0 -19 93 -70 127 -70 18 0 33
-4 33 -10 0 -17 -82 -11 -126 9 -52 24 -59 35 -43 73 11 28 15 29 53 24 23 -3
65 -8 94 -12z m182 -26 c53 -9 69 -16 65 -26 -3 -7 -5 -23 -5 -34 0 -18 -5
-20 -43 -16 -23 3 -60 13 -80 23 -21 10 -40 15 -44 12 -13 -14 27 -35 90 -47
74 -15 88 -30 28 -30 -44 0 -100 17 -120 37 -11 12 -12 21 -1 54 15 44 13 44
110 27z m-470 -18 l40 -20 -31 -63 c-17 -34 -33 -64 -35 -66 -7 -8 -94 22 -94
32 0 12 69 137 76 137 3 0 23 -9 44 -20z m-183 -129 c180 -60 382 -129 448
-154 183 -69 280 -103 395 -138 58 -18 112 -36 120 -40 21 -11 132 -50 290
-103 405 -135 455 -156 585 -248 22 -16 87 -60 145 -98 121 -81 153 -106 148
-118 -1 -4 -95 6 -208 24 -113 18 -226 33 -251 33 -59 1 -217 34 -289 60 -30
11 -113 44 -185 74 -122 51 -183 78 -330 146 -80 38 -328 141 -338 141 -4 0
-30 11 -59 25 -28 14 -58 25 -65 25 -8 0 -24 6 -36 14 -12 8 -49 23 -82 34
-33 12 -85 30 -115 42 -30 12 -82 31 -115 42 -33 11 -87 31 -120 45 -33 14
-99 38 -147 54 -81 27 -190 68 -196 73 -2 3 19 66 22 66 1 0 22 -6 47 -14 24
-8 96 -31 159 -51 63 -20 124 -40 135 -45 11 -5 83 -29 160 -54 164 -53 442
-148 605 -206 63 -23 149 -52 190 -65 41 -12 107 -35 145 -50 39 -15 88 -33
110 -40 66 -22 355 -131 434 -164 40 -17 79 -30 85 -29 13 3 145 -52 239 -99
38 -19 74 -32 80 -30 9 4 -267 143 -388 197 -68 30 -98 43 -165 70 -111 46
-251 97 -374 136 -60 19 -130 44 -155 55 -46 21 -143 55 -486 174 -99 34 -187
65 -195 68 -8 3 -49 17 -90 32 -41 15 -89 33 -107 41 -17 8 -34 14 -38 14 -4
0 -21 6 -38 14 -18 7 -97 35 -177 61 -80 26 -146 48 -146 49 -4 3 16 46 20 46
3 0 153 -49 333 -109z m3930 9 c2 -41 -3 -81 -13 -108 -9 -24 -14 -54 -11 -68
4 -23 2 -25 -26 -18 -64 14 -83 37 -66 82 6 15 15 51 20 81 11 72 33 103 67
99 25 -3 26 -6 29 -68z m-4047 -50 c14 -5 84 -29 155 -55 72 -26 227 -81 345
-121 300 -104 501 -176 497 -181 -2 -2 -109 33 -238 78 -274 94 -636 218 -764
260 -49 16 -99 33 -110 38 -11 5 -46 14 -77 21 -58 11 -74 22 -63 40 3 5 53
-8 118 -31 62 -23 123 -45 137 -49z m654 84 c21 -8 20 -26 -7 -104 -32 -95
-28 -92 -99 -64 -34 13 -68 24 -75 24 -19 0 -16 17 13 88 l27 62 63 0 c34 0
69 -3 78 -6z m246 -65 c38 -11 41 -15 36 -38 -3 -14 -11 -63 -18 -108 -6 -46
-14 -83 -17 -83 -10 0 -113 39 -119 44 -5 5 7 57 36 154 10 32 20 51 28 48 7
-2 31 -10 54 -17z m-1667 -73 c-6 -29 28 -56 59 -48 19 4 20 2 16 -29 -7 -42
6 -69 32 -69 17 0 20 -7 20 -48 0 -36 5 -54 20 -67 21 -19 26 -35 11 -35 -13
0 -120 113 -145 153 -24 39 -66 154 -58 161 3 4 15 6 27 6 18 0 21 -5 18 -24z
m4598 -13 c57 -14 68 -21 77 -46 9 -25 8 -37 -12 -76 -19 -38 -65 -155 -82
-210 -6 -17 -64 35 -64 57 0 18 73 155 106 199 27 36 29 43 12 43 -7 0 -29
-26 -48 -58 -45 -75 -140 -264 -140 -279 0 -24 -18 -13 -63 38 l-46 52 38 56
c21 31 50 79 65 106 39 70 80 135 86 135 3 0 35 -7 71 -17z m1534 -33 c3 -5 5
-65 5 -132 -1 -68 -1 -229 -1 -358 1 -234 1 -235 -28 -320 -42 -123 -127 -388
-139 -435 -6 -22 -14 -50 -18 -63 -4 -17 -12 -22 -27 -20 -20 3 -22 10 -24 63
-3 118 -13 392 -18 505 -8 182 -8 535 0 647 l7 102 62 5 c33 4 79 8 101 9 22
2 48 4 57 5 9 1 20 -2 23 -8z m-5737 -13 c26 1 25 5 7 -72 -10 -41 -22 -66
-40 -80 -16 -14 -25 -31 -25 -49 0 -25 -3 -27 -22 -22 -13 4 -42 10 -65 13
-24 3 -43 8 -43 11 0 7 81 154 103 185 15 22 24 26 40 20 12 -4 32 -7 45 -6z
m3407 -14 c-26 -60 -13 -185 23 -225 10 -12 12 -21 5 -30 -12 -15 -53 -156
-83 -288 -12 -52 -26 -108 -31 -125 -5 -16 -16 -61 -25 -100 -9 -38 -27 -108
-41 -155 -56 -192 -121 -436 -174 -653 l-32 -129 -46 -20 c-60 -27 -235 -87
-239 -83 -2 1 10 43 26 91 16 49 48 150 72 224 48 152 99 295 158 450 22 58
59 157 82 220 23 63 45 124 50 135 4 11 20 61 35 110 15 50 35 115 45 145 11
30 28 89 39 130 42 157 110 320 132 320 7 0 8 -7 4 -17z m2062 -531 c1 -301 6
-594 11 -652 5 -58 6 -108 3 -112 -3 -3 -52 -8 -109 -10 l-102 -3 5 175 c3 96
7 195 10 220 2 25 10 155 16 290 10 207 14 251 31 283 31 61 28 175 -7 260
-15 37 -25 71 -21 74 3 4 36 10 74 13 37 4 72 8 77 9 7 0 11 -188 12 -547z
m-864 511 c23 -7 23 -66 0 -200 -18 -112 -20 -113 -80 -92 -31 10 -31 10 -18
52 7 23 18 76 24 117 6 41 14 90 17 108 4 27 9 32 22 27 9 -4 25 -10 35 -12z
m-2910 -39 c5 -49 19 -66 52 -62 12 2 24 -5 30 -17 6 -11 22 -21 36 -23 16 -2
31 -12 37 -27 7 -14 23 -27 39 -31 15 -3 33 -13 40 -21 11 -15 26 -14 63 1 17
7 35 -26 46 -83 5 -26 4 -32 -5 -27 -7 5 -67 27 -134 51 -67 24 -135 48 -152
54 -16 6 -79 28 -140 49 -100 33 -107 37 -76 42 29 4 36 10 43 37 7 29 12 32
51 35 39 3 42 5 45 36 5 47 19 39 25 -14z m3010 12 l27 -6 0 -115 c0 -138 -18
-255 -38 -255 -8 0 -33 5 -54 12 l-40 12 7 45 c22 149 34 251 35 284 0 32 3
38 18 34 9 -3 29 -8 45 -11z m-3898 -146 c11 -5 33 -14 48 -20 l28 -10 -18
-31 c-31 -53 -162 -196 -186 -203 -41 -11 -74 -6 -91 13 -16 17 -14 20 28 55
43 35 49 46 105 198 11 29 22 29 86 -2z m2694 -140 c0 -25 -4 -76 -9 -115 -5
-38 -10 -95 -11 -125 -3 -59 -12 -105 -33 -160 -8 -19 -19 -53 -24 -75 -35
-134 -44 -172 -61 -261 -11 -54 -24 -119 -30 -144 -32 -137 -53 -240 -76 -365
-13 -77 -33 -183 -44 -235 -11 -52 -25 -134 -32 -182 -7 -49 -15 -88 -18 -88
-3 0 -21 4 -39 10 -19 5 -77 12 -130 16 -54 3 -100 9 -104 13 -4 4 26 25 68
46 42 22 78 45 80 50 1 6 10 62 18 125 14 103 55 298 86 405 6 22 14 51 17 65
3 14 19 72 35 130 49 173 112 414 157 600 35 146 77 299 96 358 4 10 11 9 30
-5 20 -15 24 -27 24 -63z m-2297 -19 c142 -61 190 -82 306 -137 50 -24 95 -44
98 -44 3 0 20 -6 37 -14 59 -27 232 -92 277 -106 25 -7 78 -18 119 -24 70 -11
75 -13 83 -41 37 -136 58 -218 58 -233 0 -10 -13 -25 -28 -34 -37 -22 -140
-129 -248 -258 -49 -58 -104 -120 -124 -138 -47 -45 -166 -124 -215 -144 -45
-19 -125 -33 -125 -23 0 6 77 100 118 143 32 35 78 112 93 156 16 47 16 50 -4
85 -18 31 -90 126 -107 141 -4 3 -19 22 -35 44 -16 21 -42 52 -59 70 -36 38
-124 154 -191 250 -27 40 -74 102 -102 139 -29 37 -53 69 -53 72 0 3 -16 28
-35 55 -40 57 -43 70 -16 70 11 0 23 5 26 10 8 13 -1 16 127 -39z m-188 3 c11
-29 6 -102 -14 -211 -37 -202 -50 -246 -82 -272 -16 -13 -31 -21 -34 -18 -3 3
4 36 16 73 11 38 24 92 29 119 26 143 66 325 72 325 4 0 10 -7 13 -16z m-54
-53 c0 -31 -47 -247 -76 -351 -28 -97 -54 -140 -85 -140 -30 0 -30 14 1 102
16 47 43 142 60 212 31 129 61 196 86 196 8 0 14 -9 14 -19z m4325 -113 c-3
-62 -13 -214 -21 -337 -8 -124 -14 -277 -14 -342 l0 -117 -32 -6 c-18 -3 -57
-8 -86 -12 l-53 -7 6 39 c2 22 9 71 15 110 10 76 39 414 46 554 10 191 5 173
55 190 24 9 53 21 64 27 11 7 22 13 24 13 2 0 0 -51 -4 -112z m-4215 72 c10
-24 8 -55 -10 -177 -11 -81 -23 -155 -26 -165 -4 -15 -51 -34 -61 -24 -2 2 5
42 16 88 27 114 51 242 51 278 0 38 14 38 30 0z m-208 -29 c-15 -103 -101
-391 -116 -391 -33 1 -34 17 -6 100 16 47 43 135 61 195 17 61 34 114 36 118
9 16 28 0 25 -22z m4273 -21 c-1 -19 -4 -91 -9 -160 -11 -164 -12 -182 -20
-265 -3 -38 -8 -93 -11 -121 -6 -74 -34 -297 -37 -299 -2 -2 -30 -6 -62 -10
l-59 -7 7 49 c7 59 24 254 32 383 21 346 22 353 48 413 l26 58 43 -3 c41 -3
42 -4 42 -38z m-4337 -22 c-3 -7 -27 -82 -54 -165 -44 -139 -50 -152 -69 -147
-31 9 -38 20 -27 40 6 11 29 73 53 139 41 117 58 145 87 145 8 0 12 -6 10 -12z
m4171 -223 c-41 -528 -49 -605 -60 -605 -4 0 -21 14 -37 30 -17 17 -33 30 -37
30 -3 0 -30 16 -60 35 -58 36 -68 62 -45 105 6 11 23 70 39 132 41 159 68 214
143 290 9 9 27 36 38 59 12 22 23 39 24 37 2 -1 0 -52 -5 -113z m-1475 -267
c3 -15 -3 -60 -14 -100 -10 -40 -28 -119 -39 -175 -12 -56 -23 -108 -26 -115
-2 -7 -14 -150 -26 -318 -29 -430 -30 -435 -32 -551 -2 -87 -4 -103 -17 -100
-8 2 -53 6 -100 8 -113 6 -116 7 -95 39 9 14 19 42 21 62 2 21 6 51 9 67 3 17
7 55 10 85 5 49 22 153 45 275 4 22 15 73 24 113 9 41 20 108 25 150 8 65 35
197 72 352 4 19 13 58 19 85 20 91 61 269 70 305 5 19 12 49 16 65 6 22 11 -3
20 -95 7 -69 15 -137 18 -152z m2249 60 c-4 -216 -10 -358 -16 -364 -2 -2 -36
-1 -76 2 -57 6 -71 10 -71 24 0 31 150 510 160 510 4 0 5 -78 3 -172z m-3423
7 c0 -2 -14 -26 -30 -52 -40 -62 -59 -133 -58 -211 1 -50 -3 -68 -20 -90 -12
-15 -36 -51 -54 -81 -18 -29 -54 -77 -80 -107 -39 -44 -100 -156 -158 -289
-84 -195 -161 -357 -365 -770 -95 -192 -180 -366 -188 -385 -23 -51 -67 -189
-67 -211 0 -11 -4 -19 -8 -19 -14 0 -115 59 -162 95 -25 19 -58 42 -75 51 -16
9 -31 18 -33 19 -2 2 6 43 17 91 10 49 25 130 32 179 6 50 27 142 45 205 90
318 96 350 95 455 -1 83 3 114 22 172 30 87 80 178 142 256 37 47 51 57 78 58
30 2 52 4 70 8 4 0 9 1 12 1 3 0 33 14 68 31 118 60 213 141 313 267 135 171
240 269 334 314 34 16 70 23 70 13z m1221 -330 c26 -166 22 -245 -15 -360 -39
-116 -43 -200 -16 -310 14 -57 24 -131 26 -200 5 -176 14 -282 33 -415 11 -69
16 -128 12 -131 -6 -6 -204 8 -230 17 -11 4 -11 7 0 20 10 13 16 83 21 278 4
143 12 306 18 361 16 166 22 244 35 470 8 129 30 261 67 404 15 59 21 44 49
-134z m-2484 151 c202 -17 280 -28 403 -57 97 -23 110 -31 82 -51 -11 -7 -49
-39 -84 -70 -121 -106 -120 -106 -153 -96 -31 9 -499 11 -570 3 -22 -3 -80
-10 -130 -15 -49 -6 -130 -18 -180 -26 -49 -8 -148 -23 -220 -34 -71 -11 -159
-27 -195 -35 -36 -8 -83 -18 -105 -21 -22 -3 -58 -12 -80 -19 -22 -7 -58 -17
-80 -23 -22 -7 -85 -25 -139 -42 -55 -16 -101 -28 -103 -26 -3 3 16 27 77 95
14 16 46 38 72 49 47 20 130 73 157 99 7 8 39 27 70 43 60 31 91 58 131 114
23 32 33 37 115 55 109 23 215 38 400 55 197 18 325 18 532 2z m579 -111 c-11
-58 -53 -117 -231 -326 -70 -81 -116 -151 -158 -240 -36 -73 -46 -86 -67 -87
-32 -1 -151 -28 -208 -47 -23 -8 -50 -15 -59 -15 -17 0 -20 -5 54 92 23 30 47
61 55 69 7 8 33 39 58 69 105 127 276 302 390 400 35 30 74 65 87 77 28 27 54
42 72 43 10 0 12 -9 7 -35z m-330 -188 c4 -4 -3 -18 -15 -31 -22 -24 -28 -25
-165 -25 -195 -2 -334 -9 -521 -27 -217 -20 -232 -22 -354 -45 -58 -11 -135
-24 -171 -30 -36 -5 -72 -12 -80 -15 -8 -3 -53 -14 -100 -24 -182 -39 -443
-113 -468 -133 -25 -20 -22 1 7 40 24 33 40 44 88 58 32 9 69 21 83 25 110 37
446 116 590 139 145 23 268 41 315 46 28 3 86 10 130 15 44 6 100 12 125 14
91 6 529 1 536 -7z m-73 -76 c14 -1 11 -8 -15 -33 -18 -18 -56 -59 -84 -90
l-50 -57 -135 -6 c-237 -9 -469 -36 -669 -76 -58 -12 -123 -24 -145 -28 -23
-4 -45 -10 -50 -13 -6 -3 -82 -20 -170 -38 -324 -65 -510 -111 -679 -169 -50
-17 -91 -29 -92 -28 -2 2 26 32 62 67 36 36 82 83 102 104 20 22 44 47 53 57
22 22 295 113 321 106 11 -3 17 -3 14 1 -10 9 126 46 262 72 64 12 146 28 182
36 278 61 830 109 1093 95z m895 -117 c26 -37 82 -110 125 -163 43 -53 92
-125 110 -161 47 -97 125 -195 282 -354 22 -23 96 -106 165 -186 68 -80 127
-147 130 -150 4 -3 45 -53 92 -111 167 -209 351 -403 444 -469 11 -8 35 -27
53 -42 31 -27 31 -28 16 -57 -20 -39 -69 -90 -128 -135 -45 -34 -87 -47 -87
-28 0 5 -12 15 -27 23 -55 27 -325 218 -404 285 -30 25 -63 53 -74 62 -11 9
-61 51 -112 93 -104 88 -102 87 -218 134 -115 46 -185 90 -270 169 -66 61 -69
65 -53 83 9 10 29 45 44 77 23 51 27 71 26 160 0 116 -28 244 -73 344 -16 34
-29 65 -29 68 0 3 -6 20 -14 37 -31 69 -44 133 -71 340 -9 68 14 62 73 -19z
m-81 -81 c12 -104 46 -224 96 -338 33 -76 40 -102 64 -215 22 -108 14 -252
-16 -305 -41 -73 -44 -73 -88 -8 -21 32 -49 77 -61 101 l-22 43 20 68 c11 38
20 76 20 87 0 35 -18 -1 -49 -99 -17 -54 -50 -137 -75 -185 -40 -79 -160 -280
-204 -342 -84 -118 -222 -284 -230 -276 -2 2 6 14 17 25 12 12 21 29 21 39 0
9 7 25 15 35 15 21 13 144 -4 175 -6 12 -5 23 5 37 21 28 18 48 -6 42 -11 -3
-20 -1 -20 5 0 5 9 12 20 15 27 7 49 84 45 160 -2 34 -6 66 -9 72 -4 6 18 59
48 118 30 60 73 149 95 198 23 50 61 131 85 180 65 135 82 171 124 270 57 134
86 195 92 195 4 0 11 -44 17 -97z m-1071 -118 c-44 -57 -89 -115 -98 -129 -10
-13 -32 -28 -50 -31 -61 -14 -147 -44 -175 -62 -15 -9 -41 -33 -58 -53 -16
-19 -53 -60 -80 -90 -28 -30 -77 -86 -110 -125 -33 -38 -66 -76 -73 -84 -11
-11 -30 -11 -112 -1 -100 12 -120 20 -102 43 5 7 14 26 19 42 16 48 102 164
134 180 36 19 99 74 99 86 0 13 42 69 51 69 4 0 5 -9 2 -19 -3 -11 3 -27 15
-39 15 -15 27 -18 58 -13 37 6 39 8 36 41 -2 23 -12 43 -30 57 l-27 23 37 0
c42 0 55 -21 38 -64 -12 -33 -12 -36 -1 -36 5 0 21 21 37 48 15 26 33 51 41
55 20 12 16 45 -9 70 -19 18 -34 22 -80 21 -39 0 -63 -6 -76 -17 -24 -22 -37
-21 -70 3 -21 16 -50 22 -115 27 -48 3 -85 8 -83 11 28 27 710 105 827 94 l37
-4 -82 -103z m2059 16 c-13 -102 -5 -94 -188 -185 -92 -46 -167 -79 -167 -73
0 6 14 55 30 108 l31 97 52 21 c29 11 66 23 82 27 17 4 55 18 85 30 80 33 82
33 75 -25z m-2776 -31 c118 -13 141 -26 141 -81 0 -30 -9 -53 -32 -87 -48 -69
-79 -99 -85 -84 -7 19 -23 14 -23 -7 0 -11 -15 -29 -36 -41 -37 -23 -56 -21
-35 4 8 10 9 16 2 21 -6 3 -25 -10 -42 -29 -17 -20 -38 -36 -46 -36 -12 0 -13
3 -4 13 6 8 8 17 4 20 -10 11 -23 8 -23 -5 0 -20 -32 -48 -56 -48 -21 0 -22 4
-21 54 1 44 -4 62 -26 93 -15 22 -27 51 -27 66 0 15 -5 27 -11 27 -8 0 -10
-15 -7 -45 5 -42 4 -45 -17 -45 l-23 0 20 53 c11 28 25 58 31 66 23 27 121 83
161 91 56 11 50 11 155 0z m5881 -227 c0 -54 8 -137 18 -186 10 -48 16 -89 13
-91 -6 -3 -263 19 -365 32 l-61 7 -1 50 c-3 101 -9 95 159 174 84 40 168 80
187 91 19 10 38 19 43 19 4 1 7 -43 7 -96z m-3165 -27 c72 -8 143 -18 159 -21
28 -8 28 -8 24 -71 -2 -35 -6 -65 -9 -68 -3 -3 -25 2 -49 11 -37 13 -74 14
-207 9 -136 -5 -169 -3 -203 10 -22 9 -40 19 -40 23 0 8 117 93 149 108 34 15
25 15 176 -1z m616 -160 c53 -157 115 -263 225 -378 61 -65 64 -70 65 -121 1
-28 1 -55 1 -58 -1 -4 3 -30 7 -59 l8 -52 -26 5 c-14 3 -55 8 -91 12 -36 3
-86 11 -112 17 -48 10 -48 10 -48 51 0 41 -5 82 -35 307 -8 58 -17 146 -20
195 -3 50 -8 110 -10 134 -7 60 2 47 36 -53z m-3679 62 c3 -21 9 -23 75 -25
40 -2 75 2 78 7 3 6 16 10 28 10 12 0 31 7 41 15 23 17 26 18 44 6 11 -6 6
-18 -20 -53 -19 -25 -40 -66 -48 -92 -7 -25 -16 -49 -20 -51 -5 -3 -52 0 -107
6 -72 8 -347 19 -469 19 -9 0 74 68 121 100 38 26 60 34 100 35 55 2 135 21
150 36 15 15 23 11 27 -13z m5807 -88 c-4 -61 -8 -112 -10 -113 -19 -11 -102
-47 -104 -45 -1 2 -5 51 -9 111 l-6 108 28 10 c15 6 41 17 57 24 17 8 35 14
40 14 6 1 8 -38 4 -109z m-4557 -3 c-9 -28 -17 -54 -19 -56 -2 -3 -36 -10 -76
-17 -242 -40 -393 -81 -374 -100 2 -2 66 11 143 30 155 39 265 60 287 54 12
-2 10 -18 -12 -90 -14 -48 -28 -89 -31 -91 -3 -3 -25 -7 -50 -10 -53 -6 -91
-14 -145 -32 -22 -7 -69 -18 -105 -25 -96 -17 -180 -42 -180 -53 0 -5 12 -6
28 -2 24 6 190 43 362 80 86 19 94 19 85 -2 -4 -10 -11 -45 -17 -78 -6 -33
-12 -61 -13 -63 -1 -2 -45 -7 -96 -13 -93 -9 -312 -49 -378 -69 -19 -5 -37 -8
-39 -5 -4 3 10 43 49 140 4 11 17 45 28 77 25 69 96 206 121 232 12 12 41 22
79 27 33 5 95 25 138 45 80 38 213 84 225 77 3 -1 -1 -27 -10 -56z m4349 -4
c1 -21 1 -78 0 -128 -2 -84 -4 -92 -28 -111 -22 -19 -42 -22 -137 -26 -61 -3
-112 -4 -112 -4 -1 1 1 57 5 125 l6 124 85 17 c47 10 101 22 120 28 56 16 60
15 61 -25z m-2413 -8 c12 -11 -52 -56 -150 -105 l-98 -48 0 74 c0 41 1 74 3
75 1 0 36 3 77 6 41 3 77 7 80 10 6 6 80 -3 88 -12z m2122 -94 c0 -37 -3 -96
-6 -129 l-7 -62 -46 3 c-44 2 -46 1 -49 -26 -2 -16 2 -35 9 -43 9 -11 7 -14
-14 -14 -33 0 -35 -11 -30 -176 l4 -139 -29 40 c-16 22 -49 77 -72 122 l-42
83 11 75 c6 42 11 122 11 178 0 56 4 107 8 113 4 7 56 19 116 28 60 9 111 18
114 21 14 14 22 -13 22 -74z m784 38 c118 -9 173 -17 183 -27 8 -8 12 -16 10
-19 -6 -5 -459 26 -465 31 -2 3 1 13 7 24 9 17 16 18 53 11 24 -4 119 -13 212
-20z m-6759 -34 c50 -8 93 -15 98 -15 8 0 9 -86 1 -118 -4 -13 -10 -22 -14
-20 -5 2 -39 31 -77 65 -37 34 -79 70 -93 82 -30 24 -29 25 85 6z m265 -7 c0
-13 -5 -50 -11 -83 -5 -33 -16 -121 -24 -195 -8 -74 -19 -182 -25 -240 -6 -58
-13 -118 -14 -135 -4 -45 -5 -45 -22 -45 -12 0 -14 8 -10 43 3 23 15 121 26
217 36 312 51 435 55 448 7 21 25 13 25 -10z m425 2 c55 -6 162 -18 237 -27
l137 -16 -27 -36 c-25 -34 -174 -207 -320 -373 -34 -40 -76 -96 -93 -125 -33
-58 -44 -68 -28 -27 5 15 7 34 4 44 -3 9 1 23 9 29 19 16 40 135 33 186 -6 51
-29 111 -50 132 -20 21 -53 12 -94 -26 -25 -23 -34 -40 -39 -80 -4 -33 -13
-56 -25 -65 -10 -7 -25 -28 -33 -48 -16 -38 -19 -115 -5 -124 15 -9 10 -24 -9
-24 -28 0 -67 -74 -55 -106 8 -23 23 -5 24 29 l1 32 8 -30 c7 -30 13 -25 23
20 3 11 5 1 6 -22 0 -24 5 -43 9 -43 9 0 32 59 32 82 0 9 8 15 17 14 14 -1 16
7 14 49 -3 55 -5 60 -20 50 -6 -3 -11 -22 -11 -41 0 -19 -4 -34 -9 -34 -12 0
-1 74 11 78 11 5 10 32 -2 32 -5 0 -10 14 -10 30 0 17 5 30 11 30 6 0 9 -9 6
-20 -3 -13 0 -20 9 -20 8 0 14 7 14 15 0 8 3 15 8 15 4 0 8 -48 9 -106 2 -92
-1 -108 -18 -125 -10 -10 -18 -22 -17 -27 2 -4 -6 -16 -17 -27 -18 -18 -25
-19 -70 -9 -28 7 -74 13 -103 13 -46 1 -53 3 -48 19 2 9 7 51 11 92 3 41 11
110 16 153 6 42 16 132 24 200 7 67 19 153 25 191 l12 68 147 -5 c80 -4 191
-11 246 -17z m3384 -14 c33 -11 34 -12 37 -71 3 -84 -2 -98 -29 -83 -13 7 -84
12 -187 13 -132 2 -176 6 -213 20 -26 10 -47 23 -47 30 0 7 44 31 98 54 53 23
103 45 109 49 18 11 190 2 232 -12z m2681 -6 c185 -12 210 -16 210 -31 0 -6
16 -38 35 -71 20 -33 34 -62 33 -64 -2 -1 -26 -6 -53 -11 -43 -7 -52 -13 -65
-40 -12 -25 -21 -33 -42 -33 -36 0 -37 27 -2 40 14 6 32 17 41 26 8 8 28 18
44 21 16 3 29 9 29 14 0 16 -34 9 -70 -13 -19 -12 -48 -29 -65 -38 -19 -9 -29
-22 -27 -33 2 -13 -4 -17 -33 -17 -42 0 -46 16 -7 31 15 6 36 19 47 29 11 10
40 27 65 37 102 44 98 42 72 42 -12 1 -49 -10 -82 -23 -43 -18 -79 -25 -123
-24 -34 0 -67 0 -74 -1 -21 -2 -26 -41 -8 -67 l16 -25 -389 3 c-348 3 -390 5
-405 20 -26 25 -22 52 6 44 12 -3 72 -9 132 -12 l110 -6 115 76 c63 42 139 88
168 102 28 15 52 31 52 37 0 6 20 8 53 4 28 -4 126 -11 217 -17z m-3980 -63
c0 -23 100 -166 162 -233 33 -35 95 -87 137 -115 42 -28 80 -57 84 -65 7 -12
82 -221 113 -315 5 -13 -3 -15 -51 -11 -68 6 -147 -17 -205 -59 -22 -16 -40
-25 -40 -20 0 14 -195 338 -211 351 -4 3 -15 21 -25 40 -11 19 -36 53 -56 74
-61 66 -65 80 -38 129 48 88 109 212 110 225 0 16 20 16 20 -1z m1269 -136
c19 -12 -11 -38 -89 -77 -30 -15 -63 -34 -72 -42 -17 -14 -18 -11 -18 56 l0
72 83 0 c45 0 89 -4 96 -9z m154 -105 c77 -8 141 -16 143 -19 3 -2 7 -35 11
-72 6 -65 5 -68 -13 -60 -31 14 -324 19 -324 6 0 -7 42 -11 133 -11 132 0 207
-12 207 -32 0 -6 -7 -7 -17 -3 -10 4 -65 6 -123 6 -135 -2 -244 14 -287 40
-41 25 -38 36 3 14 16 -8 40 -15 54 -14 19 0 11 7 -32 26 -32 14 -58 29 -58
33 0 4 21 19 48 34 26 15 61 35 77 46 17 10 32 19 35 19 3 0 67 -6 143 -13z
m573 -165 l66 -104 -46 -41 c-25 -23 -50 -53 -56 -68 -5 -16 -13 -28 -18 -28
-12 0 -60 283 -61 365 l-1 40 25 -30 c14 -16 55 -77 91 -134z m-4721 -8 c-10
-102 -23 -194 -29 -200 -3 -3 -29 14 -60 38 l-54 42 61 80 c34 44 66 86 72 93
16 23 17 17 10 -53z m4440 -34 c80 -10 154 -24 160 -31 5 -5 35 -128 35 -143
0 -10 -8 -11 -32 -5 -28 7 -218 22 -325 24 -17 1 -35 5 -39 9 -5 5 0 5 10 1
16 -6 17 -5 5 13 -11 18 -8 25 29 60 30 28 42 48 42 68 0 22 3 26 17 21 10 -4
54 -12 98 -17z m-1975 -66 c18 -64 37 -101 67 -127 22 -19 23 -24 13 -51 -6
-16 -21 -38 -32 -49 -20 -19 -21 -19 -34 -1 -8 10 -14 27 -14 37 0 9 -6 32
-14 50 -55 131 -55 133 -34 167 11 17 23 29 28 26 4 -2 13 -26 20 -52z m2393
-90 c26 -34 87 -98 136 -143 74 -68 95 -95 129 -163 63 -124 190 -239 278
-253 50 -7 60 -32 22 -58 -35 -25 -68 -21 -68 8 0 16 -11 32 -32 47 -18 12
-55 42 -81 67 -27 24 -51 41 -55 37 -6 -5 44 -55 136 -136 19 -16 21 -23 12
-34 -15 -18 -50 -20 -50 -3 0 7 -24 36 -52 64 -29 28 -66 68 -81 88 -16 20
-33 33 -38 30 -12 -7 29 -60 100 -131 51 -49 54 -55 39 -69 -20 -20 -68 -11
-68 12 0 29 -114 164 -138 164 -9 0 1 -18 29 -49 67 -76 91 -110 84 -121 -16
-26 -79 16 -90 58 -7 28 -72 98 -82 88 -8 -7 25 -56 38 -56 8 0 49 -80 49 -96
0 -8 -70 25 -102 49 -18 13 -49 30 -68 37 -103 39 -151 122 -171 295 -5 44
-18 109 -29 144 -16 56 -17 68 -6 96 14 33 97 109 107 97 3 -4 27 -35 52 -69z
m-2445 -11 c13 -37 30 -94 39 -127 8 -33 22 -68 31 -77 12 -14 12 -20 2 -33
-7 -8 -17 -15 -22 -15 -5 0 -26 -8 -47 -18 l-38 -19 -37 131 c-38 137 -41 156
-28 156 4 0 20 18 36 40 16 22 32 37 35 34 3 -3 16 -35 29 -72z m-655 -26 c23
-19 69 -48 102 -64 33 -17 75 -42 94 -56 19 -15 40 -26 47 -26 6 0 18 -7 25
-16 7 -9 71 -55 142 -103 71 -47 154 -103 184 -123 30 -20 76 -44 101 -53 26
-9 66 -26 89 -37 46 -22 107 -31 216 -29 37 0 67 -4 67 -9 0 -4 -12 -22 -26
-39 -24 -29 -30 -31 -98 -31 -40 0 -97 -7 -127 -16 -71 -21 -268 -15 -316 9
-62 32 -367 51 -438 27 -22 -7 -73 -13 -113 -13 -114 2 -151 37 -162 156 -9
96 10 184 53 250 48 73 97 169 97 190 0 25 17 21 63 -17z m544 -58 c27 -112
65 -245 75 -265 13 -25 4 -43 -22 -43 -19 0 -40 49 -40 94 0 11 -4 33 -10 50
-46 145 -52 176 -40 191 19 23 26 18 37 -27z m-43 -85 c10 -38 22 -79 26 -93
5 -14 12 -40 15 -59 8 -39 16 -42 -100 37 -83 56 -96 75 -57 80 16 3 25 12 29
32 3 16 13 32 23 35 10 3 21 12 24 20 11 29 21 14 40 -52z m2373 -42 c15 -6
39 -12 53 -14 22 -4 26 -10 32 -63 4 -32 15 -81 23 -108 9 -26 15 -49 13 -50
-2 -2 -18 -9 -37 -16 -18 -7 -61 -40 -95 -73 -65 -63 -117 -94 -208 -122 l-56
-18 -44 26 c-73 42 -218 217 -180 217 14 0 137 125 168 171 30 44 34 46 95 54
35 4 92 8 126 8 62 0 63 0 57 26 l-5 26 15 -26 c8 -14 28 -31 43 -38z m-1359
13 c20 -9 58 -24 84 -34 44 -17 162 -90 204 -128 11 -9 31 -23 45 -31 13 -8
44 -27 69 -43 31 -19 68 -31 120 -38 41 -6 97 -18 123 -27 39 -14 53 -15 79
-5 60 22 67 -31 8 -61 -27 -13 -48 -16 -87 -11 -44 5 -56 3 -79 -15 -14 -11
-42 -23 -61 -27 -47 -9 -147 14 -191 44 -58 39 -98 52 -162 53 -47 1 -69 -4
-104 -25 -45 -26 -161 -56 -219 -56 -59 0 -129 56 -146 117 -13 46 -14 163 -2
195 12 31 90 86 138 97 61 14 141 12 181 -5z m1972 -122 c52 -36 106 -74 119
-84 l24 -18 -29 -1 c-97 -3 -137 7 -163 43 -12 18 -71 129 -71 136 0 5 18 -7
120 -76z"/>
<path d="M3592 11525 c-27 -22 -32 -34 -32 -69 0 -57 27 -86 81 -86 32 0 47 7
71 30 27 27 30 36 25 72 -7 51 -24 68 -74 75 -32 4 -44 0 -71 -22z"/>
<path d="M4650 11537 c-54 -27 -64 -119 -17 -152 34 -24 94 -19 122 10 36 35
35 105 -1 134 -30 24 -67 27 -104 8z"/>
<path d="M3695 10893 c-16 -2 -63 -10 -103 -19 -67 -14 -76 -19 -103 -57 -58
-79 -67 -107 -69 -203 -2 -81 1 -96 32 -169 46 -106 70 -120 215 -120 89 0
105 3 132 23 16 12 39 22 50 22 27 0 99 85 112 134 8 30 8 52 1 82 -9 32 -8
51 3 89 23 74 20 84 -44 146 -74 73 -116 86 -226 72z"/>
<path d="M4345 10514 c-82 -41 -82 -42 -10 -104 36 -30 77 -61 91 -68 l27 -14
-9 73 c-4 41 -8 89 -8 107 -1 40 -20 41 -91 6z"/>
<path d="M2706 10470 c-60 -23 -126 -85 -126 -117 0 -15 13 -31 39 -49 l39
-25 39 19 c21 11 53 36 71 54 l32 34 -15 52 c-9 29 -19 52 -23 52 -4 -1 -29
-10 -56 -20z"/>
<path d="M5857 10470 c-54 -21 -112 -61 -126 -89 -16 -29 -2 -57 38 -79 l37
-21 41 20 c22 11 52 32 67 48 25 26 27 34 21 69 -11 67 -22 74 -78 52z"/>
<path d="M5355 10580 c-11 -4 -39 -28 -61 -52 l-42 -43 13 -48 c6 -26 14 -49
16 -52 7 -6 90 24 125 46 35 21 64 60 64 85 0 21 -57 74 -79 73 -9 0 -25 -4
-36 -9z"/>
<path d="M2310 6866 c0 -8 7 -16 15 -20 8 -3 15 -13 15 -22 0 -12 -5 -15 -22
-9 -50 15 -68 17 -68 7 0 -6 14 -13 30 -17 31 -7 42 -25 15 -25 -8 0 -15 -5
-15 -11 0 -8 12 -10 35 -6 41 7 42 5 15 -39 -13 -19 -17 -35 -11 -39 6 -3 19
12 31 35 11 22 24 40 28 40 4 0 17 -18 30 -40 23 -40 42 -52 42 -26 0 7 -9 25
-20 39 -11 14 -20 27 -20 30 0 6 93 -18 109 -27 6 -4 11 0 11 8 0 10 -18 21
-47 30 l-48 14 33 7 c17 4 32 11 32 16 0 11 -4 11 -59 -2 -44 -10 -44 -9 -81
31 -38 43 -50 49 -50 26z"/>
<path d="M7223 1018 c-31 -7 -52 -20 -78 -50 -30 -36 -35 -49 -35 -92 0 -33 7
-62 20 -83 20 -34 85 -73 120 -73 11 0 20 -6 20 -12 0 -10 2 -10 8 -1 4 6 26
19 50 28 32 13 48 28 64 59 25 50 26 116 2 154 -20 31 -61 72 -67 66 -2 -2
-17 0 -33 4 -16 5 -48 4 -71 0z m96 -71 c8 -7 20 -27 28 -44 39 -94 -86 -170
-151 -92 -44 52 -28 123 34 148 28 11 67 6 89 -12z"/>
<path d="M7089 696 c-3 -3 -4 -19 -1 -36 3 -23 11 -31 31 -36 64 -13 100 -25
111 -39 16 -19 44 -19 60 0 7 8 28 17 49 20 20 3 51 13 69 20 26 12 32 20 32
46 0 24 -4 29 -17 25 -10 -3 -38 -10 -63 -16 -25 -6 -58 -16 -73 -22 -20 -8
-34 -8 -50 0 -12 7 -40 16 -62 21 -22 5 -49 12 -60 16 -11 3 -23 4 -26 1z"/>
<path d="M1165 354 c-11 -1 -67 -7 -125 -14 -108 -11 -250 -33 -330 -50 -25
-6 -76 -12 -115 -14 -38 -3 -71 -9 -73 -14 -1 -5 175 -10 440 -11 244 -1 457
-4 474 -7 52 -9 51 14 -1 36 -127 54 -222 80 -270 74z"/>
</g>
</svg>
