<?xml version="1.0" standalone="no"?>
<!DOCTYPE svg PUBLIC "-//W3C//DTD SVG 20010904//EN"
 "http://www.w3.org/TR/2001/REC-SVG-20010904/DTD/svg10.dtd">
<svg version="1.0" xmlns="http://www.w3.org/2000/svg"
 width="992.000000pt" height="1516.000000pt" viewBox="0 0 992.000000 1516.000000"
 preserveAspectRatio="xMidYMid meet">
<metadata>
Created by potrace 1.16, written by Peter Selinger 2001-2019
</metadata>
<g transform="translate(0.000000,1516.000000) scale(0.100000,-0.100000)"
fill="#000000" stroke="none">
<path d="M6 15151 c-11 -17 -3 -246 8 -253 8 -6 8 -8 0 -8 -16 0 -18 -761 -1
-772 9 -6 9 -8 0 -8 -10 0 -13 -1431 -13 -7055 l0 -7055 70 0 c39 0 78 4 88 9
24 14 91 25 132 23 48 -2 51 -2 88 2 24 3 35 -1 43 -15 10 -19 39 -19 1469
-19 1119 1 1460 4 1464 13 3 9 5 9 5 0 1 -10 701 -13 3281 -13 l3280 0 0 1430
c-1 1118 -3 1430 -13 1430 -8 0 -9 3 -1 8 15 10 16 924 0 934 -8 6 -8 8 1 8
16 0 16 222 0 232 -8 5 -7 8 3 8 13 0 13 1 0 10 -8 5 -10 10 -4 10 17 0 19
271 2 281 -10 7 -10 9 0 9 18 0 17 2570 -1 2570 -8 0 -9 3 -1 8 6 4 11 16 11
27 0 11 -5 23 -11 27 -8 6 -7 8 1 8 18 0 18 7190 0 7190 -8 0 -9 3 -1 8 10 7
11 529 1 595 -2 15 -1 27 2 27 12 0 10 245 -2 252 -9 6 -9 8 1 8 7 0 12 15 12
40 l0 39 -1870 1 c-1767 0 -1870 -1 -1880 -18 -9 -12 -10 -13 -7 -1 5 14 -148
16 -1596 17 -1262 1 -1603 -1 -1610 -11 -7 -9 -10 -9 -14 1 -6 16 -223 17
-223 1 0 -8 -6 -7 -17 2 -13 11 -17 11 -20 2 -3 -7 -9 -13 -14 -13 -6 0 -8 4
-4 9 3 6 -31 10 -87 10 -61 0 -95 -4 -100 -12 -6 -9 -8 -9 -8 1 0 6 -5 12 -11
12 -5 0 -7 -4 -4 -10 3 -5 1 -10 -4 -10 -6 0 -11 5 -11 10 0 15 -181 11 -199
-4 -11 -8 -13 -8 -7 1 5 10 -227 13 -1108 13 -637 0 -1117 -4 -1120 -9z m946
-3621 c67 1 128 1 133 1 6 -1 10 -12 10 -25 0 -13 -3 -22 -6 -20 -3 2 -12 -8
-19 -21 -15 -28 -25 -31 -33 -11 -4 10 -1 13 7 10 7 -3 16 1 19 9 4 11 0 13
-16 9 -32 -7 -49 -23 -43 -39 3 -8 0 -26 -8 -41 -19 -38 -30 -167 -13 -155 7
4 4 0 -6 -10 -16 -14 -19 -27 -15 -68 3 -28 2 -45 -2 -39 -9 14 -15 -13 -25
-100 -4 -30 -13 -79 -21 -108 -8 -29 -12 -57 -9 -63 4 -5 -4 -26 -16 -47 -16
-25 -18 -33 -7 -24 14 11 16 10 11 -8 -3 -11 -12 -19 -21 -18 -8 2 -17 -3 -19
-9 -3 -7 0 -13 7 -13 6 0 8 -4 5 -10 -3 -5 -14 -10 -24 -10 -10 0 -24 -11 -31
-25 -7 -13 -17 -22 -23 -18 -5 3 -12 2 -16 -3 -13 -19 -138 -63 -127 -45 2 3
1 25 -4 48 -4 24 -3 40 1 37 5 -3 9 -12 9 -20 0 -8 4 -14 9 -14 19 0 106 83
115 109 5 14 13 32 19 39 6 8 5 12 -4 13 -10 0 -11 2 -1 6 6 2 12 14 12 24 0
11 5 30 11 41 8 15 8 19 0 14 -7 -5 -11 3 -10 21 0 24 2 25 8 8 6 -14 10 -6
15 35 14 104 19 145 19 165 1 11 5 23 9 26 5 3 10 33 11 67 1 34 7 62 12 63 6
1 -1 5 -15 9 l-25 8 24 1 c21 1 23 5 19 41 -2 22 0 40 4 40 15 0 8 61 -7 67
-24 8 -30 -4 -11 -22 9 -9 16 -22 16 -28 -1 -13 -50 43 -50 56 0 4 -7 7 -15 7
-11 0 -15 9 -13 29 2 22 5 27 14 20 7 -6 66 -10 136 -9z m2016 -22 c2 -20 8
-26 20 -22 11 4 13 3 5 -3 -8 -6 -8 -35 3 -118 7 -61 14 -112 14 -115 0 -3 4
1 9 8 5 8 8 -3 7 -30 0 -72 14 -138 30 -138 8 0 14 -4 14 -10 0 -5 -8 -6 -17
-3 -15 6 -14 2 4 -30 13 -21 18 -39 12 -42 -16 -10 -10 -27 7 -21 14 5 15 4 4
-9 -19 -23 15 -58 52 -53 19 3 28 0 28 -9 0 -29 29 -11 38 25 l11 37 -2 -35
c-1 -19 -6 -38 -12 -42 -5 -4 -11 -12 -11 -18 -1 -5 -2 -14 -3 -18 0 -4 -10
-8 -21 -8 -11 0 -20 4 -20 8 0 12 -238 10 -245 -2 -5 -8 -11 -7 -21 1 -16 13
-19 44 -4 34 6 -3 13 1 16 9 4 10 18 16 35 16 16 0 29 3 30 8 7 44 5 75 -6 85
-6 7 -9 21 -5 32 4 10 4 33 0 49 l-6 31 -93 3 c-52 2 -90 -1 -87 -6 3 -5 -3
-18 -12 -28 -20 -21 -72 -138 -72 -160 0 -12 43 -20 86 -15 7 1 14 -6 18 -14
4 -12 1 -15 -13 -10 -14 4 -18 1 -17 -11 1 -14 -13 -16 -111 -15 -62 1 -121
-2 -131 -8 -17 -9 -19 -6 -19 25 0 33 2 34 38 34 36 0 39 3 50 39 7 24 16 38
24 35 7 -3 17 8 23 25 6 17 16 31 23 31 6 0 9 7 6 15 -4 8 -1 17 5 21 7 5 8 2
3 -6 -5 -8 -4 -11 3 -6 6 4 9 13 6 21 -4 8 -10 12 -15 9 -9 -5 -1 24 11 41 5
6 10 19 13 30 4 19 5 18 6 -2 0 -12 -3 -25 -9 -28 -5 -3 -10 -10 -10 -16 0
-19 36 14 38 34 0 12 8 27 17 33 9 7 17 21 18 33 1 11 7 23 13 25 7 3 29 40
50 83 21 43 41 80 46 81 15 7 8 24 -7 18 -8 -3 -15 -1 -15 4 0 6 9 10 21 10
15 0 19 5 15 15 -3 9 1 18 9 21 8 4 15 14 15 23 0 26 11 32 50 29 30 -3 35 -7
38 -30z m1248 -56 c11 -31 11 -34 0 -19 -12 16 -14 16 -20 1 -3 -9 -4 -20 0
-25 3 -5 1 -9 -4 -9 -5 0 -9 -6 -9 -12 -1 -7 -4 -28 -8 -46 l-8 -32 60 4 c67
4 100 -7 71 -25 -10 -5 -18 -17 -18 -25 0 -10 -7 -13 -22 -9 -13 3 -41 2 -63
-3 -38 -8 -40 -10 -39 -46 1 -21 -2 -33 -6 -26 -5 8 -11 -4 -15 -31 -5 -27 -4
-44 3 -47 5 -1 7 -13 4 -24 -5 -21 -6 -21 -13 -2 -6 14 -8 8 -8 -21 -1 -22 -4
-49 -6 -60 -3 -11 -1 -27 5 -35 9 -13 11 -13 20 0 5 8 10 11 10 7 0 -5 12 5
26 22 41 49 67 37 45 -21 -9 -23 -44 -68 -53 -68 -3 0 -23 -8 -44 -17 -22 -9
-43 -16 -48 -14 -5 1 -6 -8 -3 -19 5 -20 4 -21 -12 -6 -10 9 -20 13 -24 10
-13 -13 -22 62 -16 125 4 36 6 79 4 96 -1 16 0 21 2 10 4 -14 41 126 43 163 0
1 -16 2 -35 0 -36 -2 -72 20 -47 29 7 3 19 11 26 19 8 8 24 14 35 14 25 0 38
23 47 81 7 43 28 68 79 95 25 13 26 12 41 -34z m-2540 -131 c-4 -5 -2 -11 4
-13 6 -2 7 -14 1 -35 -7 -25 -6 -35 6 -45 13 -10 18 -9 33 10 10 12 24 22 30
22 7 0 10 7 7 14 -4 10 -1 13 9 9 7 -3 14 0 14 7 0 6 6 10 13 7 6 -2 21 1 32
7 22 12 95 17 93 7 -4 -39 4 -61 25 -62 20 -1 20 -2 2 -6 -36 -9 -49 -58 -17
-66 13 -4 11 -5 -5 -6 -18 -1 -23 -7 -23 -29 0 -15 6 -34 13 -41 10 -11 9 -13
-5 -8 -14 5 -18 1 -20 -16 -2 -41 -3 -46 -11 -53 -4 -4 -7 -12 -7 -18 0 -6 7
-2 15 8 8 10 12 22 10 27 -3 4 -1 10 4 14 15 9 4 -35 -14 -55 -20 -22 -20 -51
0 -44 8 4 15 12 15 20 0 8 3 13 8 13 19 -3 25 2 12 11 -8 5 -10 10 -4 10 35 0
37 -82 3 -101 -11 -5 -19 -17 -19 -25 0 -8 -5 -12 -10 -9 -14 9 -70 -17 -70
-31 0 -7 -13 -14 -30 -16 -19 -3 -30 0 -30 7 0 8 11 11 28 8 23 -3 24 -2 7 6
-23 10 -39 28 -49 55 -5 14 -2 17 9 12 10 -3 13 -2 10 5 -4 5 -1 17 6 25 10
13 10 17 -2 25 -12 8 -11 11 4 20 12 7 17 20 16 37 -2 15 1 33 5 41 6 9 5 12
-1 8 -6 -4 -13 6 -17 23 -3 17 -10 30 -16 30 -13 0 -13 -17 0 -25 6 -3 10 -14
9 -23 0 -13 -2 -12 -9 4 -5 12 -14 25 -21 30 -9 5 -10 2 -6 -10 5 -11 3 -16
-5 -14 -6 2 -13 15 -15 29 -2 14 0 19 5 12 4 -7 13 -9 20 -4 10 6 10 10 -2 20
-11 10 -19 4 -43 -31 -31 -47 -51 -91 -56 -125 -2 -12 -6 -26 -10 -29 -4 -4
-7 -26 -7 -48 0 -31 -5 -44 -21 -54 -12 -8 -18 -9 -14 -3 3 6 1 11 -4 11 -6 0
-11 -5 -11 -11 0 -5 -4 -8 -9 -4 -5 3 -12 1 -15 -4 -12 -18 15 -22 46 -7 17 9
33 14 36 11 3 -2 -3 -7 -12 -11 -9 -3 -14 -10 -11 -14 9 -14 -26 -20 -47 -9
-16 8 -23 8 -29 -2 -5 -9 -7 11 -6 49 3 58 -5 82 -26 82 -5 0 -7 -9 -4 -20 3
-11 1 -20 -4 -20 -11 0 -11 31 0 49 5 8 16 11 28 7 16 -5 21 -1 26 22 3 15 3
47 0 70 -5 40 8 59 21 30 3 -7 4 1 3 17 -1 17 -9 33 -17 37 -11 5 -8 7 9 7 20
1 21 3 11 16 -9 10 -9 15 -1 15 6 0 10 10 10 23 -1 16 -2 18 -6 5 -2 -10 -11
-18 -18 -18 -7 0 -15 -5 -17 -11 -2 -5 -11 -7 -20 -4 -14 6 -14 10 -3 32 8 15
12 31 8 35 -3 5 4 12 16 15 12 3 21 9 21 14 0 5 12 15 28 23 15 8 23 16 17 17
-5 1 4 5 20 9 43 11 57 11 51 1z m534 1 c0 -4 15 -6 33 -4 70 8 109 -79 63
-141 -21 -28 -21 -29 -2 -43 15 -10 16 -14 5 -14 -8 0 -20 5 -25 10 -14 14
-68 -5 -59 -20 4 -7 12 -7 25 0 27 14 34 12 19 -6 -11 -13 -9 -14 17 -9 24 5
26 4 11 -5 -9 -6 -15 -15 -12 -21 4 -5 -6 -9 -22 -8 -23 0 -25 2 -9 8 18 7 18
8 2 14 -10 4 -23 4 -28 0 -6 -3 -8 -1 -5 4 4 6 0 14 -9 17 -10 4 -13 2 -8 -6
5 -8 2 -9 -9 -5 -9 3 -22 0 -29 -7 -7 -7 -19 -11 -26 -8 -17 5 -15 -9 5 -38
16 -24 16 -24 0 -11 -20 16 -23 2 -4 -19 10 -12 9 -12 -5 -1 -10 7 -16 23 -15
34 1 14 -4 22 -13 22 -23 0 -16 -83 10 -107 20 -18 90 -26 90 -9 0 5 9 11 21
14 12 3 18 10 14 16 -3 7 0 8 9 5 10 -4 16 -1 16 9 0 23 15 28 45 17 27 -10
27 -11 8 -28 -11 -9 -26 -31 -33 -49 -10 -22 -25 -35 -52 -44 -20 -6 -35 -15
-33 -20 10 -15 -61 -30 -90 -19 -22 8 -30 8 -37 -2 -5 -8 -8 -9 -8 -2 0 7 -9
14 -20 17 -13 3 -22 17 -26 36 -7 31 -7 31 -33 15 l-26 -17 23 25 c17 19 20
27 10 31 -8 4 -9 8 -3 14 6 4 10 29 10 56 0 38 -3 47 -17 47 -10 0 -18 -6 -19
-12 0 -10 -2 -10 -6 0 -2 6 -12 12 -20 12 -9 0 -13 -6 -9 -15 3 -8 1 -15 -4
-15 -6 0 -10 6 -10 14 0 8 -6 17 -12 20 -9 4 -8 5 2 5 8 -1 34 -1 58 0 38 1
42 3 33 19 -6 11 -6 24 0 33 7 11 9 10 9 -5 0 -11 3 -17 6 -13 10 9 -7 48 -18
41 -6 -4 -6 0 1 13 6 11 8 23 5 26 -3 3 8 8 25 12 17 4 31 13 31 21 0 8 7 14
16 14 10 0 14 5 10 16 -3 8 -2 13 3 10 4 -3 25 4 47 14 21 11 44 20 51 20 7 0
10 7 7 15 -4 8 -1 15 5 15 6 0 11 -4 11 -8z m1159 -41 c-5 -13 -10 -47 -12
-76 -1 -29 -5 -52 -8 -50 -3 2 -10 -29 -16 -68 -12 -77 -16 -137 -9 -137 14 0
36 14 36 22 0 5 -4 6 -10 3 -5 -3 -10 -1 -10 5 0 7 6 10 14 7 29 -11 126 112
126 158 0 8 4 15 9 15 11 0 34 98 26 110 -7 12 32 36 72 45 33 6 56 -11 33
-25 -8 -5 -9 -16 -5 -30 5 -17 4 -21 -6 -15 -9 6 -11 2 -7 -13 4 -12 2 -22 -4
-22 -6 0 -8 -13 -6 -29 3 -18 0 -28 -5 -24 -6 4 -8 -10 -4 -37 4 -29 2 -39 -4
-29 -7 11 -9 10 -10 -6 -1 -11 -3 -45 -5 -75 l-3 -55 29 33 c16 17 37 32 45
32 18 0 20 -16 3 -23 -7 -3 -4 -6 8 -6 11 -1 25 4 30 9 15 15 44 1 44 -20 0
-38 71 -71 108 -51 12 6 23 20 27 31 8 24 -11 60 -30 60 -8 0 -15 5 -15 11 0
6 -7 8 -17 5 -10 -4 -14 -4 -10 0 10 11 -13 34 -34 34 -10 0 -21 5 -25 12 -4
7 -3 8 4 4 7 -4 12 -3 12 2 0 5 -9 12 -20 15 -11 3 -20 11 -19 19 0 10 2 10 6
1 2 -7 9 -13 15 -13 11 0 1 39 -14 55 -6 6 -7 3 -2 -10 4 -11 4 -17 0 -14 -4
4 -9 24 -11 45 -2 22 -1 31 2 22 2 -10 8 -18 13 -18 4 0 6 10 2 22 -4 16 -2
19 8 13 8 -5 11 -4 7 2 -8 12 37 55 80 77 32 16 107 21 137 10 24 -9 20 -57
-8 -83 l-24 -22 -25 25 c-42 42 -97 30 -97 -20 0 -24 56 -84 78 -84 6 0 12 -4
12 -9 0 -5 9 -12 19 -16 10 -3 22 -16 25 -28 5 -18 8 -19 15 -8 6 10 8 1 4
-27 -4 -28 -2 -42 6 -42 6 0 11 -7 11 -15 0 -8 -6 -12 -14 -9 -15 6 -32 -29
-22 -45 3 -4 -22 -21 -57 -37 -47 -22 -77 -29 -124 -29 -33 0 -59 -3 -57 -7 3
-4 -2 -5 -10 -2 -9 3 -14 10 -11 14 3 4 -2 13 -10 20 -10 9 -12 16 -5 24 6 8
6 23 0 42 l-10 29 4 -28 c2 -15 -1 -30 -5 -33 -5 -3 -9 0 -9 7 0 7 -8 5 -19
-7 -10 -10 -16 -24 -14 -30 2 -7 -1 -15 -8 -20 -8 -4 -10 -3 -5 4 10 16 -14
14 -44 -3 -14 -8 -38 -14 -53 -15 l-29 0 4 63 c2 34 8 71 13 82 5 13 1 11 -14
-7 -12 -15 -19 -32 -16 -38 4 -6 3 -9 -2 -8 -16 5 -90 -66 -88 -84 2 -9 -3
-19 -10 -22 -9 -3 -12 2 -10 15 4 21 3 22 -19 13 -9 -3 -14 -10 -11 -14 3 -4
-2 -11 -11 -14 -8 -3 -13 -2 -10 3 3 5 -10 11 -29 13 -25 3 -35 0 -38 -12 -2
-8 -3 22 -3 66 1 46 5 79 10 76 9 -5 3 37 -9 71 -5 12 -3 16 6 14 8 -2 11 -2
7 0 -13 8 -9 33 5 31 6 -2 11 5 11 15 -1 9 3 17 8 17 6 0 8 13 4 30 -3 19 -2
29 4 25 6 -3 10 1 10 10 0 9 -6 15 -12 12 -7 -2 -13 -18 -12 -36 0 -17 -2 -29
-5 -25 -3 3 -6 11 -6 17 0 7 -11 11 -23 9 -20 -2 -22 1 -17 19 5 13 2 25 -6
31 -12 8 -12 9 -1 6 8 -2 29 11 48 28 40 38 113 66 130 50 8 -7 9 -19 3 -35z
m1434 36 c3 -8 2 -43 -3 -78 -4 -35 -6 -66 -5 -67 7 -8 26 39 20 48 -3 5 1 7
9 4 9 -3 21 4 31 20 9 14 26 28 37 32 11 3 17 12 14 19 -3 9 0 12 10 8 8 -3
20 -1 27 5 6 5 31 12 54 16 l41 6 7 -40 c4 -21 4 -44 0 -50 -3 -5 0 -10 7 -10
10 0 10 -2 -1 -9 -9 -6 -11 -18 -7 -36 5 -18 3 -24 -4 -20 -7 4 -9 -2 -6 -19
3 -16 0 -26 -7 -27 -8 0 -7 -3 2 -6 10 -4 10 -7 1 -13 -13 -8 -30 -71 -29
-115 0 -27 1 -28 13 -12 7 9 18 17 24 17 6 0 12 5 14 12 8 23 30 -4 23 -29 -6
-27 -47 -73 -65 -73 -5 0 -10 -6 -10 -14 0 -8 -8 -14 -17 -14 -10 0 -30 -3
-45 -7 -32 -8 -31 -10 -32 87 -1 36 2 64 7 61 4 -2 7 3 7 12 0 10 -5 13 -12 9
-7 -4 -6 1 4 12 23 27 43 140 27 150 -12 7 -11 34 1 34 5 0 7 -7 4 -15 -4 -8
-2 -15 3 -15 5 0 9 9 10 20 1 13 -4 20 -16 20 -21 0 -61 -36 -61 -55 0 -8 -13
-22 -30 -32 -16 -9 -30 -21 -30 -26 0 -5 -7 -15 -16 -24 -8 -9 -13 -22 -10
-29 3 -8 0 -13 -6 -11 -6 1 -13 -4 -16 -12 -2 -8 0 -11 6 -7 6 3 14 1 18 -5 4
-7 3 -9 -3 -6 -17 10 -29 -13 -41 -77 -12 -61 -28 -90 -43 -80 -5 3 -9 0 -9
-6 0 -6 -4 -9 -9 -6 -5 3 -12 -2 -16 -12 -6 -15 -8 -14 -16 6 -5 13 -7 28 -3
33 3 5 -1 9 -8 9 -11 0 -11 2 0 8 7 5 14 30 15 55 1 26 7 47 12 47 6 0 2 5 -8
11 -14 8 -15 14 -6 30 6 11 8 27 5 35 -3 8 -1 14 4 14 6 0 10 8 10 18 0 13 2
14 9 4 6 -10 10 -7 13 12 3 14 0 27 -6 30 -7 3 -8 7 -1 13 14 11 18 43 5 43
-6 0 -14 -8 -18 -17 -4 -10 -17 -18 -28 -19 -56 -1 31 115 100 135 43 13 43
13 49 -2z m-3515 -8 c12 7 161 5 169 -3 2 -2 -5 -25 -15 -52 -22 -55 -40 -189
-23 -164 6 8 11 10 11 5 0 -6 12 -12 27 -13 14 -1 29 -5 32 -8 3 -3 -11 -4
-31 -1 -21 3 -38 1 -38 -5 0 -5 -5 -6 -12 -2 -8 5 -9 -3 -5 -30 3 -20 3 -34
-1 -32 -4 3 -9 -6 -10 -20 -1 -16 3 -24 14 -24 13 0 14 3 5 14 -10 12 -8 13
10 9 14 -4 20 -2 16 4 -5 7 0 9 13 6 11 -3 23 -9 26 -14 7 -12 -15 -51 -38
-68 -11 -7 -23 -24 -29 -38 -6 -18 -14 -23 -28 -18 -24 7 -53 -4 -44 -19 3 -6
-6 0 -21 14 -16 15 -25 18 -21 9 5 -13 0 -15 -27 -11 -31 5 -32 6 -11 15 26
11 38 38 23 47 -13 8 -2 40 13 40 6 0 8 3 4 6 -3 3 -2 17 3 30 14 37 3 29 -16
-12 -9 -19 -30 -48 -45 -64 -18 -17 -29 -39 -29 -56 0 -26 0 -27 -20 -9 -15
14 -20 15 -21 4 0 -9 -2 -10 -5 -3 -3 8 -19 10 -43 7 -34 -5 -41 -2 -56 20
-18 28 -31 182 -14 172 5 -4 9 1 9 10 0 9 -4 13 -10 10 -5 -3 -10 -1 -10 4 0
6 5 11 11 11 5 0 7 5 4 10 -3 6 -1 10 5 10 6 0 16 12 22 28 7 15 18 35 27 45
8 9 11 20 7 25 -4 4 -13 -1 -20 -11 -7 -9 -17 -17 -21 -17 -4 0 -2 6 4 14 6 7
10 20 8 27 -2 8 -2 11 0 7 9 -15 40 -8 59 13 10 12 34 28 52 36 17 7 32 18 32
23 0 5 7 7 15 4 12 -5 14 -2 8 12 -6 16 -4 17 8 7 8 -6 20 -8 27 -4z m3302
-10 c12 -22 9 -76 -6 -113 -5 -14 -4 -17 4 -12 7 4 12 2 12 -4 0 -7 -7 -9 -15
-6 -9 3 -18 -1 -22 -10 -3 -8 -11 -13 -18 -10 -16 6 -78 -32 -70 -43 3 -5 -4
-7 -15 -4 -11 3 -20 1 -20 -5 0 -6 -8 -8 -19 -5 -31 8 -54 -25 -46 -66 9 -46
20 -59 59 -66 38 -8 90 10 80 27 -4 7 -3 8 4 4 7 -4 24 4 39 18 15 15 30 26
33 26 3 0 5 -20 5 -44 0 -25 -2 -40 -6 -34 -4 7 -10 5 -15 -4 -13 -21 -93 -65
-134 -73 -19 -4 -40 -15 -47 -24 -11 -15 -12 -14 -13 2 0 19 -16 24 -22 6 -5
-15 -58 34 -58 54 0 11 -4 15 -12 11 -6 -4 -8 -3 -5 3 4 6 4 25 1 43 -5 23
-11 30 -23 26 -14 -5 -14 -4 1 7 22 17 38 124 17 112 -8 -4 -4 1 7 13 12 11
21 31 20 43 -1 28 55 89 106 117 21 10 36 21 33 23 -2 3 27 6 65 7 62 3 70 1
80 -19z m3749 -1224 c22 -4 43 -11 47 -16 3 -5 10 -7 15 -4 5 4 9 2 9 -2 0
-13 97 -46 115 -40 10 4 12 1 8 -10 -5 -13 -2 -15 15 -11 14 4 22 2 22 -7 0
-12 116 -75 145 -79 19 -3 172 -132 220 -186 6 -6 20 -23 33 -36 12 -14 22
-27 22 -30 0 -3 13 -16 29 -30 17 -14 33 -34 36 -44 4 -11 12 -20 18 -20 7 0
19 -10 27 -22 8 -12 33 -41 55 -64 22 -23 51 -56 65 -74 14 -18 36 -45 49 -61
12 -16 21 -35 18 -42 -3 -7 1 -24 9 -38 15 -27 19 -52 4 -29 -8 13 -10 12 -10
-2 0 -12 8 -18 23 -19 16 -1 18 -2 5 -6 -13 -3 -18 -15 -18 -44 0 -21 5 -39
10 -39 6 0 10 -5 10 -11 0 -6 -7 -8 -16 -5 -13 5 -15 2 -11 -15 3 -12 2 -29
-2 -38 -15 -28 -29 -101 -20 -101 5 0 9 -5 9 -11 0 -5 -4 -8 -9 -5 -5 3 -12
-1 -15 -10 -8 -22 -8 -61 2 -67 4 -2 2 -3 -4 -1 -14 3 -24 -40 -18 -81 3 -23
2 -25 -4 -11 -8 19 -9 19 -14 -2 -5 -16 -2 -22 10 -23 11 0 9 -3 -7 -10 -17
-7 -22 -15 -18 -29 4 -15 0 -20 -14 -20 -10 0 -18 -3 -18 -7 4 -23 -2 -43 -12
-43 -14 0 -38 -30 -39 -48 0 -7 -9 -23 -20 -35 l-20 -21 25 -13 c14 -8 25 -16
25 -18 0 -8 -94 -140 -113 -159 -12 -12 -17 -27 -14 -42 2 -13 0 -24 -4 -24
-5 0 -18 -8 -29 -17 -14 -13 -16 -19 -7 -25 8 -5 7 -8 -5 -8 -10 0 -18 -5 -18
-11 0 -5 5 -7 12 -3 7 4 8 3 4 -5 -4 -6 -11 -9 -15 -6 -5 2 -20 -13 -35 -35
-14 -22 -22 -40 -16 -40 5 0 9 -4 8 -8 -5 -15 37 -82 49 -78 12 5 28 -23 18
-32 -3 -3 -5 1 -5 8 0 7 -3 11 -6 8 -5 -6 62 -128 86 -155 6 -7 11 -16 11 -20
2 -10 9 -30 25 -72 8 -18 14 -44 14 -58 0 -14 4 -21 10 -18 6 3 10 1 10 -4 0
-6 -4 -11 -10 -11 -5 0 -10 -19 -9 -42 1 -38 2 -40 10 -18 6 18 7 13 3 -20 -4
-35 -3 -42 6 -30 8 10 10 11 8 2 -2 -8 -8 -13 -13 -12 -5 1 -13 -7 -17 -17 -5
-11 -6 -5 -3 17 l4 35 -14 -40 c-7 -22 -13 -53 -13 -70 l0 -30 9 30 c6 23 7
19 4 -19 -3 -32 -12 -56 -25 -68 -11 -10 -20 -25 -20 -33 0 -7 -3 -21 -7 -31
-5 -13 -3 -15 8 -10 8 5 8 2 -2 -6 -21 -17 -52 -78 -40 -78 5 0 14 14 20 30 5
17 12 30 15 30 3 0 -2 -18 -11 -41 -9 -24 -12 -44 -7 -47 5 -4 15 -20 22 -35
7 -15 17 -25 22 -22 6 4 7 -1 3 -11 -5 -13 -3 -15 7 -9 9 5 11 4 6 -4 -11 -17
4 -53 20 -47 7 3 16 1 19 -4 4 -6 1 -10 -6 -10 -7 0 -5 -8 7 -21 16 -17 16
-22 4 -29 -11 -7 -12 -10 -2 -10 7 0 11 -4 7 -9 -3 -6 3 -14 12 -20 16 -9 16
-12 3 -22 -11 -8 -12 -12 -2 -16 6 -2 12 -14 12 -26 0 -37 12 -67 23 -60 6 4
8 0 4 -11 -4 -9 -3 -15 2 -12 4 3 15 -13 24 -35 13 -34 14 -39 2 -29 -12 10
-15 9 -15 -4 0 -9 4 -16 9 -16 4 0 6 -11 3 -25 -3 -18 2 -31 14 -41 11 -9 13
-13 7 -9 -14 7 -18 -26 -6 -39 9 -9 11 -32 14 -258 3 -170 5 -188 21 -194 10
-3 23 -2 29 2 8 5 9 3 4 -5 -4 -8 -17 -10 -32 -6 -34 8 -27 -25 9 -43 21 -11
24 -17 15 -27 -10 -11 -14 -10 -21 6 -18 39 -24 16 -25 -91 0 -60 -2 -114 -6
-119 -3 -5 3 -15 12 -21 17 -11 17 -11 1 -6 -14 4 -18 -1 -18 -24 0 -17 4 -30
9 -30 4 0 6 -12 3 -27 -5 -24 -6 -25 -12 -8 -5 12 -9 -12 -11 -61 -4 -73 -2
-82 13 -79 11 2 15 -1 12 -10 -3 -8 -13 -11 -21 -8 -14 6 -15 -1 -10 -50 3
-32 2 -55 -3 -52 -4 3 -10 -19 -12 -48 -2 -28 0 -54 5 -56 5 -2 5 -6 -1 -10
-16 -9 -19 -87 -3 -83 7 1 10 -2 6 -8 -3 -6 -11 -8 -16 -5 -13 9 -11 -29 2
-42 12 -12 3 -37 -10 -29 -11 7 -11 -77 1 -91 8 -10 7 -13 -4 -13 -20 0 -33
-111 -15 -122 8 -5 6 -8 -7 -8 -15 0 -16 -3 -7 -14 8 -10 9 -15 1 -18 -6 -2
-12 -29 -13 -61 -1 -31 -6 -57 -12 -57 -7 0 -7 -3 0 -8 6 -4 11 -18 13 -32 1
-19 0 -21 -7 -10 -15 22 -18 12 -25 -65 -4 -38 -11 -85 -16 -105 -16 -61 -17
-135 -2 -132 8 1 11 -2 7 -7 -3 -6 -12 -8 -19 -5 -15 6 -29 -46 -20 -71 8 -20
-4 -67 -15 -61 -5 3 -11 -7 -14 -23 -3 -16 -9 -40 -12 -54 -5 -19 -2 -26 12
-30 15 -4 14 -5 -4 -6 -13 0 -23 -6 -23 -12 0 -5 4 -8 9 -4 5 3 12 1 16 -5 3
-5 -1 -10 -10 -10 -8 0 -20 -12 -25 -26 -12 -32 -13 -47 -1 -40 5 4 7 -3 4
-15 -5 -16 -8 -18 -15 -7 -7 9 -8 7 -5 -9 3 -12 -1 -27 -9 -34 -8 -6 -14 -30
-14 -53 0 -23 -4 -46 -9 -51 -5 -6 -19 -55 -30 -110 -12 -55 -26 -115 -31
-134 -5 -19 -7 -38 -4 -43 3 -4 1 -8 -5 -8 -5 0 -9 -18 -9 -40 0 -22 -5 -47
-12 -55 -6 -8 -9 -23 -5 -35 4 -13 1 -22 -9 -26 -9 -3 -15 -16 -15 -27 1 -43
-14 -107 -25 -108 -6 0 -2 -4 9 -9 11 -5 14 -9 7 -9 -7 -1 -10 -6 -7 -11 3 -6
0 -13 -8 -16 -9 -3 -15 -21 -16 -45 -3 -64 -5 -78 -11 -74 -7 4 -28 -90 -32
-140 -2 -16 -6 -32 -9 -35 -4 -3 -9 -22 -12 -42 -4 -31 -2 -38 12 -38 13 0 14
-2 1 -9 -8 -6 -18 -7 -22 -5 -4 3 -8 -4 -8 -15 0 -11 4 -23 10 -26 6 -3 7 1 4
9 -4 11 0 16 12 16 16 0 17 -2 4 -10 -11 -7 -11 -10 -2 -10 10 0 10 -3 0 -14
-9 -10 -15 -10 -20 -3 -11 18 -17 5 -20 -43 -2 -25 -7 -48 -13 -52 -5 -4 -10
-32 -10 -62 0 -30 -3 -52 -7 -50 -10 6 -21 -61 -15 -91 2 -14 2 -23 -2 -19 -3
3 -13 -32 -21 -78 -11 -56 -12 -85 -5 -90 6 -5 6 -8 -2 -8 -7 0 -13 -5 -13
-11 0 -5 6 -7 13 -3 8 5 8 2 -2 -9 -12 -15 -11 -17 2 -17 9 0 18 -4 21 -9 4
-5 -3 -7 -14 -4 -18 5 -20 0 -21 -63 -1 -38 -1 -82 -1 -99 0 -16 1 -97 2 -180
1 -97 6 -155 13 -164 8 -10 9 -13 1 -8 -7 4 -11 -3 -11 -19 0 -21 3 -25 21
-20 19 5 19 4 4 -8 -16 -12 -17 -25 -9 -127 4 -63 11 -122 15 -131 9 -21 -13
-24 -45 -7 -15 8 -24 7 -35 -2 -12 -10 -17 -10 -27 0 -9 10 -8 11 7 5 14 -5
17 -4 12 5 -12 19 -29 8 -32 -23 -2 -20 0 -25 9 -18 9 8 12 3 13 -16 1 -15 -1
-21 -3 -14 -3 6 -9 12 -14 12 -6 0 -7 -4 -4 -10 3 -5 0 -10 -7 -10 -10 0 -10
-2 1 -9 10 -6 10 -10 1 -16 -9 -6 -9 -10 1 -16 8 -5 10 -9 4 -9 -14 0 -7 -173
8 -182 9 -6 9 -8 0 -8 -8 0 -9 -9 -4 -28 5 -15 13 -26 19 -25 6 2 9 -4 6 -12
-3 -8 9 -29 29 -50 18 -19 64 -69 102 -110 37 -41 73 -75 80 -75 8 0 17 -9 20
-20 3 -11 11 -20 17 -20 5 0 28 -16 51 -35 41 -36 63 -45 52 -22 -4 6 7 -4 24
-23 37 -43 38 -50 6 -50 -15 0 -24 -5 -23 -12 2 -9 -18 -14 -69 -16 -42 -2
-73 -7 -73 -13 0 -6 12 -9 28 -7 17 2 26 -2 24 -10 -1 -6 5 -12 14 -12 11 0
14 6 10 18 -5 15 -5 15 6 1 7 -9 21 -15 31 -13 9 1 17 -2 17 -7 0 -4 8 -6 18
-3 15 5 15 4 1 -5 -9 -6 -33 -9 -53 -7 -20 1 -46 -4 -56 -11 -16 -11 -20 -12
-21 -1 0 10 -2 10 -6 1 -2 -7 -9 -13 -14 -13 -6 0 -7 6 -4 13 4 6 1 5 -7 -4
-7 -9 -21 -16 -31 -16 -9 0 -14 3 -11 6 3 3 11 6 17 6 5 0 12 6 15 14 3 10 0
12 -14 7 -10 -4 -15 -4 -12 0 4 4 3 15 -3 25 -7 15 -6 21 6 25 23 9 30 -3 14
-23 -12 -17 -12 -17 5 -1 23 20 15 51 -10 41 -12 -4 -15 -3 -10 5 5 8 -1 12
-16 12 -21 -1 -22 -2 -6 -14 20 -14 14 -28 -8 -19 -8 3 -14 14 -14 24 0 10 -5
19 -11 19 -5 0 -8 -4 -5 -9 3 -4 -6 -6 -19 -3 -18 3 -25 0 -25 -11 0 -17 40
-31 40 -14 0 7 7 4 14 -5 7 -10 19 -18 26 -18 7 0 11 -3 7 -6 -7 -8 -107 -11
-107 -4 0 3 5 11 12 18 9 9 9 12 -1 12 -7 0 -10 4 -6 9 3 5 0 13 -6 17 -7 4
-9 3 -6 -3 4 -6 0 -13 -7 -16 -8 -3 -17 -1 -19 6 -3 9 -9 8 -23 -3 -10 -8 -16
-10 -11 -5 4 4 -5 17 -20 26 -26 17 -28 17 -47 1 -14 -11 -17 -12 -9 -2 12 16
6 70 -8 70 -5 0 -9 -7 -9 -15 0 -9 -6 -12 -15 -9 -22 9 -18 19 13 30 l27 10
-48 23 c-26 13 -54 20 -62 17 -9 -3 -15 0 -15 8 0 19 -25 27 -40 13 -9 -8 -11
-9 -7 -1 4 7 -5 13 -23 16 -17 3 -30 1 -30 -4 0 -5 -5 -6 -10 -3 -18 11 0 25
26 21 13 -3 24 -3 24 0 0 10 -40 43 -59 49 -12 3 -19 11 -16 16 4 5 -4 9 -16
9 -18 0 -19 2 -9 15 10 12 10 15 -1 15 -8 0 -5 8 8 23 21 22 29 41 37 90 3 19
-1 33 -17 48 -19 18 -20 22 -7 32 11 9 14 29 12 85 -3 68 -15 93 -25 55 -4
-14 -5 -12 -6 5 0 12 4 22 9 22 6 0 10 4 10 9 0 6 -13 6 -32 0 -18 -5 -63 -9
-99 -8 -36 1 -72 -1 -79 -6 -7 -4 -16 -2 -20 5 -5 7 -29 13 -58 14 -27 1 -48
4 -46 7 2 4 -14 11 -36 17 -29 7 -40 7 -40 -2 0 -6 -7 -3 -14 7 -9 12 -16 14
-21 8 -10 -18 -38 -13 -31 5 4 12 1 14 -14 9 -25 -8 -40 16 -78 125 -17 47
-49 135 -72 195 -24 61 -53 139 -67 175 -13 36 -39 103 -57 150 -18 47 -39
103 -46 125 -7 22 -16 42 -19 45 -6 5 -10 14 -76 190 -23 63 -82 219 -130 345
-93 246 -128 337 -180 480 -19 50 -95 252 -170 450 -136 357 -158 422 -149
436 2 4 0 10 -6 14 -5 3 -10 11 -10 18 0 6 7 2 15 -9 15 -19 15 -19 30 0 8 11
15 29 14 40 0 15 -4 11 -14 -14 -11 -26 -13 -29 -11 -10 2 14 10 42 20 62 9
21 16 45 16 55 1 17 1 17 11 -1 7 -11 8 -21 2 -25 -15 -10 -25 -43 -11 -39 6
2 18 23 26 46 7 23 18 42 23 42 6 0 5 9 -1 21 -6 11 -9 25 -6 32 2 7 5 4 5 -5
1 -10 6 -18 12 -18 7 0 8 7 4 18 -15 37 -17 52 -5 52 7 0 10 -6 7 -14 -3 -8
-3 -16 0 -19 6 -7 53 78 53 95 0 6 7 16 15 22 8 6 16 20 18 32 1 12 11 34 21
50 11 15 19 44 19 64 0 19 2 27 4 17 4 -15 8 -12 23 15 10 18 16 36 13 41 -2
4 1 7 6 7 6 0 11 7 11 16 0 14 -3 14 -15 4 -22 -18 -18 -3 5 20 11 11 20 28
21 38 0 14 2 14 8 -3 7 -18 11 -14 31 25 29 56 42 100 29 100 -5 0 -9 -7 -9
-15 0 -8 -6 -15 -14 -15 -9 0 -12 7 -9 20 3 11 12 20 21 20 8 0 21 8 28 18 13
16 14 16 8 -3 -4 -11 7 0 24 25 18 25 32 51 32 59 0 7 6 11 15 7 9 -3 15 0 15
9 0 8 9 24 20 35 11 11 20 24 20 29 0 5 7 14 15 21 8 7 12 17 8 23 -4 6 0 8 9
5 10 -4 24 9 44 43 16 27 32 49 37 49 4 0 7 5 7 11 0 6 24 34 53 63 68 67 107
113 107 126 0 5 7 10 16 10 11 0 14 5 10 16 -3 9 -6 20 -6 25 0 4 -6 6 -13 3
-20 -7 -38 18 -27 36 8 13 10 12 10 -2 0 -10 4 -18 10 -18 5 0 9 5 7 11 -1 6
4 14 11 16 8 3 10 -2 6 -14 -5 -16 -4 -16 10 1 14 17 21 52 17 79 0 4 4 7 9 7
6 0 10 7 10 16 0 10 -6 14 -15 10 -18 -7 -18 -4 -3 29 6 14 17 25 25 25 17 0
17 30 1 31 -7 0 -4 4 7 9 11 5 14 9 8 9 -7 1 -13 11 -12 24 0 12 3 16 6 9 6
-15 23 -6 23 13 0 9 -6 12 -16 8 -14 -5 -15 -3 -5 15 7 12 17 22 24 23 9 0 9
2 -1 6 -6 2 -10 9 -7 13 3 5 12 7 19 4 8 -3 16 4 19 15 3 12 1 21 -4 21 -5 0
-9 -4 -9 -9 0 -5 -10 -11 -21 -14 l-21 -6 21 20 c23 21 29 45 9 33 -7 -4 -5 2
5 13 9 11 14 23 10 28 -5 4 0 5 10 2 18 -7 24 8 7 18 -6 4 -7 11 -4 17 4 7 9
6 14 -2 17 -27 20 42 4 78 -27 58 -27 58 -5 32 11 -14 21 -32 21 -40 1 -9 5
-6 10 7 6 15 4 32 -7 53 -14 29 -14 33 1 48 16 16 17 15 11 -9 -4 -16 -2 -30
4 -33 7 -5 11 7 11 32 0 26 5 42 14 45 8 3 18 22 22 41 3 20 11 36 16 36 6 0
8 7 4 15 -3 8 -1 15 4 15 17 0 11 28 -7 33 -14 4 -14 5 3 6 23 1 60 63 49 81
-3 6 -1 10 5 10 7 0 9 8 4 22 -6 21 -5 22 11 8 17 -14 18 -13 12 3 -4 11 -10
31 -13 45 l-5 27 14 -24 15 -25 7 32 c3 18 11 32 17 32 6 0 8 9 5 20 -3 10 -2
20 2 22 3 2 18 27 33 55 22 43 25 58 18 84 -7 25 -5 37 9 58 24 34 33 61 21
61 -6 0 -10 5 -10 11 0 5 5 7 10 4 10 -6 14 10 12 60 l-1 30 8 -27 c5 -16 5
-45 0 -69 -6 -23 -8 -47 -5 -53 2 -6 5 -3 5 7 1 10 8 29 17 43 14 20 15 30 6
49 -7 15 -8 25 -2 25 6 0 10 -8 10 -17 0 -13 3 -14 12 -5 10 10 7 16 -10 28
-13 9 -32 25 -43 37 -11 12 -34 27 -52 33 -24 8 -33 18 -35 37 -2 15 -11 29
-23 32 -11 4 -18 13 -17 20 2 8 -1 14 -7 14 -10 1 -11 -3 -14 -38 0 -11 -8
-27 -17 -35 -8 -9 -19 -28 -24 -43 -4 -16 -11 -36 -15 -46 -6 -14 -4 -16 11
-10 12 4 15 3 10 -5 -4 -7 -14 -12 -21 -12 -18 0 -44 -50 -37 -69 3 -8 0 -11
-6 -7 -7 4 -14 -4 -17 -21 -4 -15 -14 -52 -24 -80 -11 -29 -15 -53 -11 -53 5
0 10 8 12 18 3 16 4 16 11 -1 5 -14 2 -20 -13 -24 -30 -8 -24 -21 8 -17 15 2
19 1 10 -2 -10 -3 -18 -12 -18 -19 0 -8 -5 -17 -12 -21 -8 -5 -9 -2 -5 9 4 11
1 17 -7 17 -10 0 -64 -90 -58 -98 1 -1 -7 -12 -18 -25 -13 -13 -20 -31 -17
-44 2 -12 1 -20 -4 -18 -4 3 -10 -9 -14 -27 -4 -18 -9 -41 -11 -50 -4 -14 -1
-16 13 -12 16 6 15 5 -2 -9 -11 -9 -16 -17 -11 -17 5 0 3 -7 -4 -15 -7 -9 -9
-27 -5 -47 4 -21 3 -28 -3 -20 -6 10 -11 1 -16 -29 -4 -23 -13 -47 -22 -53 -8
-6 -15 -26 -17 -43 -2 -33 -10 -42 -22 -24 -3 5 -1 12 5 16 5 3 10 14 10 23
-1 10 -9 2 -20 -18 l-18 -35 31 -6 c31 -6 31 -6 -8 -9 -35 -2 -37 -3 -15 -10
l25 -8 -25 -1 c-21 -1 -31 -12 -53 -57 -15 -30 -22 -53 -15 -49 7 4 4 -1 -7
-10 -14 -12 -16 -19 -7 -22 6 -3 10 -9 6 -14 -3 -5 0 -9 6 -9 6 0 8 -5 5 -11
-5 -6 -12 -4 -21 8 -11 15 -14 15 -15 3 -1 -8 -1 -21 0 -29 2 -7 -2 -10 -7 -7
-6 3 -15 -8 -21 -26 -15 -41 -13 -47 4 -24 22 29 18 9 -4 -22 -10 -15 -21 -34
-24 -42 -4 -11 -6 -10 -6 4 -1 11 -19 -16 -41 -59 -22 -44 -38 -86 -35 -93 3
-8 -3 -16 -15 -19 -18 -5 -24 -15 -21 -35 0 -5 -4 -8 -10 -8 -16 0 -63 -60
-72 -93 -6 -20 -13 -27 -23 -23 -8 3 -17 -1 -20 -9 -4 -8 -12 -15 -19 -15 -16
0 -26 -25 -19 -47 5 -15 4 -15 -5 -3 -8 12 -15 9 -41 -19 -16 -19 -30 -38 -30
-42 0 -4 -15 -22 -33 -40 -19 -19 -38 -42 -43 -51 -7 -12 -33 -20 -99 -28
-108 -13 -145 -26 -145 -50 0 -10 -18 -34 -41 -54 -33 -30 -38 -40 -28 -52 9
-11 9 -14 -1 -14 -7 0 -10 -7 -6 -16 4 -9 1 -23 -5 -30 -6 -7 -8 -17 -5 -22 3
-5 -6 -7 -20 -4 -14 2 -24 1 -23 -4 2 -5 -3 -27 -9 -48 -6 -22 -9 -43 -6 -47
2 -4 -1 -11 -6 -14 -6 -4 -16 -19 -21 -33 l-11 -27 -17 35 c-15 31 -21 35 -51
32 -51 -4 -63 -25 -38 -68 l21 -35 -29 -30 c-18 -18 -30 -25 -35 -18 -5 8 -8
8 -13 0 -5 -8 -13 -8 -27 -1 -11 6 -25 8 -31 4 -6 -4 -8 -3 -4 4 3 5 -5 24
-19 40 -22 26 -25 40 -25 99 1 37 1 80 0 94 0 17 11 38 31 57 20 20 28 35 23
44 -9 15 24 -7 42 -29 7 -8 44 -16 91 -20 l80 -5 13 31 c11 27 10 34 -4 50
-16 18 -14 22 54 92 38 40 69 78 67 84 -6 18 -95 8 -126 -14 -37 -27 -59 -26
-88 1 -22 20 -24 21 -55 5 -18 -9 -46 -20 -63 -25 -17 -5 -32 -17 -34 -27 -2
-10 -9 -25 -17 -33 -8 -7 -12 -18 -8 -23 3 -5 0 -8 -7 -7 -8 2 -15 -11 -19
-32 -3 -19 -11 -35 -18 -35 -17 0 -32 -25 -25 -42 3 -7 -2 -16 -11 -19 -9 -3
-16 -12 -16 -20 0 -7 -9 -18 -19 -24 -35 -18 -35 9 -2 42 17 17 29 33 27 36
-3 2 4 16 14 30 11 13 20 33 20 44 0 10 10 34 23 53 16 24 22 44 19 65 -6 42
-19 38 -14 -5 4 -30 1 -36 -22 -45 -25 -9 -30 -18 -27 -51 1 -9 -9 -25 -22
-36 -13 -10 -27 -30 -30 -45 -9 -36 -33 -44 -31 -9 2 37 3 38 17 53 6 7 21 31
31 53 19 39 22 47 25 63 0 5 15 29 32 55 17 26 28 51 25 56 -8 12 4 42 13 37
13 -8 30 9 34 33 2 13 11 30 21 36 10 8 13 16 8 19 -16 9 -42 -4 -44 -23 0 -9
-2 -22 -2 -29 -2 -17 -26 -31 -42 -25 -7 2 -10 11 -7 19 3 8 -1 14 -10 14 -28
0 -29 -20 -2 -32 20 -9 24 -16 18 -32 -4 -12 -7 -29 -7 -38 0 -10 -6 -18 -14
-18 -7 0 -10 -4 -7 -10 3 -5 1 -10 -4 -10 -6 0 -11 -7 -11 -15 0 -20 -31 -55
-43 -48 -5 3 -7 -7 -5 -23 1 -15 -2 -29 -8 -31 -15 -5 -12 56 4 85 7 12 10 22
6 22 -3 0 -1 7 6 15 7 8 9 15 4 15 -5 0 -1 5 9 11 21 12 22 29 2 29 -8 0 -18
-12 -21 -27 -8 -31 -33 -63 -50 -63 -20 0 -25 32 -9 50 10 11 12 21 7 24 -6 3
-13 -1 -16 -10 -3 -8 -10 -12 -16 -9 -5 3 -10 1 -10 -5 0 -6 -6 -8 -12 -4 -7
4 -10 4 -6 -1 4 -4 2 -15 -5 -23 -9 -13 -9 -14 1 -8 8 5 12 -1 12 -20 0 -23 2
-25 15 -14 12 10 13 15 4 20 -7 5 -7 10 -2 13 6 4 15 -5 22 -19 15 -33 14 -40
-5 -59 -13 -13 -19 -13 -32 -3 -13 11 -14 11 -7 -2 12 -19 13 -40 3 -62 -5 -9
-4 -19 0 -22 13 -8 36 40 28 59 -3 10 -2 14 5 9 31 -19 25 -109 -7 -97 -10 4
-12 0 -8 -11 3 -9 2 -16 -2 -16 -5 0 -9 -11 -9 -25 0 -23 3 -27 21 -24 4 0 11
-5 16 -13 5 -8 6 1 2 25 -4 26 -3 37 6 37 7 0 10 -7 7 -14 -4 -9 -1 -13 6 -10
8 3 12 -7 12 -28 0 -32 -33 -76 -117 -159 -16 -15 -28 -30 -28 -34 0 -6 -16
-28 -60 -82 -6 -7 -10 -15 -10 -19 0 -19 -34 -73 -43 -67 -6 4 -8 0 -4 -10 3
-9 1 -22 -6 -29 -7 -7 -20 -38 -31 -68 -10 -30 -38 -101 -62 -157 -24 -56 -44
-107 -44 -112 0 -6 -5 -11 -11 -11 -5 0 -8 -4 -4 -9 3 -5 1 -12 -4 -15 -5 -3
-16 -29 -26 -58 -9 -29 -22 -60 -29 -68 -7 -8 -21 -42 -31 -75 -11 -33 -25
-67 -32 -76 -7 -8 -13 -22 -13 -30 0 -8 -14 -38 -30 -68 -17 -30 -30 -59 -30
-64 0 -6 -11 -25 -25 -43 -14 -18 -25 -38 -25 -44 0 -27 -56 -94 -113 -136
-107 -80 -124 -81 -129 -11 -1 21 -8 42 -15 46 -7 4 -15 18 -18 30 -2 13 -7
26 -9 29 -3 2 4 17 15 33 24 35 32 108 9 94 -10 -6 -14 15 -11 44 2 8 -2 10
-11 5 -11 -6 -11 -5 0 8 10 12 10 18 -2 27 -8 6 -16 24 -19 39 -3 15 -8 41
-12 57 -4 17 -9 37 -10 45 -1 8 -12 35 -23 61 -12 25 -23 65 -26 90 -2 24 -14
76 -26 114 -12 39 -28 95 -36 125 -9 30 -28 100 -44 155 -16 55 -37 130 -47
167 -19 73 -24 74 -41 13 -23 -83 -86 -281 -93 -295 -23 -47 -78 -245 -70
-253 6 -6 4 -15 -6 -25 -11 -12 -14 -27 -9 -59 3 -25 2 -43 -4 -43 -5 0 -7 6
-4 14 3 8 0 17 -7 22 -8 4 -10 3 -5 -4 4 -7 2 -12 -5 -12 -7 0 -10 -3 -6 -6 3
-3 -3 -26 -14 -50 -10 -25 -14 -42 -9 -39 6 3 10 1 10 -4 0 -6 -5 -11 -11 -11
-5 0 -8 -4 -5 -9 4 -5 0 -11 -6 -14 -10 -3 -10 -7 1 -21 12 -14 12 -16 -3 -10
-11 4 -16 1 -16 -11 0 -11 5 -15 15 -11 8 3 15 1 15 -4 0 -6 -4 -11 -10 -11
-9 -1 -21 -4 -34 -8 -3 0 0 -15 6 -32 7 -22 7 -34 0 -41 -8 -8 -9 -5 -5 11 4
15 1 21 -12 21 -12 0 -16 -6 -12 -20 3 -11 1 -20 -4 -20 -5 0 -4 -11 1 -25 8
-22 7 -25 -13 -26 -12 0 -16 -3 -9 -6 10 -4 10 -8 1 -19 -9 -11 -8 -14 2 -14
11 0 11 -2 1 -9 -7 -4 -12 -13 -10 -18 2 -6 -1 -10 -6 -9 -9 1 -43 -84 -45
-111 -1 -6 7 -14 17 -16 9 -3 4 -5 -13 -6 -23 -1 -27 -3 -15 -11 13 -9 13 -10
0 -10 -12 0 -13 -2 -1 -9 17 -11 5 -54 -12 -45 -9 5 -9 4 0 -6 9 -10 8 -16 -3
-27 -11 -12 -12 -18 -3 -29 6 -7 9 -19 6 -26 -4 -8 -6 -7 -6 5 -2 29 -19 19
-31 -18 -6 -19 -15 -37 -20 -40 -5 -3 -55 4 -112 16 -57 11 -123 24 -148 29
-25 4 -68 15 -95 23 -127 39 -201 60 -212 60 -7 0 -13 4 -13 9 0 5 -4 7 -8 4
-15 -9 -114 43 -106 55 4 7 3 9 -3 6 -6 -4 -17 1 -24 10 -10 12 -10 14 -1 9 6
-4 12 -3 12 3 0 5 -4 12 -8 15 -14 8 -14 117 -1 132 6 8 8 14 4 14 -4 0 2 16
14 36 12 19 21 41 21 49 0 7 9 17 21 20 13 4 18 12 15 22 -3 8 -6 21 -6 29 0
8 -7 11 -17 8 -14 -5 -15 -4 -4 4 9 7 10 15 3 28 -5 11 -7 32 -5 48 2 17 -1
33 -9 37 -8 5 -8 9 -2 9 10 0 10 67 -1 98 -3 7 5 17 18 22 12 5 17 9 11 9 -7
1 -11 15 -9 34 2 17 -2 38 -8 45 -8 10 -8 15 0 20 6 4 14 39 18 77 4 39 12 73
19 78 7 5 5 12 -8 22 -20 15 -20 15 0 16 10 0 13 3 6 6 -6 2 -9 10 -5 16 10
15 10 18 12 68 1 26 5 38 12 33 8 -5 8 -1 0 14 -7 14 -8 23 -1 27 6 4 7 11 4
17 -4 6 0 14 7 19 12 7 12 9 0 9 -9 0 -11 6 -6 17 10 23 18 81 18 116 0 21 2
25 9 15 6 -8 8 1 6 29 -2 23 0 39 4 37 5 -3 8 3 8 13 0 11 4 23 9 29 5 5 12
32 15 59 3 28 12 69 20 92 8 23 12 44 9 47 -4 3 -1 6 5 6 7 0 12 16 12 40 0
22 3 39 8 39 26 -4 34 4 12 13 -19 9 -21 12 -9 15 12 3 15 11 11 25 -3 15 -2
19 7 14 8 -6 10 -1 5 18 -3 15 -2 26 4 26 5 0 9 12 9 28 0 35 13 82 23 82 4 0
6 15 5 33 -1 17 3 35 9 39 8 6 7 8 -1 8 -8 0 -13 15 -13 40 0 31 5 43 24 55
13 9 27 27 30 41 4 14 14 24 24 24 16 1 16 1 0 11 -12 7 -16 18 -12 37 4 18
-1 41 -13 63 -19 33 -44 43 -129 51 -7 1 -8 15 -4 40 8 42 6 45 -27 42 -12 0
-20 2 -18 6 3 4 -2 13 -10 20 -8 7 -15 20 -15 29 0 14 2 14 10 1 7 -12 10 -11
15 5 14 43 23 49 90 62 68 12 95 26 81 40 -4 4 -15 2 -24 -4 -13 -8 -21 -7
-32 5 -10 12 -11 17 -2 20 7 2 12 12 12 23 0 10 5 19 10 19 6 0 10 9 10 20 0
11 7 20 15 20 9 0 12 6 9 15 -4 8 -12 15 -20 15 -8 0 -14 -7 -14 -15 0 -8 -4
-15 -9 -15 -5 0 -12 -11 -15 -25 -4 -14 -11 -25 -17 -25 -7 0 -9 10 -4 28 4
15 8 32 9 37 1 6 5 16 10 23 6 10 0 9 -22 -2 -33 -17 -53 -6 -33 18 6 7 10 22
9 32 -2 11 2 21 7 24 6 3 11 -7 13 -22 2 -16 8 -28 13 -28 13 0 39 26 39 38 0
6 3 12 8 15 9 5 -13 -1 -33 -9 -11 -4 -15 0 -15 15 0 12 5 21 11 21 8 0 7 5
-2 16 -12 14 -14 14 -20 -4 -10 -27 -49 -19 -42 9 3 10 1 19 -4 19 -15 0 -63
-25 -63 -32 0 -5 -4 -8 -10 -8 -5 0 -10 7 -10 15 0 8 7 15 15 15 8 0 15 9 15
20 0 20 -1 20 -25 4 -28 -18 -28 -19 -16 -43 8 -15 4 -21 -26 -35 -35 -17 -36
-16 -59 5 -15 14 -22 29 -19 40 6 19 -10 35 -20 19 -11 -17 -24 -11 -31 15 -4
18 -13 25 -30 25 -26 0 -27 3 -18 48 4 20 11 29 20 25 12 -5 32 42 22 52 -6 7
-51 -56 -51 -71 0 -7 -7 -16 -15 -19 -12 -4 -12 -8 -2 -20 11 -13 10 -14 -3
-9 -19 7 -30 32 -20 46 3 6 2 9 -3 6 -5 -3 -18 -2 -30 2 -21 8 -25 34 -10 58
4 6 3 12 -2 12 -6 0 -12 -7 -16 -15 -7 -20 -23 -19 -35 4 -8 14 -3 25 23 55
27 29 30 36 16 36 -10 0 -27 -11 -37 -25 -13 -18 -24 -23 -40 -19 -13 4 -23
11 -23 17 0 5 -8 16 -17 23 -10 7 -14 16 -10 21 5 4 14 0 21 -10 16 -21 42
-22 49 -3 4 10 -2 16 -21 18 -22 2 -27 8 -25 28 1 14 0 19 -3 13 -3 -7 -12
-13 -19 -13 -7 0 -16 -8 -19 -17 -6 -14 -9 -15 -16 -3 -10 16 15 85 42 112 10
10 18 24 18 31 0 8 9 24 20 37 11 13 20 32 20 42 0 11 9 31 19 44 11 14 17 33
14 44 -4 13 0 20 10 20 15 0 30 24 36 58 0 4 12 7 25 7 25 0 25 -19 0 -29 -10
-4 -13 -13 -9 -26 4 -11 2 -20 -4 -20 -6 0 -11 -12 -11 -27 l0 -28 28 30 c19
21 23 32 14 35 -9 4 -3 13 17 28 32 23 51 28 51 12 0 -5 -6 -7 -14 -4 -10 4
-13 -4 -13 -30 1 -27 -6 -41 -28 -60 -16 -14 -26 -28 -23 -32 4 -3 -4 -21 -17
-39 -14 -17 -22 -34 -19 -38 3 -3 -4 -15 -15 -26 -22 -22 -28 -56 -12 -66 5
-3 15 11 21 30 6 19 16 35 21 35 6 0 7 9 4 20 -5 16 -2 20 14 20 12 0 21 7 21
15 0 8 6 15 14 15 25 0 27 -18 5 -34 -12 -8 -23 -25 -24 -36 -1 -12 -7 -25
-13 -29 -6 -4 -13 -17 -15 -29 -2 -13 -11 -32 -20 -43 -9 -10 -17 -24 -17 -29
0 -6 -5 -10 -11 -10 -5 0 -7 -4 -4 -10 11 -17 20 -11 40 28 10 20 27 47 37 58
11 12 18 25 16 30 -5 20 14 53 28 47 10 -4 12 0 8 11 -3 9 -2 16 3 16 5 0 9 9
10 20 1 11 14 31 29 45 32 30 27 44 -6 15 -12 -11 -26 -17 -30 -15 -4 3 -10
-2 -14 -10 -8 -22 -36 -18 -36 5 0 11 6 20 13 20 21 0 48 35 41 54 -4 10 -1
16 9 16 8 0 17 4 19 10 2 6 8 6 18 0 13 -9 13 -10 0 -10 -9 0 -16 -10 -18 -25
-2 -27 15 -34 24 -11 9 22 34 7 34 -20 0 -22 2 -23 20 -12 11 7 20 18 20 25 0
7 5 13 11 13 5 0 9 10 7 23 -2 15 2 22 14 22 9 0 20 4 24 8 11 11 34 9 34 -4
0 -5 -5 -7 -10 -4 -6 3 -13 -1 -16 -9 -3 -9 -10 -13 -15 -10 -5 3 -9 2 -10 -3
-9 -81 10 -109 29 -44 7 21 19 42 27 45 18 6 18 3 4 -48 -6 -22 -21 -47 -32
-57 -26 -21 -17 -35 12 -19 13 7 21 21 21 38 0 21 2 24 10 12 8 -13 11 -11 16
8 10 34 20 26 21 -15 1 -27 -5 -41 -22 -55 -15 -12 -21 -25 -18 -38 3 -11 1
-20 -5 -20 -5 0 -12 -7 -16 -15 -3 -8 0 -15 7 -15 12 0 37 44 37 66 0 18 32
27 42 12 5 -8 1 -18 -9 -25 -15 -12 -15 -14 2 -33 11 -12 13 -20 7 -21 -31 -4
-63 -20 -57 -29 7 -12 48 1 61 19 7 8 9 22 6 29 -3 10 0 13 9 10 8 -3 14 -11
14 -18 0 -7 9 -16 20 -20 16 -6 13 -10 -22 -25 -37 -16 -40 -21 -32 -42 5 -15
5 -23 -2 -23 -15 0 -39 -26 -39 -43 0 -7 -3 -17 -7 -21 -11 -11 -14 -46 -3
-46 6 0 10 7 10 15 0 8 5 15 10 15 6 0 10 11 10 25 0 16 6 25 15 25 8 0 16 7
16 15 1 8 2 19 3 24 0 5 14 21 29 35 23 22 32 24 43 15 12 -10 11 -14 -8 -23
-15 -8 -24 -22 -26 -43 -2 -21 -10 -33 -23 -36 -10 -3 -19 -14 -19 -24 0 -28
11 -35 25 -16 8 11 17 13 26 7 28 -17 49 -15 49 6 0 25 -16 26 -29 3 -12 -20
-13 -15 -15 39 -1 29 3 38 16 38 9 0 20 5 23 10 7 12 25 4 25 -11 0 -5 -6 -9
-14 -9 -20 0 -31 -19 -17 -33 7 -7 12 -6 17 6 3 9 10 17 15 17 12 0 69 -63 69
-77 0 -7 6 -13 13 -13 6 0 0 -8 -15 -17 -15 -10 -30 -30 -33 -45 -4 -16 -15
-33 -26 -38 -13 -7 -19 -21 -19 -43 0 -24 -6 -35 -22 -42 -13 -6 -24 -18 -26
-27 -3 -14 0 -15 22 -5 14 7 26 18 26 25 0 8 9 16 20 19 19 5 20 6 3 19 -17
12 -17 13 -1 14 19 0 38 28 38 57 0 10 12 29 25 42 l25 23 20 -23 c11 -13 27
-36 35 -51 16 -29 32 -37 32 -15 0 17 43 87 54 87 5 0 2 18 -7 41 -14 33 -15
45 -4 67 37 80 50 175 31 224 -5 13 -21 37 -36 53 -14 17 -37 49 -51 72 -22
37 -25 50 -22 135 1 64 -3 110 -14 148 -36 120 -29 258 26 480 55 219 103 366
168 504 54 118 61 139 66 214 2 45 8 81 11 80 3 -2 29 -15 56 -29 28 -15 69
-30 93 -34 45 -7 54 -20 23 -30 -10 -3 -31 -17 -45 -32 -23 -23 -26 -33 -26
-98 0 -40 7 -92 16 -116 8 -24 18 -83 21 -131 3 -49 8 -88 10 -88 16 0 108
118 134 173 18 37 35 67 38 66 3 0 31 -51 62 -112 48 -96 62 -116 100 -139 59
-37 69 -41 76 -34 3 3 8 75 11 158 4 138 2 158 -17 206 -29 72 -27 80 17 87
54 9 136 36 143 47 3 5 7 42 8 80 1 39 4 75 7 80 12 20 -9 25 -50 13 -37 -11
-60 -11 -147 1 -183 26 -185 27 -241 125 -35 61 -39 91 -14 95 24 3 36 22 36
57 0 16 5 37 10 47 8 15 3 38 -20 97 -16 43 -30 83 -30 89 0 7 12 19 26 29 25
16 26 21 21 76 l-5 59 66 0 c46 0 89 -8 137 -26 79 -28 195 -66 270 -87 54
-15 75 -41 105 -134 7 -24 17 -43 22 -43 4 0 8 -11 8 -25 0 -23 -10 -30 -34
-26 -5 1 -6 -6 -2 -16 5 -16 4 -16 -9 1 -12 16 -15 17 -20 4 -9 -24 -2 -52 15
-60 13 -6 13 -7 -1 -7 -11 -1 -22 -20 -33 -58 -32 -105 -47 -138 -73 -160
l-26 -21 39 -69 c71 -126 73 -130 59 -150 -13 -19 -29 -73 -26 -86 3 -15 -29
-242 -69 -487 -5 -30 -22 -174 -37 -320 -29 -286 -29 -267 13 -470 13 -64 37
-430 38 -580 l1 -135 27 1 c15 1 26 -2 24 -5 -2 -3 2 -12 10 -19 9 -8 14 -9
14 -2 0 6 4 9 8 6 5 -3 13 13 19 34 5 22 7 37 2 35 -12 -8 -21 53 -11 71 7 12
6 22 -3 31 -8 7 -14 30 -15 51 0 20 -1 44 -1 52 -1 48 4 133 8 123 3 -7 9 -13
14 -13 4 0 5 7 2 17 -4 9 -2 14 3 10 6 -3 11 8 12 25 2 30 29 61 44 52 4 -2 5
7 2 20 -4 26 10 44 21 26 3 -5 19 -10 35 -10 25 0 37 11 46 45 1 6 5 18 9 28
4 10 3 17 -4 17 -14 0 -29 -31 -26 -52 4 -21 -32 -35 -48 -19 -8 8 -7 11 5 11
11 0 14 8 12 32 -2 17 1 37 7 45 13 15 1 17 -20 4 -9 -6 -12 -20 -9 -40 3 -22
1 -30 -7 -27 -19 7 -33 -7 -39 -37 -5 -29 -27 -57 -45 -57 -6 0 -11 14 -11 30
0 17 5 30 10 30 6 0 10 7 10 15 0 8 -5 15 -11 15 -13 0 -2 123 12 128 5 2 9 8
9 13 0 6 -4 7 -10 4 -6 -4 -10 10 -10 35 0 23 4 39 9 36 4 -3 7 -17 6 -31 -2
-15 2 -25 10 -25 7 0 12 8 11 18 0 9 5 16 12 14 8 -1 11 2 8 7 -4 5 -2 11 3
13 15 5 18 70 3 75 -8 3 -11 -3 -9 -19 5 -31 -13 -60 -29 -47 -19 15 6 106 26
94 11 -6 20 19 20 56 0 19 5 29 15 29 8 0 15 2 15 4 0 2 3 12 7 22 5 13 3 15
-7 9 -8 -5 -11 -3 -8 6 5 16 30 19 40 5 6 -10 24 61 19 78 -1 5 5 4 13 -4 14
-11 16 -9 17 14 2 42 3 44 22 66 10 12 23 32 29 46 6 13 16 24 22 24 6 0 20
20 30 43 11 23 30 55 43 70 l23 29 0 -26 c0 -25 -34 -66 -54 -66 -6 0 -5 -5 2
-12 16 -16 15 -38 0 -38 -7 0 -22 -19 -33 -43 -15 -31 -25 -41 -40 -39 -11 2
-16 -1 -10 -5 18 -14 2 -78 -22 -87 -8 -3 -11 -11 -8 -16 9 -15 -14 -41 -29
-33 -6 3 -8 3 -4 -2 4 -4 3 -14 -4 -22 -6 -7 -7 -17 -3 -21 4 -4 10 -1 12 6 3
6 11 12 18 12 16 0 30 28 34 68 0 6 8 12 16 12 10 0 13 9 10 31 -3 24 1 32 21
39 13 5 24 14 24 19 0 5 9 9 20 8 27 -2 25 -13 -5 -43 -14 -14 -23 -30 -20
-35 10 -15 22 -10 28 12 4 14 10 18 19 13 7 -4 10 -4 6 0 -3 4 -2 21 3 38 7
27 6 30 -11 25 -29 -7 -36 28 -11 55 12 12 21 30 21 39 0 10 4 20 9 24 5 3 12
18 16 34 3 16 19 39 35 51 25 19 28 25 18 43 -8 16 -8 22 1 25 17 6 41 32 41
45 0 7 -9 1 -20 -13 -11 -14 -20 -19 -20 -12 0 6 9 21 19 31 11 11 17 21 15
24 -3 3 7 7 21 11 18 5 25 13 25 31 0 14 4 25 9 25 5 0 16 21 25 46 13 39 13
44 1 34 -8 -7 -15 -17 -15 -22 0 -5 -9 -21 -20 -35 -11 -14 -20 -34 -20 -44 0
-10 -5 -21 -12 -25 -8 -5 -9 2 -3 27 4 19 7 47 6 62 -1 17 3 26 9 22 6 -3 7 1
4 10 -4 10 2 24 15 36 14 13 20 31 20 52 l-2 32 -4 -29 c-3 -16 -11 -35 -19
-43 -12 -12 -15 -11 -24 11 -5 14 -7 34 -4 43 4 11 3 14 -3 7 -5 -8 -16 -8
-32 -3 -19 8 -22 14 -17 35 4 15 17 34 28 44 14 11 19 23 14 35 -7 20 -21 12
-21 -13 0 -10 -7 -16 -18 -15 -12 0 -16 -4 -13 -13 3 -7 1 -16 -5 -19 -5 -4
-6 -11 -3 -17 4 -6 1 -9 -7 -6 -21 7 -23 47 -4 68 9 10 12 20 7 23 -9 6 -42
-27 -42 -43 0 -22 -22 -8 -35 23 -8 18 -14 25 -15 14 0 -15 -3 -15 -20 -5 -11
7 -20 21 -20 30 0 20 20 25 21 6 0 -7 4 -3 9 10 5 12 15 22 22 22 9 0 9 3 -2
10 -13 8 -12 10 4 10 16 0 18 -5 13 -36 -4 -25 -2 -34 6 -31 7 2 13 9 13 15 1
7 3 15 4 20 1 4 2 10 2 13 -1 3 10 4 24 1 19 -3 22 -7 12 -13 -9 -6 -7 -9 9
-9 12 0 25 6 30 13 12 19 14 47 3 47 -6 0 -10 4 -10 8 0 17 74 5 80 -13 6 -16
7 -16 23 -1 9 10 17 22 17 27 0 6 7 6 19 0 10 -6 21 -8 23 -5 14 13 48 12 48
-2 0 -9 7 -14 18 -12 12 2 20 -7 27 -30 5 -18 14 -31 21 -28 7 3 15 -5 18 -17
9 -35 7 -47 -9 -47 -8 0 -15 -3 -16 -7 0 -5 -2 -19 -3 -31 -2 -13 -9 -28 -17
-33 -11 -7 -9 -9 9 -9 14 0 23 6 24 18 0 9 2 23 2 30 1 16 33 35 45 28 5 -4 7
-15 4 -26 -4 -15 0 -20 15 -20 23 0 44 -30 41 -58 -3 -30 1 -37 11 -22 17 28
28 -3 15 -40 -9 -22 -14 -28 -14 -16 -1 11 -4 17 -7 13 -10 -9 5 -44 19 -44 7
0 12 10 12 21 0 38 19 32 31 -9 6 -22 14 -39 17 -37 19 6 27 0 27 -22 0 -15
-7 -26 -17 -29 -14 -4 -12 -5 5 -6 12 0 23 5 23 12 1 6 5 -6 8 -28 7 -43 3
-59 -26 -90 -10 -12 -19 -25 -20 -30 -1 -6 -5 -18 -9 -29 -5 -14 -3 -17 12
-14 13 2 20 13 22 33 2 16 9 33 15 37 7 4 12 12 12 18 0 19 18 15 33 -8 12
-18 12 -22 2 -20 -8 2 -15 -5 -17 -14 -3 -12 1 -15 16 -11 13 3 21 1 21 -7 0
-7 7 -10 15 -6 17 6 18 4 9 -18 -3 -8 -12 -12 -21 -9 -12 5 -14 1 -8 -16 4
-13 1 -27 -10 -37 -8 -9 -13 -24 -10 -34 3 -11 -1 -20 -10 -24 -9 -3 -13 -11
-10 -16 5 -8 11 -7 21 1 8 6 17 9 20 6 10 -10 -7 -87 -23 -102 -13 -13 -12
-15 5 -15 21 0 37 24 33 50 -1 11 3 9 14 -5 11 -14 14 -30 10 -53 -6 -31 -5
-33 14 -22 19 9 21 8 21 -15 0 -15 -4 -24 -10 -20 -10 6 -14 -6 -11 -36 1 -9
-5 -22 -14 -29 -8 -7 -15 -19 -15 -26 0 -8 -4 -14 -8 -14 -9 0 -36 -45 -38
-64 0 -6 -2 -17 -2 -23 -1 -7 -9 -13 -17 -13 -8 0 -15 -4 -15 -9 0 -4 15 -3
34 3 19 6 31 13 26 16 -15 9 -7 51 12 61 10 5 18 19 18 29 0 11 7 20 15 20 9
0 15 9 15 25 0 14 7 28 15 31 8 4 12 11 8 17 -3 6 -1 7 6 3 7 -4 10 -13 8 -19
-2 -7 3 -18 12 -24 14 -11 14 -14 1 -23 -13 -9 -13 -10 1 -10 29 0 37 -19 25
-59 -10 -35 -39 -75 -47 -66 -2 2 -5 -7 -5 -20 -1 -14 -9 -32 -18 -40 -9 -9
-16 -26 -16 -37 0 -12 -8 -30 -17 -40 -21 -24 -28 -85 -8 -68 8 6 11 18 8 26
-3 8 1 14 8 14 11 0 11 3 -1 10 -13 8 -13 10 2 10 19 0 35 41 23 59 -3 6 1 11
9 11 15 0 32 35 28 57 -2 6 7 14 18 18 11 3 23 17 26 31 10 38 24 28 20 -13
-2 -26 -8 -37 -17 -35 -8 1 -5 -5 6 -15 30 -26 37 -51 22 -81 -8 -15 -12 -35
-10 -44 3 -10 0 -18 -6 -18 -6 0 -11 -4 -11 -10 0 -5 9 -10 19 -10 16 0 19 5
15 25 -4 25 9 34 21 15 4 -6 12 -7 18 -3 7 4 6 0 -2 -10 -11 -14 -11 -20 -1
-32 7 -9 19 -14 27 -11 8 3 11 2 8 -3 -3 -5 -1 -12 5 -16 6 -4 5 -16 -4 -34
-14 -26 -14 -27 7 -27 24 1 31 -28 14 -51 -5 -7 -6 -13 -1 -13 5 0 0 -7 -10
-15 -11 -8 -15 -15 -10 -15 6 0 19 7 30 15 26 20 29 19 32 -12 1 -15 8 -30 15
-35 6 -4 8 -8 4 -8 -4 0 -2 -10 5 -22 17 -32 18 -48 3 -48 -7 0 -16 -7 -19
-16 -5 -12 0 -14 24 -10 34 5 37 -4 20 -66 -6 -22 -19 -39 -30 -43 -21 -7 -28
-35 -9 -35 5 0 8 4 5 9 -4 5 7 12 24 16 17 4 28 11 24 16 -3 5 2 9 12 9 13 0
14 -3 4 -15 -7 -8 -10 -26 -8 -40 3 -14 1 -25 -3 -25 -5 0 -9 -7 -9 -15 0 -8
-6 -15 -14 -15 -13 0 -26 -19 -32 -50 -2 -8 -8 -16 -13 -18 -16 -5 -13 -29 3
-35 10 -4 12 0 9 14 -4 13 0 19 11 19 9 0 16 8 16 19 0 25 18 37 26 17 3 -8
13 -12 22 -10 15 5 15 4 0 -6 -10 -6 -18 -21 -18 -33 0 -13 -5 -28 -12 -35 -7
-7 -8 -12 -2 -12 18 0 3 -132 -17 -158 -8 -9 -21 -30 -29 -47 -8 -16 -21 -35
-29 -41 -8 -6 -11 -16 -7 -22 11 -19 26 -14 26 8 0 11 6 23 14 26 8 3 13 11
10 18 -3 7 7 18 22 25 24 11 26 10 14 -3 -7 -9 -14 -30 -15 -47 -2 -17 -8 -35
-15 -39 -7 -4 -10 -15 -7 -24 4 -10 1 -16 -9 -16 -8 0 -12 -5 -9 -10 4 -6 10
-8 14 -5 13 8 22 -67 9 -82 -8 -10 -7 -13 3 -13 9 0 10 -3 3 -8 -13 -8 -13
-101 0 -121 6 -10 5 -12 -2 -7 -8 5 -12 0 -12 -13 0 -12 -7 -21 -15 -21 -9 0
-18 -12 -21 -30 -4 -16 -10 -30 -15 -30 -17 0 -9 -19 10 -25 21 -7 33 -49 18
-64 -6 -6 -7 -14 -3 -18 4 -4 11 -1 16 7 7 11 9 8 8 -10 -1 -14 -5 -30 -10
-37 -15 -20 12 -26 54 -12 22 7 43 19 45 27 5 11 7 11 15 0 7 -10 11 -10 15 0
2 6 13 12 24 12 11 0 22 7 25 15 4 8 10 13 15 10 14 -9 59 6 52 18 -3 5 2 16
13 24 16 12 17 15 4 23 -12 8 -11 10 6 10 12 0 21 7 21 15 0 11 -4 12 -11 5
-5 -5 -14 -10 -20 -10 -5 0 -1 6 9 14 12 9 16 19 12 32 -7 18 -6 18 6 2 19
-25 28 -11 21 31 -3 23 -2 31 4 23 6 -9 11 -6 20 13 9 19 9 25 -1 25 -9 0 -9
2 1 9 7 4 12 12 11 17 -2 16 13 54 21 49 14 -9 39 86 29 112 -5 13 -5 23 1 23
4 0 10 6 13 13 2 6 2 1 0 -13 -2 -18 -1 -21 6 -10 5 8 11 29 13 45 3 17 3 24
1 18 -7 -20 -19 -15 -19 6 0 11 3 19 6 19 28 -2 32 4 26 40 -4 23 -3 32 2 24
8 -11 10 -11 15 2 3 8 1 18 -4 22 -7 4 -7 10 0 17 6 6 11 26 11 44 0 18 4 33
9 33 5 0 7 -10 5 -22 l-5 -23 13 23 c9 19 9 25 -3 33 -12 7 -12 9 2 9 9 0 21
11 27 25 7 15 8 25 2 25 -6 0 -10 9 -10 20 0 11 5 17 13 15 12 -5 48 55 46 78
0 7 -4 3 -8 -7 -7 -19 -8 -19 -13 2 -4 12 -2 20 3 16 5 -3 9 2 9 10 0 8 4 18
10 21 6 3 7 -2 4 -12 -3 -10 5 0 17 22 12 22 23 58 25 80 5 72 5 71 13 50 7
-17 11 -14 31 27 12 26 19 51 16 57 -4 5 2 12 13 16 27 8 38 39 11 32 -12 -3
-18 -1 -14 5 3 5 17 7 30 4 23 -6 31 6 25 38 -1 4 6 14 15 20 9 7 18 23 20 37
1 13 8 40 13 59 14 46 13 52 -4 15 -19 -40 -19 -6 0 36 10 25 15 29 15 14 3
-37 21 37 21 82 0 31 6 48 20 62 12 11 19 27 16 38 -4 15 -5 14 -6 -4 -1 -15
-7 -23 -18 -23 -15 0 -15 2 -4 9 12 8 13 15 3 35 -9 21 -9 24 3 19 8 -3 15 -1
15 5 0 6 -5 12 -12 14 -8 3 -8 12 0 34 l10 29 2 -30 2 -30 8 35 c5 19 5 36 0
38 -4 2 -4 17 1 34 5 17 6 42 3 55 -4 15 -2 23 6 23 10 0 10 3 0 15 -8 9 -9
15 -2 15 6 0 14 -4 17 -10 10 -16 28 -11 21 6 -3 8 -2 12 4 9 6 -3 10 -1 10 4
0 6 -5 11 -11 11 -6 0 -9 6 -6 13 2 6 10 11 16 9 18 -4 12 16 -6 21 -13 3 -11
5 6 6 21 1 23 4 18 35 -4 28 -3 34 9 29 8 -3 14 1 14 10 0 8 4 17 10 19 5 2
12 34 14 72 3 38 8 71 12 75 4 3 4 -16 1 -42 -4 -46 -4 -47 11 -26 8 12 15 35
15 51 0 16 4 24 7 17 9 -14 18 0 15 23 -2 9 3 19 11 22 8 3 14 0 14 -7 0 -7
13 4 28 23 15 19 43 51 63 71 19 19 33 41 31 47 -2 7 6 12 18 12 12 0 18 5 15
10 -3 6 1 10 9 10 9 0 16 5 16 10 0 6 5 10 11 10 5 0 7 -6 4 -12 -4 -7 7 3 24
22 17 19 31 41 31 48 0 6 5 12 10 12 6 0 10 7 10 16 0 9 -5 12 -12 8 -7 -4 -8
-3 -4 5 4 6 11 9 16 6 12 -8 50 44 50 69 0 15 3 17 9 8 6 -11 13 -7 30 14 26
33 27 54 2 54 -11 0 -23 5 -26 10 -3 6 -12 10 -18 10 -7 0 -6 -4 3 -10 12 -8
10 -10 -9 -10 -13 0 -22 3 -18 6 3 3 -8 18 -24 31 -16 14 -37 42 -45 62 -8 20
-27 50 -43 66 -15 17 -46 56 -70 88 l-43 59 31 71 c17 40 34 91 37 115 5 32
11 42 25 42 19 0 22 -8 34 -82 6 -39 19 -47 68 -40 32 5 44 27 55 106 l7 51
88 9 c94 9 99 13 77 70 -8 21 -6 27 10 36 35 19 78 12 86 -12 4 -13 18 -37 33
-55 14 -17 33 -41 41 -52 8 -12 29 -24 47 -27 32 -6 32 -6 26 30 -5 33 -4 36
19 36 40 0 52 -24 51 -98 -1 -37 0 -82 3 -100 4 -28 7 -31 24 -22 13 7 21 7
26 -2 10 -16 12 -58 2 -58 -4 0 -7 -11 -6 -25 2 -18 7 -24 18 -20 11 5 12 3 4
-5 -10 -10 -9 -76 2 -108 6 -20 26 -2 21 19 -3 10 1 19 9 21 23 5 123 92 119
104 -2 6 1 17 7 25 8 11 9 11 4 -3 -3 -12 -1 -15 9 -11 11 4 12 10 5 24 -8 14
-7 17 4 13 16 -6 46 32 46 60 0 11 3 16 7 13 7 -7 53 55 53 72 0 16 40 35 40
19 1 -7 7 2 15 20 8 18 11 40 8 49 -5 12 -3 14 7 8 10 -6 12 -3 8 13 -4 12 -2
20 3 16 5 -3 9 2 9 10 0 9 5 16 11 16 6 0 9 8 7 18 -3 10 1 23 9 30 7 7 10 18
7 24 -4 7 -2 8 4 4 6 -3 16 3 22 14 6 11 7 20 3 20 -4 0 -2 4 6 9 9 6 10 11 2
15 -9 6 -15 -5 -13 -25 1 -3 -6 -6 -14 -6 -10 0 -11 4 -4 11 16 16 12 30 -5
16 -13 -11 -14 -10 -9 4 3 9 11 16 18 15 29 -3 57 2 52 10 -3 5 1 11 9 15 9 3
12 12 8 23 -5 14 -3 16 7 6 10 -9 17 -7 31 12 23 28 24 35 4 35 -23 0 -65 29
-102 69 -49 53 -48 52 -62 104 -10 34 -18 46 -28 43 -8 -3 -11 -1 -8 4 3 6 0
10 -7 11 -9 0 -10 2 -1 5 17 7 -5 54 -26 55 -10 0 -11 3 -4 5 13 6 6 32 -14
52 -7 8 -11 17 -9 21 3 4 -4 13 -14 21 -10 8 -17 17 -15 21 3 4 -2 12 -10 19
-8 7 -15 19 -15 26 0 8 -4 14 -10 14 -5 0 -10 8 -11 18 -1 11 -4 9 -9 -8 -8
-24 -8 -24 -9 -2 -1 12 -5 22 -11 22 -6 0 -9 4 -8 9 5 15 -86 120 -99 116 -7
-2 -10 2 -6 11 4 10 0 12 -13 7 -12 -4 -15 -3 -10 5 4 7 1 12 -8 12 -8 0 -18
4 -21 10 -3 6 1 7 9 4 9 -3 16 -1 16 4 0 6 -9 13 -19 17 -24 7 -73 -4 -66 -16
3 -4 13 -6 23 -3 13 5 14 4 3 -4 -8 -6 -30 -10 -49 -10 -19 0 -38 -5 -42 -12
-6 -9 -9 -9 -13 1 -4 12 -7 11 -16 -1 -10 -13 -11 -13 -11 0 0 12 -2 13 -9 1
-7 -11 -9 -11 -14 0 -4 12 -7 11 -16 -1 -7 -10 -11 -11 -11 -2 0 6 -5 12 -11
12 -6 0 -8 -8 -5 -17 6 -16 5 -16 -8 0 -9 12 -16 14 -21 8 -8 -14 -85 -14 -85
-1 0 6 -11 10 -24 10 -14 0 -28 -4 -31 -10 -3 -5 -16 -10 -28 -10 -18 0 -19
-2 -7 -10 11 -8 9 -9 -11 -5 -42 10 -63 13 -86 14 -29 1 -34 32 -8 52 16 14
18 21 8 40 -6 13 -14 33 -18 44 -6 18 -8 17 -20 -10 -8 -16 -16 -43 -20 -58
-9 -46 -30 -26 -33 34 -6 92 5 133 38 153 17 9 35 14 41 11 5 -4 19 1 29 10
11 10 38 18 60 19 23 1 45 8 49 15 5 8 37 14 87 15 44 2 94 7 113 12 36 10 77
10 140 -1z m-3851 -1094 c39 -16 47 -41 37 -117 -6 -48 -10 -56 -33 -65 -21
-8 -36 -6 -69 10 -33 16 -47 32 -68 74 -41 89 -33 114 44 137 19 6 30 3 41 -9
8 -9 30 -23 48 -30z m-688 -720 c0 -4 -9 -17 -20 -29 -11 -12 -20 -27 -20 -33
0 -7 -7 -21 -16 -30 -9 -10 -18 -27 -19 -36 -3 -32 -17 -54 -30 -49 -8 3 -16
-2 -19 -10 -8 -20 12 -67 24 -59 8 5 7 11 -1 22 -10 12 -8 19 14 39 16 15 27
36 27 52 1 26 1 27 17 7 15 -20 15 -20 10 2 -3 13 -1 26 4 29 6 3 9 14 7 24
-2 14 42 70 55 70 2 0 4 -14 5 -31 2 -19 -2 -28 -8 -24 -5 3 -10 1 -10 -4 0
-6 2 -11 4 -11 2 0 11 -3 19 -6 9 -3 16 3 20 15 3 12 10 21 16 21 16 0 13 -26
-5 -44 -14 -15 -13 -16 6 -16 13 0 24 8 27 20 3 11 10 20 17 20 6 0 4 5 -4 10
-8 5 -13 10 -10 10 3 0 20 4 38 9 20 6 32 6 32 0 0 -5 -8 -9 -17 -10 -13 0
-14 -2 -4 -6 11 -5 11 -7 0 -15 -11 -8 -10 -9 3 -4 10 3 37 -3 60 -13 36 -15
39 -18 21 -23 -15 -4 -24 0 -28 11 -6 15 -7 14 -16 -1 -6 -10 -18 -18 -27 -18
-15 0 -15 2 -2 10 11 7 11 10 2 10 -7 0 -23 -7 -36 -16 -26 -16 -116 -28 -116
-14 0 4 -9 6 -20 3 -19 -5 -36 -37 -32 -59 1 -6 -9 -19 -23 -28 -14 -9 -25
-25 -25 -36 0 -10 -9 -28 -20 -38 -12 -11 -22 -32 -24 -48 -1 -16 -7 -28 -14
-27 -6 2 -16 -6 -22 -17 -8 -15 -8 -20 2 -20 7 0 -1 -14 -19 -30 -21 -20 -30
-36 -26 -46 4 -10 -1 -20 -10 -26 -10 -5 -17 -19 -17 -32 0 -13 -13 -35 -31
-50 -31 -28 -52 -29 -29 -1 13 16 28 105 15 93 -4 -4 -8 -18 -9 -30 -1 -16 -8
-24 -23 -26 -23 -3 -27 -15 -23 -61 1 -18 -2 -22 -14 -18 -9 4 -16 2 -16 -3 0
-6 6 -10 14 -10 21 0 27 -14 20 -49 -9 -44 -31 -40 -26 4 5 40 -13 48 -22 10
-4 -14 -14 -25 -23 -25 -9 0 -13 -3 -10 -7 4 -3 2 -12 -3 -19 -6 -6 -10 -16
-9 -20 4 -21 -2 -35 -11 -29 -6 4 -9 1 -8 -6 5 -20 -28 -22 -48 -2 -16 16 -17
16 -12 1 5 -11 -1 -22 -18 -33 -14 -9 -22 -21 -18 -26 3 -6 -3 -5 -14 2 -12 7
-18 17 -16 21 3 5 10 6 15 3 8 -5 14 16 10 38 0 4 7 7 17 7 12 0 13 3 5 8 -9
6 -6 14 11 33 12 13 21 30 18 37 -2 7 4 19 13 26 10 7 15 18 12 23 -4 6 2 20
12 31 16 19 20 20 37 7 17 -13 17 -14 2 -15 -14 0 -16 -6 -11 -30 5 -28 -1
-35 -28 -32 -3 1 -6 -5 -6 -13 0 -8 5 -13 11 -12 18 3 46 39 46 59 0 10 7 18
15 18 8 0 15 7 15 15 0 8 5 15 10 15 6 0 8 10 5 23 -4 16 1 27 20 41 14 10 25
29 25 41 0 13 11 30 26 40 19 12 23 20 15 29 -8 9 -5 19 10 34 11 12 25 22 31
22 9 0 9 3 0 12 -18 18 -15 34 11 46 22 11 22 11 1 11 -22 1 -37 -20 -38 -51
-1 -10 -4 -18 -8 -18 -5 0 -13 0 -18 0 -18 0 -6 64 15 85 23 23 30 45 14 45
-5 0 -8 4 -5 9 4 5 0 12 -6 14 -7 3 -3 6 10 6 12 1 22 -3 22 -9 0 -5 5 -10 10
-10 5 0 9 3 8 8 -5 22 18 79 39 95 l24 20 -28 19 c-24 17 -25 19 -5 13 15 -4
24 -2 28 9 3 8 14 18 24 21 12 4 16 12 13 26 -5 17 -2 20 18 17 17 -2 23 -8
21 -21 -3 -15 0 -17 16 -8 11 6 22 17 25 26 6 14 37 11 37 -4z m-318 -771 c3
-20 -2 -36 -17 -52 -12 -13 -21 -32 -19 -41 4 -26 -24 -33 -42 -11 -11 14 -17
15 -20 7 -3 -7 -10 -13 -15 -13 -6 0 -7 5 -4 10 3 6 1 10 -6 10 -7 0 -9 -11
-5 -35 6 -29 4 -35 -10 -35 -10 0 -15 -3 -11 -6 3 -4 14 -3 24 1 10 5 22 7 27
6 5 -1 4 4 -2 12 -13 15 -6 27 15 27 9 0 12 -7 9 -17 -2 -10 -7 -34 -11 -53
l-6 -35 20 33 c12 18 20 38 18 45 -1 6 4 11 12 9 16 -3 42 17 40 32 -4 32 4
36 11 6 6 -26 5 -39 -7 -52 -14 -16 -13 -18 11 -24 30 -7 31 -11 11 -34 -13
-15 -13 -17 0 -17 8 0 15 6 15 14 0 7 9 13 20 13 11 0 20 5 20 11 0 5 -3 8 -8
5 -14 -8 -43 21 -36 38 3 9 10 16 16 16 5 0 6 5 3 10 -3 6 -2 10 4 10 5 0 9
-12 8 -27 -2 -24 2 -28 21 -26 32 4 39 -23 12 -45 -12 -10 -24 -29 -25 -43 -4
-37 -4 -37 -22 -42 -11 -3 -7 -5 10 -6 26 -1 29 2 31 44 1 13 8 20 20 20 11 0
20 8 22 18 4 26 9 30 23 13 10 -11 6 -18 -18 -35 -21 -15 -28 -27 -24 -42 4
-13 -2 -27 -17 -41 -13 -12 -20 -28 -17 -39 5 -17 -4 -24 -25 -20 -8 1 -12
-23 -9 -43 3 -14 -29 -44 -45 -42 -21 3 -20 19 2 31 13 7 18 19 16 37 -2 19 2
28 17 33 22 7 25 14 15 39 -8 21 -26 21 -22 0 3 -18 -48 -62 -59 -50 -4 4 -2
10 5 15 6 4 15 21 18 39 6 27 4 31 -10 26 -9 -3 -16 -16 -16 -28 0 -15 -3 -17
-9 -8 -12 20 -34 -12 -26 -38 5 -14 2 -20 -9 -20 -9 0 -17 -4 -17 -10 -1 -5
-2 -16 -3 -22 -2 -17 -63 -12 -92 7 -19 12 -25 11 -54 -6 -41 -26 -48 -19 -16
16 15 16 26 39 26 51 0 13 5 24 11 24 5 0 16 15 24 34 8 19 19 37 25 41 5 3
10 11 10 16 0 5 -11 2 -25 -8 -13 -10 -25 -28 -25 -40 0 -12 -6 -26 -13 -30
-7 -4 -17 -21 -23 -38 -6 -16 -15 -29 -21 -28 -5 1 -15 -15 -21 -36 -8 -25
-21 -42 -38 -50 -19 -8 -23 -15 -16 -24 13 -15 4 -31 -21 -40 -10 -4 -15 -11
-12 -17 3 -6 -4 -10 -17 -10 -21 1 -22 2 -5 14 24 18 22 46 -4 46 -15 0 -20 6
-19 23 1 12 1 33 0 47 l-1 25 -10 -23 c-5 -13 -6 -28 -3 -34 4 -6 -2 -8 -12
-6 -22 4 -26 44 -8 68 7 8 15 30 19 48 4 18 13 36 21 39 21 8 17 26 -5 20 -17
-4 -18 -2 -8 14 7 11 22 22 35 26 16 4 22 11 19 23 -2 10 -1 24 4 31 5 8 3 17
-4 22 -8 6 -8 7 3 4 8 -2 15 -9 15 -14 0 -17 15 -28 16 -12 1 8 1 17 0 22 0 4
8 7 19 7 13 0 22 9 26 28 4 15 16 39 26 54 15 22 22 25 32 15 16 -14 5 -52
-15 -52 -8 0 -15 -13 -17 -33 -2 -21 -7 -30 -15 -26 -7 4 -7 1 1 -7 11 -12 15
-11 23 4 6 9 19 17 29 17 23 0 27 -18 5 -26 -17 -7 -21 -34 -5 -34 6 0 19 9
29 19 14 14 16 22 8 30 -8 8 -6 11 7 11 9 0 15 4 12 9 -3 5 1 12 9 15 10 4 14
14 11 31 -3 14 0 25 6 25 6 0 19 7 28 15 15 14 18 14 30 0 7 -8 20 -15 30 -15
13 0 16 6 12 26 -3 19 -1 25 7 20 11 -7 15 -1 25 47 8 35 13 34 18 -3z m-197
-461 c-11 -4 -15 -8 -8 -8 9 -1 9 -9 1 -32 -6 -16 -8 -33 -5 -36 11 -10 37 25
31 41 -4 10 0 18 10 22 22 8 33 -3 18 -18 -8 -8 -7 -14 5 -23 13 -10 10 -14
-22 -29 -27 -13 -34 -21 -26 -29 17 -17 14 -29 -14 -59 -14 -15 -25 -30 -25
-34 0 -3 -9 -19 -21 -35 -11 -16 -17 -33 -14 -39 3 -6 -1 -13 -9 -16 -8 -3
-18 -14 -21 -25 -4 -10 -15 -19 -26 -19 -22 0 -26 18 -5 26 11 4 14 28 7 54 0
3 -13 -8 -28 -24 -25 -27 -27 -28 -34 -10 -12 31 -10 39 5 18 11 -14 14 -15
14 -4 -2 20 24 80 34 80 4 0 8 9 8 21 0 11 4 18 8 15 5 -3 8 5 8 17 -1 12 5
22 12 22 17 0 32 24 32 52 0 12 7 28 15 37 19 19 20 32 0 16 -8 -6 -18 -9 -24
-6 -12 8 -22 -20 -15 -39 4 -9 -4 -23 -19 -36 -15 -11 -24 -25 -21 -33 5 -13
-43 -69 -67 -79 -10 -4 -8 -6 4 -6 10 -1 15 -6 12 -11 -5 -8 -11 -8 -20 0 -13
11 -14 26 -4 45 3 6 9 18 12 28 6 15 4 16 -13 7 -21 -11 -25 -4 -14 24 8 21
44 21 44 0 0 -8 5 -12 10 -9 6 4 8 10 5 15 -2 4 4 19 15 33 11 14 20 37 20 51
0 16 6 26 15 26 8 0 15 4 15 9 0 14 37 20 49 8 7 -7 12 -5 17 6 5 14 10 15 27
5 21 -11 21 -11 2 -19z m2671 -2186 c-2 -21 -6 -45 -9 -53 -3 -8 -8 -28 -10
-45 -3 -16 -8 -43 -11 -60 -6 -28 -10 -51 -37 -195 -6 -30 -15 -75 -19 -100
-29 -153 -32 -180 -17 -180 8 0 8 -3 -2 -9 -17 -11 -33 -95 -24 -129 3 -15 2
-23 -4 -19 -6 4 -10 -7 -11 -24 0 -17 -6 -36 -12 -44 -7 -8 -7 -15 -1 -19 5
-4 9 -15 8 -26 -1 -10 -4 -17 -8 -14 -11 7 -25 -62 -20 -98 1 -5 1 -11 0 -14
0 -3 8 -13 18 -22 54 -49 74 -124 59 -224 -3 -17 0 -28 7 -28 7 0 6 -5 -3 -10
-13 -9 -13 -11 0 -20 10 -6 11 -10 3 -10 -7 0 -13 -5 -13 -11 0 -5 5 -7 11 -3
7 4 7 -1 -1 -16 -6 -12 -10 -30 -7 -41 3 -10 -2 -24 -10 -30 -8 -7 -12 -21
-10 -30 3 -10 1 -19 -4 -21 -4 -2 -10 -29 -12 -60 -3 -48 -1 -58 12 -58 14 -1
14 -2 1 -9 -12 -7 -14 -27 -12 -95 2 -54 7 -84 13 -80 6 3 8 12 5 20 -3 8 -1
14 4 14 16 0 11 -40 -5 -46 -21 -9 -19 -27 3 -20 14 5 14 4 -2 -9 -20 -15 -20
-15 0 -15 15 0 16 -2 4 -10 -8 -5 -11 -12 -8 -15 4 -4 3 -18 -2 -31 -7 -17 -6
-24 3 -24 8 0 7 -4 -3 -10 -8 -5 -10 -10 -4 -10 6 0 10 -15 9 -34 -2 -23 2
-37 12 -40 8 -3 11 -10 8 -16 -4 -6 -10 -8 -14 -5 -4 2 -8 -8 -7 -23 1 -21 5
-26 21 -24 18 3 18 2 4 -10 -9 -7 -19 -25 -21 -40 -4 -23 -1 -28 16 -29 17 -1
18 -2 4 -6 -10 -2 -18 -11 -18 -19 0 -11 6 -13 22 -8 20 6 21 5 9 -9 -7 -9
-17 -14 -22 -11 -5 3 -9 0 -9 -5 0 -6 8 -12 18 -12 16 -1 16 -2 0 -6 -30 -8
-20 -20 13 -15 17 3 26 7 21 11 -7 4 -6 13 3 25 15 20 35 14 34 -12 0 -11 -3
-12 -6 -4 -2 6 -10 12 -16 12 -8 0 -7 -4 1 -12 19 -19 14 -28 -15 -28 -47 0
-56 -12 -51 -69 3 -28 2 -49 -1 -46 -4 2 -8 -5 -8 -16 -2 -18 -1 -18 22 -1 13
9 26 24 28 32 3 9 5 7 6 -6 1 -14 -6 -24 -19 -27 -15 -4 -20 -14 -20 -36 0
-23 -5 -31 -17 -32 -15 0 -15 -2 2 -8 11 -5 24 -6 29 -3 5 3 6 0 3 -6 -4 -5
-15 -9 -25 -7 -9 1 -11 0 -4 -2 6 -3 12 -9 12 -15 0 -5 -7 -8 -15 -4 -8 3 -15
0 -15 -5 0 -6 9 -9 20 -6 11 3 23 1 26 -4 3 -5 0 -9 -7 -9 -8 0 -8 -4 1 -15
11 -13 8 -14 -21 -9 l-34 5 25 -16 25 -16 -25 6 c-21 5 -22 4 -7 -5 9 -6 17
-15 17 -20 0 -5 -8 -7 -17 -4 -15 5 -16 4 -3 -5 10 -6 15 -27 15 -56 0 -57
-13 -59 -18 -2 -4 41 -4 41 -3 -6 1 -26 -3 -47 -8 -47 -4 0 2 -8 15 -19 l23
-18 -23 -8 c-21 -6 -22 -11 -19 -101 2 -52 0 -95 -4 -97 -12 -3 -16 -147 -5
-147 6 0 6 -5 0 -13 -20 -25 -21 -196 -2 -208 12 -7 11 -9 -1 -9 -12 0 -15 -9
-12 -40 4 -42 -13 -70 -37 -62 -13 4 -52 -12 -81 -33 -17 -13 -87 -39 -147
-55 -23 -6 -55 -22 -71 -35 -17 -14 -35 -25 -41 -25 -6 0 -23 18 -37 40 -25
37 -30 40 -73 41 -129 2 -216 11 -223 22 -9 15 -7 67 4 73 4 3 5 11 2 18 -3 8
-1 17 4 20 5 3 8 18 6 33 -1 15 2 33 7 39 7 8 6 14 -1 19 -7 4 -5 11 4 21 8 8
13 23 11 33 -2 11 3 22 11 25 8 3 14 11 14 18 0 9 -3 8 -10 -2 -8 -11 -9 -9
-8 13 1 15 6 27 10 27 4 0 8 5 8 11 0 5 -4 8 -8 5 -4 -3 -2 37 5 87 16 105 20
167 13 167 -3 0 -6 11 -6 25 -1 14 3 25 8 25 6 0 5 7 -2 15 -9 11 -13 56 -13
145 0 118 -2 130 -18 130 -10 0 -20 4 -23 9 -4 5 3 7 14 4 14 -4 20 0 20 11 0
9 -5 16 -11 16 -8 0 -7 6 2 16 12 15 11 16 -11 9 -22 -7 -23 -6 -8 9 13 13 16
34 12 122 -2 58 -6 110 -9 114 -3 5 -1 12 5 15 7 5 8 11 1 18 -10 12 -7 78 3
96 3 5 0 12 -6 15 -11 5 -11 7 0 12 6 3 9 10 6 16 -11 17 -5 206 12 456 3 35
1 61 -4 58 -4 -2 -7 9 -6 26 2 35 -14 68 -33 68 -28 0 -5 27 68 81 41 31 85
68 97 83 12 15 26 25 31 21 7 -4 8 0 5 10 -4 10 1 22 15 31 11 8 21 19 21 24
0 4 18 39 40 78 22 38 40 77 40 86 0 10 5 14 12 10 7 -4 8 -3 4 4 -4 6 5 32
19 57 14 25 25 55 25 65 0 11 4 20 10 20 5 0 9 3 8 8 -1 4 3 18 9 32 6 14 20
50 31 82 12 31 31 78 43 105 24 56 27 62 69 168 17 44 46 109 65 145 88 172
109 210 117 210 4 0 8 6 8 14 0 8 11 23 25 34 13 11 22 22 19 24 -2 3 9 20 26
38 16 18 30 35 30 37 0 7 33 32 42 33 5 0 6 -17 4 -37z m664 -910 c13 -37 48
-131 78 -208 29 -77 60 -160 69 -185 8 -25 21 -58 28 -75 26 -62 76 -197 149
-395 82 -227 288 -785 310 -840 8 -19 40 -105 71 -190 32 -85 63 -168 71 -185
7 -16 24 -66 39 -110 14 -44 35 -100 47 -125 35 -76 39 -91 29 -108 -9 -16
-10 -16 -16 1 -4 9 -16 17 -26 17 -10 0 -19 5 -19 10 0 14 -27 12 -33 -2 -3
-7 -6 -4 -7 7 -1 14 -5 10 -16 -15 -11 -30 -13 -31 -13 -10 2 43 -1 50 -16 50
-17 0 -20 -16 -5 -25 6 -3 10 -11 10 -16 0 -6 -5 -7 -11 -3 -8 5 -10 -1 -7
-20 3 -14 1 -26 -3 -26 -5 0 -8 -3 -8 -7 3 -21 -3 -31 -28 -43 -32 -16 -204
-30 -196 -16 4 5 -7 6 -23 2 -21 -5 -25 -4 -14 4 9 5 10 10 3 10 -6 0 -19 3
-29 7 -11 4 -15 3 -10 -5 3 -6 1 -14 -6 -18 -7 -4 -10 -4 -6 1 13 14 -12 45
-36 45 -13 0 -26 7 -30 15 -3 8 -16 15 -28 15 -19 0 -20 2 -8 10 13 9 13 11 0
19 -8 5 -18 7 -22 5 -5 -3 -7 -2 -6 3 5 17 -36 85 -56 93 -12 5 -15 9 -8 9 15
1 16 31 1 31 -5 0 -7 -4 -4 -10 3 -5 1 -10 -4 -10 -6 0 -11 8 -11 18 0 9 -5
24 -11 32 -9 13 -10 12 -5 -2 3 -10 1 -20 -4 -23 -6 -4 -10 3 -10 14 0 12 -5
21 -10 21 -6 0 -9 3 -9 8 4 22 -3 31 -18 25 -10 -4 -14 -2 -10 4 7 12 -16 36
-26 27 -3 -3 -14 3 -25 14 -13 13 -17 23 -10 30 7 7 3 14 -11 21 -12 7 -21 10
-22 9 -9 -33 -7 -39 9 -26 15 12 15 10 -1 -14 -9 -15 -17 -38 -17 -50 0 -17
-3 -19 -9 -9 -6 9 -11 10 -15 2 -4 -6 -4 -15 -1 -21 3 -5 1 -10 -4 -10 -6 0
-11 -7 -11 -15 0 -8 8 -15 18 -15 13 0 14 2 4 9 -11 7 -11 9 0 14 10 3 14 -3
14 -26 -1 -18 -7 -32 -16 -35 -13 -5 -13 -3 -1 12 12 14 12 16 -3 10 -19 -7
-15 -46 7 -72 6 -8 12 -21 13 -29 3 -21 22 -38 31 -29 4 4 1 11 -7 16 -12 7
-10 9 6 8 16 -2 19 -7 16 -25 -2 -12 -8 -20 -13 -17 -5 3 -9 1 -9 -4 0 -6 7
-12 15 -16 8 -3 14 -9 14 -13 -6 -24 59 -103 83 -103 4 0 8 -7 8 -16 0 -8 5
-12 10 -9 6 3 10 -1 10 -10 0 -9 6 -26 13 -38 9 -14 11 -36 7 -62 -4 -22 -8
-34 -9 -26 0 7 -7 11 -16 7 -8 -3 -14 0 -12 7 2 13 -6 13 -37 1 -14 -5 -17 -4
-12 4 4 7 2 12 -3 12 -6 0 -11 -7 -11 -16 0 -10 -6 -14 -14 -11 -8 3 -16 2
-18 -3 -5 -15 -32 -16 -33 -1 0 8 -6 16 -14 19 -9 3 -11 0 -6 -8 5 -8 4 -11
-3 -6 -5 3 -8 19 -6 36 4 26 2 29 -17 25 -31 -6 -34 -12 -18 -32 12 -16 12
-17 -2 -6 -9 7 -19 10 -23 6 -4 -4 -3 4 2 18 7 18 6 30 -4 44 -8 11 -18 19
-22 18 -4 -1 -6 8 -4 20 2 17 0 19 -10 9 -9 -9 -16 -8 -30 5 -10 9 -18 13 -18
8 0 -4 -12 0 -26 10 -15 9 -23 12 -20 6 4 -6 0 -11 -8 -11 -10 0 -13 6 -10 15
6 15 -7 21 -20 8 -3 -4 -12 -8 -19 -9 -7 -2 -26 -7 -44 -12 -27 -9 -32 -7 -36
9 -3 10 0 22 5 26 6 3 8 1 5 -4 -4 -6 4 -13 18 -15 14 -3 25 -1 25 3 0 5 -5 9
-10 9 -7 0 -7 6 -1 19 7 13 6 24 -4 37 -14 18 -14 18 -11 -1 3 -15 -2 -20 -19
-20 -19 0 -21 3 -12 14 10 12 9 12 -10 2 -13 -6 -23 -9 -23 -6 0 4 -7 0 -15
-9 -8 -8 -15 -21 -15 -28 0 -10 -3 -10 -9 2 -6 8 -7 18 -4 24 4 5 -1 7 -10 3
-10 -3 -17 -2 -17 4 0 6 -4 7 -10 4 -5 -3 -11 2 -11 12 -1 10 -4 5 -8 -12 l-7
-30 -8 33 c-4 18 -13 32 -19 31 -34 -4 -59 23 -35 37 6 4 8 3 5 -3 -4 -6 0
-13 8 -17 15 -5 28 8 31 32 2 10 -1 10 -11 2 -9 -8 -14 -6 -19 5 -3 9 -2 14 3
11 4 -3 14 6 21 19 15 29 25 31 34 10 3 -9 18 -15 35 -15 24 0 28 3 24 20 -3
10 -12 25 -21 32 -13 11 -14 11 -7 -2 6 -12 5 -12 -4 -4 -18 16 -9 49 12 48
10 -1 16 3 14 10 -3 6 -10 10 -16 8 -15 -3 13 66 37 90 9 10 28 29 41 42 13
14 24 37 25 54 1 17 5 28 10 25 9 -6 26 15 26 35 0 6 -4 12 -10 12 -5 0 -7 -7
-4 -15 4 -8 1 -15 -6 -15 -6 0 -8 5 -5 10 3 5 1 10 -5 10 -6 0 -4 7 5 16 9 9
14 23 11 31 -4 11 -1 13 14 8 11 -4 20 -2 20 4 0 6 -7 11 -15 11 -14 0 -19 11
-16 38 2 15 -45 34 -73 30 -12 -2 -20 -8 -19 -13 1 -6 -14 -10 -32 -11 -24 0
-32 3 -28 13 3 8 13 11 24 8 11 -4 19 -2 19 3 0 5 -48 14 -107 21 -138 15
-143 15 -173 6 -24 -7 -24 -7 -6 8 19 14 19 15 2 32 -15 15 -19 16 -28 4 -8
-11 -9 -10 -4 4 5 15 2 17 -17 12 -22 -7 -22 -7 -2 10 13 10 15 15 5 12 -8 -2
-20 2 -27 9 -17 17 -16 27 1 21 20 -8 29 24 17 56 -5 14 -7 28 -4 31 3 3 0 12
-7 21 -10 12 -10 18 0 30 7 8 9 28 6 47 -4 24 -4 27 3 13 7 -15 11 -5 17 45 4
36 7 68 6 73 -1 4 3 7 9 7 8 0 8 4 0 14 -9 10 -8 15 1 19 7 2 22 19 32 37 10
18 14 30 7 26 -6 -4 -11 -1 -11 9 0 9 4 14 9 10 6 -3 15 4 22 16 9 18 9 21 -3
16 -11 -4 -14 1 -10 19 2 13 8 24 13 24 5 0 6 -7 3 -15 -4 -8 -1 -15 5 -15 10
0 15 16 14 47 -1 7 4 10 10 6 6 -4 8 0 4 10 -3 10 -2 17 4 17 5 0 17 17 25 38
8 20 19 45 24 55 7 11 7 17 0 17 -11 0 -32 -35 -25 -42 3 -3 -2 -5 -10 -5 -8
0 -12 4 -9 8 2 4 -2 10 -8 12 -8 3 -6 6 5 6 21 1 22 8 2 27 -8 9 -15 23 -14
32 0 14 2 13 9 -3 7 -18 8 -19 15 -2 9 22 57 24 49 2 -4 -8 -10 -15 -16 -15
-5 0 -6 5 -3 10 9 15 -11 12 -24 -3 -15 -18 -6 -25 24 -19 24 4 30 17 26 56
-1 11 2 17 5 13 4 -4 14 3 22 14 12 18 13 23 1 30 -14 8 -12 10 14 13 13 1 14
29 2 61 -8 20 -8 20 8 0 14 -18 15 -18 28 23 6 23 15 42 20 42 11 0 19 29 12
47 -6 15 -7 15 -14 -3 -7 -17 -8 -17 -8 4 -1 24 9 28 27 10 8 -8 12 -9 12 -1
0 20 -12 43 -22 43 -5 0 -6 -4 -3 -10 3 -5 -1 -10 -9 -10 -10 0 -13 6 -9 15 3
9 13 15 22 14 44 -4 51 1 51 36 0 24 5 35 14 35 17 0 30 35 20 51 -5 8 -3 9 6
4 10 -6 12 -4 7 8 -3 10 -3 17 1 17 16 0 43 61 37 83 -5 16 -4 18 3 8 8 -11
11 -9 18 10 4 13 7 32 5 43 -2 11 2 16 8 12 7 -4 8 -1 5 8 -4 9 0 18 9 22 8 3
18 17 22 32 3 14 15 38 25 52 10 14 22 38 25 53 4 14 13 31 21 38 8 6 14 19
14 28 0 9 9 34 20 56 11 22 20 54 20 72 0 23 4 31 14 27 16 -6 42 49 31 66 -6
9 -2 9 12 2 11 -6 29 -40 43 -79z m-3022 -484 c18 -6 29 -15 26 -20 -3 -5 2
-9 11 -9 14 0 84 -28 127 -51 10 -5 22 -9 28 -9 6 0 29 -9 53 -19 55 -25 78
-33 102 -36 11 -2 56 -12 99 -24 44 -12 99 -21 122 -21 56 0 74 -8 74 -33 0
-16 3 -18 12 -9 17 17 33 15 18 -3 -10 -12 -10 -15 1 -15 11 0 11 -2 0 -9 -13
-8 -13 -12 -1 -28 12 -15 12 -16 0 -5 -22 20 -25 15 -22 -38 2 -27 8 -50 13
-50 6 0 7 -15 3 -35 -4 -24 -2 -35 6 -35 7 0 9 -8 5 -21 -5 -14 -1 -25 12 -36
16 -13 16 -14 1 -9 -10 3 -18 1 -18 -4 0 -6 8 -10 18 -11 14 0 14 -2 2 -7 -22
-10 -19 -34 5 -43 18 -7 18 -8 -5 -9 -23 -1 -23 -2 -5 -10 11 -5 14 -9 8 -9
-21 -1 -17 -120 5 -138 16 -13 15 -14 -5 -10 -13 3 -23 1 -23 -4 0 -5 10 -9
23 -10 l22 0 -23 -10 c-18 -7 -22 -14 -17 -29 4 -11 2 -20 -4 -20 -6 0 -11 -5
-11 -11 0 -5 4 -8 8 -5 4 2 8 -4 8 -15 0 -10 -7 -19 -14 -19 -10 0 -13 -9 -10
-30 2 -16 1 -31 -4 -32 -4 -2 -9 -20 -10 -40 -2 -21 -7 -38 -13 -38 -5 0 -3
-5 5 -10 10 -6 11 -10 3 -10 -7 0 -13 -10 -12 -22 0 -22 1 -22 9 -3 8 19 9 19
9 -2 1 -14 -5 -23 -13 -23 -17 0 -31 -74 -24 -115 3 -15 1 -22 -5 -18 -6 4 -8
-2 -5 -15 4 -12 2 -20 -3 -16 -5 3 -9 -4 -9 -15 0 -15 7 -21 23 -22 18 -1 16
-3 -8 -9 -16 -4 -25 -8 -19 -9 7 0 14 -8 17 -15 4 -10 1 -13 -7 -10 -9 4 -14
-2 -14 -18 0 -13 -4 -61 -10 -107 -5 -46 -9 -99 -8 -118 1 -18 -1 -33 -5 -33
-3 0 -7 -26 -8 -57 -1 -31 -4 -60 -7 -65 -3 -4 1 -8 8 -8 9 0 9 -3 -2 -10 -13
-9 -13 -10 0 -10 12 0 13 -2 1 -9 -8 -5 -15 -29 -16 -57 -2 -27 -6 -58 -11
-68 -4 -11 -2 -37 5 -60 6 -23 16 -59 22 -81 5 -22 12 -48 15 -58 5 -15 2 -16
-22 -7 -20 8 -29 8 -35 -1 -8 -14 -183 -20 -236 -8 -18 4 -31 3 -28 -1 8 -14
-68 -67 -110 -78 -98 -24 -94 -25 -125 8 -23 25 -41 33 -85 39 -67 9 -92 29
-76 59 6 11 11 23 11 25 0 10 -70 12 -73 3 -2 -6 -6 -2 -10 7 -5 12 -1 17 13
17 10 0 21 4 24 9 4 5 -4 7 -16 4 -20 -4 -21 -3 -5 7 9 6 15 15 12 21 -4 5 -1
9 5 9 7 0 10 7 7 15 -4 8 -2 17 4 20 5 4 7 11 4 16 -3 5 1 6 9 3 9 -3 16 -1
16 5 0 6 7 8 16 4 10 -4 15 -1 14 8 -5 35 1 49 21 49 13 0 18 4 13 12 -5 7 -8
35 -8 63 -1 27 -5 55 -9 62 -5 8 0 17 13 25 23 14 27 33 6 25 -12 -5 -15 10
-6 33 1 3 2 9 1 14 -1 5 5 6 14 3 8 -4 15 -2 15 2 0 5 -7 12 -16 15 -9 3 -12
11 -8 18 11 17 15 78 6 78 -4 0 -8 17 -8 38 0 44 -5 64 -19 74 -6 4 -2 8 8 8
9 0 17 5 17 10 0 6 -8 10 -17 11 -12 1 -10 4 7 9 l25 8 -25 1 c-24 2 -24 2 -6
16 20 15 20 15 0 16 -16 1 -17 2 -1 6 24 6 21 29 -4 36 -17 4 -20 12 -18 39 3
24 0 32 -11 30 -10 -2 -11 0 -2 11 6 7 11 30 10 51 -1 28 -5 36 -16 31 -11 -4
-12 -2 -5 7 18 22 10 104 -12 129 -19 22 -19 23 -1 9 18 -14 19 -13 13 3 -4 9
-2 17 5 17 7 0 6 5 -2 15 -7 9 -10 18 -6 22 3 3 -2 16 -11 27 -17 19 -17 20
-1 7 16 -12 17 -10 15 25 -2 21 -9 40 -16 42 -11 4 -11 6 0 13 13 8 15 23 21
246 2 45 6 79 9 77 4 -2 7 7 7 21 0 14 -5 22 -11 18 -6 -4 -7 -1 -1 8 5 8 9
19 9 24 1 6 7 9 15 7 11 -3 11 0 1 11 -9 12 -9 16 1 21 11 5 11 7 0 12 -10 5
-10 9 -1 20 6 7 9 20 6 29 -4 8 -2 17 4 20 5 4 6 12 2 18 -7 11 -11 37 -14 95
-1 12 -5 22 -9 22 -13 0 1 40 14 40 6 0 3 7 -7 14 -17 13 -16 15 12 21 17 4
29 10 26 15 -3 4 7 11 20 14 14 4 23 11 20 15 -4 8 3 41 10 41 1 0 16 -5 33
-11z"/>
<path d="M1243 11240 c-13 -5 -23 -17 -23 -25 0 -9 -4 -14 -9 -11 -11 7 -23
-22 -14 -36 3 -7 1 -8 -5 -4 -6 3 -16 -2 -21 -13 -8 -14 -7 -20 4 -25 8 -3 15
-11 15 -18 0 -9 -3 -8 -10 2 -9 13 -10 13 -10 0 0 -9 6 -22 13 -30 6 -8 8 -11
3 -7 -5 4 -16 1 -24 -6 -13 -9 -14 -9 -8 1 4 6 2 12 -3 12 -7 0 -11 -24 -11
-59 0 -46 4 -60 17 -65 22 -9 59 19 105 80 32 41 37 55 33 84 -5 32 -5 33 6
10 11 -24 11 -24 19 -5 12 28 12 37 0 30 -16 -10 -11 7 5 19 9 6 17 25 18 41
2 25 -2 31 -22 33 -15 2 -21 0 -17 -7 4 -6 -1 -11 -11 -11 -11 0 -24 -5 -31
-12 -9 -9 -12 -9 -12 0 0 7 10 17 23 22 12 5 15 9 7 9 -8 0 -25 -4 -37 -9z"/>
<path d="M8060 9980 c-15 -28 -12 -45 10 -65 16 -14 37 -18 118 -17 103 0 124
6 156 41 18 20 18 21 -5 41 -21 18 -37 20 -147 19 -108 -1 -124 -3 -132 -19z"/>
<path d="M5728 7632 c-17 -10 -26 -23 -23 -32 6 -19 -4 -34 -29 -43 -11 -5
-16 -13 -12 -23 3 -9 -3 -28 -15 -42 -11 -15 -27 -42 -35 -60 -8 -19 -18 -31
-24 -27 -12 7 -40 -12 -40 -27 0 -5 7 -2 16 7 19 19 32 12 16 -8 -7 -8 -9 -17
-5 -20 10 -10 -6 -8 -26 3 -21 11 -17 60 4 60 16 0 29 26 33 68 1 7 7 10 12 7
6 -4 10 5 10 19 0 14 5 26 10 26 6 0 10 8 10 18 0 10 9 24 20 32 17 13 28 40
16 40 -14 0 -56 -50 -56 -66 0 -11 -8 -31 -17 -44 -10 -14 -19 -33 -20 -44 -2
-10 -14 -32 -28 -48 -14 -16 -25 -38 -25 -49 0 -19 -14 -26 -23 -11 -2 4 -2 1
-1 -5 3 -12 -8 -17 -28 -14 -4 0 -5 -6 -2 -14 4 -8 10 -12 15 -9 13 8 10 -9
-6 -30 -17 -22 -39 -11 -32 16 4 14 2 18 -10 14 -8 -3 -17 -6 -19 -6 -2 0 -4
-7 -4 -16 0 -8 4 -13 9 -9 13 7 25 -14 27 -47 1 -17 -7 -35 -22 -49 -13 -12
-24 -28 -24 -34 0 -7 -9 -20 -20 -30 -12 -10 -19 -24 -16 -31 3 -7 -5 -23 -18
-36 -25 -26 -40 -58 -27 -58 5 0 11 7 15 15 3 8 12 15 21 15 8 0 15 9 15 20 0
11 4 20 10 20 5 0 7 6 4 13 -2 7 4 24 16 37 11 13 20 31 20 41 0 22 16 34 23
17 3 -7 6 -3 6 10 1 12 5 22 11 22 5 0 7 6 4 14 -3 7 1 20 9 28 8 8 18 25 22
38 4 13 15 32 25 42 17 18 18 18 41 -2 14 -12 17 -18 8 -14 -19 6 -28 -4 -34
-38 -3 -13 -13 -30 -23 -38 -9 -8 -16 -23 -14 -33 2 -10 -2 -24 -8 -32 -10
-12 -9 -15 2 -15 10 0 18 14 22 40 4 24 11 39 19 37 6 -1 11 5 9 14 -1 9 10
28 25 43 14 15 28 37 29 49 1 12 3 25 3 30 1 4 7 7 15 7 8 0 17 14 21 30 4 17
17 42 30 55 15 17 21 33 17 50 -3 19 -1 24 10 20 10 -4 19 6 28 35 7 22 16 40
20 40 3 0 15 7 26 15 28 21 -3 19 -38 -3z"/>
<path d="M5682 7053 c-5 -10 -7 -24 -4 -32 2 -8 -6 -22 -19 -32 -13 -10 -21
-21 -17 -24 7 -8 40 8 39 18 -1 4 1 7 4 7 3 0 9 0 15 0 11 0 3 -54 -12 -84 -7
-13 -7 -16 1 -12 6 4 11 2 11 -4 0 -6 5 -8 13 -4 9 6 8 3 -1 -8 -8 -9 -19 -15
-27 -12 -7 3 -16 1 -20 -5 -3 -6 0 -11 8 -11 11 0 13 -7 9 -22 -5 -19 -7 -20
-10 -5 -4 21 -22 23 -22 2 0 -8 -11 -17 -25 -21 -20 -5 -23 -10 -19 -34 5 -21
1 -31 -15 -42 -20 -14 -20 -16 -5 -22 9 -4 18 -5 18 -4 1 2 7 15 14 31 14 32
28 35 37 6 8 -23 -18 -59 -44 -60 -14 0 -13 -1 1 -7 16 -6 16 -10 4 -34 -8
-15 -11 -30 -8 -34 4 -4 1 -4 -6 0 -12 7 -34 -32 -25 -46 2 -5 -4 -8 -14 -8
-12 0 -14 -3 -6 -8 9 -6 7 -12 -7 -22 -11 -8 -20 -21 -20 -29 0 -17 -39 -53
-51 -46 -4 3 -11 0 -15 -6 -4 -8 -3 -9 4 -5 7 4 12 2 12 -3 0 -6 8 -11 18 -11
14 0 15 2 2 10 -12 8 -9 10 12 10 20 0 26 4 22 15 -4 9 0 15 10 15 9 0 13 6
10 14 -3 9 3 20 15 28 12 7 21 20 21 30 0 10 7 15 17 14 24 -4 28 -24 9 -45
-9 -10 -13 -21 -9 -24 3 -4 1 -7 -6 -7 -7 0 -11 -6 -8 -14 3 -9 -4 -21 -19
-30 -13 -9 -24 -25 -24 -36 0 -29 13 -24 28 10 8 17 20 30 27 30 8 0 15 10 17
23 2 12 9 21 17 19 9 -2 12 4 8 19 -6 22 6 53 28 76 10 9 16 9 30 -1 15 -11
15 -13 1 -25 -9 -8 -16 -21 -16 -30 0 -9 -7 -25 -15 -35 -8 -10 -12 -23 -9
-27 3 -5 -5 -9 -18 -10 -13 0 -18 -3 -11 -5 9 -4 9 -13 2 -31 -7 -18 -6 -30 1
-37 7 -7 10 -6 11 2 1 7 3 17 4 22 1 6 3 17 4 25 0 8 8 15 16 15 8 0 15 9 15
19 0 11 5 23 11 27 6 3 9 15 6 25 -4 14 0 19 13 19 24 0 31 -12 20 -30 -5 -8
-5 -21 1 -31 7 -13 5 -21 -8 -28 -14 -8 -11 -9 15 -5 25 5 32 3 32 -9 0 -8 -4
-17 -10 -19 -5 -1 -10 -18 -12 -35 -2 -25 -7 -33 -22 -33 -11 0 -16 -3 -13 -7
4 -3 2 -12 -3 -19 -6 -6 -10 -16 -8 -20 1 -5 -5 -21 -15 -35 -17 -25 -19 -61
-4 -75 8 -8 11 9 7 41 -2 16 0 17 14 6 21 -18 22 -81 1 -81 -18 0 -19 -9 -1
-33 9 -12 16 -14 21 -8 3 6 1 11 -5 11 -7 0 -5 7 5 16 9 9 13 24 10 34 -4 12
1 23 14 32 11 8 23 27 27 43 7 29 20 45 37 45 5 0 5 -4 2 -10 -3 -5 -1 -10 4
-10 6 0 11 -15 11 -33 0 -22 -7 -36 -22 -46 -21 -13 -21 -14 -2 -25 10 -6 20
-19 22 -29 4 -21 -25 -70 -36 -63 -4 2 -7 -10 -7 -26 0 -45 -22 -47 -31 -3 -4
26 -3 40 6 45 7 4 10 14 8 21 -3 10 -9 8 -23 -8 -10 -12 -24 -19 -31 -16 -8 3
-14 0 -14 -6 0 -6 3 -10 8 -10 19 3 22 -3 12 -21 -6 -12 -22 -20 -38 -21 -15
0 -21 -3 -14 -6 6 -2 12 -16 12 -29 0 -15 6 -24 15 -24 8 0 15 -4 15 -10 0 -5
4 -10 9 -10 5 0 7 9 4 20 -3 11 -2 28 2 37 5 10 7 21 7 26 -1 4 3 7 8 7 6 0
10 -4 10 -9 0 -5 3 -17 7 -27 4 -12 3 -15 -5 -10 -8 5 -10 2 -6 -9 4 -9 -1
-24 -10 -34 -14 -16 -15 -19 -2 -24 17 -7 41 17 31 32 -3 6 5 23 19 37 14 16
23 35 20 48 -3 17 2 21 26 23 21 2 30 -2 30 -12 0 -8 -4 -15 -9 -15 -5 0 -12
-11 -15 -25 -4 -14 -13 -25 -22 -25 -11 0 -13 -6 -9 -20 4 -12 2 -26 -3 -33
-6 -7 -12 -16 -14 -22 -1 -5 -9 -9 -15 -9 -20 3 -15 -20 8 -34 12 -8 19 -9 15
-4 -3 5 3 18 12 28 10 10 16 27 14 37 -2 9 1 17 8 17 6 0 15 12 20 26 8 21 13
24 24 15 13 -11 11 -51 -3 -51 -3 0 -12 -9 -19 -20 -10 -17 -10 -20 4 -20 8 0
12 5 9 10 -3 6 3 10 15 10 12 0 19 -4 15 -9 -3 -5 -1 -12 5 -16 15 -9 12 -41
-6 -56 -14 -12 -14 -14 4 -20 17 -6 19 -14 15 -53 -4 -31 -2 -46 6 -46 6 0 11
9 11 20 0 12 11 32 25 45 27 24 17 48 -10 25 -20 -16 -24 0 -9 40 12 34 13 34
13 8 1 -16 5 -28 11 -28 5 0 9 6 7 13 -1 6 6 11 16 11 17 -2 21 7 18 34 -1 8
3 20 9 27 7 8 9 18 6 23 -2 4 -7 29 -10 55 -6 47 -1 54 36 48 4 0 4 7 1 16 -4
11 -3 14 5 9 15 -9 10 30 -6 46 -8 8 -9 5 -5 -10 4 -17 -1 -24 -21 -32 -21 -8
-26 -16 -26 -45 0 -21 -4 -34 -10 -30 -10 6 -8 60 3 72 4 3 7 14 7 24 0 9 6
20 13 22 8 4 8 6 0 6 -6 1 -9 10 -5 23 3 14 2 19 -6 14 -7 -4 -12 -1 -12 6 0
7 -3 23 -6 35 -5 17 2 31 25 53 32 33 52 80 33 80 -6 0 -17 -12 -24 -27 -22
-45 -43 -41 -44 10 -1 35 3 45 20 53 18 8 25 22 43 84 4 13 5 13 13 0 7 -11
10 -7 10 17 0 39 9 65 21 57 5 -3 9 5 9 18 l-1 23 -19 -24 c-11 -13 -20 -31
-20 -41 0 -10 -6 -20 -14 -23 -8 -3 -17 -20 -21 -38 -4 -18 -21 -46 -37 -63
-29 -30 -30 -30 -23 -6 4 14 9 42 10 63 2 21 8 44 15 52 7 9 8 15 2 15 -16 0
-35 -29 -28 -45 7 -20 -13 -19 -35 1 -15 13 -16 20 -6 37 7 12 20 28 30 35 9
7 17 22 17 32 0 10 7 23 16 28 10 6 13 12 6 16 -16 9 -44 -24 -39 -45 4 -15 0
-19 -18 -19 -20 0 -23 5 -23 35 0 31 7 40 30 36 4 0 5 6 1 15 -11 29 -38 11
-41 -29 -4 -51 -27 -43 -26 8 2 41 22 112 37 133 6 7 7 15 3 19 -9 9 -36 -29
-31 -44 2 -6 -2 -17 -10 -23 -11 -9 -16 -7 -24 9 -14 25 -14 74 -1 66 6 -3 10
1 10 9 0 10 -6 13 -15 10 -8 -4 -15 -10 -15 -14 0 -4 -6 -10 -14 -13 -17 -7
-15 18 4 53 13 24 8 36 -10 25 -6 -4 -9 -13 -6 -21 7 -17 -2 -18 -17 -1 -22
22 -18 69 9 104 14 18 22 38 18 45 -5 7 -12 5 -22 -8 -14 -18 -14 -18 -9 3 3
15 -1 23 -15 26 -12 4 -17 10 -13 17 5 9 10 9 18 1 6 -6 16 -11 22 -11 5 0 4
4 -4 9 -10 6 -11 13 -2 29 12 23 15 43 3 26 -4 -6 -19 -14 -34 -18 -26 -6 -33
0 -29 27 2 15 -29 6 -37 -10z"/>
<path d="M4407 6710 c-3 -8 -7 -45 -9 -82 -3 -53 -10 -76 -36 -117 l-32 -52
23 -8 c84 -30 136 -33 338 -23 185 9 210 12 269 36 44 18 54 24 30 20 -66 -12
-445 -15 -478 -3 -35 12 -40 21 -49 96 -7 62 -48 158 -56 133z"/>
<path d="M3972 6424 c-5 -9 -7 -25 -4 -36 3 -14 -2 -21 -17 -25 -15 -4 -21
-13 -21 -33 0 -28 -29 -70 -48 -70 -6 0 -9 -7 -5 -15 3 -9 -2 -24 -11 -34 -9
-10 -13 -21 -9 -24 14 -15 31 -6 43 23 7 17 17 30 23 30 6 0 7 3 4 6 -3 4 3
18 14 32 12 15 17 33 13 44 -5 16 -2 19 13 16 11 -2 17 -11 15 -23 -7 -50 -13
-65 -28 -65 -10 0 -14 -8 -12 -24 3 -27 -19 -59 -35 -49 -7 4 -8 -5 -4 -25 5
-24 2 -32 -11 -36 -21 -7 -45 -43 -37 -56 9 -15 22 -12 29 8 13 33 43 81 48
76 3 -3 13 13 22 36 10 25 22 40 33 40 15 0 16 2 3 10 -8 5 -10 10 -5 10 9 0
15 21 18 67 0 7 9 15 19 19 24 7 19 38 -7 42 -16 2 -17 1 -5 -7 18 -12 7 -26
-15 -17 -18 7 -16 42 3 39 6 -2 9 4 6 12 -4 8 -1 15 5 15 6 0 11 7 11 15 0 20
-37 19 -48 -1z"/>
</g>
</svg>
