<?xml version="1.0" standalone="no"?>
<!DOCTYPE svg PUBLIC "-//W3C//DTD SVG 20010904//EN"
 "http://www.w3.org/TR/2001/REC-SVG-20010904/DTD/svg10.dtd">
<svg version="1.0" xmlns="http://www.w3.org/2000/svg"
 width="640.000000pt" height="640.000000pt" viewBox="0 0 640.000000 640.000000"
 preserveAspectRatio="xMidYMid meet">
<metadata>
Created by potrace 1.16, written by Peter Selinger 2001-2019
</metadata>
<g transform="translate(0.000000,640.000000) scale(0.100000,-0.100000)"
fill="#000000" stroke="none">
<path d="M0 3200 l0 -3200 3200 0 3200 0 0 975 c0 854 -2 975 -15 975 -8 0
-15 -5 -15 -11 0 -7 -10 -9 -25 -7 -14 3 -25 1 -25 -6 0 -6 -4 -5 -9 3 -8 12
-12 12 -26 -2 -18 -19 -30 -23 -20 -7 10 17 -32 11 -50 -6 -18 -18 -75 -34
-120 -33 l-30 1 34 10 c18 5 43 15 55 23 11 7 38 17 59 20 20 4 37 11 37 15 0
5 15 12 32 16 18 3 47 17 64 30 17 13 36 24 42 24 15 0 9 59 -7 70 -10 5 -9
11 3 23 22 22 20 27 -9 27 -14 0 -25 -4 -25 -10 0 -5 -4 -10 -9 -10 -5 0 -7 9
-4 20 3 11 12 20 19 20 8 0 14 5 14 10 0 6 -11 10 -25 10 -18 0 -23 4 -19 15
5 11 -1 15 -22 16 -25 0 -26 2 -9 8 11 5 24 6 29 3 4 -2 5 5 2 16 -5 15 -2 22
13 27 17 5 38 35 25 35 -13 0 -84 -44 -84 -52 0 -4 -7 -8 -15 -8 -9 0 -12 -6
-9 -15 4 -9 0 -15 -9 -15 -9 0 -21 -8 -26 -17 -7 -13 -10 -14 -11 -4 0 7 16
28 35 47 19 18 35 37 35 43 0 5 10 13 22 17 40 12 -4 23 -57 13 -27 -5 -56 -7
-64 -4 -9 3 -29 -2 -45 -10 -34 -18 -36 -18 -36 -5 0 6 7 10 16 10 8 0 12 5 9
10 -3 6 -2 10 4 10 13 0 41 29 41 42 0 7 -4 7 -13 -1 -16 -13 -27 -5 -27 21 0
22 -16 24 -24 3 -3 -8 -12 -15 -19 -15 -8 0 -20 -7 -27 -15 -21 -25 -34 -17
-16 10 23 35 20 48 -9 41 -14 -4 -25 -2 -25 3 0 5 8 12 18 14 13 4 12 5 -5 6
-12 0 -24 -3 -27 -8 -8 -12 -46 -21 -46 -10 0 5 7 9 15 9 8 0 15 5 15 10 0 6
-4 10 -8 10 -11 0 -52 35 -52 44 0 4 14 -2 30 -14 17 -12 36 -19 43 -17 7 3 5
8 -8 13 -26 10 -46 36 -40 51 6 17 -5 16 -29 -2 -27 -20 -86 -20 -86 0 0 9 -9
15 -24 15 -21 0 -24 -5 -22 -31 0 -20 -4 -34 -14 -37 -13 -5 -13 -3 -1 12 18
21 6 34 -19 18 -27 -16 -35 3 -9 22 13 9 18 19 14 27 -6 8 -4 10 5 4 8 -5 11
-3 8 6 -3 8 -11 13 -18 11 -8 -2 -10 3 -6 13 3 9 0 25 -7 37 -10 16 -9 22 1
25 10 4 10 8 1 19 -9 11 -8 14 5 14 9 0 16 5 16 10 0 6 -7 10 -15 10 -8 0 -15
5 -15 10 0 6 4 10 9 10 4 0 6 11 3 25 -2 14 -8 25 -12 25 -5 0 -17 3 -27 7
-17 6 -17 6 0 -14 24 -27 21 -33 -7 -20 -29 14 -35 32 -25 67 4 16 7 19 8 8 1
-23 17 -23 31 0 8 11 13 13 16 5 3 -7 12 -9 20 -6 10 4 12 0 8 -11 -8 -21 5
-20 22 1 11 14 15 15 22 5 7 -10 11 -10 22 2 7 9 16 13 21 10 5 -3 9 -1 9 4 0
14 29 24 43 15 7 -4 23 -6 37 -4 21 3 22 1 11 -13 -7 -9 -10 -16 -5 -16 5 0 0
-7 -10 -15 -11 -8 -17 -17 -14 -20 3 -4 18 5 33 19 17 16 33 22 43 18 16 -6
16 -7 1 -10 -19 -3 -34 -45 -19 -50 14 -5 12 -22 -2 -22 -6 0 -20 7 -30 17
-17 15 -18 15 -18 -5 0 -15 6 -22 20 -22 22 0 27 -15 8 -23 -7 -3 -4 -6 8 -6
24 -1 59 33 49 48 -3 7 2 11 14 11 25 0 29 37 6 46 -20 8 -19 21 3 27 12 3 10
5 -7 6 -21 1 -23 5 -18 31 6 30 -6 42 -17 18 -4 -7 -4 1 -2 17 4 29 3 30 -35
30 -29 0 -41 -4 -45 -18 -3 -10 -12 -16 -19 -13 -16 6 -85 -14 -85 -25 0 -3
10 -10 23 -14 l22 -8 -24 -4 c-13 -3 -28 1 -33 9 -7 10 -11 10 -22 -4 -14 -20
-36 -24 -36 -8 0 6 5 10 11 10 12 0 89 80 89 93 0 4 5 5 10 2 6 -3 10 1 10 10
0 9 5 13 10 10 6 -3 10 4 10 16 0 21 -1 21 -18 6 -15 -13 -21 -14 -31 -4 -10
9 -15 8 -25 -5 -7 -10 -16 -18 -19 -18 -3 0 -8 8 -10 18 -4 16 -5 16 -6 0 -1
-19 -21 -25 -21 -7 0 8 -5 8 -15 -1 -8 -7 -15 -18 -15 -25 0 -8 -9 -10 -25 -8
-19 4 -27 0 -36 -21 -7 -14 -18 -26 -25 -26 -7 0 -18 -8 -23 -18 -10 -16 -10
-15 -11 3 0 17 -3 16 -18 -7 -9 -16 -22 -28 -30 -28 -7 0 -15 -7 -18 -15 -4
-8 -10 -13 -15 -10 -13 9 -59 -6 -53 -17 4 -6 -2 -6 -14 1 -15 8 -23 7 -32 -4
-8 -10 -9 -15 -2 -15 6 0 9 -7 6 -15 -8 -19 25 -33 36 -15 6 9 12 9 29 1 12
-7 26 -9 31 -6 6 3 16 -7 22 -22 18 -41 31 -51 72 -58 27 -6 34 -10 26 -19 -5
-7 -23 -11 -40 -8 -18 3 -40 -2 -56 -13 -14 -9 -28 -14 -32 -11 -3 3 -1 6 5 6
6 0 11 22 11 50 0 43 -3 49 -15 39 -9 -8 -12 -22 -8 -40 5 -22 2 -29 -14 -34
-12 -3 -25 -4 -30 0 -5 3 -12 1 -16 -5 -9 -15 -25 -2 -19 14 8 21 -9 26 -31
10 -10 -8 -13 -14 -7 -14 7 0 12 -11 12 -25 0 -22 -3 -24 -32 -18 -18 3 -46
15 -61 25 -16 12 -35 17 -45 13 -13 -5 -14 -8 -3 -14 8 -6 9 -11 3 -15 -6 -3
-14 -2 -17 4 -5 8 -11 8 -20 0 -11 -9 -17 -7 -27 9 -7 12 -19 21 -27 21 -10 0
-10 6 4 26 13 20 14 28 5 34 -7 4 -9 13 -6 19 4 7 -1 11 -13 11 -23 0 -37 16
-19 22 7 3 8 10 4 17 -7 11 -10 11 -18 0 -6 -10 -8 -5 -6 16 3 28 1 30 -39 30
-43 1 -69 14 -46 22 8 3 10 15 6 33 -5 26 -2 30 23 36 49 11 56 31 24 65 -15
17 -34 43 -41 57 -22 42 -42 62 -62 62 -15 0 -17 3 -8 13 8 11 5 19 -14 35
-14 12 -25 19 -25 15 0 -4 -15 11 -34 32 -25 28 -39 36 -55 32 -14 -3 -21 0
-21 9 0 8 5 14 11 14 5 0 7 5 4 10 -4 6 -13 4 -23 -6 -13 -14 -17 -14 -21 -3
-2 8 -9 17 -15 21 -8 5 -7 8 2 8 6 0 12 4 12 10 0 5 -3 9 -8 9 -20 -3 -32 2
-32 16 0 8 -6 15 -14 15 -8 0 -21 9 -28 19 -8 11 -23 19 -33 18 -14 -1 -21 5
-23 21 -2 12 -7 22 -12 22 -5 0 -7 -7 -4 -15 5 -11 2 -13 -10 -9 -9 3 -14 9
-12 13 2 3 -11 17 -30 31 -32 24 -48 49 -21 34 9 -5 9 -3 -1 7 -11 12 -14 12
-21 0 -5 -7 -10 -9 -12 -5 -2 5 -23 19 -47 31 -34 18 -47 20 -61 12 -20 -13
-78 11 -88 37 -3 7 -12 14 -20 14 -8 0 -11 -5 -8 -10 3 -5 -3 -10 -14 -10 -12
0 -21 5 -21 10 0 12 -47 13 -54 1 -3 -5 0 -11 7 -14 26 -10 146 -116 245 -217
170 -174 278 -356 332 -564 16 -60 17 -72 4 -91 -11 -17 -32 -126 -34 -178 0
-5 -4 -5 -10 -2 -5 3 -10 1 -10 -4 0 -6 5 -11 10 -11 6 0 10 -9 10 -20 0 -24
-6 -25 -25 -6 -20 20 -64 9 -62 -15 1 -11 7 -17 14 -15 23 9 25 -15 4 -38 -12
-13 -21 -29 -19 -36 2 -7 -3 -15 -9 -17 -8 -3 -13 4 -13 16 0 12 5 21 10 21 6
0 10 7 10 15 0 8 -5 15 -11 15 -6 0 -9 9 -6 20 5 21 -3 24 -40 14 -27 -7 -48
-60 -27 -68 8 -3 14 -10 14 -16 0 -6 -10 -4 -23 5 -13 8 -27 12 -30 8 -11 -10
-8 -35 3 -28 6 3 10 2 10 -4 0 -5 -4 -13 -10 -16 -5 -3 -10 -15 -10 -26 0 -11
4 -18 9 -14 5 3 12 -4 16 -15 8 -25 30 -26 52 -1 9 11 20 18 24 15 5 -3 30 6
57 20 l49 25 -4 -23 c-4 -17 -10 -22 -22 -19 -11 3 -31 -8 -50 -28 -18 -18
-40 -33 -49 -34 -45 -4 -82 -18 -76 -27 4 -7 2 -8 -4 -4 -6 4 -9 13 -6 20 3 8
0 32 -6 55 -11 41 -32 53 -47 27 -17 -29 -157 -56 -166 -32 -4 9 0 12 13 9 10
-3 21 1 26 8 5 8 3 11 -8 7 -10 -4 -14 0 -14 14 1 12 -5 23 -12 25 -8 3 -10
-2 -6 -14 5 -14 4 -15 -4 -4 -9 12 -13 12 -26 2 -10 -8 -16 -9 -16 -3 0 6 9
14 20 17 34 11 22 26 -16 21 -20 -2 -41 -11 -46 -20 -11 -20 -28 -21 -28 -1 0
8 -5 15 -11 15 -5 0 -8 -4 -5 -9 3 -5 -12 -26 -34 -47 -45 -44 -54 -84 -19
-84 20 0 20 -2 -6 -22 -16 -12 -37 -23 -48 -23 -11 -1 -24 -9 -29 -18 -6 -12
-23 -17 -58 -17 -28 0 -50 -4 -50 -10 0 -5 -5 -10 -11 -10 -5 0 -7 5 -4 10 3
6 -1 10 -10 10 -9 0 -13 -5 -9 -11 4 -8 0 -8 -15 0 -14 8 -21 8 -21 1 0 -5 -9
-19 -21 -31 -20 -20 -21 -20 -34 -2 -13 17 -14 17 -15 1 0 -17 -20 -27 -20
-10 0 4 -9 8 -19 8 -11 0 -17 -4 -15 -8 3 -4 12 -8 20 -8 8 0 14 -4 14 -8 0
-17 -13 -21 -31 -11 -11 5 -19 7 -19 5 0 -3 14 -12 30 -21 27 -14 30 -14 30 0
0 8 5 15 10 15 16 0 12 -15 -8 -33 -24 -22 -52 -22 -52 1 0 14 -2 14 -9 3 -7
-11 -10 -10 -14 5 -2 10 -5 1 -5 -21 0 -22 2 -34 5 -27 6 14 29 16 38 2 3 -6
-1 -7 -9 -4 -24 9 -19 -13 10 -51 25 -33 25 -33 3 -28 -23 6 -23 6 -3 -14 10
-11 28 -25 39 -31 17 -10 14 -11 -15 -5 -33 6 -34 5 -18 -10 9 -9 28 -21 43
-27 26 -10 26 -30 0 -30 -7 0 -15 -6 -18 -12 -3 -10 -11 -10 -35 -1 l-32 11 0
-54 c0 -56 -15 -73 -26 -29 -6 24 -9 25 -95 25 l-89 0 0 -97 c0 -54 4 -103 8
-110 12 -19 60 -33 112 -33 68 0 99 14 112 50 5 17 15 29 22 27 11 -4 11 -19
-4 -77 l-9 -35 -186 0 c-141 0 -185 3 -185 13 0 6 9 12 21 12 11 0 29 5 40 10
18 10 19 23 19 198 l0 187 -32 14 c-18 8 -39 21 -46 28 -8 7 -19 10 -25 6 -6
-4 -2 -9 11 -14 22 -8 31 -29 12 -29 -5 0 -10 5 -10 11 0 5 -4 8 -9 4 -11 -6
-25 13 -26 35 0 8 -10 16 -22 18 -22 3 -33 22 -13 22 6 0 10 4 10 10 0 6 -10
5 -25 -2 l-24 -11 -3 -196 c-4 -249 -2 -262 39 -281 18 -8 31 -19 30 -23 -4
-13 -197 -14 -197 -2 0 6 15 17 33 25 l32 15 3 208 c2 202 2 207 -18 207 -11
0 -20 -4 -20 -10 0 -5 7 -10 15 -10 8 0 15 -5 15 -10 0 -6 -11 -8 -25 -4 -15
4 -25 2 -25 -5 0 -6 5 -11 11 -11 5 0 7 -5 4 -10 -4 -6 -13 -4 -23 7 -16 16
-17 15 -20 -1 -3 -14 -10 -17 -30 -11 -15 3 -38 6 -51 6 -14 -1 -28 4 -32 11
-5 8 -12 3 -19 -17 -40 -105 -155 -382 -163 -392 -18 -25 -37 -13 -63 39 -14
29 -60 133 -102 232 -42 98 -79 177 -82 176 -15 -9 -50 23 -50 45 0 14 -4 25
-10 25 -5 0 -10 -9 -10 -19 0 -15 -5 -18 -22 -13 -12 3 -17 7 -10 10 14 4 17
92 3 92 -5 0 -17 -7 -26 -16 -12 -13 -19 -14 -28 -5 -15 15 -30 14 -21 -1 5
-8 2 -9 -10 -5 -10 4 -20 7 -22 7 -2 0 -4 7 -4 15 0 8 -6 15 -12 15 -10 0 -9
3 1 9 9 6 10 11 3 15 -6 4 -20 -1 -32 -11 -11 -10 -24 -17 -28 -17 -4 1 -16
-5 -27 -12 -30 -21 -61 -18 -61 7 0 17 2 18 12 5 9 -13 14 -13 29 -2 13 9 15
15 7 20 -16 10 -15 29 1 23 6 -2 23 0 36 5 18 6 22 5 18 -5 -4 -12 -1 -12 19
-3 13 6 24 14 24 19 0 4 7 7 16 7 9 0 12 -5 8 -12 -5 -9 -2 -8 10 1 13 11 14
16 4 22 -9 6 0 14 30 25 23 9 42 21 42 25 0 4 -45 110 -99 236 -54 125 -111
257 -127 293 -36 84 -46 96 -105 115 -43 15 -49 20 -49 45 0 16 5 32 10 35 6
3 46 -1 89 -10 72 -14 87 -15 177 0 103 16 118 13 112 -25 -3 -24 -7 -26 -70
-54 -21 -8 -38 -20 -38 -26 0 -14 104 -275 182 -459 47 -110 64 -140 72 -130
14 17 52 23 60 10 4 -6 13 -8 21 -4 9 3 22 0 30 -7 21 -18 132 -14 162 5 14 9
28 14 31 10 4 -3 0 -10 -7 -14 -17 -11 -2 -20 38 -23 17 -1 31 -6 31 -11 0
-15 20 4 36 35 13 25 14 32 2 39 -10 7 -10 9 2 9 16 0 23 15 97 190 85 203
107 265 107 309 1 50 -9 59 -94 83 -35 10 -46 18 -48 37 -6 40 9 44 107 26 51
-10 94 -15 96 -13 3 2 -19 12 -48 21 l-53 17 6 57 c4 31 12 59 18 61 16 5 15
20 -3 38 -9 9 -15 11 -15 4 0 -6 -4 -8 -10 -5 -5 3 -10 17 -10 31 0 13 -5 24
-11 24 -6 0 -10 -10 -9 -22 4 -39 0 -48 -15 -42 -11 5 -13 10 -5 19 5 6 7 14
4 17 -2 3 8 28 24 55 l30 50 -26 -5 c-15 -3 -23 -1 -19 5 8 13 -44 69 -73 78
-15 5 -19 12 -15 26 4 11 2 19 -4 19 -6 0 -11 5 -11 11 0 5 4 8 9 5 4 -3 16 3
26 14 10 11 22 17 26 14 21 -13 7 60 -16 88 -14 16 -23 34 -20 39 4 5 0 6 -8
3 -17 -6 -29 28 -16 47 7 12 9 11 9 -1 0 -11 5 -9 21 6 l21 21 -20 40 c-31 60
-38 109 -17 121 18 9 18 32 -1 105 -3 15 -3 27 2 26 5 -1 17 1 26 5 11 5 24 0
38 -14 30 -30 71 -23 88 14 12 24 12 30 -2 44 -14 15 -13 17 12 28 24 11 25
12 5 13 -23 1 -37 -13 -39 -39 -1 -8 -2 -25 -3 -37 0 -13 -6 -23 -11 -23 -17
0 0 93 21 116 10 11 19 26 19 32 0 7 7 12 15 12 9 0 14 9 13 24 -1 15 -7 22
-15 19 -7 -3 -28 4 -46 16 -46 28 -71 26 -99 -7 -23 -28 -57 -48 -59 -34 0 4
-2 18 -5 31 -3 19 -1 22 13 17 13 -5 11 0 -7 19 -13 14 -30 23 -37 21 -7 -3
-12 -2 -11 2 1 4 -4 20 -10 35 -7 16 -12 34 -12 42 0 8 -5 17 -11 21 -8 4 -9
0 -4 -15 8 -27 12 -52 19 -126 4 -33 7 -69 9 -79 1 -10 -3 -21 -9 -23 -16 -5
-35 44 -28 75 5 22 3 24 -6 12 -9 -12 -11 -10 -6 12 8 36 -4 88 -20 88 -8 0
-14 10 -14 25 0 14 -4 25 -9 25 -5 0 -12 10 -14 23 -2 12 -2 0 0 -28 3 -27 7
-59 10 -70 3 -11 2 -17 -2 -13 -4 4 -16 46 -26 94 -17 82 -35 132 -25 69 12
-79 18 -139 11 -134 -13 13 -35 130 -32 175 2 41 0 47 -21 55 -39 15 -62 2
-62 -34 0 -50 -10 -76 -26 -70 -8 3 -14 0 -14 -6 0 -8 -11 -6 -30 6 -39 22
-40 45 -2 38 15 -3 21 -2 15 1 -20 9 -15 32 7 39 34 11 25 35 -10 29 -19 -4
-30 -2 -30 5 0 6 7 11 15 11 21 0 30 27 16 44 -7 9 -8 17 -2 20 5 3 14 -8 20
-24 5 -17 15 -30 20 -30 16 0 13 16 -5 35 -9 9 -14 18 -11 21 3 3 15 -4 26
-15 23 -23 41 -27 41 -10 0 6 7 8 16 5 8 -3 12 -2 9 4 -3 6 -1 10 4 10 6 0 11
-8 11 -19 0 -15 5 -17 28 -13 24 5 26 4 13 -11 -12 -15 -11 -17 9 -17 13 0 24
8 27 20 3 11 12 20 19 20 18 0 18 -14 -1 -30 -20 -17 -19 -25 4 -27 13 -1 23
8 30 29 14 39 14 38 -5 38 -14 0 -14 3 -4 15 17 20 5 32 -15 15 -9 -7 -18 -10
-22 -6 -12 12 31 35 44 24 9 -7 25 1 59 31 26 23 51 41 55 41 17 0 9 -29 -8
-33 -17 -4 -17 -5 -1 -6 10 0 36 19 59 44 23 25 48 45 55 45 8 0 14 7 14 15 0
9 9 15 25 15 31 0 32 -8 3 -20 -21 -8 -21 -9 -3 -9 28 -1 50 35 34 55 -9 11
-9 14 0 14 7 0 10 4 6 9 -3 5 -1 12 5 16 5 3 10 10 10 16 0 13 -27 11 -34 -3
-3 -7 -4 -1 -1 14 4 22 2 25 -15 21 -14 -4 -20 0 -20 11 0 9 -8 16 -20 16 -23
0 -26 10 -8 28 9 9 6 12 -14 12 -15 0 -30 5 -33 10 -4 6 -15 8 -25 5 -10 -3
-21 -2 -24 3 -3 6 -26 13 -51 16 -25 4 -45 11 -45 17 0 5 -9 9 -20 9 -11 0
-20 -6 -20 -14 0 -23 -17 -28 -35 -9 -9 9 -31 18 -47 20 -28 3 -91 53 -68 53
6 0 10 7 10 15 0 8 -7 15 -15 15 -21 0 -19 18 5 32 11 7 20 17 20 23 0 6 10
16 22 24 22 14 22 13 6 -11 -21 -32 -11 -44 15 -21 17 16 19 16 28 1 10 -18
39 -14 39 6 0 6 21 26 48 44 51 34 74 42 48 16 -28 -27 -17 -35 17 -12 17 13
34 26 37 29 3 3 13 8 23 12 12 4 17 1 17 -10 0 -13 3 -13 15 -3 12 10 13 16 4
27 -7 7 -9 17 -5 21 4 4 20 -8 35 -26 l27 -33 27 21 c15 12 27 17 27 11 0 -18
21 -13 56 14 19 15 35 21 39 15 9 -15 45 -12 45 4 0 8 6 17 13 19 9 4 8 8 -3
16 -8 5 -11 14 -6 18 5 4 11 2 13 -4 5 -15 39 -17 47 -4 3 5 16 7 28 4 13 -4
25 0 32 9 6 8 21 18 34 22 15 5 22 15 22 32 0 14 4 23 9 20 14 -9 21 19 14 60
-5 29 -2 40 12 50 17 13 17 14 -9 14 -15 0 -39 -9 -53 -20 -14 -11 -33 -20
-42 -20 -9 0 -25 -7 -35 -15 -11 -8 -28 -15 -38 -15 -10 0 -18 -4 -18 -10 0
-10 -72 -14 -82 -4 -9 9 22 64 36 64 7 0 21 9 31 20 10 11 24 20 32 20 7 0 13
6 13 13 0 6 11 25 25 41 29 33 36 67 9 46 -13 -12 -14 -10 -3 13 11 24 9 29
-14 48 -26 20 -37 59 -17 59 13 0 5 77 -10 95 -10 12 -8 19 15 36 20 17 24 24
13 30 -17 11 -31 11 -24 0 9 -13 -26 -23 -38 -11 -7 7 -6 10 3 10 7 0 0 16
-18 38 -29 37 -29 40 -14 62 15 21 15 23 -1 32 -20 11 -21 28 0 28 8 0 12 5 9
11 -4 6 2 13 14 16 24 6 28 28 6 37 -8 3 -20 17 -27 31 -9 21 -8 28 8 46 l19
22 -35 -6 c-19 -3 -29 -3 -22 0 6 2 12 11 12 18 0 8 12 26 27 40 21 19 39 25
70 25 25 0 43 5 43 11 0 7 11 9 29 6 19 -4 33 -1 41 8 16 19 39 19 46 0 8 -19
19 -19 39 1 11 11 28 15 58 12 23 -3 70 -1 104 3 46 7 78 5 120 -6 73 -19 66
-20 101 15 17 17 35 30 40 30 5 0 15 7 22 15 25 31 91 -3 121 -62 13 -24 32
-49 43 -55 12 -6 36 -24 54 -39 39 -35 104 -69 130 -69 10 0 36 -9 58 -19 32
-16 42 -17 54 -6 8 7 32 15 52 19 32 6 41 3 65 -22 15 -16 54 -42 86 -57 43
-20 57 -32 55 -45 -2 -10 6 -27 16 -39 17 -19 18 -21 2 -21 -11 0 -14 -5 -10
-12 5 -8 13 -4 25 11 13 15 20 18 25 9 4 -6 2 -14 -4 -16 -7 -2 -12 -13 -12
-25 1 -21 1 -22 15 -3 22 29 29 13 11 -23 -20 -37 -20 -41 -1 -41 22 0 0 -41
-26 -47 -27 -7 -24 -22 7 -33 39 -15 68 -12 84 10 8 11 21 20 30 19 10 0 11
-2 2 -6 -6 -2 -12 -11 -12 -19 0 -10 7 -13 24 -8 21 5 24 3 19 -15 -6 -23 15
-29 34 -10 8 8 19 7 40 -4 73 -41 73 -41 85 -29 8 8 5 9 -13 5 -22 -6 -23 -5
-9 13 38 48 56 58 45 24 -9 -28 18 -26 45 2 26 29 26 48 -1 41 -21 -6 -21 -5
-4 21 10 15 26 31 36 37 11 5 19 16 19 24 0 15 29 35 51 35 8 0 6 -6 -4 -18
-18 -20 -22 -42 -8 -42 5 0 19 12 32 26 13 15 35 37 48 50 18 18 20 24 8 24
-8 0 -17 -5 -19 -12 -3 -7 -12 -9 -23 -4 -17 6 -16 9 10 26 17 11 32 30 35 42
4 14 15 24 28 26 12 2 22 10 22 18 0 10 -7 13 -25 8 -19 -5 -25 -2 -25 10 0 9
-4 16 -10 16 -16 0 -11 27 6 34 9 4 19 4 22 1 3 -3 0 -5 -6 -5 -7 0 -12 -4
-12 -10 0 -14 26 -12 38 3 7 8 6 18 -4 32 -8 11 -11 28 -8 39 7 21 6 21 -14 3
-20 -18 -20 -18 -15 2 3 12 9 24 14 27 14 8 10 24 -6 24 -17 0 -20 16 -5 25 6
4 8 11 5 16 -9 13 22 23 43 13 9 -4 26 -8 37 -10 10 -1 21 -7 23 -13 5 -16 29
-13 36 5 9 23 23 9 30 -31 4 -21 13 -35 21 -35 16 0 21 35 6 44 -5 4 11 27 35
52 36 36 43 49 34 60 -11 13 -9 89 3 100 13 13 27 -9 27 -41 0 -19 5 -37 10
-40 6 -3 10 -1 10 4 0 6 7 11 15 11 20 0 19 -10 -2 -26 -17 -12 -16 -13 5 -14
12 0 22 5 22 10 0 6 7 10 15 10 8 0 15 -6 15 -14 0 -8 6 -16 13 -19 9 -3 9 -9
0 -25 -10 -17 -7 -23 23 -48 19 -16 34 -37 34 -46 0 -10 5 -18 11 -18 8 0 8
-4 -1 -15 -19 -23 -1 -39 20 -15 9 11 22 20 28 20 6 0 16 9 22 20 6 11 21 20
33 20 21 -1 22 -1 3 -15 -18 -13 -18 -15 -2 -15 9 0 26 9 38 20 24 22 38 19
18 -5 -7 -8 -9 -15 -4 -15 5 0 -2 -10 -16 -21 -18 -15 -20 -19 -7 -15 10 3 23
6 28 6 5 0 9 7 9 15 0 8 6 15 13 15 6 1 23 14 37 30 33 40 59 41 31 1 -21 -29
-21 -29 -1 -34 20 -5 28 -27 10 -27 -5 0 -10 -6 -10 -12 0 -7 12 0 27 17 l26
30 -24 5 c-24 6 -24 6 -3 18 11 6 31 8 44 5 16 -4 27 0 36 12 13 17 14 16 14
-13 0 -32 0 -32 25 -16 14 9 25 25 25 36 0 14 5 18 16 14 9 -3 21 -6 27 -6 7
0 4 -5 -6 -11 -9 -6 -15 -15 -11 -20 3 -6 -3 -13 -15 -16 -12 -3 -21 -9 -21
-14 0 -14 16 -10 43 11 14 11 28 20 32 20 3 0 3 -9 0 -20 -5 -17 -2 -20 22
-21 15 0 22 -3 16 -6 -13 -4 -19 -33 -8 -33 3 0 17 11 30 25 27 26 33 61 13
68 -10 3 -10 8 1 21 12 14 12 16 -3 10 -20 -8 -21 9 -1 26 11 10 15 36 15 111
l0 99 -3200 0 -3200 0 0 -3200z m5235 3158 l8 -23 4 23 c5 25 25 29 42 8 7 -8
26 -18 42 -21 35 -8 37 -17 4 -35 -30 -16 -35 -37 -18 -73 13 -25 12 -28 -12
-39 -14 -6 -25 -15 -25 -20 0 -4 -4 -8 -10 -8 -5 0 -10 7 -10 16 0 11 -6 14
-21 9 -18 -6 -20 -4 -14 14 4 14 -1 29 -19 48 -14 15 -26 33 -26 39 0 7 -8 10
-20 7 -27 -7 -25 10 5 44 21 24 26 26 35 13 8 -13 10 -13 10 3 0 24 16 21 25
-5z m-3526 -1165 c-7 -10 -25 -29 -39 -43 -24 -25 -36 -50 -24 -50 4 0 20 16
37 35 16 19 33 35 38 35 12 0 12 -27 0 -32 -12 -5 -24 -48 -13 -48 6 0 12 7
16 15 3 8 15 15 27 15 18 0 19 -2 9 -15 -11 -13 -8 -15 16 -15 22 0 25 -3 16
-12 -22 -22 -13 -31 14 -13 30 20 43 12 26 -15 -10 -17 -10 -20 3 -20 8 0 15
5 15 10 0 6 7 10 15 10 8 0 12 -6 9 -14 -4 -11 2 -14 25 -14 17 1 34 -1 37 -5
3 -3 19 -1 35 3 33 10 37 4 12 -16 -17 -12 -16 -13 5 -14 12 0 25 7 28 15 4 8
10 15 15 15 5 0 9 -7 9 -15 0 -19 10 -19 38 1 23 16 42 12 42 -10 0 -8 -14
-16 -31 -20 -17 -3 -28 -10 -24 -16 3 -5 1 -10 -4 -10 -6 0 -11 -7 -11 -16 0
-14 3 -14 15 -4 13 10 15 9 15 -9 0 -14 6 -21 19 -21 31 0 33 -15 6 -40 -20
-19 -23 -26 -12 -38 10 -13 9 -15 -6 -9 -11 4 -31 0 -49 -10 -28 -17 -30 -17
-43 0 -13 18 -14 18 -24 0 -9 -17 -10 -17 -24 1 -9 13 -20 17 -32 12 -11 -4
-22 -1 -26 6 -7 10 -12 9 -26 -4 -16 -17 -16 -18 11 -18 25 0 27 -2 15 -17
-13 -15 -11 -16 19 -10 24 5 32 3 32 -8 0 -18 -38 -29 -54 -16 -8 6 -21 9 -30
5 -11 -4 -16 -1 -16 10 0 9 -4 16 -10 16 -13 0 -13 -17 0 -25 13 -8 1 -35 -16
-35 -7 0 -11 6 -9 13 4 8 -10 12 -47 13 -29 0 -41 -1 -25 -3 37 -6 35 -23 -3
-23 -16 0 -30 -4 -30 -10 0 -5 7 -10 15 -10 21 0 19 -17 -4 -30 -28 -14 -41
-12 -35 5 5 13 2 14 -20 5 -17 -6 -26 -6 -26 0 0 6 -11 10 -25 10 -14 0 -25 5
-25 10 0 6 5 10 10 10 6 0 10 10 10 23 -1 20 -2 20 -11 5 -6 -10 -22 -18 -37
-18 -23 1 -25 2 -9 11 9 5 17 17 17 24 0 8 10 16 23 16 22 2 22 2 -1 6 -25 5
-62 -21 -62 -43 0 -7 -8 -15 -17 -17 -11 -3 -7 -5 10 -6 18 -1 27 -6 25 -13
-6 -16 -48 -23 -48 -9 0 21 -27 11 -40 -14 -13 -25 -30 -33 -30 -15 0 6 5 10
10 10 6 0 10 9 10 19 0 11 9 22 19 26 11 3 23 14 26 25 3 10 18 21 33 25 l27
7 -25 13 c-23 12 -21 13 27 9 51 -3 83 11 83 37 0 5 7 9 15 9 8 0 15 6 15 14
0 8 8 16 18 18 12 2 13 6 5 11 -8 5 -21 -2 -34 -17 -17 -19 -29 -24 -61 -21
-21 1 -41 5 -44 7 -4 5 22 34 74 81 28 25 43 57 26 57 -3 0 -30 -25 -59 -55
-58 -60 -90 -74 -55 -24 25 34 21 46 -9 29 -17 -9 -21 -8 -21 5 0 8 5 15 11
15 5 0 7 4 4 10 -4 6 -15 4 -30 -6 -22 -15 -23 -14 -18 5 3 12 16 31 29 44 32
29 33 52 2 35 -12 -7 -30 -22 -40 -33 -9 -11 -17 -15 -18 -10 0 16 13 31 38
44 14 8 21 18 18 27 -3 8 1 14 8 14 8 0 16 7 20 15 3 8 17 15 30 15 20 0 24
-4 19 -17 -4 -11 -3 -14 6 -9 7 5 16 19 21 32 6 15 18 24 31 24 12 0 23 8 26
18 2 10 14 23 26 29 33 16 41 15 26 -4z m-500 -510 c-8 -10 -18 -21 -24 -25
-5 -4 -6 -10 -2 -15 5 -4 12 -1 17 7 6 10 27 15 60 16 41 1 48 -1 39 -12 -12
-15 -7 -17 29 -14 20 1 23 -2 17 -21 -6 -18 -4 -21 9 -16 9 4 16 2 16 -3 0 -6
-13 -10 -29 -10 -17 0 -33 -4 -36 -10 -4 -6 5 -10 20 -10 16 0 24 -4 19 -11
-3 -6 -17 -8 -31 -4 -32 8 -63 -2 -63 -21 0 -8 -4 -14 -10 -14 -5 0 -10 -4
-10 -9 0 -6 24 -7 56 -4 55 6 56 6 49 -17 -6 -19 -4 -22 9 -17 10 4 16 1 16
-7 0 -25 -12 -46 -26 -46 -8 0 -14 -4 -14 -10 0 -5 -7 -10 -15 -10 -9 0 -12
-6 -9 -15 4 -10 0 -15 -14 -15 -11 0 -22 6 -25 13 -3 9 -9 7 -24 -5 -25 -23
-63 -24 -63 -1 0 15 -1 15 -18 0 -26 -24 -32 -21 -27 14 4 29 3 30 -14 15 -20
-18 -41 -22 -23 -4 17 17 15 29 -5 26 -12 -2 -18 3 -17 15 2 14 -3 16 -20 11
-11 -3 -25 -10 -30 -15 -6 -5 -17 -9 -25 -9 -11 0 -10 4 5 16 18 14 17 15 -13
11 -36 -4 -45 9 -14 21 11 4 19 11 18 17 -3 15 35 18 44 3 6 -10 9 -10 9 0 0
7 13 12 33 12 30 -1 31 -1 13 -15 -17 -13 -17 -15 -4 -15 9 0 23 7 32 15 8 8
19 15 25 15 6 0 11 7 11 15 0 8 7 15 16 15 11 0 14 5 10 16 -4 10 0 18 13 21
11 3 17 11 15 18 -3 7 3 15 13 18 17 4 17 5 0 6 -10 0 -20 -6 -23 -14 -4 -8
-18 -15 -33 -15 -25 1 -25 1 -7 15 20 15 16 18 -19 16 -18 -1 -18 0 -4 11 9 7
14 19 12 26 -3 6 2 12 10 12 8 0 17 7 21 15 3 8 15 15 27 15 19 0 20 -2 8 -17z
m1541 -70 c27 -12 43 -27 50 -47 6 -16 7 -32 2 -35 -4 -3 -7 -16 -6 -28 2 -27
-52 -103 -72 -103 -10 0 -9 10 8 41 l22 42 -26 22 c-26 22 -101 41 -119 30 -5
-4 -16 1 -25 9 -14 15 -14 16 1 16 23 0 51 29 33 34 -7 3 -20 7 -28 9 -8 3 9
6 38 6 28 1 52 6 52 11 0 15 25 12 70 -7z m-410 -438 c-7 -8 -16 -12 -21 -9
-5 3 -6 -2 -3 -10 6 -16 -15 -60 -43 -91 -21 -23 -53 -89 -53 -110 0 -7 5 -15
10 -17 6 -2 2 -18 -9 -39 -13 -24 -18 -48 -15 -69 4 -21 2 -30 -5 -25 -6 3
-11 13 -11 21 0 8 -4 14 -8 14 -16 0 -9 35 10 48 18 13 26 38 8 27 -6 -4 -10
9 -10 31 0 36 -1 37 -15 18 -14 -18 -16 -18 -29 -1 -7 9 -21 17 -30 17 -10 0
-14 5 -10 11 3 6 16 8 28 5 23 -5 56 17 74 51 10 17 9 22 -5 27 -15 6 -13 11
14 36 17 16 33 35 35 41 2 7 10 10 16 8 9 -3 5 -15 -13 -39 -27 -36 -31 -50
-15 -50 6 0 10 6 10 14 0 7 9 25 20 39 11 14 20 32 20 40 0 17 14 25 44 26 15
1 16 -2 6 -14z m-840 -100 c-17 -20 -5 -32 15 -15 14 11 17 10 22 -8 4 -18 9
-20 24 -11 16 8 19 6 19 -11 0 -11 -6 -20 -12 -21 -7 -1 3 -5 22 -9 20 -5 39
-5 45 1 5 6 3 9 -8 9 -15 0 -15 3 -5 20 15 23 33 27 24 5 -4 -10 1 -15 14 -15
12 0 20 -7 20 -16 0 -12 7 -15 25 -12 14 3 25 1 25 -3 0 -5 -15 -9 -34 -9 -28
0 -38 -6 -53 -30 -9 -16 -25 -30 -34 -30 -10 0 -19 -10 -21 -25 -4 -19 -1 -25
11 -23 9 2 16 -4 16 -12 0 -8 7 -18 15 -21 8 -4 -4 -6 -27 -5 -24 0 -43 4 -43
9 0 4 -9 7 -20 7 -11 0 -20 7 -20 15 0 8 -7 15 -16 15 -10 0 -14 -6 -10 -15 4
-11 -2 -15 -20 -15 -18 0 -25 4 -21 14 8 20 -3 27 -24 16 -11 -6 -20 -6 -23
-1 -8 13 56 51 85 51 23 1 69 31 69 45 0 16 -39 55 -45 45 -3 -5 -15 -10 -27
-10 -14 0 -18 5 -14 16 4 10 0 15 -12 13 -32 -3 -33 1 -6 26 30 28 66 36 44
10z m878 -366 c0 -16 9 -41 20 -57 35 -51 34 -57 -22 -84 -43 -21 -55 -24 -69
-13 -21 15 -22 89 -2 125 8 14 14 34 15 46 0 17 5 20 29 16 23 -3 28 -9 29
-33z m-1233 11 c-5 -17 -2 -20 27 -21 18 0 27 -3 21 -6 -23 -9 -14 -23 15 -24
15 0 21 -3 15 -6 -19 -7 -16 -23 5 -21 49 4 82 -3 82 -17 0 -8 9 -15 19 -15
11 0 23 -4 26 -10 3 -5 1 -10 -4 -10 -6 0 -11 -5 -11 -11 0 -6 9 -8 21 -4 18
6 20 4 15 -13 -5 -15 -2 -22 11 -25 10 -3 1 -5 -21 -6 -30 -1 -37 2 -32 14 7
19 4 19 -40 -5 -36 -21 -52 -21 -39 -1 3 6 11 9 16 6 5 -4 9 -1 9 5 0 7 -13
10 -32 8 -18 -2 -33 2 -35 10 -3 7 4 12 17 12 12 0 18 4 15 10 -3 5 -20 7 -38
4 -24 -4 -28 -3 -17 5 21 14 9 21 -43 24 -44 3 -80 17 -44 17 10 0 17 7 17 15
0 8 5 15 10 15 6 0 10 5 10 11 0 6 -12 9 -27 7 -15 -2 -28 2 -30 10 -3 7 4 12
15 12 11 0 22 7 26 15 8 23 28 18 21 -5z m959 -32 c5 -10 7 -10 12 0 8 17 24
15 24 -3 0 -7 7 -18 16 -23 15 -8 15 -11 0 -34 -9 -14 -14 -33 -10 -42 10 -26
-4 -66 -21 -60 -9 4 -15 1 -15 -7 0 -10 -3 -10 -12 -1 -7 7 -25 12 -41 12 -25
0 -28 2 -17 15 19 23 -12 19 -40 -5 -26 -23 -30 -24 -30 -10 0 5 16 25 37 45
36 35 40 64 5 32 -10 -10 -24 -17 -30 -17 -7 0 -12 -7 -12 -15 0 -8 -7 -15
-15 -15 -22 0 -18 13 10 34 14 10 25 25 25 32 0 8 5 14 10 14 6 0 10 5 10 11
0 6 -9 9 -20 6 -22 -6 -27 12 -8 31 16 16 115 16 122 0z m372 -190 c11 -17
-73 -87 -145 -120 -25 -11 -53 -30 -62 -42 -10 -11 -18 -18 -19 -13 0 8 -40
-30 -40 -38 0 -3 -9 -15 -20 -27 -17 -18 -27 -66 -21 -100 1 -11 -20 -10 -55
2 -16 5 -49 14 -73 20 -33 9 -41 14 -30 21 10 7 5 9 -16 7 -74 -4 -112 10 -67
26 9 3 24 9 32 13 13 5 13 4 1 -10 -12 -15 -11 -17 8 -17 11 0 21 6 21 14 0 8
7 17 16 20 23 9 34 7 34 -4 0 -5 -7 -10 -16 -10 -8 0 -12 -4 -9 -10 9 -15 19
-12 45 10 13 11 27 20 32 20 5 0 7 4 4 9 -3 5 3 11 14 14 26 7 25 -4 -2 -38
-19 -25 -20 -27 -2 -17 30 16 114 98 114 111 0 6 6 11 13 12 9 0 9 2 -1 6 -7
3 -22 -3 -33 -13 -31 -28 -35 -6 -4 26 32 34 47 39 39 13 -5 -14 -4 -15 4 -4
5 8 27 22 48 32 22 10 32 18 25 19 -11 0 -12 3 -4 11 6 6 9 19 6 28 -4 13 -3
14 5 1 6 -8 9 -17 7 -20 -2 -3 11 -5 29 -4 21 1 42 11 63 32 34 34 48 39 59
20z m-1476 -63 c-7 -9 -11 -18 -8 -20 8 -8 38 6 33 15 -3 4 2 11 11 14 12 5
14 1 9 -15 -6 -19 -4 -20 23 -14 35 7 52 -9 19 -20 -20 -7 -21 -7 -3 -12 11
-3 25 2 31 11 16 22 46 21 38 0 -4 -12 -2 -15 8 -12 8 3 14 11 14 18 0 8 11
17 25 21 21 6 19 7 -14 8 -22 1 -36 4 -32 8 11 11 116 13 116 3 0 -6 -7 -10
-15 -10 -8 0 -15 -4 -15 -10 0 -16 19 -11 37 10 18 21 43 27 43 10 0 -5 -4
-10 -10 -10 -5 0 -10 -4 -10 -10 0 -14 16 -12 32 4 8 7 25 17 38 21 22 7 23 6
11 -9 -12 -14 -11 -16 4 -16 10 0 23 7 30 16 6 9 20 14 31 12 17 -5 17 -6 -5
-15 -17 -7 -21 -12 -12 -17 7 -5 20 -1 30 8 10 9 24 16 32 16 12 0 11 -2 -1
-10 -10 -6 -11 -10 -2 -10 19 0 15 -70 -5 -86 -17 -13 -17 -13 0 -14 17 0 20
-11 21 -75 1 -30 -13 -43 -47 -44 -14 -1 -17 4 -12 20 5 15 4 19 -4 15 -6 -4
-11 -13 -11 -21 0 -7 -8 -16 -17 -18 -10 -3 -3 -5 16 -6 29 -1 32 -3 21 -16
-23 -27 -3 -27 26 1 l29 26 3 -30 c2 -16 -6 -57 -17 -90 -12 -34 -21 -67 -21
-74 0 -7 -12 -24 -25 -37 -14 -13 -23 -26 -20 -29 3 -3 12 3 21 14 14 17 15
18 10 1 -3 -10 -14 -62 -23 -116 -18 -106 -17 -111 45 -338 11 -40 17 -73 14
-73 -3 0 -1 -5 6 -12 7 -7 12 -20 12 -29 0 -9 7 -19 15 -23 8 -3 15 -13 15
-22 0 -9 10 -26 23 -38 13 -12 21 -28 19 -35 -2 -7 0 -16 5 -20 6 -3 13 -16
17 -28 6 -18 4 -21 -15 -16 -19 5 -20 3 -14 -18 4 -13 13 -29 21 -35 8 -6 25
-27 39 -47 23 -35 23 -37 6 -49 -18 -13 -31 -50 -34 -98 -2 -31 -26 -48 -38
-29 -11 18 -11 30 0 47 4 8 4 34 -1 59 -7 31 -7 48 1 56 13 13 14 37 2 37 -6
0 -22 -10 -37 -23 -23 -20 -31 -22 -50 -13 -15 7 -24 20 -24 34 0 12 -4 22 -8
22 -4 0 -8 18 -8 40 0 22 -3 43 -6 46 -4 3 -27 6 -52 7 -29 1 -46 7 -46 15 0
6 -4 12 -8 12 -5 0 -24 14 -42 30 -19 17 -48 34 -67 39 -18 5 -46 19 -62 30
-16 12 -42 21 -59 21 -16 0 -40 8 -53 19 -24 18 -52 27 -116 38 l-33 5 0 79
c0 46 4 79 10 79 6 0 10 -7 10 -16 0 -8 4 -13 9 -10 5 3 15 -2 22 -11 12 -14
12 -16 0 -8 -10 5 -12 4 -7 -3 4 -7 14 -12 22 -12 8 0 14 -7 14 -15 0 -22 40
-19 40 3 1 15 2 15 15 -2 13 -17 15 -18 15 -3 0 20 26 23 33 5 3 -10 7 -10 17
-1 7 7 25 9 40 6 16 -3 31 0 35 7 5 8 1 11 -12 8 -23 -4 -24 -1 -17 28 3 12
15 27 27 33 l22 12 -22 -5 c-33 -6 -39 12 -14 44 l21 29 -23 4 c-17 3 -16 5 8
6 l30 2 -25 11 c-15 6 -20 12 -12 15 6 3 12 9 12 15 0 7 -4 7 -12 0 -7 -5 -24
-13 -37 -17 -22 -7 -22 -5 8 24 27 26 29 31 13 31 -26 0 -37 39 -14 48 22 8
59 42 46 42 -5 0 3 6 18 14 15 8 36 12 48 9 14 -4 30 4 52 26 17 17 35 31 40
31 4 0 8 6 8 13 0 8 10 18 22 24 15 6 18 12 10 17 -7 4 -22 -4 -36 -18 -13
-14 -28 -26 -35 -26 -6 0 -11 -4 -11 -10 0 -5 -9 -10 -21 -10 -18 0 -16 4 13
30 l32 30 -31 0 c-17 0 -38 3 -46 6 -9 3 -25 -4 -36 -15 -12 -12 -27 -21 -34
-21 -7 1 -5 6 6 14 23 18 7 29 -30 20 -19 -4 -24 -3 -15 4 7 5 20 21 27 36 13
25 13 26 -9 20 -14 -3 -27 -1 -31 6 -5 8 -15 5 -31 -11 -22 -21 -54 -34 -54
-23 0 3 15 18 32 35 18 16 28 29 23 29 -6 0 -4 4 4 9 8 5 28 7 46 4 27 -4 36
1 75 46 25 28 51 51 58 51 25 0 11 20 -14 20 -19 0 -25 4 -20 15 4 10 -1 15
-14 15 -11 0 -20 -4 -20 -9 0 -5 -3 -17 -7 -27 -3 -9 -2 -15 3 -12 5 3 18 2
29 -2 l20 -8 -20 -8 c-11 -4 -24 -13 -28 -21 -9 -15 -37 -18 -37 -3 0 6 5 10
10 10 6 0 10 4 10 8 0 5 -40 8 -90 8 -85 -1 -109 5 -75 18 8 3 15 12 15 21 0
8 5 15 10 15 6 0 10 7 10 15 0 8 5 15 10 15 6 0 10 4 10 9 0 5 -9 7 -19 4 -12
-3 -17 -11 -14 -19 3 -8 -1 -14 -11 -14 -9 0 -19 -7 -22 -15 -4 -8 -15 -15
-25 -15 -10 0 -19 -7 -19 -15 0 -16 -49 -69 -57 -61 -7 7 54 78 81 93 12 7 17
12 12 13 -5 0 -3 6 3 13 16 20 7 24 -49 21 -28 -2 -50 1 -50 6 0 6 5 10 10 10
6 0 10 7 10 15 0 8 6 15 13 15 12 0 47 34 47 45 0 3 -11 5 -25 5 -14 0 -25 5
-25 10 0 6 7 10 16 10 8 0 13 4 9 9 -5 9 13 17 44 20 11 1 11 -2 1 -14z m1770
-279 c13 -33 37 -75 53 -93 16 -18 33 -49 37 -69 10 -42 30 -43 -169 9 -150
39 -181 60 -126 85 13 6 46 31 72 56 70 65 97 85 104 78 3 -4 16 -34 29 -66z
m-2259 -249 c22 -13 39 -50 39 -82 0 -32 -43 -81 -77 -88 -35 -7 -88 15 -102
41 -14 26 -14 77 -1 102 24 45 92 58 141 27z m-94 -203 c3 -8 1 -20 -6 -27
-28 -28 2 -87 44 -87 12 0 30 9 40 20 17 18 17 25 6 56 -10 28 -10 39 -1 47 9
9 16 6 31 -12 23 -28 25 -71 4 -110 -17 -34 -33 -41 -86 -41 -71 0 -108 68
-79 144 11 29 37 35 47 10z m133 -385 c0 -12 -8 -23 -20 -26 -15 -4 -20 -14
-20 -38 0 -25 5 -35 20 -40 21 -7 28 -45 8 -45 -10 0 -75 22 -210 72 -20 7
-28 17 -28 34 0 29 11 30 34 5 14 -15 22 -17 35 -10 22 14 153 67 169 68 6 1
12 -8 12 -20z m-132 -282 c7 -8 6 -18 -4 -31 -35 -49 9 -111 62 -88 32 15 40
38 26 75 -9 23 -9 34 0 45 10 12 15 11 30 -8 48 -60 0 -160 -77 -160 -75 0
-123 95 -79 158 17 25 27 27 42 9z m3565 -59 c73 3 88 -10 32 -28 -22 -7 -37
-19 -40 -33 -3 -12 -6 -139 -7 -282 -3 -239 -5 -263 -23 -294 -25 -42 -60 -69
-103 -77 -32 -7 -33 -6 -30 22 3 25 8 30 41 35 21 3 43 11 50 18 13 13 24 533
12 578 -3 14 -16 25 -33 29 -15 4 -30 12 -34 18 -12 19 3 27 35 19 18 -4 62
-7 100 -5z m552 -22 c146 -67 204 -254 127 -408 -106 -212 -415 -207 -518 9
-24 51 -26 65 -22 142 7 132 51 206 155 257 68 33 187 34 258 0z m-4007 -411
c31 -37 30 -98 -3 -130 -23 -24 -45 -30 -90 -25 -21 2 -115 91 -115 109 0 14
13 14 27 0 7 -7 14 -1 23 21 26 63 112 77 158 25z m2847 -642 c87 -164 169
-318 183 -343 l25 -44 16 34 c136 294 311 645 322 645 10 0 16 -19 22 -60 93
-732 88 -709 155 -730 19 -5 32 -16 32 -25 0 -14 -19 -16 -140 -15 -118 0
-140 2 -138 15 2 8 20 18 41 23 20 5 42 18 47 28 8 13 1 102 -20 301 -17 156
-33 284 -34 286 -3 2 -53 -100 -209 -427 -51 -107 -97 -196 -104 -198 -6 -2
-83 134 -174 308 -138 265 -164 309 -170 288 -4 -13 -15 -136 -24 -273 -16
-244 -16 -249 3 -275 10 -14 37 -31 58 -37 21 -6 39 -17 39 -24 0 -11 -28 -14
-132 -15 -102 -1 -133 2 -133 12 0 7 16 19 35 27 21 9 39 26 45 41 8 21 70
673 70 736 0 56 41 -6 185 -278z m934 112 c74 -189 93 -225 117 -225 8 0 14
-4 14 -10 0 -6 -29 -10 -67 -10 -66 0 -67 1 -46 18 l21 17 -25 68 -25 67 -73
0 -73 0 -17 -42 c-33 -82 -35 -97 -14 -103 39 -13 17 -25 -47 -25 -41 0 -63 4
-59 10 3 6 13 10 20 10 8 0 21 11 30 24 13 19 134 302 159 370 3 10 8 17 10
15 3 -2 36 -85 75 -184z m388 167 c52 -29 51 -117 -3 -173 l-26 -28 72 -96
c40 -53 82 -102 94 -110 20 -15 20 -15 -6 -15 -36 0 -76 36 -143 129 -53 74
-58 78 -93 76 l-37 -1 0 -79 c0 -47 5 -80 11 -82 6 -2 20 -10 30 -18 17 -13
11 -14 -59 -15 -50 0 -76 4 -72 10 3 6 13 10 20 10 28 0 35 40 35 202 0 169
-4 188 -42 188 -10 0 -18 4 -18 8 0 13 212 7 237 -6z m-4170 -547 c32 -32 35
-40 30 -73 -13 -77 -104 -109 -164 -58 -22 19 -28 32 -28 66 0 35 6 47 33 71
45 41 84 39 129 -6z"/>
<path d="M4316 1926 c-86 -32 -146 -127 -146 -232 0 -110 46 -191 132 -235 34
-17 55 -20 119 -17 67 3 83 7 121 33 65 45 98 118 98 214 -1 109 -42 187 -120
226 -46 24 -154 29 -204 11z"/>
<path d="M413 1535 c-27 -19 -31 -75 -7 -99 39 -39 107 -23 120 28 7 27 -12
70 -27 61 -5 -4 -8 -1 -7 7 4 19 -53 22 -79 3z"/>
<path d="M4557 1163 c-10 -10 -8 -156 2 -172 12 -19 79 -6 109 22 32 29 31
105 -1 135 -23 21 -94 31 -110 15z"/>
<path d="M412 620 c-31 -29 -29 -73 4 -99 35 -27 59 -26 89 4 66 65 -25 158
-93 95z"/>
<path d="M3761 6032 c110 -132 127 -157 112 -160 -8 -2 -12 -10 -9 -19 5 -13
4 -14 -9 -3 -12 10 -15 9 -15 -6 1 -31 42 -53 88 -49 l41 4 142 -152 c78 -84
176 -188 217 -232 100 -106 182 -209 182 -226 0 -11 -10 -14 -40 -11 -22 2
-42 8 -45 12 -3 5 5 6 17 3 25 -5 -67 50 -121 73 -57 24 -57 16 2 -42 31 -31
81 -93 112 -138 30 -44 70 -101 88 -126 19 -25 39 -62 46 -81 11 -34 59 -107
114 -174 14 -17 46 -61 71 -99 l45 -68 -30 -25 c-47 -40 -179 -208 -179 -229
0 -3 9 -4 21 -1 13 3 19 1 16 -6 -2 -7 -11 -12 -21 -12 -19 0 -38 -24 -29 -38
3 -5 9 -3 14 4 8 12 11 11 19 -1 7 -12 10 -12 10 -1 0 11 136 151 147 151 10
0 0 -30 -17 -48 -24 -26 -14 -29 18 -6 12 8 26 13 31 10 4 -3 34 10 66 29 31
19 62 35 67 35 18 0 62 -36 89 -73 16 -22 60 -74 98 -116 112 -124 203 -238
253 -319 47 -76 77 -173 93 -297 4 -27 11 -53 17 -56 7 -4 6 -14 -1 -28 -14
-25 -9 -27 13 -5 10 10 14 24 10 39 -3 14 0 26 8 32 23 13 60 72 53 83 -3 5
-2 10 3 10 5 0 10 12 10 27 -1 15 5 29 11 31 12 4 15 32 3 32 -4 0 -13 -5 -19
-11 -8 -8 -13 -8 -17 0 -4 6 -2 11 3 11 6 0 11 18 11 40 0 26 6 42 18 49 16
10 16 12 0 25 -22 16 -23 30 -4 45 11 9 14 9 13 -1 -1 -36 4 -48 23 -48 19 0
20 5 17 53 -4 54 -20 79 -25 39 -3 -20 -5 -20 -19 -7 -13 14 -12 17 9 34 26
22 20 38 -10 22 -17 -9 -19 -7 -14 14 3 18 0 25 -12 25 -21 0 -21 26 1 39 14
7 15 12 4 25 -7 8 -10 24 -6 35 10 31 -5 68 -31 80 -14 6 -31 24 -38 41 -9 22
-15 27 -23 19 -9 -9 -11 -5 -9 15 4 29 -19 37 -28 9 -2 -10 -2 -1 1 20 5 37 5
37 -21 27 -27 -10 -35 0 -13 18 18 16 100 3 93 -14 -3 -8 1 -14 9 -14 8 0 15
7 15 15 0 30 16 14 18 -17 4 -69 2 -92 -9 -99 -7 -4 5 -7 27 -6 21 0 45 7 53
15 13 13 11 14 -17 7 -21 -4 -32 -3 -32 4 0 6 6 11 13 11 6 0 13 11 13 25 2
21 -1 24 -12 14 -12 -9 -14 -4 -14 34 0 25 6 52 13 59 35 37 38 45 21 52 -12
5 -15 2 -10 -10 4 -12 2 -15 -9 -10 -10 3 -19 -4 -28 -22 -10 -24 -16 -27 -42
-21 -16 4 -23 7 -13 8 9 0 22 15 30 31 7 17 21 30 30 30 20 0 32 16 18 25 -5
3 -10 3 -10 -2 0 -4 -11 -13 -25 -19 -18 -9 -24 -9 -22 0 1 6 -11 12 -26 14
-24 3 -27 7 -21 25 5 18 4 20 -7 10 -19 -19 -29 -16 -29 7 0 11 -5 20 -11 20
-5 0 -7 5 -3 12 5 8 2 9 -11 4 -18 -7 -18 -6 0 14 21 23 15 26 -16 8 -17 -10
-23 -10 -26 0 -7 17 -23 15 -23 -4 0 -13 -4 -13 -31 3 -36 21 -63 50 -38 41
10 -4 16 -1 16 8 0 9 -6 13 -14 9 -8 -3 -23 0 -34 5 -13 8 -19 7 -19 0 0 -6
-12 -2 -26 9 -15 12 -35 21 -44 21 -10 0 -32 15 -50 33 -18 17 -30 26 -26 20
5 -8 1 -13 -9 -13 -9 0 -16 7 -15 18 3 31 -12 62 -31 62 -23 0 -45 -36 -26
-44 6 -3 -8 -5 -33 -4 -25 1 -54 8 -66 15 -12 7 -29 11 -38 7 -9 -3 -16 -1
-16 5 0 6 7 11 15 11 9 0 15 10 15 26 0 14 4 23 10 19 6 -3 10 1 10 9 0 9 5
16 10 16 6 0 10 -4 10 -8 0 -13 48 -33 55 -22 3 5 1 11 -5 15 -19 12 -10 22
15 17 14 -2 25 0 25 7 0 5 -6 8 -14 5 -8 -3 -17 -1 -20 4 -3 5 2 9 12 8 12 -1
18 8 20 32 3 26 0 32 -16 32 -11 0 -23 -8 -26 -17 -6 -15 -9 -14 -20 7 -11 21
-11 29 1 48 21 35 8 38 -27 8 -34 -28 -70 -34 -70 -12 0 14 -48 32 -58 21 -3
-3 2 -5 11 -5 25 0 21 -17 -5 -24 -36 -9 -78 -7 -78 4 0 6 10 10 22 10 16 0
19 3 11 11 -14 14 -53 2 -53 -17 0 -12 -6 -11 -29 5 -16 12 -34 21 -40 21 -6
0 -7 8 -4 17 5 12 2 15 -10 10 -14 -5 -17 0 -17 27 0 20 -6 36 -14 39 -8 3
-19 23 -26 44 -7 21 -28 62 -47 91 -19 29 -32 59 -29 67 3 8 2 14 -3 12 -4 -1
-51 41 -104 93 -79 78 -95 99 -90 118 5 21 -12 32 -19 12 -2 -6 -65 53 -140
132 -246 257 -401 414 -357 360z"/>
<path d="M3629 5903 c-22 -3 -26 -9 -27 -42 -1 -27 3 -41 14 -45 9 -3 14 -12
11 -19 -3 -8 4 -19 14 -25 17 -11 21 -9 29 10 5 13 9 17 9 9 1 -7 7 -11 16 -7
8 3 21 -1 29 -9 8 -8 19 -15 24 -15 6 0 12 -4 14 -10 3 -11 78 19 78 32 0 4
-18 18 -40 30 -21 13 -44 33 -50 46 -9 21 -67 54 -87 51 -4 -1 -20 -4 -34 -6z"/>
<path d="M5836 5652 c-38 -20 -90 -56 -116 -79 -26 -24 -72 -60 -103 -80 -30
-21 -96 -70 -148 -109 -52 -39 -121 -87 -154 -105 -53 -30 -69 -34 -132 -34
-39 0 -69 2 -67 4 10 10 -86 38 -112 33 -25 -5 -26 -6 -9 -12 19 -7 19 -8 -7
-31 -14 -13 -48 -28 -74 -34 -51 -11 -64 -25 -41 -46 8 -8 12 -23 9 -34 -5
-17 -3 -18 11 -7 9 8 17 28 19 45 3 28 7 32 36 35 18 2 32 -1 32 -7 0 -6 -4
-11 -10 -11 -5 0 -10 -5 -10 -11 0 -8 5 -7 16 2 13 10 17 10 24 -2 7 -10 14
-11 27 -3 13 7 25 7 43 -3 22 -11 22 -13 5 -13 -19 0 -19 0 0 -14 11 -7 27
-13 35 -14 52 -2 121 -41 165 -94 13 -15 31 -28 39 -28 9 0 16 -5 16 -11 0 -5
10 -9 23 -7 17 2 21 -1 19 -17 -2 -11 -1 -17 3 -13 4 4 16 3 26 -2 12 -7 20
-7 24 0 3 5 11 10 18 10 8 0 8 -3 -1 -12 -17 -17 -15 -29 3 -22 11 5 13 2 9
-10 -3 -9 -1 -16 6 -16 6 0 8 -4 5 -10 -3 -6 1 -7 9 -4 23 9 19 -13 -4 -26
-21 -11 -27 -30 -10 -30 6 0 19 9 30 20 12 12 26 18 32 14 7 -5 5 -12 -7 -21
-18 -12 -17 -13 6 -14 13 0 18 -3 12 -6 -7 -2 -13 -11 -13 -19 0 -9 5 -12 11
-9 5 4 15 -7 22 -24 8 -22 16 -30 27 -25 34 15 57 15 69 0 8 -9 11 -16 8 -16
-3 0 5 -11 18 -25 14 -13 25 -31 25 -38 0 -8 11 -18 25 -21 18 -5 25 -13 25
-31 0 -19 4 -23 16 -18 14 5 16 1 12 -19 -4 -19 -1 -25 9 -21 7 3 13 -2 13
-11 0 -9 8 -28 17 -42 10 -16 16 -42 14 -65 -1 -32 4 -44 26 -65 25 -23 27
-32 29 -107 2 -71 6 -85 26 -107 25 -26 58 -75 58 -85 0 -4 -8 -4 -18 -1 -16
6 -19 0 -20 -42 0 -26 3 -54 8 -62 7 -11 10 -4 10 23 0 20 4 37 9 37 6 0 9 -8
9 -17 -1 -10 6 -42 15 -71 16 -52 5 -64 -14 -15 -13 34 -29 19 -29 -28 0 -27
5 -42 16 -46 13 -5 15 -17 10 -74 -4 -43 -3 -69 3 -69 5 0 12 8 14 18 4 16 5
16 6 -1 0 -10 5 -16 9 -13 12 7 12 -36 0 -51 -5 -7 -8 -20 -4 -28 8 -22 36
-18 36 5 0 11 -5 20 -11 20 -8 0 -8 4 -2 13 15 19 13 57 -2 57 -17 0 -23 23
-22 85 0 28 2 39 5 26 3 -19 6 -21 13 -10 7 11 9 9 9 -8 0 -12 -4 -24 -9 -27
-5 -3 -7 -15 -4 -26 3 -11 10 -17 16 -13 5 3 7 1 3 -5 -6 -11 11 -28 20 -19 7
6 16 56 17 95 1 21 5 31 13 28 14 -5 25 76 12 85 -5 3 -6 18 -2 33 3 15 1 32
-6 40 -8 11 -8 20 -1 35 8 14 8 22 0 27 -6 3 -8 16 -5 27 3 12 1 26 -4 32 -5
6 -11 40 -14 75 -8 88 -11 103 -20 118 -4 7 -5 21 -1 31 4 14 0 21 -15 26 -14
4 -19 12 -16 22 4 9 -4 26 -19 41 -14 13 -25 33 -25 43 0 11 -4 19 -10 19 -5
0 -7 7 -4 15 4 8 1 22 -6 30 -7 8 -10 22 -6 30 3 9 0 18 -8 21 -9 4 -12 16 -9
35 3 22 0 29 -11 29 -20 0 -21 19 -1 26 8 4 15 11 15 16 0 6 -7 8 -15 4 -11
-4 -15 1 -15 17 0 21 -25 58 -71 103 -12 12 -19 27 -15 32 3 6 0 13 -6 15 -10
4 -10 6 0 6 6 1 12 8 12 16 0 11 -7 14 -24 11 -18 -3 -23 -1 -20 9 3 7 -3 16
-15 20 -25 7 -27 23 -6 31 8 4 15 11 15 16 0 6 -7 8 -14 5 -10 -4 -13 -1 -9 9
3 8 -1 14 -10 14 -19 0 -27 21 -20 50 4 16 2 21 -10 18 -24 -5 -24 23 0 47 15
16 14 17 -13 13 -27 -3 -29 -1 -25 27 1 17 8 33 15 37 8 5 7 8 -3 8 -11 0 -11
3 0 16 12 15 11 16 -11 10 -24 -7 -24 -7 5 19 28 24 28 25 7 20 l-24 -7 22 22
c16 16 19 24 10 30 -9 5 -9 9 -1 14 6 4 11 21 11 37 0 27 -2 29 -21 19 -36
-20 -30 -5 11 26 46 34 64 62 27 43 -12 -7 -38 -23 -57 -37 -26 -18 -28 -18
-10 -3 83 72 112 96 118 96 12 0 132 78 128 82 -2 3 -13 0 -24 -6 -12 -6 -23
-11 -25 -11 -8 0 -2 29 8 37 4 4 5 2 1 -4 -13 -23 9 -14 35 15 14 15 34 32 44
39 20 12 20 12 0 12 -11 0 -51 -17 -89 -37z"/>
<path d="M4648 5330 c-10 -6 -18 -16 -18 -23 0 -13 -54 -47 -75 -47 -10 0 -12
6 -8 18 6 15 5 16 -12 2 -11 -9 -16 -10 -11 -2 4 6 2 12 -3 12 -6 0 -11 -10
-11 -22 0 -12 3 -18 6 -15 4 3 18 -3 32 -14 l26 -20 13 23 12 23 1 -26 c0 -15
8 -37 19 -50 16 -20 21 -22 35 -9 33 27 39 49 21 86 -9 19 -21 34 -28 34 -6 0
-4 7 6 17 13 13 20 15 29 5 7 -7 21 -12 33 -12 11 -1 36 -7 56 -14 29 -10 37
-10 48 1 17 19 13 22 -40 27 -24 2 -60 7 -79 10 -19 3 -43 1 -52 -4z"/>
<path d="M4174 4632 c-93 -48 -190 -104 -215 -125 -24 -21 -70 -54 -101 -73
-32 -20 -58 -37 -58 -39 0 -2 27 9 59 26 72 35 86 37 40 6 -45 -30 -109 -67
-116 -67 -3 0 -3 7 1 15 7 20 -6 19 -35 -3 -13 -11 -73 -45 -134 -77 -95 -51
-223 -121 -344 -191 -18 -10 -45 -29 -59 -40 l-26 -21 21 -12 c25 -13 80 7
154 56 24 15 72 44 106 63 115 64 298 174 328 196 17 12 80 52 142 88 65 38
114 74 118 86 3 11 17 23 31 26 14 4 23 9 20 12 -3 3 26 25 65 49 39 24 73 43
75 41 3 -3 -83 -71 -144 -113 -44 -31 -80 -76 -75 -96 3 -11 -2 -38 -12 -60
-24 -52 -14 -59 17 -12 28 42 58 79 132 160 27 29 56 63 64 74 7 11 40 42 73
69 33 28 56 50 52 49 -4 0 -85 -39 -179 -87z"/>
<path d="M5351 3193 c-17 -15 -20 -24 -15 -50 4 -18 12 -34 18 -35 6 0 16 -2
21 -3 6 -2 14 -3 19 -4 19 -2 -37 -50 -65 -56 -16 -4 -29 -11 -29 -16 0 -9 80
19 90 31 10 13 69 32 79 25 6 -3 11 -2 11 4 0 6 13 8 33 4 l32 -6 -24 20 c-15
12 -20 22 -13 26 6 4 18 0 27 -9 9 -9 18 -14 21 -12 2 3 -5 13 -16 23 -28 25
-25 36 6 25 34 -13 39 -13 24 5 -7 8 -19 15 -26 15 -8 0 -14 5 -14 10 0 6 -20
10 -45 10 -38 0 -43 -3 -38 -17 5 -16 4 -15 -9 1 -10 13 -17 15 -22 8 -4 -7
-19 -12 -33 -12 -21 0 -24 2 -13 15 17 20 7 19 -19 -2z"/>
<path d="M3775 2865 c-191 -88 -210 -95 -238 -89 -20 4 -27 3 -23 -5 4 -6 0
-11 -8 -11 -9 0 -16 4 -16 10 0 5 -6 8 -12 6 -7 -3 -25 -7 -40 -10 -33 -8 -61
-49 -108 -161 -18 -44 -53 -127 -77 -185 -114 -271 -136 -333 -92 -261 19 32
21 32 39 16 10 -9 25 -15 32 -12 10 4 10 6 1 6 -25 2 -13 19 13 19 15 0 29 4
33 9 3 6 17 16 30 23 19 9 21 14 10 21 -11 7 -11 9 3 9 9 0 18 5 20 11 2 7 11
7 28 0 21 -8 22 -10 6 -10 -15 -1 -17 -4 -9 -12 16 -16 42 -4 53 26 5 14 14
25 20 25 5 0 10 7 10 15 0 20 6 19 31 -6 13 -13 27 -18 40 -14 11 4 19 2 19
-4 0 -6 11 -11 25 -11 14 0 25 6 25 14 0 8 8 12 23 9 13 -3 32 4 47 17 l25 22
3 -21 c2 -12 10 -21 18 -21 16 0 19 31 3 47 -7 7 7 11 48 12 59 2 154 18 119
20 -39 2 -6 13 45 15 29 1 54 6 56 13 3 7 24 9 58 7 47 -3 53 -1 49 14 -5 14
-3 14 10 -2 9 -11 18 -17 21 -14 8 7 -66 68 -82 68 -7 0 -12 5 -11 11 2 7 -16
26 -39 43 -23 17 -42 33 -42 36 -1 3 34 12 77 20 44 9 75 19 72 25 -3 6 -17 9
-32 8 -15 -2 -29 1 -32 6 -3 4 -44 6 -92 4 -90 -5 -138 1 -132 17 2 5 31 29
65 53 l62 44 -60 71 c-34 40 -62 72 -63 71 0 0 -14 -7 -31 -14z"/>
<path d="M2733 1890 c-9 -13 -1 -42 35 -133 25 -65 48 -117 51 -117 7 0 71
154 71 170 0 5 -10 10 -22 10 -13 0 -34 9 -48 20 -14 11 -32 20 -40 21 -10 0
-11 2 -2 6 6 2 12 12 12 21 0 23 -44 25 -57 2z"/>
</g>
</svg>
